<svg xmlns="http://www.w3.org/2000/svg" width="22.857" height="24" viewBox="0 0 22.857 24"><defs><style>.a{fill:#fff;}</style></defs><path class="a" d="M25.714,18H5.143A1.143,1.143,0,0,0,4,19.143V31.714a1.143,1.143,0,0,0,1.143,1.143H25.714a1.143,1.143,0,0,0,1.143-1.143V19.143A1.143,1.143,0,0,0,25.714,18ZM24.571,30.571H6.286V20.286H12a3.429,3.429,0,0,0,6.857,0h5.714Z" transform="translate(-4 -8.857)"/><path class="a" d="M8.143,12.286H25.286a1.143,1.143,0,0,0,0-2.286H8.143a1.143,1.143,0,1,0,0,2.286Z" transform="translate(-5.286 -5.429)"/><path class="a" d="M11.143,4.286H24.857a1.143,1.143,0,0,0,0-2.286H11.143a1.143,1.143,0,1,0,0,2.286Z" transform="translate(-6.571 -2)"/></svg>