<svg xmlns="http://www.w3.org/2000/svg" width="22.761" height="23.875" viewBox="0 0 22.761 23.875"><defs><style>.a{fill:#fff;}</style></defs><path class="a" d="M611.617-172.127a.808.808,0,0,1-.784-.833.8.8,0,0,1,.807-.784h2.294a.815.815,0,0,1,.808.834.805.805,0,0,1-.808.784h-2.317Z" transform="translate(-606.971 191.549)"/><path class="a" d="M611.617-175.465a.81.81,0,0,1-.784-.833.8.8,0,0,1,.807-.784h6.745a.814.814,0,0,1,.808.833.8.8,0,0,1-.807.784h-6.769Z" transform="translate(-606.971 191.549)"/><path class="a" d="M611.674-178.8a.808.808,0,0,1-.774-.783.81.81,0,0,1,.784-.833h6.668a.808.808,0,0,1,.774.783.81.81,0,0,1-.779.833Z" transform="translate(-606.971 191.549)"/><path class="a" d="M625.56-170.98a.811.811,0,0,1-.784-.833v-14.781H611.084a.815.815,0,0,1-.808-.834.8.8,0,0,1,.808-.783h14.045a1.3,1.3,0,0,1,.912.415,1.3,1.3,0,0,1,.352.939v15.089a.806.806,0,0,1-.808.787Z" transform="translate(-606.971 191.549)"/><path class="a" d="M628.9-174.319a.808.808,0,0,1-.783-.833v-14.78H614.423a.818.818,0,0,1-.589-.254.8.8,0,0,1-.219-.579.8.8,0,0,1,.807-.784h14.045a1.3,1.3,0,0,1,.913.415,1.3,1.3,0,0,1,.351.938s0,15.075,0,15.09a.806.806,0,0,1-.808.787Z" transform="translate(-606.971 191.549)"/><path class="a" d="M607.779-167.674a.81.81,0,0,1-.808-.809v-15.58a.81.81,0,0,1,.808-.809h14.468a.809.809,0,0,1,.808.809v15.58a.809.809,0,0,1-.808.809Zm.808-1.617h12.851v-13.964H608.587Z" transform="translate(-606.971 191.549)"/></svg>