<svg xmlns="http://www.w3.org/2000/svg" width="36.957" height="30.238" viewBox="0 0 36.957 30.238"><defs><style>.a{fill:#fff;}</style></defs><g transform="translate(-1406.666 -899.563)"><circle class="a" cx="1.197" cy="1.197" r="1.197" transform="translate(1411.851 904.784)"/><circle class="a" cx="1.197" cy="1.197" r="1.197" transform="translate(1417.035 904.784)"/><circle class="a" cx="1.197" cy="1.197" r="1.197" transform="translate(1422.22 904.784)"/><path class="a" d="M1413.25,916.92a1.2,1.2,0,0,1-.778-2.095l3.172-2.693-3.172-2.693a1.2,1.2,0,0,1,1.556-1.8l4.189,3.591a1.2,1.2,0,0,1,.106,1.69,1.336,1.336,0,0,1-.106.106l-4.189,3.59A1.137,1.137,0,0,1,1413.25,916.92Z" transform="translate(2.9 5.674)"/><path class="a" d="M1427.015,915.723h-5.985a1.2,1.2,0,0,1,0-2.394h5.985a1.2,1.2,0,1,1,0,2.394Z" transform="translate(7.79 6.247)"/><path class="a" d="M1441.943,899.563h-33.6a1.68,1.68,0,0,0-1.68,1.68v26.878a1.68,1.68,0,0,0,1.68,1.68h0a1.763,1.763,0,0,0,1.687-1.838c0-.031,0-.062-.007-.093V902.923h30.238v23.518h-21.838a1.68,1.68,0,0,0-1.7,1.662,1.679,1.679,0,0,0,1.782,1.7h23.434a1.68,1.68,0,0,0,1.68-1.68V901.243A1.68,1.68,0,0,0,1441.943,899.563Z" transform="translate(0 0)"/></g></svg>