<svg xmlns="http://www.w3.org/2000/svg" width="22" height="18" viewBox="0 0 22 18"><defs><style>.a{fill:#fff;}</style></defs><g transform="translate(-1406.666 -899.563)"><circle class="a" cx="1.197" cy="1.197" r="1.197" transform="translate(1410.257 902.489)"/><circle class="a" cx="1.197" cy="1.197" r="1.197" transform="translate(1413.548 902.489)"/><circle class="a" cx="1.197" cy="1.197" r="1.197" transform="translate(1416.655 902.489)"/><path class="a" d="M1412.958,914.586a.9.9,0,0,1-.586-1.579l2.391-2.03-2.391-2.03a.9.9,0,0,1,1.173-1.354l3.158,2.707a.9.9,0,0,1,.08,1.274,1.007,1.007,0,0,1-.08.08l-3.158,2.706A.857.857,0,0,1,1412.958,914.586Z" transform="translate(-1.519 -1.315)"/><path class="a" d="M1427.015,915.723h-5.985a1.2,1.2,0,0,1,0-2.394h5.985a1.2,1.2,0,1,1,0,2.394Z" transform="translate(-3.178 -2.549)"/><path class="a" d="M1427.666,899.563h-20a1,1,0,0,0-1,1v16a1,1,0,0,0,1,1h0a1.05,1.05,0,0,0,1-1.094c0-.018,0-.037,0-.055v-14.85h18v14h-13a1,1,0,0,0-1.011.989,1.038,1.038,0,0,0,.011.161,1.05,1.05,0,0,0,1.05.85h13.95a1,1,0,0,0,1-1v-16A1,1,0,0,0,1427.666,899.563Z"/></g></svg>