<svg xmlns="http://www.w3.org/2000/svg" width="23.526" height="26.996" viewBox="0 0 23.526 26.996"><defs><style>.a{fill:#fff;stroke:#fff;stroke-width:0.5px;}</style></defs><g transform="translate(0.276 0.264)"><path class="a" d="M29,6.208a4.234,4.234,0,1,0-5.447,4.031v.18a3.621,3.621,0,0,1-3.632,3.61H15.079a6.259,6.259,0,0,0-3.632,1.2V10.239a4.233,4.233,0,1,0-2.421,0v9.987a4.233,4.233,0,1,0,2.421,0v-.18a3.621,3.621,0,0,1,3.632-3.61h4.842a6.035,6.035,0,0,0,6.053-6.016v-.18A4.215,4.215,0,0,0,29,6.208Zm-20.579,0a1.816,1.816,0,1,1,1.816,1.8,1.81,1.81,0,0,1-1.816-1.8Zm3.632,18.049a1.816,1.816,0,1,1-1.816-1.8,1.761,1.761,0,0,1,1.3.51,1.739,1.739,0,0,1,.513,1.295ZM24.763,8.013a1.761,1.761,0,0,1-1.3-.51,1.739,1.739,0,0,1-.513-1.295,1.816,1.816,0,0,1,3.632,0A1.739,1.739,0,0,1,26.065,7.5,1.761,1.761,0,0,1,24.763,8.013Z" transform="translate(-5.999 -1.991)"/></g></svg>