<svg xmlns="http://www.w3.org/2000/svg" width="26.454" height="26.454" viewBox="0 0 26.454 26.454"><defs><style>.a{fill:none;stroke:#fff;stroke-linecap:round;stroke-linejoin:round;stroke-width:2px;}</style></defs><g transform="translate(-0.5 -0.5)"><path class="a" d="M21.615,16.058A5.558,5.558,0,1,1,16.058,10.5a5.558,5.558,0,0,1,5.558,5.558Z" transform="translate(-2.331 -2.331)"/><path class="a" d="M18,1.5V3.723" transform="translate(-4.273 0)"/><path class="a" d="M18,31.5v2.223" transform="translate(-4.273 -7.769)"/><path class="a" d="M6.33,6.33,7.908,7.908" transform="translate(-1.251 -1.251)"/><path class="a" d="M27.54,27.54l1.578,1.578" transform="translate(-6.744 -6.744)"/><path class="a" d="M1.5,18H3.723" transform="translate(0 -4.273)"/><path class="a" d="M31.5,18h2.223" transform="translate(-7.769 -4.273)"/><path class="a" d="M6.33,29.118,7.908,27.54" transform="translate(-1.251 -6.744)"/><path class="a" d="M27.54,7.908,29.118,6.33" transform="translate(-6.744 -1.251)"/></g></svg>