<svg xmlns="http://www.w3.org/2000/svg" width="20.571" height="24" viewBox="0 0 20.571 24"><defs><style>.a{fill:#fff;}</style></defs><path class="a" d="M16.286,3a6.286,6.286,0,1,0,6.286,6.286A6.286,6.286,0,0,0,16.286,3Zm0,10.286a4,4,0,1,1,4-4A4,4,0,0,1,16.286,13.286Zm9.771,7.429a17.886,17.886,0,0,0-9.771-2.857,18.343,18.343,0,0,0-9.771,2.8L6,21v4.857A1.143,1.143,0,0,0,7.143,27H25.429a1.143,1.143,0,0,0,1.143-1.143V21Zm-1.771,4h-16V22.257a16.229,16.229,0,0,1,8-2.114,15.714,15.714,0,0,1,8,2.171Z" transform="translate(-6 -3)"/></svg>