<svg xmlns="http://www.w3.org/2000/svg" width="23" height="25.673" viewBox="0 0 23 25.673"><defs><style>.a{fill:#fff;}</style></defs><g transform="translate(176.446 217.61)"><path class="a" d="M-154.255-204.414a2.648,2.648,0,0,0-1.851-.74,2.653,2.653,0,0,0-1.707.61c-.17.143-.333.293-.5.451l-.246.225-.147.133-.125-.154-.2-.246c-.15-.188-.291-.366-.443-.535a.612.612,0,0,1-.121-.646.9.9,0,0,1,.944-.751l.109,0,.054,0a2.183,2.183,0,0,0,.309-.031l.165-.023,1.051-.122.281-.033v-3.868l-.5-.059c-.53-.063-1.029-.123-1.537-.151a.806.806,0,0,1-.834-.673.564.564,0,0,1,.087-.727c.374-.445.741-.905,1.1-1.349l.3-.373-2.728-2.749-.365.288c-.384.3-.781.612-1.142.945a1.008,1.008,0,0,1-.692.32,1.052,1.052,0,0,1-.518-.154.635.635,0,0,1-.4-.558c-.045-.576-.112-1.163-.176-1.731-.019-.167-.038-.333-.056-.5h-3.868c-.019.162-.039.322-.058.482-.064.519-.124,1.008-.15,1.508a.879.879,0,0,1-.645.9,1,1,0,0,1-.345.071.664.664,0,0,1-.487-.221,3.576,3.576,0,0,0-.318-.266c-.052-.039-.1-.079-.154-.12l-1.175-.949-2.74,2.738c.022.029.045.059.069.088l.375.464c.331.408.661.816.986,1.228a.591.591,0,0,1,.127.458c-.173.687-.341.83-1.056.9-.029,0-.059,0-.088.005s-.045,0-.067,0l-1.767.191v3.86c.083.013.163.025.243.033l.671.069c.444.045.887.089,1.329.14a.64.64,0,0,1,.455.2.944.944,0,0,1-.032,1.351c-.32.395-.639.791-.971,1.2l-.333.415,1.687,1.636-3.988,3.98,5.411,5.308.138-.134c.092-.089.183-.179.272-.268.228-.227.443-.441.681-.644a1.021,1.021,0,0,1,.607-.244q1.49-.012,2.979-.01l2.222,0a5.876,5.876,0,0,0,4.387-1.834c1.185-1.2,2.4-2.418,3.579-3.591q.888-.887,1.776-1.775a5.159,5.159,0,0,0,.364-.406A2.661,2.661,0,0,0-154.255-204.414Zm-18.971-3.152-.729-.077v-1.118l.168-.019.45-.051c.331-.038.673-.078,1.013-.107.631-.053.631-.053.818-.591l.037-.1a13.473,13.473,0,0,1,.712-1.585l.113-.226c.061-.123.052-.134-.007-.2-.318-.38-.621-.758-.941-1.159l-.474-.589.837-.751,1.785,1.438.125-.078a3.892,3.892,0,0,1,.572-.315,15.95,15.95,0,0,1,1.666-.6c.191-.055.215-.1.228-.277.035-.462.085-.932.134-1.386.02-.188.076-.736.076-.736h1.116l.178,1.6c.005.04.012.08.019.119a1.141,1.141,0,0,1,.023.33c-.027.225.022.316.351.374a5.3,5.3,0,0,1,2.079.884.311.311,0,0,0,.149.066.294.294,0,0,0,.158-.09c.358-.31.733-.608,1.1-.9.147-.117.294-.234.439-.351l.129-.1.812.77-.471.583c-.315.391-.612.76-.923,1.132-.1.114-.091.14-.027.234a6.028,6.028,0,0,1,.957,2.317c.021.112.031.128.15.136.345.022.693.06,1.03.1.251.028.5.055.754.076a.508.508,0,0,1,.369.157.455.455,0,0,1,.085.354,2.434,2.434,0,0,0,0,.322c0,.057,0,.115,0,.175v.17l-.735.077c-.469.05-.913.1-1.366.135-.216.018-.27.063-.305.251a5.878,5.878,0,0,1-.935,2.225c-.067.1-.067.117.009.207.317.377.628.768.929,1.146l.459.574-.779.8-.569-.458c-.39-.311-.792-.633-1.181-.958-.063-.051-.084-.052-.084-.052s-.018,0-.058.034a2.1,2.1,0,0,1-1.363.4h-.046c-.172,0-.343,0-.515,0-.5,0-1,.006-1.5.011s-1,.012-1.5.012c-.245,0-.49,0-.735-.005a1.54,1.54,0,0,1-.772-.329l-.076-.05a.285.285,0,0,0-.139-.058c-.013,0-.052,0-.15.083-.361.309-.739.612-1.1.9l-.581.467-.757-.82.1-.127.632-.795c.055-.068.108-.137.162-.206.139-.179.283-.365.444-.536.107-.114.11-.15.023-.277a5.614,5.614,0,0,1-.924-2.233c-.026-.159-.07-.192-.272-.21C-172.311-207.468-172.755-207.516-173.226-207.566Zm17.88,5.924c-1.788,1.795-3.71,3.722-5.648,5.648a4.13,4.13,0,0,1-3.024,1.217h-.689l-2.565,0c-.981,0-1.733-.005-2.44-.016h-.04a1.178,1.178,0,0,0-1.008.437c-.255.3-.22.176-.22.176l-3.148-3.17s.037.01.447-.4c.859-.857,1.747-1.744,2.614-2.622a4.285,4.285,0,0,1,3.179-1.356h.076q.756.011,1.51.01.615,0,1.23,0c.41,0,.821,0,1.231,0h.429a1.123,1.123,0,0,1,1.149.929,1.153,1.153,0,0,1-.244.948,1.191,1.191,0,0,1-.922.4c-.992,0-1.984,0-2.976,0h-1.435v1.543h2.582l1.585,0a3.154,3.154,0,0,0,2.428-1.078c1.122-1.19,2.306-2.356,3.45-3.485l.834-.822a1.216,1.216,0,0,1,.857-.362,1.1,1.1,0,0,1,.795.331A1.136,1.136,0,0,1-155.346-201.642Z"/><path class="a" d="M-166.1-204.528h.025a3.68,3.68,0,0,0,3.675-3.635,3.672,3.672,0,0,0-1.076-2.632,3.657,3.657,0,0,0-2.613-1.1,3.679,3.679,0,0,0-3.67,3.636,3.684,3.684,0,0,0,1.053,2.643A3.657,3.657,0,0,0-166.1-204.528Zm-1.529-5.171a2.153,2.153,0,0,1,1.543-.65h.007a2.154,2.154,0,0,1,2.149,2.145,2.186,2.186,0,0,1-2.152,2.156,2.175,2.175,0,0,1-2.164-2.135A2.107,2.107,0,0,1-167.624-209.7Z"/></g></svg>