<svg xmlns="http://www.w3.org/2000/svg" width="21.883" height="22.917" viewBox="0 0 21.883 22.917"><defs><style>.a{fill:#fff;}</style></defs><path class="a" d="M22.417,24.042A1.042,1.042,0,0,0,21.375,23H13.042a1.042,1.042,0,1,0,0,2.083h8.333A1.042,1.042,0,0,0,22.417,24.042Z" transform="translate(-7.833 -12.062)"/><path class="a" d="M13.042,31a1.042,1.042,0,1,0,0,2.083h4.167a1.042,1.042,0,1,0,0-2.083Z" transform="translate(-7.833 -15.896)"/><path class="a" d="M20.667,23.792H6.083V6.083h5.208a1.042,1.042,0,0,0,1.042-1.042h0A1.042,1.042,0,0,0,11.292,4H5.042A1.042,1.042,0,0,0,4,5.042V24.833a1.042,1.042,0,0,0,1.042,1.042H21.708a1.042,1.042,0,0,0,1.042-1.042V16.5a1.042,1.042,0,0,0-1.042-1.042h0A1.042,1.042,0,0,0,20.667,16.5Z" transform="translate(-4 -2.958)"/><path class="a" d="M29.4,12.729,26.74,10.073a5.052,5.052,0,0,0,.885-2.865,5.208,5.208,0,1,0-10.417,0,5.156,5.156,0,0,0,.26,1.563H13.042a1.042,1.042,0,1,0,0,2.083h5.677a5.26,5.26,0,0,0,3.7,1.563,5.052,5.052,0,0,0,2.865-.885l2.656,2.656A1.032,1.032,0,1,0,29.4,12.729Zm-10.1-5.521a3.125,3.125,0,1,1,3.125,3.125,3.125,3.125,0,0,1-3.125-3.125Z" transform="translate(-7.833 -2)"/></svg>