<svg xmlns="http://www.w3.org/2000/svg" width="23" height="22.927" viewBox="0 0 23 22.927"><defs><style>.a{fill:#fff;}</style></defs><g transform="translate(-1174.74 -266.643)"><g transform="translate(1174.74 266.643)"><g transform="translate(0)"><path class="a" d="M1177.911,289.57a3.175,3.175,0,0,1-3.171-3.172V269.815a3.175,3.175,0,0,1,3.171-3.172h8.292a1.329,1.329,0,0,1,0,2.658h-8.292a.515.515,0,0,0-.514.514V286.4a.514.514,0,0,0,.514.513h8.292a1.329,1.329,0,0,1,0,2.658Z" transform="translate(-1174.74 -266.643)"/></g></g><g transform="translate(1182.111 271.25)"><g transform="translate(0 0)"><path class="a" d="M1210.568,297.312a1.329,1.329,0,0,1-.933-2.275l3.3-3.253H1203.2a1.329,1.329,0,0,1,0-2.658h9.734l-3.3-3.253a1.329,1.329,0,1,1,1.866-1.892l5.6,5.528a1.321,1.321,0,0,1,.4.946,1.34,1.34,0,0,1-.4.945l-5.6,5.528A1.318,1.318,0,0,1,1210.568,297.312Z" transform="translate(-1201.869 -283.599)"/></g></g></g></svg>