<svg xmlns="http://www.w3.org/2000/svg" xmlns:xlink="http://www.w3.org/1999/xlink" width="1390" height="1389.957" viewBox="0 0 1390 1389.957"><defs><style>.a{stroke:#707070;mix-blend-mode:multiply;isolation:isolate;fill:url(#a);}.b{fill:#fff;opacity:0.202;}.c{stroke:none;}.d{fill:none;}</style><linearGradient id="a" y1="0.5" x2="0.987" y2="0.5" gradientUnits="objectBoundingBox"><stop offset="0" stop-color="#0091da"/><stop offset="1" stop-color="#00c4d9"/></linearGradient></defs><g transform="translate(15 304)"><g class="a" transform="translate(-15 -13)"><rect class="c" width="1390" height="793"/><rect class="d" x="0.5" y="0.5" width="1389" height="792"/></g><path class="b" d="M1137.761,426.425c0-272.74-212.934-472.585-504.4-472.585C274.675-46.16,3.749,234.032,3.749,602.062c0,384.825,295.173,706.137,678.145,741.735V854.223c-179.343-16.8-302.624-149.382-302.624-324.98,0-170.038,113.938-293.358,270.887-293.358,143.822,0,240.965,89.691,240.965,222.354,0,117.683-74.672,194.324-209.227,214.864V854.223C958.379,846.849,1137.761,678.7,1137.761,426.425Z" transform="translate(149.245 -257.84)"/></g></svg>