<svg xmlns="http://www.w3.org/2000/svg" width="23" height="25.306" viewBox="0 0 23 25.306"><defs><style>.a{fill:#fff;}</style></defs><path class="a" d="M26.022,2.573A1.15,1.15,0,0,0,24.7,3.723V5.966a12.65,12.65,0,0,0-18.457.057H5.15A1.15,1.15,0,0,0,4,7.173v5.75a1.15,1.15,0,0,0,1.15,1.15H10.9a1.15,1.15,0,0,0,1.15-1.15V7.173a1.15,1.15,0,0,0-1.15-1.15H9.807A10.235,10.235,0,0,1,15.5,4.3a10.35,10.35,0,0,1,7.7,3.45H20.732a1.207,1.207,0,0,0-1.207.977,1.15,1.15,0,0,0,1.15,1.322H25.85A1.15,1.15,0,0,0,27,8.9V3.781a1.207,1.207,0,0,0-.977-1.207ZM9.75,11.773H6.3V8.323H9.75Z" transform="translate(-4 -1.996)"/><path class="a" d="M25.849,27H20.1a1.15,1.15,0,0,0-1.15,1.15V33.9a1.035,1.035,0,0,0,.46.92,9.89,9.89,0,0,1-3.91.8,10.35,10.35,0,0,1-7.7-3.45h2.472a1.207,1.207,0,0,0,1.207-.977,1.15,1.15,0,0,0-1.15-1.322H5.15A1.15,1.15,0,0,0,4,31.025v5.117a1.207,1.207,0,0,0,.977,1.207A1.15,1.15,0,0,0,6.3,36.2V33.957A12.592,12.592,0,0,0,23.492,35.05h2.357A1.15,1.15,0,0,0,27,33.9V28.15A1.15,1.15,0,0,0,25.849,27Zm-4.6,2.3H24.7v3.45H21.25Z" transform="translate(-4 -12.623)"/></svg>