<?xml version="1.0" standalone="no"?>
<!DOCTYPE svg PUBLIC "-//W3C//DTD SVG 1.1//EN" "http://www.w3.org/Graphics/SVG/1.1/DTD/svg11.dtd" >
<svg xmlns="http://www.w3.org/2000/svg" xmlns:xlink="http://www.w3.org/1999/xlink" version="1.1">
<metadata>
Created by FontForge 20170812 at Mon May 18 20:25:52 2015
 By www-data
Copyright (c) 2012 by Fontsmith Ltd. All rights reserved.
</metadata>
<defs>
<font id="FSElliotPro-Light" horiz-adv-x="572" >
  <font-face 
    font-family="FS Elliot Pro Light"
    font-weight="300"
    font-stretch="normal"
    units-per-em="1000"
    panose-1="2 0 5 3 4 0 0 2 0 4"
    ascent="750"
    descent="-250"
    x-height="483"
    cap-height="672"
    bbox="-170 -269 1190 1008"
    underline-thickness="40"
    underline-position="-100"
    stemh="39"
    stemv="48"
    unicode-range="U+000D-FB04"
  />
<missing-glyph horiz-adv-x="500" 
d="M12 0v672h476v-672h-476zM88 624l162 -244l162 244h-324zM60 580v-488l162 244zM440 580l-162 -244l162 -244v488zM412 48l-162 244l-162 -244h324z" />
    <glyph glyph-name="fi" unicode="fi" horiz-adv-x="554" 
d="M135 0v444h-106v39h106v81c0 89 69 152 162 152c42 0 87 -8 139 -25l-10 -38c-48 15 -88 23 -124 23c-68 0 -119 -47 -119 -113v-80h284v-483h-48v444h-236v-444h-48z" />
    <glyph glyph-name="fl" unicode="fl" horiz-adv-x="602" 
d="M135 0v444h-106v39h106v81c0 91 68 152 163 152c51 0 106 -8 169 -18v-604c0 -41 25 -65 65 -65c14 0 31 2 50 7l7 -39c-24 -6 -46 -9 -65 -9c-64 0 -105 40 -105 102v574c-40 7 -80 12 -118 12c-70 0 -118 -45 -118 -113v-80h149v-39h-149v-444h-48z" />
    <glyph glyph-name="f_f" unicode="ff" horiz-adv-x="660" 
d="M135 0v444h-106v39h106v102c0 77 55 131 133 131c29 0 59 -4 89 -13l-8 -39c-26 8 -49 11 -72 11c-55 0 -94 -38 -94 -93v-99h252v102c0 77 55 131 133 131c28 0 58 -4 89 -13l-8 -39c-26 8 -50 11 -72 11c-56 0 -94 -38 -94 -93v-99h148v-39h-148v-444h-48v444h-252
v-444h-48z" />
    <glyph glyph-name="f_f_i" unicode="ffi" horiz-adv-x="854" 
d="M135 0v444h-106v39h106v102c0 77 55 131 133 131c29 0 59 -4 89 -13l-8 -39c-26 8 -49 11 -72 11c-55 0 -94 -38 -94 -93v-99h252v81c0 89 68 152 161 152c42 0 88 -8 140 -25l-11 -38c-47 15 -87 23 -123 23c-69 0 -119 -47 -119 -113v-80h283v-483h-48v444h-235v-444
h-48v444h-252v-444h-48z" />
    <glyph glyph-name="f_j" unicode="fj" horiz-adv-x="554" 
d="M135 0v444h-106v39h106v81c0 89 69 152 162 152c42 0 87 -8 139 -25l-10 -38c-48 15 -88 23 -124 23c-68 0 -119 -47 -119 -113v-80h284v-572c0 -77 -55 -131 -133 -131c-29 0 -59 4 -89 13l8 39c26 -8 49 -11 72 -11c55 0 94 38 94 93v530h-236v-444h-48z" />
    <glyph glyph-name="f_f_j" unicode="ffj" horiz-adv-x="854" 
d="M135 0v444h-106v39h106v102c0 77 55 131 133 131c29 0 59 -4 89 -13l-8 -39c-26 8 -49 11 -72 11c-55 0 -94 -38 -94 -93v-99h252v81c0 89 68 152 161 152c42 0 88 -8 140 -25l-11 -38c-47 15 -87 23 -123 23c-69 0 -119 -47 -119 -113v-80h283v-572
c0 -77 -55 -131 -133 -131c-28 0 -58 4 -88 13l7 39c26 -8 50 -11 73 -11c55 0 93 38 93 93v530h-235v-444h-48v444h-252v-444h-48z" />
    <glyph glyph-name="f_f_l" unicode="ffl" horiz-adv-x="902" 
d="M135 0v444h-106v39h106v102c0 77 55 131 133 131c29 0 59 -4 89 -13l-8 -39c-26 8 -49 11 -72 11c-55 0 -94 -38 -94 -93v-99h252v81c0 91 67 152 163 152c50 0 106 -8 168 -18v-604c0 -41 26 -65 66 -65c13 0 31 2 50 7l7 -39c-25 -6 -46 -9 -66 -9
c-63 0 -105 40 -105 102v574c-39 7 -79 12 -117 12c-70 0 -118 -45 -118 -113v-80h148v-39h-148v-444h-48v444h-252v-444h-48z" />
    <glyph glyph-name="f_b" unicode="fb" horiz-adv-x="903" 
d="M135 0v444h-106v39h106v81c0 91 68 152 163 152c51 0 106 -8 169 -18v-305c33 65 94 102 170 102c126 0 216 -105 216 -254c0 -148 -90 -253 -216 -253c-77 0 -139 38 -173 104l-6 -92h-39v664c-40 7 -80 12 -118 12c-70 0 -118 -45 -118 -113v-80h149v-39h-149v-444h-48
zM804 241c0 125 -73 214 -176 214c-95 0 -162 -71 -162 -170v-87c0 -99 67 -170 162 -170c103 0 176 89 176 213z" />
    <glyph glyph-name="f_f_b" unicode="ffb" horiz-adv-x="1203" 
d="M135 0v444h-106v39h106v102c0 77 55 131 133 131c29 0 59 -4 89 -13l-8 -39c-26 8 -49 11 -72 11c-55 0 -94 -36 -94 -93v-99h252v81c0 91 67 152 163 152c50 0 106 -8 168 -18v-305c25 44 62 76 109 90c23 8 48 11 74 10c98 -5 173 -77 195 -184c6 -25 8 -53 7 -81
c-4 -140 -93 -240 -214 -240c-77 0 -140 38 -174 104l-6 -92h-39v664c-39 7 -79 12 -117 12c-70 0 -118 -45 -118 -113v-80h148v-39h-148v-444h-48v444h-252v-444h-48zM1104 241c0 125 -74 214 -176 214c-96 0 -162 -71 -162 -170v-87c0 -99 66 -170 162 -170
c102 0 176 89 176 213z" />
    <glyph glyph-name="f_h" unicode="fh" horiz-adv-x="903" 
d="M135 0v444h-106v39h106v81c0 91 68 152 163 152c51 0 106 -8 169 -18v-313c31 69 98 110 177 110c104 0 180 -73 180 -176v-319h-48v313c0 83 -60 141 -144 141c-94 0 -165 -72 -165 -177v-277h-48v664c-40 7 -80 12 -118 12c-70 0 -118 -45 -118 -113v-80h149v-39h-149
v-444h-48z" />
    <glyph glyph-name="f_f_h" unicode="ffh" horiz-adv-x="1203" 
d="M135 0v444h-106v39h106v102c0 77 55 131 133 131c29 0 59 -4 89 -13l-8 -39c-26 8 -49 11 -72 11c-55 0 -94 -36 -94 -93v-99h252v81c0 91 67 152 163 152c50 0 106 -8 168 -18v-313c32 69 98 110 177 110c105 0 180 -73 180 -176v-319h-47v313c0 83 -61 141 -144 141
c-95 0 -166 -72 -166 -177v-277h-48v664c-39 7 -79 12 -117 12c-70 0 -118 -45 -118 -113v-80h148v-39h-148v-444h-48v444h-252v-444h-48z" />
    <glyph glyph-name="f_k" unicode="fk" horiz-adv-x="826" 
d="M135 0v444h-106v39h106v81c0 91 68 152 163 152c50 0 105 -7 167 -18v-476l260 261h58l-224 -226l232 -257h-58l-206 228l-62 -61v-167h-46v664c-40 7 -80 12 -118 12c-70 0 -118 -45 -118 -113v-80h149v-39h-149v-444h-48z" />
    <glyph glyph-name="f_f_k" unicode="ffk" horiz-adv-x="1126" 
d="M135 0v444h-106v39h106v102c0 77 55 131 133 131c29 0 59 -4 89 -13l-8 -39c-26 8 -49 11 -72 11c-55 0 -94 -38 -94 -93v-99h252v81c0 91 67 152 163 152c50 0 105 -7 167 -18v-476l260 261h58l-225 -226l233 -257h-58l-206 228l-62 -61v-167h-47v664
c-39 7 -79 12 -117 12c-70 0 -118 -45 -118 -113v-80h148v-39h-148v-444h-48v444h-252v-444h-48z" />
    <glyph glyph-name=".notdef" horiz-adv-x="500" 
d="M12 0v672h476v-672h-476zM88 624l162 -244l162 244h-324zM60 580v-488l162 244zM440 580l-162 -244l162 -244v488zM412 48l-162 244l-162 -244h324z" />
    <glyph glyph-name=".null" horiz-adv-x="0" 
 />
    <glyph glyph-name=".null" horiz-adv-x="0" 
 />
    <glyph glyph-name="CR" unicode="&#xd;" horiz-adv-x="240" 
 />
    <glyph glyph-name="space" unicode=" " horiz-adv-x="240" 
 />
    <glyph glyph-name="nbspace" unicode="&#xa0;" horiz-adv-x="240" 
 />
    <glyph glyph-name="A" unicode="A" horiz-adv-x="663" 
d="M30 0l278 672h47l278 -672h-51l-82 200h-337l-82 -200h-51zM332 613l-154 -374h307z" />
    <glyph glyph-name="B" unicode="B" horiz-adv-x="646" 
d="M110 0v672h258c110 0 189 -71 189 -171c0 -70 -42 -129 -109 -154c83 -21 133 -86 133 -168c0 -108 -83 -179 -197 -179h-274zM158 326v-287h220c91 0 154 59 154 144c0 84 -63 143 -154 143h-220zM158 633v-271h205c85 0 146 56 146 135c0 80 -61 136 -146 136h-205z
" />
    <glyph glyph-name="C" unicode="C" horiz-adv-x="643" 
d="M57 336c0 206 131 348 321 348c73 0 149 -24 218 -72l-22 -35c-59 42 -126 65 -191 65c-164 0 -276 -124 -276 -306s112 -306 276 -306c65 0 132 23 191 65l22 -35c-69 -48 -145 -72 -218 -72c-190 0 -321 143 -321 348z" />
    <glyph glyph-name="D" unicode="D" horiz-adv-x="711" 
d="M110 0v672h206c201 0 338 -136 338 -336c0 -198 -137 -336 -338 -336h-206zM604 336c0 174 -120 295 -293 295h-152v-590h152c173 0 293 121 293 295z" />
    <glyph glyph-name="E" unicode="E" horiz-adv-x="595" 
d="M110 0v672h411v-40h-362v-268h330v-40h-330v-284h378v-40h-427z" />
    <glyph glyph-name="F" unicode="F" horiz-adv-x="579" 
d="M110 0v672h411v-41h-362v-291h330v-41h-330v-299h-49z" />
    <glyph glyph-name="G" unicode="G" horiz-adv-x="695" 
d="M621 334v-293c-74 -34 -150 -53 -227 -53c-199 0 -337 144 -337 348s134 348 329 348c75 0 151 -23 226 -65l-20 -36c-69 39 -136 60 -201 60c-169 0 -286 -126 -286 -307c0 -180 120 -307 292 -307c62 0 123 13 178 39v227h-181v39h227z" />
    <glyph glyph-name="H" unicode="H" horiz-adv-x="759" 
d="M110 0v672h49v-308h441v308h49v-672h-49v324h-441v-324h-49z" />
    <glyph glyph-name="I" unicode="I" horiz-adv-x="269" 
d="M110 0v672h49v-672h-49z" />
    <glyph glyph-name="J" unicode="J" horiz-adv-x="438" 
d="M328 672v-509c0 -103 -73 -175 -177 -175c-42 0 -80 6 -123 17l8 40c37 -10 71 -15 106 -15c80 0 137 56 137 136v506h49z" />
    <glyph glyph-name="K" unicode="K" horiz-adv-x="652" 
d="M110 0v672h48v-378l377 378h60l-313 -314l328 -358h-61l-301 327l-90 -89v-238h-48z" />
    <glyph glyph-name="L" unicode="L" horiz-adv-x="531" 
d="M110 0v672h49v-631h343v-41h-392z" />
    <glyph glyph-name="M" unicode="M" horiz-adv-x="847" 
d="M110 0v672h49l265 -358l264 358h49v-672h-46v603l-252 -343h-31l-252 343v-603h-46z" />
    <glyph glyph-name="N" unicode="N" horiz-adv-x="759" 
d="M110 0v672h49l444 -603v603h46v-672h-49l-444 603v-603h-46z" />
    <glyph glyph-name="O" unicode="O" horiz-adv-x="759" 
d="M57 336c0 204 133 348 323 348c189 0 322 -144 322 -348s-133 -348 -322 -348c-190 0 -323 144 -323 348zM107 336c0 -179 113 -307 273 -307c159 0 272 128 272 307s-113 307 -272 307c-160 0 -273 -128 -273 -307z" />
    <glyph glyph-name="P" unicode="P" horiz-adv-x="614" 
d="M110 0v672h238c127 0 217 -84 217 -203s-90 -203 -217 -203h-190v-266h-48zM158 631v-325h185c101 0 173 67 173 163c0 95 -72 162 -173 162h-185z" />
    <glyph glyph-name="Q" unicode="Q" horiz-adv-x="759" 
d="M57 336c0 204 133 348 323 348c189 0 322 -144 322 -348c0 -140 -62 -251 -162 -306l176 -129l-26 -32l-192 141c-36 -14 -76 -22 -118 -22c-190 0 -323 144 -323 348zM107 336c0 -179 113 -307 273 -307c159 0 272 128 272 307s-113 307 -272 307
c-160 0 -273 -128 -273 -307z" />
    <glyph glyph-name="R" unicode="R" horiz-adv-x="646" 
d="M110 0v672h240c122 0 208 -81 208 -195c0 -104 -71 -180 -178 -190l204 -287h-56l-198 282h-172v-282h-48zM158 631v-309h186c97 0 166 62 166 155c0 91 -69 154 -166 154h-186z" />
    <glyph glyph-name="S" unicode="S" horiz-adv-x="574" 
d="M61 512c0 102 92 172 226 172c64 0 132 -15 205 -45l-13 -39c-68 28 -132 43 -189 43c-108 0 -180 -54 -180 -131c0 -204 406 -97 406 -348c0 -105 -92 -176 -229 -176c-68 0 -146 18 -230 53l13 39c77 -30 152 -51 214 -51c111 0 184 55 184 135
c0 208 -407 102 -407 348z" />
    <glyph glyph-name="T" unicode="T" horiz-adv-x="595" 
d="M273 0v631h-244v41h537v-41h-244v-631h-49z" />
    <glyph glyph-name="U" unicode="U" horiz-adv-x="759" 
d="M657 672v-420c0 -155 -118 -264 -277 -264c-160 0 -278 109 -278 264v420h49v-418c0 -132 97 -225 229 -225c131 0 228 93 228 225v418h49z" />
    <glyph glyph-name="V" unicode="V" horiz-adv-x="663" 
d="M633 672l-278 -672h-47l-278 672h52l250 -609l249 609h52z" />
    <glyph glyph-name="W" unicode="W" horiz-adv-x="999" 
d="M957 672l-216 -672h-50l-191 609l-192 -609h-50l-216 672h50l192 -609l192 609h48l191 -609l192 609h50z" />
    <glyph glyph-name="X" unicode="X" horiz-adv-x="671" 
d="M43 0l261 344l-249 328h56l225 -295l224 295h56l-249 -328l261 -344h-57l-235 311l-236 -311h-57z" />
    <glyph glyph-name="Y" unicode="Y" horiz-adv-x="588" 
d="M269 0v295l-247 377h55l217 -332l216 332h56l-248 -377v-295h-49z" />
    <glyph glyph-name="Z" unicode="Z" horiz-adv-x="622" 
d="M57 0v30l430 601h-418v41h483v-30l-429 -601h441v-41h-507z" />
    <glyph glyph-name="a" unicode="a" horiz-adv-x="529" 
d="M50 129c0 100 82 158 219 158c37 0 76 -4 117 -14v64c0 71 -53 119 -130 119c-53 0 -105 -11 -162 -35l-13 36c62 26 120 38 179 38c102 0 173 -65 173 -158v-260c0 -31 19 -50 50 -50c9 0 20 2 28 4l5 -38c-13 -3 -29 -5 -43 -5c-48 0 -82 32 -82 82v18
c-32 -63 -98 -100 -176 -100c-94 0 -165 60 -165 141zM98 131c0 -60 55 -106 126 -106c97 0 162 68 162 167v48c-40 10 -76 15 -113 15c-110 0 -175 -46 -175 -124z" />
    <glyph glyph-name="b" unicode="b" 
d="M87 0v704h48v-311c34 65 95 102 171 102c125 0 215 -105 215 -254c0 -148 -90 -253 -215 -253c-78 0 -140 38 -174 104l-6 -92h-39zM473 241c0 125 -74 214 -177 214c-95 0 -162 -71 -162 -170v-87c0 -99 67 -170 162 -170c103 0 177 89 177 213z" />
    <glyph glyph-name="c" unicode="c" horiz-adv-x="486" 
d="M50 241c0 149 97 254 234 254c56 0 111 -18 162 -54l-21 -34c-43 31 -88 47 -136 47c-111 0 -190 -87 -190 -213c0 -125 79 -212 190 -212c48 0 93 16 136 47l21 -35c-51 -35 -106 -53 -162 -53c-137 0 -234 105 -234 253z" />
    <glyph glyph-name="d" unicode="d" 
d="M484 704v-704h-39l-6 92c-34 -66 -96 -104 -173 -104c-126 0 -216 105 -216 253c0 149 90 254 216 254c76 0 137 -37 170 -102v311h48zM99 241c0 -124 73 -213 176 -213c96 0 162 71 162 170v87c0 99 -66 170 -162 170c-103 0 -176 -89 -176 -214z" />
    <glyph glyph-name="e" unicode="e" horiz-adv-x="529" 
d="M50 241c0 149 93 254 226 254c124 0 210 -100 210 -244v-20h-388c4 -121 85 -205 199 -205c45 0 96 14 149 42l16 -35c-59 -31 -119 -45 -170 -45c-141 0 -242 105 -242 253zM276 456c-100 0 -171 -77 -178 -192h342c-2 114 -68 192 -164 192z" />
    <glyph glyph-name="f" unicode="f" horiz-adv-x="361" 
d="M135 0v444h-106v39h106v102c0 77 55 131 133 131c29 0 59 -4 89 -13l-8 -39c-26 8 -49 11 -72 11c-55 0 -94 -38 -94 -93v-99h149v-39h-149v-444h-48z" />
    <glyph glyph-name="g" unicode="g" 
d="M484 483v-503c0 -117 -93 -200 -224 -200c-52 0 -114 13 -179 41l15 38c60 -26 116 -39 161 -39c105 0 179 65 179 158v112c-33 -65 -94 -102 -170 -102c-126 0 -216 105 -216 253c0 149 90 254 216 254c77 0 139 -38 173 -105l6 93h39zM99 241c0 -124 73 -213 176 -213
c96 0 162 71 162 170v87c0 99 -66 170 -162 170c-103 0 -176 -89 -176 -214z" />
    <glyph glyph-name="h" unicode="h" 
d="M87 0v704h48v-319c32 69 98 110 177 110c105 0 180 -73 180 -176v-319h-48v313c0 83 -60 141 -143 141c-95 0 -166 -72 -166 -177v-277h-48z" />
    <glyph glyph-name="i" unicode="i" horiz-adv-x="222" 
d="M87 0v483h48v-483h-48zM74 637c0 22 15 38 37 38s38 -16 38 -38s-16 -37 -38 -37s-37 15 -37 37z" />
    <glyph glyph-name="j" unicode="j" horiz-adv-x="230" 
d="M143 483v-572c0 -77 -55 -131 -133 -131c-28 0 -58 4 -89 13l8 39c26 -8 50 -11 72 -11c56 0 94 38 94 93v569h48zM82 637c0 22 15 38 37 38s38 -16 38 -38s-16 -37 -38 -37s-37 15 -37 37z" />
    <glyph glyph-name="k" unicode="k" horiz-adv-x="494" 
d="M87 0v704h47v-482l260 261h58l-225 -226l233 -257h-58l-207 228l-61 -61v-167h-47z" />
    <glyph glyph-name="l" unicode="l" horiz-adv-x="270" 
d="M135 704v-610c0 -41 26 -65 66 -65c13 0 31 2 49 7l7 -39c-24 -6 -46 -9 -65 -9c-64 0 -105 39 -105 102v614h48z" />
    <glyph glyph-name="m" unicode="m" horiz-adv-x="897" 
d="M87 0v483h39l6 -97c31 69 95 109 172 109c79 0 142 -46 163 -117c32 73 98 117 178 117c101 0 172 -71 172 -168v-327h-47v321c0 77 -57 133 -136 133c-92 0 -158 -70 -158 -169v-285h-48v321c0 77 -56 133 -135 133c-92 0 -158 -70 -158 -169v-285h-48z" />
    <glyph glyph-name="n" unicode="n" 
d="M87 0v483h39l6 -101c32 71 100 113 180 113c105 0 180 -73 180 -176v-319h-48v313c0 83 -60 141 -143 141c-95 0 -166 -72 -166 -177v-277h-48z" />
    <glyph glyph-name="o" unicode="o" 
d="M50 241c0 149 98 254 236 254s235 -105 235 -254c0 -148 -97 -253 -235 -253s-236 105 -236 253zM99 241c0 -125 77 -213 187 -213c109 0 187 88 187 213c0 126 -78 214 -187 214c-110 0 -187 -88 -187 -214z" />
    <glyph glyph-name="p" unicode="p" 
d="M87 -208v691h39l6 -93c34 67 96 105 174 105c125 0 215 -105 215 -254c0 -148 -90 -253 -215 -253c-76 0 -137 37 -171 102v-298h-48zM473 241c0 125 -74 214 -177 214c-95 0 -162 -71 -162 -170v-87c0 -99 67 -170 162 -170c103 0 177 89 177 213z" />
    <glyph glyph-name="q" unicode="q" 
d="M484 483v-691h-48v298c-33 -65 -94 -102 -170 -102c-126 0 -216 105 -216 253c0 149 90 254 216 254c77 0 139 -38 173 -105l6 93h39zM99 241c0 -124 73 -213 176 -213c96 0 162 71 162 170v87c0 99 -66 170 -162 170c-103 0 -176 -89 -176 -214z" />
    <glyph glyph-name="r" unicode="r" horiz-adv-x="372" 
d="M87 0v483h39l6 -102c23 68 82 110 156 110c19 0 41 -3 62 -9l-7 -40c-19 5 -40 8 -58 8c-89 0 -150 -74 -150 -181v-269h-48z" />
    <glyph glyph-name="s" unicode="s" horiz-adv-x="441" 
d="M54 367c0 75 68 128 166 128c48 0 100 -11 154 -33l-12 -37c-49 21 -96 31 -139 31c-72 0 -122 -36 -122 -89c0 -140 289 -64 289 -247c0 -78 -69 -132 -170 -132c-51 0 -109 12 -170 37l12 37c56 -24 109 -36 155 -36c76 0 126 38 126 94c0 144 -289 68 -289 247z" />
    <glyph glyph-name="t" unicode="t" horiz-adv-x="393" 
d="M183 627v-144h165v-39h-165v-322c0 -55 39 -93 94 -93c23 0 46 3 72 11l8 -39c-30 -9 -60 -13 -89 -13c-78 0 -133 54 -133 131v325h-106v39h106v144h48z" />
    <glyph glyph-name="u" unicode="u" 
d="M484 483v-483h-39l-6 100c-31 -71 -99 -112 -179 -112c-105 0 -181 73 -181 176v319h48v-313c0 -83 60 -141 144 -141c95 0 165 72 165 177v277h48z" />
    <glyph glyph-name="v" unicode="v" horiz-adv-x="508" 
d="M476 483l-200 -483h-45l-200 483h50l173 -426l172 426h50z" />
    <glyph glyph-name="w" unicode="w" horiz-adv-x="764" 
d="M724 483l-159 -483h-48l-135 424l-135 -424h-49l-159 483h49l135 -424l135 424h47l135 -424l136 424h48z" />
    <glyph glyph-name="x" unicode="x" horiz-adv-x="508" 
d="M36 0l187 247l-179 236h55l155 -204l154 204h55l-179 -236l187 -247h-55l-162 215l-162 -215h-56z" />
    <glyph glyph-name="y" unicode="y" horiz-adv-x="508" 
d="M476 483l-230 -567c-38 -95 -80 -136 -151 -136c-17 0 -39 3 -62 8l8 40c19 -5 37 -7 51 -7c52 0 81 30 111 105l31 77l-203 480h50l176 -426l169 426h50z" />
    <glyph glyph-name="z" unicode="z" horiz-adv-x="473" 
d="M50 0v29l301 415h-293v39h356v-29l-300 -415h308v-39h-372z" />
    <glyph glyph-name="ampersand" unicode="&#x26;" horiz-adv-x="633" 
d="M568 0l-93 100c-58 -72 -133 -112 -210 -112c-126 0 -216 79 -216 191c0 81 57 147 164 204c-54 55 -92 100 -92 160c0 83 65 141 158 141c87 0 150 -55 150 -132c0 -66 -40 -115 -152 -178l198 -213c29 48 44 104 44 162h42c0 -70 -20 -138 -56 -194l119 -129h-56z
M94 182c0 -91 74 -155 174 -155c67 0 132 37 180 102l-211 228c-92 -52 -143 -108 -143 -175zM279 645c-68 0 -114 -42 -114 -103c0 -49 36 -90 87 -140c97 53 133 94 133 147c0 56 -44 96 -106 96z" />
    <glyph glyph-name="at" unicode="@" horiz-adv-x="966" 
d="M57 241c0 261 182 446 438 446c241 0 414 -164 414 -396c0 -159 -73 -268 -181 -268c-57 0 -98 37 -104 90c-30 -56 -83 -90 -153 -90c-109 0 -188 92 -188 218c0 127 79 218 188 218c67 0 118 -32 146 -86l5 76h40v-308c0 -48 26 -80 70 -80c81 0 135 91 135 227
c0 212 -156 360 -372 360c-232 0 -396 -168 -396 -407c0 -238 164 -407 396 -407c77 0 161 25 249 74l20 -34c-96 -51 -186 -78 -269 -78c-256 0 -438 184 -438 445zM330 241c0 -104 63 -178 150 -178c82 0 135 62 135 143v71c0 82 -53 143 -135 143
c-87 0 -150 -74 -150 -179z" />
    <glyph glyph-name="exclam" unicode="!" horiz-adv-x="252" 
d="M106 201l-5 471h50l-5 -471h-40zM88 29c0 22 16 37 38 37s37 -15 37 -37s-15 -38 -37 -38c-23 0 -38 16 -38 38z" />
    <glyph glyph-name="exclamdown" unicode="&#xa1;" horiz-adv-x="252" 
d="M146 282l5 -471h-50l5 471h40zM163 454c0 -22 -15 -38 -37 -38s-38 16 -38 38s16 38 38 38c23 0 37 -16 37 -38z" />
    <glyph glyph-name="question" unicode="?" horiz-adv-x="454" 
d="M231 201h-40v11c0 125 163 169 163 292c0 81 -59 138 -142 138c-54 0 -103 -19 -156 -55l-20 36c56 40 119 61 181 61c109 0 185 -73 185 -175c0 -144 -168 -190 -171 -300v-8zM173 30c0 22 16 36 38 36s37 -14 37 -36s-15 -39 -37 -39s-38 17 -38 39z" />
    <glyph glyph-name="questiondown" unicode="&#xbf;" horiz-adv-x="390" 
d="M215 282h40v-11c0 -125 -163 -169 -163 -292c0 -81 58 -138 142 -138c53 0 103 19 156 55l20 -36c-57 -40 -119 -61 -182 -61c-108 0 -184 73 -184 175c0 144 167 190 170 300zM272 454c0 -22 -15 -38 -37 -38s-38 16 -38 38s16 38 38 38s37 -16 37 -38z" />
    <glyph glyph-name="asterisk" unicode="*" horiz-adv-x="486" 
d="M261 672v-173l164 54l12 -35l-166 -54l102 -140l-29 -21l-101 141l-102 -141l-29 21l102 140l-165 54l12 35l164 -54v173h36z" />
    <glyph glyph-name="period" unicode="." horiz-adv-x="236" 
d="M78 31c0 23 17 40 40 40s40 -17 40 -40s-17 -40 -40 -40s-40 17 -40 40z" />
    <glyph glyph-name="comma" unicode="," horiz-adv-x="236" 
d="M78 31c0 23 16 40 40 40c27 0 45 -24 45 -62c0 -67 -36 -128 -98 -169l-17 23c50 38 74 80 74 131c-24 -3 -44 14 -44 37z" />
    <glyph glyph-name="colon" unicode=":" horiz-adv-x="252" 
d="M86 31c0 23 17 40 40 40s40 -17 40 -40s-17 -40 -40 -40s-40 17 -40 40zM86 451c0 23 17 40 40 40s40 -17 40 -40s-17 -40 -40 -40s-40 17 -40 40z" />
    <glyph glyph-name="semicolon" unicode=";" horiz-adv-x="252" 
d="M86 31c0 23 16 40 40 40c27 0 45 -24 45 -62c0 -67 -36 -128 -98 -169l-17 23c50 38 74 80 74 131c-24 -3 -44 14 -44 37zM86 451c0 23 17 40 40 40s40 -17 40 -40s-17 -40 -40 -40s-40 17 -40 40z" />
    <glyph glyph-name="ellipsis" unicode="&#x2026;" horiz-adv-x="960" 
d="M120 31c0 23 17 40 40 40s40 -17 40 -40s-17 -40 -40 -40s-40 17 -40 40zM440 31c0 23 17 40 40 40s40 -17 40 -40s-17 -40 -40 -40s-40 17 -40 40zM760 31c0 23 17 40 40 40s40 -17 40 -40s-17 -40 -40 -40s-40 17 -40 40z" />
    <glyph glyph-name="periodcentered" unicode="&#xb7;" horiz-adv-x="236" 
d="M78 247c0 23 17 40 40 40s40 -17 40 -40s-17 -40 -40 -40s-40 17 -40 40z" />
    <glyph glyph-name="uni22C5" unicode="&#x22c5;" horiz-adv-x="236" 
d="M78 247c0 23 17 40 40 40s40 -17 40 -40s-17 -40 -40 -40s-40 17 -40 40z" />
    <glyph glyph-name="bullet" unicode="&#x2022;" horiz-adv-x="480" 
d="M96 288c0 80 64 144 144 144s144 -64 144 -144s-64 -144 -144 -144s-144 64 -144 144z" />
    <glyph glyph-name="slash" unicode="/" horiz-adv-x="384" 
d="M20 -123l304 835l40 -13l-304 -835z" />
    <glyph glyph-name="parenleft" unicode="(" horiz-adv-x="329" 
d="M87 288c0 163 59 314 168 433l34 -25c-104 -110 -157 -254 -157 -408s53 -298 157 -408l-34 -25c-109 118 -168 269 -168 433z" />
    <glyph glyph-name="brokenbar" unicode="&#xa6;" horiz-adv-x="240" 
d="M99 688h42v-384h-42v384zM141 -176h-42v384h42v-384z" />
    <glyph glyph-name="parenright" unicode=")" horiz-adv-x="329" 
d="M241 288c0 -163 -58 -314 -167 -433l-35 25c104 110 157 254 157 408s-53 298 -157 408l35 25c109 -118 167 -269 167 -433z" />
    <glyph glyph-name="bracketleft" unicode="[" horiz-adv-x="329" 
d="M116 -131v838h170v-41h-125v-756h125v-41h-170z" />
    <glyph glyph-name="backslash" unicode="\" horiz-adv-x="384" 
d="M324 -136l-304 835l40 13l304 -835z" />
    <glyph glyph-name="bracketright" unicode="]" horiz-adv-x="329" 
d="M212 707v-838h-170v41h125v756h-125v41h170z" />
    <glyph glyph-name="braceleft" unicode="{" horiz-adv-x="329" 
d="M39 268v40h16c53 0 91 40 91 95c0 53 -15 114 -15 171c0 78 56 133 131 133h24v-41h-16c-53 0 -93 -39 -93 -99c0 -52 13 -112 13 -167c0 -52 -25 -96 -73 -112c48 -16 73 -60 73 -112c0 -55 -13 -114 -13 -167c0 -60 40 -99 93 -99h16v-41h-24c-75 0 -131 55 -131 133
c0 57 15 116 15 171c0 54 -37 95 -91 95h-16z" />
    <glyph glyph-name="bar" unicode="|" horiz-adv-x="240" 
d="M99 -224v960h42v-960h-42z" />
    <glyph glyph-name="braceright" unicode="}" horiz-adv-x="329" 
d="M289 308v-40h-16c-52 0 -90 -40 -90 -95c0 -53 15 -114 15 -171c0 -78 -57 -133 -131 -133h-25v41h16c54 0 94 39 94 99c0 52 -14 112 -14 167c0 52 26 96 74 112c-48 16 -74 60 -74 112c0 55 14 114 14 167c0 60 -40 99 -94 99h-16v41h25c74 0 131 -55 131 -133
c0 -57 -15 -116 -15 -171c0 -54 37 -95 90 -95h16z" />
    <glyph glyph-name="hyphen" unicode="-" horiz-adv-x="320" 
d="M29 228v39h262v-39h-262z" />
    <glyph glyph-name="uni00AD" unicode="&#xad;" horiz-adv-x="320" 
d="M55 228v39h262v-39h-262z" />
    <glyph glyph-name="endash" unicode="&#x2013;" horiz-adv-x="480" 
d="M29 228v39h422v-39h-422z" />
    <glyph glyph-name="emdash" unicode="&#x2014;" horiz-adv-x="960" 
d="M29 228v39h902v-39h-902z" />
    <glyph glyph-name="underscore" unicode="_" horiz-adv-x="480" 
d="M0 -148v40h480v-40h-480z" />
    <glyph glyph-name="dagger" unicode="&#x2020;" horiz-adv-x="486" 
d="M223 0v455h-178v39h178v178h39v-178h179v-39h-179v-455h-39z" />
    <glyph glyph-name="daggerdbl" unicode="&#x2021;" horiz-adv-x="486" 
d="M223 0v178h-178v39h178v238h-178v39h178v178h39v-178h179v-39h-179v-238h179v-39h-179v-178h-39z" />
    <glyph glyph-name="section" unicode="&#xa7;" horiz-adv-x="521" 
d="M73 533c0 90 79 151 195 151c56 0 117 -14 182 -41l-13 -39c-60 25 -116 39 -166 39c-91 0 -150 -44 -150 -110c0 -170 347 -81 347 -297c0 -57 -32 -103 -87 -128c41 -25 71 -64 71 -125c0 -95 -80 -155 -200 -155c-59 0 -128 15 -199 44l12 39c67 -27 131 -42 184 -42
c94 0 155 43 155 114c0 173 -347 86 -347 297c0 57 33 104 92 127c-45 24 -76 63 -76 126zM105 282c0 -110 134 -115 230 -154c52 18 85 57 85 106c0 108 -127 117 -222 152c-57 -15 -93 -54 -93 -104z" />
    <glyph glyph-name="paragraph" unicode="&#xb6;" 
d="M311 274h-46c-125 0 -216 82 -216 199c0 116 91 199 216 199h197v-832h-42v790h-109v-356z" />
    <glyph glyph-name="registered" unicode="&#xae;" horiz-adv-x="832" 
d="M48 336c0 216 152 368 368 368s368 -152 368 -368s-152 -368 -368 -368s-368 152 -368 368zM78 336c0 -198 140 -338 338 -338s338 140 338 338s-140 338 -338 338s-338 -140 -338 -338zM286 128v416h153c76 0 132 -50 132 -122c0 -65 -44 -112 -108 -119l122 -175h-44
l-115 171h-103v-171h-37zM323 512v-182h112c58 0 98 36 98 91c0 54 -40 91 -98 91h-112z" />
    <glyph glyph-name="copyright" unicode="&#xa9;" horiz-adv-x="832" 
d="M48 336c0 216 152 368 368 368s368 -152 368 -368s-152 -368 -368 -368s-368 152 -368 368zM78 336c0 -198 140 -338 338 -338s338 140 338 338s-140 338 -338 338s-338 -140 -338 -338zM226 336c0 127 82 216 202 216c45 0 93 -15 137 -45l-19 -28
c-36 26 -75 39 -114 39c-99 0 -166 -74 -166 -182s67 -182 166 -182c39 0 78 13 114 39l19 -28c-44 -30 -92 -45 -137 -45c-120 0 -202 89 -202 216z" />
    <glyph glyph-name="trademark" unicode="&#x2122;" horiz-adv-x="935" 
d="M175 256v383h-149v33h338v-33h-150v-383h-39zM465 256v416h40l157 -214l158 214h40v-416h-37v362l-149 -202h-24l-149 202v-362h-36z" />
    <glyph glyph-name="quotedblleft" unicode="&#x201c;" horiz-adv-x="413" 
d="M158 492c0 -23 -17 -40 -40 -40c-28 0 -45 24 -45 62c0 67 35 128 98 169l17 -23c-50 -38 -74 -81 -74 -131c23 3 44 -14 44 -37zM336 492c0 -23 -17 -40 -40 -40c-28 0 -45 24 -45 62c0 67 35 128 98 169l17 -23c-50 -38 -74 -81 -74 -131c23 3 44 -14 44 -37z" />
    <glyph glyph-name="quotedblright" unicode="&#x201d;" horiz-adv-x="413" 
d="M78 641c0 23 16 40 40 40c27 0 45 -24 45 -62c0 -67 -36 -128 -98 -169l-17 23c50 38 74 80 74 131c-24 -3 -44 14 -44 37zM255 641c0 23 16 40 40 40c27 0 45 -24 45 -62c0 -67 -36 -128 -98 -169l-17 23c50 38 74 80 74 131c-24 -3 -44 14 -44 37z" />
    <glyph glyph-name="quoteleft" unicode="&#x2018;" horiz-adv-x="236" 
d="M158 492c0 -23 -17 -40 -40 -40c-28 0 -45 24 -45 62c0 67 35 128 98 169l17 -23c-50 -38 -74 -81 -74 -131c23 3 44 -14 44 -37z" />
    <glyph glyph-name="quoteright" unicode="&#x2019;" horiz-adv-x="236" 
d="M78 641c0 23 16 40 40 40c27 0 45 -24 45 -62c0 -67 -36 -128 -98 -169l-17 23c50 38 74 80 74 131c-24 -3 -44 14 -44 37z" />
    <glyph glyph-name="guillemotleft" unicode="&#xab;" horiz-adv-x="509" 
d="M31 235v25l197 219l29 -24l-178 -208l178 -207l-29 -24zM240 235v25l197 219l29 -24l-178 -208l178 -207l-29 -24z" />
    <glyph glyph-name="guillemotright" unicode="&#xbb;" horiz-adv-x="509" 
d="M269 260v-25l-198 -219l-29 24l179 207l-179 208l29 24zM478 260v-25l-198 -219l-29 24l179 207l-179 208l29 24z" />
    <glyph glyph-name="guilsinglleft" unicode="&#x2039;" horiz-adv-x="300" 
d="M31 235v25l197 219l29 -24l-178 -208l178 -207l-29 -24z" />
    <glyph glyph-name="guilsinglright" unicode="&#x203a;" horiz-adv-x="300" 
d="M269 260v-25l-198 -219l-29 24l179 207l-179 208l29 24z" />
    <glyph glyph-name="quotesinglbase" unicode="&#x201a;" horiz-adv-x="204" 
d="M78 31c0 23 16 40 40 40c27 0 45 -24 45 -62c0 -67 -36 -128 -98 -169l-17 23c50 38 74 80 74 131c-24 -3 -44 14 -44 37z" />
    <glyph glyph-name="quotedblbase" unicode="&#x201e;" horiz-adv-x="413" 
d="M78 31c0 23 16 40 40 40c27 0 45 -24 45 -62c0 -67 -36 -128 -98 -169l-17 23c50 38 74 80 74 131c-24 -3 -44 14 -44 37zM255 31c0 23 16 40 40 40c27 0 45 -24 45 -62c0 -67 -36 -128 -98 -169l-17 23c50 38 74 80 74 131c-24 -3 -44 14 -44 37z" />
    <glyph glyph-name="arrowleft" unicode="&#x2190;" horiz-adv-x="960" 
d="M928 266h-814l264 -259l-33 -32l-313 313l313 313l33 -32l-264 -259h814v-44z" />
    <glyph glyph-name="arrowup" unicode="&#x2191;" horiz-adv-x="960" 
d="M458 -160v814l-259 -264l-32 33l313 313l313 -313l-32 -33l-259 264v-814h-44z" />
    <glyph glyph-name="arrowright" unicode="&#x2192;" horiz-adv-x="960" 
d="M32 310h814l-264 259l33 32l313 -313l-313 -313l-33 32l264 259h-814v44z" />
    <glyph glyph-name="arrowdown" unicode="&#x2193;" horiz-adv-x="960" 
d="M502 736v-814l259 264l32 -33l-313 -313l-313 313l32 33l259 -264v814h44z" />
    <glyph glyph-name="grave" unicode="`" horiz-adv-x="240" 
d="M15 701l159 -110l-19 -28l-164 105z" />
    <glyph glyph-name="acute" unicode="&#xb4;" horiz-adv-x="240" 
d="M252 668l-164 -105l-20 28l160 110z" />
    <glyph glyph-name="dieresis" unicode="&#xa8;" horiz-adv-x="240" 
d="M-16 637c0 21 15 35 36 35s35 -14 35 -35s-14 -35 -35 -35s-36 14 -36 35zM185 637c0 21 14 35 35 35s36 -14 36 -35s-15 -35 -36 -35s-35 14 -35 35z" />
    <glyph glyph-name="circumflex" unicode="&#x2c6;" horiz-adv-x="240" 
d="M-18 589l121 118h34l121 -118l-23 -25l-115 107l-115 -107z" />
    <glyph glyph-name="tilde" unicode="&#x2dc;" horiz-adv-x="240" 
d="M56 675c43 0 91 -39 125 -39c21 0 37 14 45 39l34 -11c-10 -38 -39 -64 -76 -64c-43 0 -91 38 -125 38c-21 0 -38 -14 -45 -38l-34 10c10 38 39 65 76 65z" />
    <glyph glyph-name="macron" unicode="&#xaf;" horiz-adv-x="240" 
d="M-22 619v36h284v-36h-284z" />
    <glyph glyph-name="breve" unicode="&#x2d8;" horiz-adv-x="240" 
d="M-18 691h35c3 -56 46 -95 103 -95s100 39 103 95h35c-3 -79 -61 -132 -138 -132s-135 53 -138 132z" />
    <glyph glyph-name="dotaccent" unicode="&#x2d9;" horiz-adv-x="240" 
d="M83 637c0 22 15 37 37 37s37 -15 37 -37s-15 -37 -37 -37s-37 15 -37 37z" />
    <glyph glyph-name="ring" unicode="&#x2da;" horiz-adv-x="240" 
d="M26 637c0 55 39 92 94 92s94 -37 94 -92c0 -54 -37 -92 -92 -92c-56 0 -96 38 -96 92zM55 637c0 -39 28 -65 67 -65c37 0 63 26 63 65s-27 65 -65 65c-39 0 -65 -26 -65 -65z" />
    <glyph glyph-name="cedilla" unicode="&#xb8;" horiz-adv-x="240" 
d="M146 0l-11 -64c43 -4 75 -37 75 -77c0 -47 -43 -79 -101 -79c-26 0 -57 5 -86 16l11 31c25 -9 51 -14 71 -14c37 0 65 19 65 50c0 29 -28 49 -67 49h-9l16 88h36z" />
    <glyph glyph-name="hungarumlaut" unicode="&#x2dd;" horiz-adv-x="240" 
d="M337 696l-141 -138l-26 25l138 142zM160 696l-142 -138l-25 25l138 142z" />
    <glyph glyph-name="ogonek" unicode="&#x2db;" horiz-adv-x="240" 
d="M119 13l25 -13c-59 -46 -98 -91 -98 -135c0 -33 25 -52 54 -52c15 0 31 3 45 10l8 -31c-20 -8 -41 -12 -61 -12c-47 0 -84 29 -84 78c0 53 42 105 111 155z" />
    <glyph glyph-name="caron" unicode="&#x2c7;" horiz-adv-x="240" 
d="M258 686l-121 -119h-34l-121 119l23 24l115 -106l115 106z" />
    <glyph glyph-name="commaaccent" unicode="&#xf6c3;" horiz-adv-x="240" 
d="M85 -105c0 21 14 35 35 35c24 0 40 -20 40 -54c0 -58 -30 -110 -85 -145l-15 21c40 31 62 67 62 110c-20 -3 -37 12 -37 33z" />
    <glyph glyph-name="grave.sc" unicode="&#xe4c0;" horiz-adv-x="240" 
d="M15 733l159 -110l-19 -28l-164 105z" />
    <glyph glyph-name="acute.sc" unicode="&#xe4c1;" horiz-adv-x="240" 
d="M252 700l-164 -105l-20 28l160 110z" />
    <glyph glyph-name="dieresis.sc" unicode="&#xe4c5;" horiz-adv-x="240" 
d="M-16 669c0 21 15 35 36 35s35 -14 35 -35s-14 -35 -35 -35s-36 14 -36 35zM185 669c0 21 14 35 35 35s36 -14 36 -35s-15 -35 -36 -35s-35 14 -35 35z" />
    <glyph glyph-name="circumflex.sc" unicode="&#xe4c2;" horiz-adv-x="240" 
d="M-18 621l121 118h34l121 -118l-23 -25l-115 107l-115 -107z" />
    <glyph glyph-name="tilde.sc" unicode="&#xe4c4;" horiz-adv-x="240" 
d="M56 707c43 0 91 -39 125 -39c21 0 37 14 45 39l34 -11c-10 -38 -39 -64 -76 -64c-43 0 -91 38 -125 38c-21 0 -38 -14 -45 -38l-34 10c10 38 39 65 76 65z" />
    <glyph glyph-name="macron.sc" unicode="&#xe4c6;" horiz-adv-x="240" 
d="M-22 651v36h284v-36h-284z" />
    <glyph glyph-name="breve.sc" unicode="&#xe4c7;" horiz-adv-x="240" 
d="M-18 723h35c3 -56 46 -95 103 -95s100 39 103 95h35c-3 -79 -61 -132 -138 -132s-135 53 -138 132z" />
    <glyph glyph-name="dotaccent.sc" unicode="&#xe4ca;" horiz-adv-x="240" 
d="M83 669c0 22 15 37 37 37s37 -15 37 -37s-15 -37 -37 -37s-37 15 -37 37z" />
    <glyph glyph-name="ring.sc" unicode="&#xe4c8;" horiz-adv-x="240" 
d="M26 669c0 55 39 92 94 92s94 -37 94 -92c0 -54 -37 -92 -92 -92c-56 0 -96 38 -96 92zM55 669c0 -39 28 -65 67 -65c37 0 63 26 63 65s-27 65 -65 65c-39 0 -65 -26 -65 -65z" />
    <glyph glyph-name="hungarumlaut.sc" unicode="&#xe4c9;" horiz-adv-x="240" 
d="M337 728l-141 -138l-26 25l138 142zM160 728l-142 -138l-25 25l138 142z" />
    <glyph glyph-name="caron.sc" unicode="&#xe4c3;" horiz-adv-x="240" 
d="M258 718l-121 -119h-34l-121 119l23 24l115 -106l115 106z" />
    <glyph glyph-name="grave.cap" unicode="&#xe840;" horiz-adv-x="240" 
d="M15 890l159 -110l-19 -28l-164 105z" />
    <glyph glyph-name="acute.cap" unicode="&#xe841;" horiz-adv-x="240" 
d="M252 857l-164 -105l-20 28l160 110z" />
    <glyph glyph-name="dieresis.cap" unicode="&#xe845;" horiz-adv-x="240" 
d="M-16 826c0 21 15 35 36 35s35 -14 35 -35s-14 -35 -35 -35s-36 14 -36 35zM185 826c0 21 14 35 35 35s36 -14 36 -35s-15 -35 -36 -35s-35 14 -35 35z" />
    <glyph glyph-name="circumflex.cap" unicode="&#xe842;" horiz-adv-x="240" 
d="M-18 778l121 118h34l121 -118l-23 -25l-115 107l-115 -107z" />
    <glyph glyph-name="tilde.cap" unicode="&#xe844;" horiz-adv-x="240" 
d="M56 864c43 0 91 -39 125 -39c21 0 37 14 45 39l34 -11c-10 -38 -39 -64 -76 -64c-43 0 -91 38 -125 38c-21 0 -38 -14 -45 -38l-34 10c10 38 39 65 76 65z" />
    <glyph glyph-name="macron.cap" unicode="&#xe846;" horiz-adv-x="240" 
d="M-22 808v36h284v-36h-284z" />
    <glyph glyph-name="breve.cap" unicode="&#xe847;" horiz-adv-x="240" 
d="M-18 880h35c3 -56 46 -95 103 -95s100 39 103 95h35c-3 -79 -61 -132 -138 -132s-135 53 -138 132z" />
    <glyph glyph-name="dotaccent.cap" unicode="&#xe84a;" horiz-adv-x="240" 
d="M83 826c0 22 15 37 37 37s37 -15 37 -37s-15 -37 -37 -37s-37 15 -37 37z" />
    <glyph glyph-name="ring.cap" unicode="&#xe848;" horiz-adv-x="240" 
d="M26 826c0 55 39 92 94 92s94 -37 94 -92c0 -54 -37 -92 -92 -92c-56 0 -96 38 -96 92zM55 826c0 -39 28 -65 67 -65c37 0 63 26 63 65s-27 65 -65 65c-39 0 -65 -26 -65 -65z" />
    <glyph glyph-name="hungarumlaut.cap" unicode="&#xe849;" horiz-adv-x="240" 
d="M337 885l-141 -138l-26 25l138 142zM160 885l-142 -138l-25 25l138 142z" />
    <glyph glyph-name="caron.cap" unicode="&#xe843;" horiz-adv-x="240" 
d="M258 875l-121 -119h-34l-121 119l23 24l115 -106l115 106z" />
    <glyph glyph-name="periodcentered.cap" unicode="&#xe805;" horiz-adv-x="236" 
d="M78 344c0 23 17 40 40 40s40 -17 40 -40s-17 -40 -40 -40s-40 17 -40 40z" />
    <glyph glyph-name="bullet.cap" unicode="&#xe815;" horiz-adv-x="480" 
d="M96 336c0 80 64 144 144 144s144 -64 144 -144s-64 -144 -144 -144s-144 64 -144 144z" />
    <glyph glyph-name="at.cap" unicode="&#xe814;" horiz-adv-x="966" 
d="M57 336c0 261 182 446 438 446c241 0 414 -164 414 -396c0 -159 -73 -268 -181 -268c-57 0 -98 37 -104 90c-30 -56 -83 -90 -153 -90c-109 0 -188 92 -188 218c0 127 79 218 188 218c67 0 118 -32 146 -86l5 76h40v-308c0 -48 26 -80 70 -80c81 0 135 91 135 227
c0 212 -156 360 -372 360c-232 0 -396 -168 -396 -407c0 -238 164 -407 396 -407c77 0 161 25 249 74l20 -34c-96 -51 -186 -78 -269 -78c-256 0 -438 184 -438 445zM330 336c0 -104 63 -178 150 -178c82 0 135 62 135 143v71c0 82 -53 143 -135 143
c-87 0 -150 -74 -150 -179z" />
    <glyph glyph-name="parenleft.cap" unicode="&#xe808;" horiz-adv-x="329" 
d="M87 336c0 163 59 314 168 433l34 -25c-104 -110 -157 -254 -157 -408s53 -298 157 -408l-34 -25c-109 118 -168 269 -168 433z" />
    <glyph glyph-name="parenright.cap" unicode="&#xe809;" horiz-adv-x="329" 
d="M241 336c0 -163 -58 -314 -167 -433l-35 25c104 110 157 254 157 408s-53 298 -157 408l35 25c109 -118 167 -269 167 -433z" />
    <glyph glyph-name="bracketleft.cap" unicode="&#xe80a;" horiz-adv-x="329" 
d="M116 -83v838h170v-41h-125v-756h125v-41h-170z" />
    <glyph glyph-name="bracketright.cap" unicode="&#xe80b;" horiz-adv-x="329" 
d="M212 755v-838h-170v41h125v756h-125v41h170z" />
    <glyph glyph-name="braceleft.cap" unicode="&#xe80c;" horiz-adv-x="329" 
d="M39 316v40h16c53 0 91 40 91 95c0 53 -15 114 -15 171c0 78 56 133 131 133h24v-41h-16c-53 0 -93 -39 -93 -99c0 -52 13 -112 13 -167c0 -52 -25 -96 -73 -112c48 -16 73 -60 73 -112c0 -55 -13 -114 -13 -167c0 -60 40 -99 93 -99h16v-41h-24c-75 0 -131 55 -131 133
c0 57 15 116 15 171c0 54 -37 95 -91 95h-16z" />
    <glyph glyph-name="braceright.cap" unicode="&#xe80d;" horiz-adv-x="329" 
d="M289 356v-40h-16c-52 0 -90 -40 -90 -95c0 -53 15 -114 15 -171c0 -78 -57 -133 -131 -133h-25v41h16c54 0 94 39 94 99c0 52 -14 112 -14 167c0 52 26 96 74 112c-48 16 -74 60 -74 112c0 55 14 114 14 167c0 60 -40 99 -94 99h-16v41h25c74 0 131 -55 131 -133
c0 -57 -15 -116 -15 -171c0 -54 37 -95 90 -95h16z" />
    <glyph glyph-name="questiondown.cap" unicode="&#xe813;" horiz-adv-x="454" 
d="M223 471h40v-11c0 -125 -163 -169 -163 -292c0 -81 58 -138 142 -138c53 0 103 19 156 55l20 -36c-57 -40 -119 -61 -182 -61c-108 0 -184 73 -184 175c0 144 167 190 170 300zM280 643c0 -22 -15 -38 -37 -38s-38 16 -38 38s16 38 38 38s37 -16 37 -38z" />
    <glyph glyph-name="exclamdown.cap" unicode="&#xe812;" horiz-adv-x="252" 
d="M146 471l5 -471h-50l5 471h40zM163 643c0 -22 -15 -38 -37 -38s-38 16 -38 38s16 38 38 38c23 0 37 -16 37 -38z" />
    <glyph glyph-name="guillemotleft.cap" unicode="&#xe810;" horiz-adv-x="509" 
d="M31 332v25l197 219l29 -24l-178 -208l178 -207l-29 -24zM240 332v25l197 219l29 -24l-178 -208l178 -207l-29 -24z" />
    <glyph glyph-name="guillemotright.cap" unicode="&#xe811;" horiz-adv-x="509" 
d="M269 357v-25l-198 -219l-29 24l179 207l-179 208l29 24zM478 357v-25l-198 -219l-29 24l179 207l-179 208l29 24z" />
    <glyph glyph-name="guilsinglleft.cap" unicode="&#xe80e;" horiz-adv-x="300" 
d="M31 332v25l197 219l29 -24l-178 -208l178 -207l-29 -24z" />
    <glyph glyph-name="guilsinglright.cap" unicode="&#xe80f;" horiz-adv-x="300" 
d="M269 357v-25l-198 -219l-29 24l179 207l-179 208l29 24z" />
    <glyph glyph-name="hyphen.cap" unicode="&#xe800;" horiz-adv-x="320" 
d="M29 325v39h262v-39h-262z" />
    <glyph glyph-name="uni00AD.cap" unicode="&#xe801;" horiz-adv-x="320" 
d="M29 325v39h262v-39h-262z" />
    <glyph glyph-name="endash.cap" unicode="&#xe802;" horiz-adv-x="480" 
d="M29 325v39h422v-39h-422z" />
    <glyph glyph-name="emdash.cap" unicode="&#xe803;" horiz-adv-x="960" 
d="M29 325v39h902v-39h-902z" />
    <glyph glyph-name="afii00208.cap" unicode="&#xe804;" horiz-adv-x="960" 
d="M29 325v39h902v-39h-902z" />
    <glyph glyph-name="A.sc" unicode="&#xe200;" horiz-adv-x="549" 
d="M39 0l213 515h45l214 -515h-49l-61 148h-253l-61 -148h-48zM275 460l-114 -276h228z" />
    <glyph glyph-name="B.sc" unicode="&#xe201;" horiz-adv-x="536" 
d="M101 0v515h202c87 0 148 -55 148 -133c0 -53 -31 -99 -81 -116c62 -18 99 -65 99 -128c0 -82 -64 -138 -154 -138h-214zM146 247v-210h164c67 0 114 43 114 105c0 61 -47 105 -114 105h-164zM146 478v-198h153c63 0 107 41 107 99s-44 99 -107 99h-153z" />
    <glyph glyph-name="C.sc" unicode="&#xe202;" horiz-adv-x="534" 
d="M61 257c0 159 103 270 251 270c55 0 114 -18 169 -55l-22 -33c-45 31 -95 47 -143 47c-121 0 -206 -93 -206 -229c0 -135 85 -228 206 -228c48 0 98 16 143 47l22 -33c-55 -37 -114 -55 -169 -55c-148 0 -251 111 -251 269z" />
    <glyph glyph-name="D.sc" unicode="&#xe203;" horiz-adv-x="586" 
d="M101 0v515h163c156 0 261 -105 261 -258c0 -152 -104 -257 -260 -257h-164zM476 257c0 129 -87 219 -216 219h-111v-437h111c129 0 216 89 216 218z" />
    <glyph glyph-name="E.sc" unicode="&#xe204;" horiz-adv-x="497" 
d="M101 0v515h321v-38h-273v-195h249v-37h-249v-207h285v-38h-333z" />
    <glyph glyph-name="F.sc" unicode="&#xe205;" horiz-adv-x="485" 
d="M101 0v515h321v-39h-273v-212h249v-38h-249v-226h-48z" />
    <glyph glyph-name="G.sc" unicode="&#xe206;" horiz-adv-x="574" 
d="M499 261v-232c-57 -27 -117 -41 -178 -41c-154 0 -260 112 -260 269c0 158 104 270 255 270c57 0 117 -17 178 -52l-21 -34c-51 30 -103 47 -153 47c-126 0 -212 -95 -212 -231s89 -230 217 -230c47 0 91 10 130 29v167h-135v38h179z" />
    <glyph glyph-name="H.sc" unicode="&#xe207;" horiz-adv-x="626" 
d="M101 0v515h48v-232h328v232h48v-515h-48v244h-328v-244h-48z" />
    <glyph glyph-name="I.sc" unicode="&#xe208;" horiz-adv-x="250" 
d="M101 0v515h48v-515h-48z" />
    <glyph glyph-name="J.sc" unicode="&#xe209;" horiz-adv-x="378" 
d="M277 515v-388c0 -82 -59 -139 -141 -139c-32 0 -62 4 -96 13l8 39c28 -7 53 -11 79 -11c61 0 102 40 102 101v385h48z" />
    <glyph glyph-name="K.sc" unicode="&#xe20a;" horiz-adv-x="542" 
d="M101 0v515h46v-282l279 282h58l-239 -242l251 -273h-59l-224 244l-66 -65v-179h-46z" />
    <glyph glyph-name="L.sc" unicode="&#xe20b;" horiz-adv-x="449" 
d="M101 0v515h48v-476h259v-39h-307z" />
    <glyph glyph-name="M.sc" unicode="&#xe20c;" horiz-adv-x="691" 
d="M101 0v515h48l196 -265l197 265h48v-515h-44v449l-186 -251h-29l-186 251v-449h-44z" />
    <glyph glyph-name="N.sc" unicode="&#xe20d;" horiz-adv-x="626" 
d="M101 0v515h48l332 -449v449h44v-515h-48l-332 449v-449h-44z" />
    <glyph glyph-name="O.sc" unicode="&#xe20e;" horiz-adv-x="626" 
d="M61 257c0 158 104 270 252 270s252 -112 252 -270c0 -157 -104 -269 -252 -269s-252 112 -252 269zM110 257c0 -134 83 -229 203 -229s203 95 203 229c0 135 -83 230 -203 230s-203 -95 -203 -230z" />
    <glyph glyph-name="P.sc" unicode="&#xe20f;" horiz-adv-x="512" 
d="M101 0v515h187c100 0 169 -64 169 -158c0 -93 -69 -157 -169 -157h-142v-200h-45zM146 476v-238h137c76 0 128 48 128 119s-52 119 -128 119h-137z" />
    <glyph glyph-name="Q.sc" unicode="&#xe210;" horiz-adv-x="626" 
d="M61 257c0 158 104 270 252 270s252 -112 252 -270c0 -106 -47 -190 -121 -234l127 -93l-24 -31l-143 106c-27 -11 -58 -17 -91 -17c-148 0 -252 112 -252 269zM110 257c0 -134 83 -229 203 -229s203 95 203 229c0 135 -83 230 -203 230s-203 -95 -203 -230z" />
    <glyph glyph-name="R.sc" unicode="&#xe211;" horiz-adv-x="536" 
d="M101 0v515h189c95 0 162 -60 162 -151c0 -80 -53 -138 -133 -146l153 -218h-53l-147 212h-126v-212h-45zM146 476v-226h139c71 0 122 45 122 113c0 69 -51 113 -122 113h-139z" />
    <glyph glyph-name="S.sc" unicode="&#xe212;" horiz-adv-x="480" 
d="M65 390c0 82 71 137 175 137c51 0 107 -13 162 -37l-12 -37c-51 22 -101 35 -147 35c-79 0 -130 -40 -130 -98c0 -148 305 -70 305 -262c0 -84 -72 -140 -178 -140c-54 0 -118 15 -179 40l13 38c57 -24 115 -39 163 -39c81 0 134 41 134 101c0 152 -306 75 -306 262z" />
    <glyph glyph-name="T.sc" unicode="&#xe213;" horiz-adv-x="497" 
d="M225 0v476h-184v39h415v-39h-184v-476h-47z" />
    <glyph glyph-name="U.sc" unicode="&#xe214;" horiz-adv-x="626" 
d="M531 515v-320c0 -121 -91 -207 -218 -207c-126 0 -218 86 -218 207v320h48v-319c0 -99 71 -168 170 -168s170 69 170 168v319h48z" />
    <glyph glyph-name="V.sc" unicode="&#xe215;" horiz-adv-x="549" 
d="M511 515l-214 -515h-45l-213 515h51l185 -455l185 455h51z" />
    <glyph glyph-name="W.sc" unicode="&#xe216;" horiz-adv-x="807" 
d="M760 515l-165 -515h-48l-144 454l-142 -454h-48l-166 515h48l143 -454l142 454h46l144 -454l143 454h47z" />
    <glyph glyph-name="X.sc" unicode="&#xe217;" horiz-adv-x="561" 
d="M52 0l198 263l-190 252h55l166 -220l166 220h54l-190 -252l199 -263h-55l-174 232l-174 -232h-55z" />
    <glyph glyph-name="Y.sc" unicode="&#xe218;" horiz-adv-x="494" 
d="M223 0v223l-189 292h53l160 -248l160 248h53l-189 -292v-223h-48z" />
    <glyph glyph-name="Z.sc" unicode="&#xe219;" horiz-adv-x="520" 
d="M62 0v29l325 447h-317v39h380v-29l-325 -447h333v-39h-396z" />
    <glyph glyph-name="ampersand.sc" unicode="&#xe490;" horiz-adv-x="527" 
d="M449 0l-66 72c-43 -54 -103 -84 -160 -84c-100 0 -170 61 -170 146c0 63 43 115 123 157c-40 42 -68 77 -68 123c0 65 52 113 126 113c69 0 120 -43 120 -104c0 -51 -32 -92 -118 -139l145 -156c22 35 32 78 32 120h39c-2 -55 -16 -107 -44 -149l93 -99h-52zM224 23
c48 0 98 28 133 76l-157 168c-68 -38 -104 -80 -104 -130c0 -67 52 -114 128 -114zM234 491c-51 0 -85 -32 -85 -79c0 -36 27 -67 65 -104c72 40 100 72 100 111c0 42 -34 72 -80 72z" />
    <glyph glyph-name="at.sc" unicode="&#xe491;" horiz-adv-x="782" 
d="M61 257c0 202 142 347 340 347c187 0 319 -130 319 -309c0 -122 -57 -205 -141 -205c-43 0 -77 26 -84 67c-23 -44 -63 -67 -116 -67c-83 0 -144 70 -144 167c0 98 61 168 144 168c51 0 89 -23 111 -65l4 57h36v-231c0 -36 21 -60 53 -60c59 0 99 66 99 166
c0 160 -116 277 -281 277c-176 0 -301 -130 -301 -312c0 -181 125 -311 301 -311c60 0 125 20 191 60l18 -31c-73 -42 -143 -64 -209 -64c-199 0 -340 145 -340 346zM277 257c0 -76 47 -131 111 -131c61 0 100 46 100 105v52c0 62 -39 106 -100 106
c-64 0 -111 -55 -111 -132z" />
    <glyph glyph-name="exclam.sc" unicode="&#xe484;" horiz-adv-x="244" 
d="M102 154l-4 361h48l-4 -361h-40zM86 27c0 21 15 35 36 35s35 -14 35 -35s-14 -36 -35 -36s-36 15 -36 36z" />
    <glyph glyph-name="exclamdown.sc" unicode="&#xe485;" horiz-adv-x="244" 
d="M142 361l4 -361h-48l4 361h40zM157 488c0 -21 -14 -35 -35 -35s-36 14 -36 35s15 36 36 36s35 -15 35 -36z" />
    <glyph glyph-name="question.sc" unicode="&#xe486;" horiz-adv-x="391" 
d="M200 148h-39v9c0 95 123 137 123 228c0 58 -42 101 -103 101c-40 0 -77 -12 -118 -39l-19 34c47 31 94 46 143 46c85 0 145 -59 145 -137c0 -113 -131 -154 -132 -235v-7zM145 27c0 21 14 35 35 35s36 -14 36 -35s-15 -36 -36 -36s-35 15 -35 36z" />
    <glyph glyph-name="questiondown.sc" unicode="&#xe487;" horiz-adv-x="391" 
d="M191 367h39v-9c0 -96 -123 -137 -123 -228c0 -58 42 -101 103 -101c40 0 77 12 119 39l18 -34c-46 -31 -94 -46 -143 -46c-85 0 -144 59 -144 137c0 113 130 154 131 235v7zM246 488c0 -21 -14 -35 -35 -35s-35 14 -35 35s14 36 35 36s35 -15 35 -36z" />
    <glyph glyph-name="slash.sc" unicode="&#xe488;" horiz-adv-x="336" 
d="M36 -57l226 641l38 -12l-226 -641z" />
    <glyph glyph-name="backslash.sc" unicode="&#xe489;" horiz-adv-x="336" 
d="M262 -69l-226 641l38 12l226 -641z" />
    <glyph glyph-name="parenleft.sc" unicode="&#xe48a;" horiz-adv-x="297" 
d="M84 257c0 126 45 245 130 335l34 -24c-80 -85 -120 -194 -120 -311c0 -116 40 -225 120 -310l-34 -24c-85 90 -130 209 -130 334z" />
    <glyph glyph-name="parenright.sc" unicode="&#xe48b;" horiz-adv-x="297" 
d="M213 257c0 -125 -46 -244 -130 -334l-34 24c79 85 120 194 120 310c0 117 -41 226 -120 311l34 24c84 -90 130 -209 130 -335z" />
    <glyph glyph-name="bracketleft.sc" unicode="&#xe48c;" horiz-adv-x="297" 
d="M106 -65v645h137v-39h-94v-567h94v-39h-137z" />
    <glyph glyph-name="bracketright.sc" unicode="&#xe48d;" horiz-adv-x="297" 
d="M191 580v-645h-138v39h94v567h-94v39h138z" />
    <glyph glyph-name="braceleft.sc" unicode="&#xe48e;" horiz-adv-x="297" 
d="M48 238v39h12c39 0 67 31 67 70c0 42 -11 83 -11 124c0 65 46 109 107 109h20v-39h-12c-40 0 -71 -30 -71 -77c0 -40 10 -80 10 -120s-18 -75 -55 -87c37 -12 55 -46 55 -86s-10 -80 -10 -120c0 -47 31 -77 71 -77h12v-39h-20c-61 0 -107 44 -107 108c0 42 11 83 11 125
c0 39 -28 70 -67 70h-12z" />
    <glyph glyph-name="braceright.sc" unicode="&#xe48f;" horiz-adv-x="297" 
d="M249 277v-39h-12c-39 0 -67 -31 -67 -70c0 -42 10 -83 10 -125c0 -64 -45 -108 -107 -108h-20v39h13c40 0 71 30 71 77c0 40 -11 80 -11 120s19 74 56 86c-37 12 -56 47 -56 87s11 80 11 120c0 47 -31 77 -71 77h-13v39h20c62 0 107 -44 107 -109c0 -41 -10 -82 -10 -124
c0 -39 28 -70 67 -70h12z" />
    <glyph glyph-name="quoteleft.sc" unicode="&#xe480;" horiz-adv-x="252" 
d="M166 335c0 -23 -17 -40 -40 -40c-28 0 -45 24 -45 62c0 67 35 128 98 169l17 -23c-50 -38 -74 -81 -74 -131c23 3 44 -14 44 -37z" />
    <glyph glyph-name="quoteright.sc" unicode="&#xe481;" horiz-adv-x="252" 
d="M86 483c0 23 16 40 40 40c27 0 45 -24 45 -62c0 -67 -36 -128 -98 -169l-17 23c50 38 74 80 74 131c-24 -3 -44 14 -44 37z" />
    <glyph glyph-name="quotedblleft.sc" unicode="&#xe482;" horiz-adv-x="429" 
d="M166 335c0 -23 -17 -40 -40 -40c-28 0 -45 24 -45 62c0 67 35 128 98 169l17 -23c-50 -38 -74 -81 -74 -131c23 3 44 -14 44 -37zM343 335c0 -23 -17 -40 -40 -40c-28 0 -45 24 -45 62c0 67 35 128 98 169l17 -23c-50 -38 -74 -81 -74 -131c23 3 44 -14 44 -37z" />
    <glyph glyph-name="quotedblright.sc" unicode="&#xe483;" horiz-adv-x="429" 
d="M86 483c0 23 16 40 40 40c27 0 45 -24 45 -62c0 -67 -36 -128 -98 -169l-17 23c50 38 74 80 74 131c-24 -3 -44 14 -44 37zM263 483c0 23 16 40 40 40c27 0 45 -24 45 -62c0 -67 -36 -128 -98 -169l-17 23c50 38 74 80 74 131c-24 -3 -44 14 -44 37z" />
    <glyph glyph-name="FI.sc" unicode="&#xe284;" horiz-adv-x="735" 
d="M101 0v515h321v-39h-273v-212h249v-38h-249v-226h-48zM586 0v515h48v-515h-48z" />
    <glyph glyph-name="FL.sc" unicode="&#xe285;" horiz-adv-x="934" 
d="M101 0v515h321v-39h-273v-212h249v-38h-249v-226h-48zM586 0v515h48v-476h259v-39h-307z" />
    <glyph glyph-name="zero" unicode="0" horiz-adv-x="576" 
d="M49 336c0 212 93 348 239 348s239 -136 239 -348s-93 -348 -239 -348s-239 136 -239 348zM94 336c0 -186 77 -307 194 -307s194 121 194 307c0 187 -77 307 -194 307s-194 -120 -194 -307z" />
    <glyph glyph-name="one" unicode="1" horiz-adv-x="576" 
d="M319 0v622l-187 -108l-18 35l212 123h40v-672h-47z" />
    <glyph glyph-name="two" unicode="2" horiz-adv-x="576" 
d="M60 0v32l278 278c57 56 86 117 86 177c0 92 -65 155 -159 155c-60 0 -115 -23 -175 -60l-20 37c67 41 135 65 202 65c117 0 199 -79 199 -192c0 -70 -33 -141 -94 -202l-250 -249h352v-41h-419z" />
    <glyph glyph-name="three" unicode="3" horiz-adv-x="576" 
d="M201 325v38h36c106 0 180 59 180 142c0 82 -61 138 -149 138c-54 0 -110 -12 -174 -42l-16 38c69 32 135 45 195 45c113 0 192 -72 192 -175c0 -80 -53 -142 -134 -163c91 -24 150 -91 150 -175c0 -108 -86 -183 -208 -183c-64 0 -138 15 -211 49l16 38
c67 -31 132 -46 189 -46c97 0 165 60 165 146c0 88 -79 150 -195 150h-36z" />
    <glyph glyph-name="four" unicode="4" horiz-adv-x="576" 
d="M371 0v167h-335v35l335 470h45v-466h111v-39h-111v-167h-45zM85 206h286v401z" />
    <glyph glyph-name="five" unicode="5" horiz-adv-x="576" 
d="M470 672v-41h-314v-249c41 9 83 13 117 13c137 0 221 -80 221 -203c0 -120 -90 -204 -225 -204c-67 0 -136 21 -198 57l20 37c58 -34 117 -53 175 -53c110 0 181 66 181 164c0 101 -69 165 -185 165c-43 0 -92 -6 -149 -19v333h357z" />
    <glyph glyph-name="six" unicode="6" horiz-adv-x="576" 
d="M70 292c0 250 94 392 266 392c51 0 104 -12 154 -38l-17 -37c-45 22 -91 35 -136 35c-144 0 -223 -120 -221 -346c25 74 103 125 194 125c126 0 211 -87 211 -214c0 -126 -94 -221 -217 -221c-143 0 -234 106 -234 304zM124 225c0 -116 74 -197 179 -197
c97 0 173 78 173 180c0 105 -69 175 -173 175c-100 0 -179 -69 -179 -158z" />
    <glyph glyph-name="seven" unicode="7" horiz-adv-x="576" 
d="M154 0l273 631h-354v41h408v-32l-277 -640h-50z" />
    <glyph glyph-name="eight" unicode="8" horiz-adv-x="576" 
d="M288 363c93 14 164 64 164 146c0 78 -70 136 -164 136s-164 -58 -164 -136c0 -82 71 -132 164 -146zM62 168c0 88 62 155 169 176c-88 19 -153 82 -153 168c0 99 88 172 210 172s210 -73 210 -172c0 -86 -65 -149 -153 -168c107 -21 169 -88 169 -176
c0 -107 -92 -180 -226 -180s-226 73 -226 180zM288 325c-109 -16 -178 -71 -178 -154c0 -86 73 -144 178 -144s178 58 178 144c0 83 -69 138 -178 154z" />
    <glyph glyph-name="nine" unicode="9" horiz-adv-x="576" 
d="M506 380c0 -250 -94 -392 -266 -392c-51 0 -104 12 -154 38l17 37c45 -22 91 -35 136 -35c144 0 223 120 221 346c-25 -74 -103 -125 -194 -125c-126 0 -211 87 -211 214c0 126 94 221 217 221c143 0 234 -106 234 -304zM452 447c0 116 -74 197 -179 197
c-97 0 -173 -78 -173 -180c0 -105 69 -175 173 -175c100 0 179 69 179 158z" />
    <glyph glyph-name="dollar" unicode="$" horiz-adv-x="576" 
d="M267 -128v165c-54 2 -113 17 -177 43l13 39c66 -27 128 -43 182 -43c92 0 153 44 153 114c0 173 -344 84 -344 296c0 84 68 142 173 148v166h42v-165c48 -3 100 -17 157 -40l-13 -39c-60 25 -112 39 -162 39c-90 0 -149 -44 -149 -109c0 -170 344 -79 344 -296
c0 -87 -70 -147 -177 -152v-166h-42z" />
    <glyph glyph-name="cent" unicode="&#xa2;" horiz-adv-x="576" 
d="M95 336c0 138 83 238 204 251v149h42v-148c52 -1 102 -18 151 -52l-22 -35c-43 31 -88 48 -135 48c-113 0 -191 -88 -191 -213s78 -213 191 -213c47 0 92 17 135 48l22 -35c-49 -34 -99 -51 -151 -53v-147h-42v149c-121 13 -204 113 -204 251z" />
    <glyph glyph-name="Euro" unicode="&#x20ac;" horiz-adv-x="576" 
d="M37 255v34h77c-2 15 -3 30 -3 47c0 22 1 43 4 63h-78v34h84c30 152 130 251 263 251c59 0 115 -16 167 -45l-19 -35c-45 25 -92 40 -144 40c-110 0 -193 -84 -218 -211h263v-34h-272c-2 -20 -3 -41 -3 -63c0 -17 1 -32 2 -47h273v-34h-267c22 -137 107 -227 222 -227
c52 0 99 15 144 40l19 -35c-52 -29 -108 -45 -167 -45c-137 0 -240 105 -267 267h-80z" />
    <glyph glyph-name="florin" unicode="&#x192;" horiz-adv-x="576" 
d="M151 383v39h105v148c0 68 50 114 117 114c27 0 53 -4 84 -12l-8 -40c-24 7 -47 11 -67 11c-44 0 -77 -31 -77 -76v-145h133v-39h-133v-281c0 -68 -49 -114 -116 -114c-27 0 -54 4 -84 12l7 40c25 -7 48 -11 68 -11c44 0 76 31 76 76v278h-105z" />
    <glyph glyph-name="sterling" unicode="&#xa3;" horiz-adv-x="576" 
d="M74 0v40h106v284h-90v40h90v146c0 103 77 174 188 174c43 0 89 -10 138 -29l-13 -38c-41 17 -81 26 -118 26c-86 0 -145 -55 -145 -136v-143h198v-40h-198v-284h288v-40h-444z" />
    <glyph glyph-name="yen" unicode="&#xa5;" horiz-adv-x="576" 
d="M263 0v168h-173v36h173v111h-173v36h160l-210 321h54l194 -303l194 303h54l-210 -321h160v-36h-173v-111h173v-36h-173v-168h-50z" />
    <glyph glyph-name="numbersign" unicode="#" horiz-adv-x="646" 
d="M16 194v39h144l40 206h-137v39h144l38 198l39 -5l-37 -193h206l38 198l38 -5l-36 -193h137v-39h-144l-40 -206h137v-39h-144l-38 -198l-39 5l36 193h-205l-38 -198l-39 5l37 193h-137zM240 439l-40 -206h206l39 206h-205z" />
    <glyph glyph-name="percent" unicode="%" horiz-adv-x="864" 
d="M495 168c0 105 66 180 160 180c93 0 159 -75 159 -180c0 -106 -66 -180 -159 -180c-94 0 -160 74 -160 180zM534 168c0 -88 49 -147 121 -147c71 0 120 59 120 147c0 87 -49 147 -120 147c-72 0 -121 -60 -121 -147zM50 504c0 105 66 180 159 180s160 -75 160 -180
c0 -106 -67 -180 -160 -180s-159 74 -159 180zM89 504c0 -88 49 -147 120 -147c72 0 121 59 121 147c0 87 -49 147 -121 147c-71 0 -120 -60 -120 -147zM166 11l504 672l28 -22l-504 -672z" />
    <glyph glyph-name="perthousand" unicode="&#x2030;" horiz-adv-x="1241" 
d="M872 168c0 105 66 180 159 180s159 -75 159 -180c0 -106 -66 -180 -159 -180s-159 74 -159 180zM910 168c0 -88 50 -147 121 -147s121 59 121 147c0 87 -50 147 -121 147s-121 -60 -121 -147zM495 168c0 105 66 180 160 180c93 0 159 -75 159 -180
c0 -106 -66 -180 -159 -180c-94 0 -160 74 -160 180zM534 168c0 -88 49 -147 121 -147c71 0 120 59 120 147c0 87 -49 147 -120 147c-72 0 -121 -60 -121 -147zM50 504c0 105 66 180 159 180s160 -75 160 -180c0 -106 -67 -180 -160 -180s-159 74 -159 180zM89 504
c0 -88 49 -147 120 -147c72 0 121 59 121 147c0 87 -49 147 -121 147c-71 0 -120 -60 -120 -147zM166 11l504 672l28 -22l-504 -672z" />
    <glyph glyph-name="plus" unicode="+" horiz-adv-x="576" 
d="M58 267v42h209v209h42v-209h209v-42h-209v-209h-42v209h-209z" />
    <glyph glyph-name="minus" unicode="&#x2212;" horiz-adv-x="576" 
d="M58 267v42h460v-42h-460z" />
    <glyph glyph-name="multiply" unicode="&#xd7;" horiz-adv-x="576" 
d="M117 88l-29 29l171 171l-171 171l29 29l171 -171l171 171l29 -29l-171 -171l171 -171l-29 -29l-171 171z" />
    <glyph glyph-name="less" unicode="&#x3c;" horiz-adv-x="576" 
d="M58 267v42l447 208l17 -40l-407 -189l407 -189l-17 -40z" />
    <glyph glyph-name="divide" unicode="&#xf7;" horiz-adv-x="576" 
d="M58 268v40h460v-40h-460zM256 480c0 19 13 32 32 32s32 -12 32 -32c0 -19 -13 -32 -32 -32s-32 13 -32 32zM256 96c0 19 13 32 32 32s32 -13 32 -32s-13 -32 -32 -32s-32 13 -32 32z" />
    <glyph glyph-name="equal" unicode="=" horiz-adv-x="576" 
d="M58 369v42h460v-42h-460zM58 165v42h460v-42h-460z" />
    <glyph glyph-name="logicalnot" unicode="&#xac;" horiz-adv-x="576" 
d="M58 267v42h460v-251h-42v209h-418z" />
    <glyph glyph-name="greater" unicode="&#x3e;" horiz-adv-x="576" 
d="M518 309v-42l-447 -208l-17 40l407 189l-407 189l17 40z" />
    <glyph glyph-name="notequal" unicode="&#x2260;" horiz-adv-x="576" 
d="M58 367v42h267l75 151l38 -19l-67 -132h147v-42h-168l-78 -158h246v-42h-267l-75 -150l-38 18l66 132h-146v42h167l79 158h-246z" />
    <glyph glyph-name="approxequal" unicode="&#x2248;" horiz-adv-x="576" 
d="M77 144l-25 35c40 34 86 52 137 52c83 0 121 -48 198 -48c43 0 78 15 112 45l25 -34c-40 -35 -86 -53 -137 -53c-83 0 -121 48 -198 48c-43 0 -78 -14 -112 -45zM77 348l-25 34c40 35 86 53 137 53c83 0 121 -48 198 -48c43 0 78 14 112 45l25 -35
c-40 -34 -86 -52 -137 -52c-83 0 -121 48 -198 48c-43 0 -78 -15 -112 -45z" />
    <glyph glyph-name="plusminus" unicode="&#xb1;" horiz-adv-x="576" 
d="M58 0v42h460v-42h-460zM58 335v42h209v209h42v-209h209v-42h-209v-209h-42v209h-209z" />
    <glyph glyph-name="lessequal" unicode="&#x2264;" horiz-adv-x="576" 
d="M58 0v42h460v-42h-460zM58 335v42l447 208l17 -39l-407 -190l407 -189l-17 -40z" />
    <glyph glyph-name="greaterequal" unicode="&#x2265;" horiz-adv-x="576" 
d="M518 377v-42l-447 -208l-17 40l407 189l-407 190l17 39zM58 0v42h460v-42h-460z" />
    <glyph glyph-name="asciicircum" unicode="^" horiz-adv-x="576" 
d="M267 672h42l208 -450l-40 -16l-189 409l-189 -409l-40 16z" />
    <glyph glyph-name="asciitilde" unicode="~" horiz-adv-x="576" 
d="M77 246l-25 34c40 35 86 53 137 53c83 0 121 -48 198 -48c43 0 78 14 112 45l25 -34c-40 -35 -86 -53 -137 -53c-83 0 -121 48 -198 48c-43 0 -78 -14 -112 -45z" />
    <glyph glyph-name="lozenge" unicode="&#x25ca;" horiz-adv-x="576" 
d="M267 0l-215 336l215 336h42l215 -336l-215 -336h-42zM288 626l-185 -290l185 -292l185 292z" />
    <glyph glyph-name="degree" unicode="&#xb0;" horiz-adv-x="326" 
d="M51 569c0 65 46 112 112 112c65 0 112 -47 112 -112c0 -66 -47 -112 -112 -112c-66 0 -112 46 -112 112zM82 569c0 -48 33 -81 81 -81s81 33 81 81c0 47 -33 81 -81 81s-81 -34 -81 -81z" />
    <glyph glyph-name="quotesingle" unicode="'" horiz-adv-x="204" 
d="M83 466l-5 206h47l-4 -206h-38z" />
    <glyph glyph-name="quotedbl" unicode="&#x22;" horiz-adv-x="378" 
d="M83 466l-5 206h47l-4 -206h-38zM257 466l-5 206h47l-4 -206h-38z" />
    <glyph glyph-name="radical" unicode="&#x221a;" horiz-adv-x="652" 
d="M625 699l-265 -907h-50l-123 359l-170 -54l-12 40l209 67l120 -352l250 858z" />
    <glyph glyph-name="currency" unicode="&#xa4;" horiz-adv-x="576" 
d="M95 114l-29 29l81 82c-24 29 -37 66 -37 111c0 44 13 82 37 111l-81 82l29 29l81 -82c29 25 67 38 112 38c44 0 82 -13 111 -38l82 82l29 -29l-82 -82c25 -29 38 -67 38 -111c0 -45 -14 -82 -38 -111l82 -82l-29 -29l-82 81c-29 -23 -67 -36 -111 -36
c-45 0 -82 13 -111 36zM149 336c0 -81 58 -138 139 -138s139 57 139 138s-58 139 -139 139s-139 -58 -139 -139z" />
    <glyph glyph-name="infinity" unicode="&#x221e;" horiz-adv-x="777" 
d="M42 288c0 106 64 184 162 184c80 0 130 -47 184 -148c54 101 105 148 184 148c99 0 162 -77 162 -184c0 -106 -63 -184 -162 -184c-79 0 -130 47 -184 148c-54 -101 -104 -148 -184 -148c-98 0 -162 77 -162 184zM87 288c0 -84 48 -144 122 -144c67 0 108 47 157 144
c-49 97 -90 144 -157 144c-74 0 -122 -61 -122 -144zM690 288c0 84 -48 144 -123 144c-66 0 -108 -47 -156 -144c48 -97 90 -144 156 -144c75 0 123 61 123 144z" />
    <glyph glyph-name="uni00B5" unicode="&#xb5;" horiz-adv-x="596" 
d="M87 -208v691h48v-313c0 -84 60 -141 144 -141c95 0 165 72 165 177v277h48v-405c0 -30 19 -49 48 -49c9 0 19 1 28 3l6 -39c-13 -3 -28 -5 -42 -5c-51 0 -85 32 -85 82v21c-31 -64 -93 -103 -169 -103c-64 0 -116 24 -143 72v-268h-48z" />
    <glyph glyph-name="partialdiff" unicode="&#x2202;" 
d="M50 251c0 142 94 244 222 244c86 0 155 -41 191 -115c-8 195 -79 296 -204 296c-40 0 -90 -11 -141 -38l-18 37c56 28 113 41 162 41c159 0 251 -120 251 -410c0 -198 -92 -318 -233 -318c-134 0 -230 108 -230 263zM97 249c0 -130 76 -220 184 -220s185 101 185 246
c0 100 -77 179 -185 179s-184 -85 -184 -205z" />
    <glyph glyph-name="summation" unicode="&#x2211;" horiz-adv-x="627" 
d="M49 -208v32l339 432l-323 416v32h518v-41h-452l305 -394v-26l-321 -410h484v-41h-550z" />
    <glyph glyph-name="product" unicode="&#x220f;" horiz-adv-x="777" 
d="M110 -208v912h557v-912h-49v871h-459v-871h-49z" />
    <glyph glyph-name="integral" unicode="&#x222b;" horiz-adv-x="393" 
d="M149 562c0 -178 143 -438 143 -625c0 -92 -52 -157 -127 -157c-23 0 -47 4 -71 13l11 39c19 -8 36 -11 54 -11c50 0 85 47 85 113c0 178 -144 438 -144 625c0 92 53 157 128 157c23 0 47 -4 71 -13l-12 -39c-18 8 -36 11 -53 11c-50 0 -85 -47 -85 -113z" />
    <glyph glyph-name="litre" unicode="&#x2113;" horiz-adv-x="366" 
d="M337 569c0 -111 -77 -222 -205 -304v-143c0 -55 39 -93 94 -93c23 0 48 4 74 11l8 -39c-30 -9 -59 -13 -88 -13c-77 0 -133 54 -133 131v448c0 88 51 149 127 149c71 0 123 -62 123 -147zM298 565c0 64 -34 110 -83 110s-83 -45 -83 -109v-255c104 72 166 161 166 254z
" />
    <glyph glyph-name="estimated" unicode="&#x212e;" horiz-adv-x="960" 
d="M480 16c97 0 184 43 243 112h66c-70 -87 -182 -144 -309 -144c-212 0 -384 158 -384 352s172 352 384 352s384 -158 384 -352c0 -6 0 -11 -1 -16h-623v-196c58 -67 144 -108 240 -108zM240 548v-196h480v196c-59 66 -145 108 -240 108c-96 0 -182 -42 -240 -108z" />
    <glyph glyph-name="numero" unicode="&#x2116;" horiz-adv-x="1161" 
d="M110 0v672h49l444 -603v603h46v-672h-49l-444 603v-603h-46zM804 239v31h312v-31h-312zM801 513c0 99 66 168 159 168s159 -69 159 -168c0 -100 -66 -169 -159 -169s-159 69 -159 169zM840 513c0 -81 50 -136 120 -136s120 55 120 136c0 80 -50 136 -120 136
s-120 -56 -120 -136z" />
    <glyph glyph-name="zero.otab" unicode="&#xe020;" horiz-adv-x="576" 
d="M55 257c0 159 96 270 233 270s233 -111 233 -270c0 -158 -96 -269 -233 -269s-233 111 -233 269zM100 257c0 -134 78 -228 188 -228s188 94 188 228c0 135 -78 229 -188 229s-188 -94 -188 -229z" />
    <glyph glyph-name="one.otab" unicode="&#xe021;" horiz-adv-x="576" 
d="M358 515v-515h-47v465l-154 -90l-19 34l180 106h40z" />
    <glyph glyph-name="two.otab" unicode="&#xe022;" horiz-adv-x="576" 
d="M92 0v32l238 193c54 44 77 86 77 136c0 73 -56 125 -134 125c-50 0 -96 -18 -151 -49l-20 36c62 36 118 54 178 54c102 0 175 -65 175 -162c0 -59 -25 -111 -86 -160l-205 -166h299v-39h-371z" />
    <glyph glyph-name="three.otab" unicode="&#xe023;" horiz-adv-x="576" 
d="M193 175v37h36c106 0 180 58 180 140c0 79 -61 134 -149 134c-54 0 -110 -12 -174 -42l-16 37c69 33 135 46 195 46c113 0 192 -71 192 -172c0 -78 -53 -139 -134 -160c91 -23 150 -89 150 -171c0 -107 -86 -180 -208 -180c-64 0 -138 15 -211 49l16 38
c67 -31 132 -46 189 -46c97 0 165 58 165 142c0 87 -79 148 -195 148h-36z" />
    <glyph glyph-name="four.otab" unicode="&#xe024;" horiz-adv-x="576" 
d="M371 -144v144h-335v33l335 482h45v-476h111v-39h-111v-144h-45zM85 39h286v414z" />
    <glyph glyph-name="five.otab" unicode="&#xe025;" horiz-adv-x="576" 
d="M478 515v-41h-314v-242c41 9 83 13 117 13c137 0 221 -79 221 -200c0 -118 -90 -201 -225 -201c-67 0 -136 22 -198 57l20 37c58 -33 117 -53 175 -53c110 0 181 65 181 161c0 99 -69 162 -185 162c-43 0 -92 -6 -149 -20v327h357z" />
    <glyph glyph-name="six.otab" unicode="&#xe026;" horiz-adv-x="576" 
d="M70 289c0 244 94 382 266 382c51 0 104 -12 154 -38l-17 -37c-45 22 -91 35 -136 35c-144 0 -223 -116 -221 -336c25 74 103 121 194 121c126 0 211 -84 211 -210c0 -124 -94 -218 -217 -218c-143 0 -234 104 -234 301zM124 221c0 -113 74 -193 179 -193
c97 0 173 76 173 176c0 104 -69 173 -173 173c-100 0 -179 -67 -179 -156z" />
    <glyph glyph-name="seven.otab" unicode="&#xe027;" horiz-adv-x="576" 
d="M160 -144l267 618h-346v41h400v-32l-271 -627h-50z" />
    <glyph glyph-name="eight.otab" unicode="&#xe028;" horiz-adv-x="576" 
d="M288 356c93 15 164 63 164 144c0 76 -70 132 -164 132s-164 -56 -164 -132c0 -81 71 -129 164 -144zM62 165c0 86 62 152 169 172c-88 19 -153 80 -153 165c0 98 88 169 210 169s210 -71 210 -169c0 -85 -65 -146 -153 -165c107 -20 169 -86 169 -172
c0 -105 -92 -177 -226 -177s-226 72 -226 177zM288 319c-109 -16 -178 -70 -178 -152c0 -83 73 -140 178 -140s178 57 178 140c0 82 -69 136 -178 152z" />
    <glyph glyph-name="nine.otab" unicode="&#xe029;" horiz-adv-x="576" 
d="M506 226c0 -244 -94 -382 -266 -382c-51 0 -104 12 -154 38l17 37c45 -22 91 -35 136 -35c144 0 223 116 221 336c-25 -74 -103 -121 -194 -121c-126 0 -211 84 -211 210c0 124 94 218 217 218c143 0 234 -104 234 -301zM452 293c0 114 -74 194 -179 194
c-97 0 -173 -76 -173 -176c0 -104 69 -173 173 -173c100 0 179 66 179 155z" />
    <glyph glyph-name="dollar.otab" unicode="&#xe02a;" horiz-adv-x="576" 
d="M267 -160v149c-48 3 -103 16 -157 39l12 38c57 -24 114 -39 163 -39c79 0 134 39 134 101c0 152 -305 75 -305 262c0 76 60 128 153 135v150h42v-149c45 -2 93 -15 140 -36l-12 -37c-50 22 -100 35 -145 35c-79 0 -131 -40 -131 -98c0 -148 305 -70 305 -262
c0 -78 -63 -132 -157 -138v-150h-42z" />
    <glyph glyph-name="cent.otab" unicode="&#xe02b;" horiz-adv-x="576" 
d="M95 257c0 138 83 238 204 251v149h42v-148c52 -1 102 -18 151 -52l-22 -35c-43 31 -88 48 -135 48c-113 0 -191 -88 -191 -213s78 -213 191 -213c47 0 92 17 135 48l22 -35c-49 -34 -99 -51 -151 -53v-147h-42v149c-121 13 -204 113 -204 251z" />
    <glyph glyph-name="Euro.otab" unicode="&#xe02c;" horiz-adv-x="576" 
d="M69 189v30h68c-1 12 -2 25 -2 38c0 16 1 31 3 47h-69v30h75c26 115 112 193 224 193c53 0 103 -14 150 -41l-18 -31c-40 23 -82 36 -127 36c-89 0 -157 -63 -180 -157h224v-30h-233c-3 -16 -4 -31 -4 -47c0 -13 0 -26 2 -38h235v-30h-226c20 -99 89 -166 182 -165
c45 0 87 13 127 36l18 -31c-47 -27 -97 -41 -150 -41c-115 0 -202 81 -225 201h-74z" />
    <glyph glyph-name="sterling.otab" unicode="&#xe02d;" horiz-adv-x="576" 
d="M102 0v38h94v207h-82v37h82v111c0 86 67 147 163 147c38 0 77 -10 118 -25l-12 -35c-35 13 -68 22 -99 22c-73 0 -122 -47 -122 -112v-108h168v-37h-168v-207h242v-38h-384z" />
    <glyph glyph-name="yen.otab" unicode="&#xe02e;" horiz-adv-x="576" 
d="M264 0v114h-151v33h151v84h-151v34h137l-178 250h55l161 -232l161 232h55l-178 -250h137v-34h-151v-84h151v-33h-151v-114h-48z" />
    <glyph glyph-name="zero.lprop" unicode="&#xe010;" horiz-adv-x="646" 
d="M73 336c0 211 99 348 250 348c150 0 250 -137 250 -348s-100 -348 -250 -348c-151 0 -250 137 -250 348zM121 336c0 -188 79 -308 202 -308c122 0 201 120 201 308s-79 308 -201 308c-123 0 -202 -120 -202 -308z" />
    <glyph glyph-name="one.lprop" unicode="&#xe011;" horiz-adv-x="393" 
d="M227 0v622l-187 -108l-18 35l212 123h40v-672h-47z" />
    <glyph glyph-name="two.lprop" unicode="&#xe012;" horiz-adv-x="515" 
d="M29 0v32l278 278c57 56 86 117 86 177c0 92 -65 155 -159 155c-60 0 -115 -23 -175 -60l-20 37c67 41 135 65 202 65c117 0 199 -79 199 -192c0 -70 -33 -141 -94 -202l-250 -249h352v-41h-419z" />
    <glyph glyph-name="three.lprop" unicode="&#xe013;" horiz-adv-x="515" 
d="M170 325v38h36c106 0 180 59 180 142c0 82 -61 138 -149 138c-54 0 -110 -12 -174 -42l-16 38c69 32 135 45 195 45c113 0 192 -72 192 -175c0 -80 -53 -142 -134 -163c91 -24 150 -91 150 -175c0 -108 -86 -183 -208 -183c-64 0 -138 15 -211 49l16 38
c67 -31 132 -46 189 -46c97 0 165 60 165 146c0 88 -79 150 -195 150h-36z" />
    <glyph glyph-name="four.lprop" unicode="&#xe014;" horiz-adv-x="566" 
d="M366 0v167h-335v35l335 470h45v-466h111v-39h-111v-167h-45zM80 206h286v401z" />
    <glyph glyph-name="five.lprop" unicode="&#xe015;" horiz-adv-x="515" 
d="M439 672v-41h-314v-249c41 9 83 13 117 13c137 0 221 -80 221 -203c0 -120 -90 -204 -225 -204c-67 0 -136 21 -198 57l20 37c58 -34 117 -53 175 -53c110 0 181 66 181 164c0 101 -69 165 -185 165c-43 0 -92 -6 -149 -19v333h357z" />
    <glyph glyph-name="six.lprop" unicode="&#xe016;" horiz-adv-x="582" 
d="M73 292c0 250 94 392 266 392c51 0 104 -12 154 -38l-17 -37c-45 22 -91 35 -136 35c-144 0 -223 -120 -221 -346c25 74 103 125 194 125c126 0 211 -87 211 -214c0 -126 -94 -221 -217 -221c-143 0 -234 106 -234 304zM127 225c0 -116 74 -197 179 -197
c97 0 173 78 173 180c0 105 -69 175 -173 175c-100 0 -179 -69 -179 -158z" />
    <glyph glyph-name="seven.lprop" unicode="&#xe017;" horiz-adv-x="470" 
d="M101 0l273 631h-354v41h408v-32l-277 -640h-50z" />
    <glyph glyph-name="eight.lprop" unicode="&#xe018;" horiz-adv-x="582" 
d="M291 363c93 14 164 64 164 146c0 78 -70 136 -164 136s-164 -58 -164 -136c0 -82 71 -132 164 -146zM65 168c0 88 62 155 169 176c-88 19 -153 82 -153 168c0 99 88 172 210 172s210 -73 210 -172c0 -86 -65 -149 -153 -168c107 -21 169 -88 169 -176
c0 -107 -92 -180 -226 -180s-226 73 -226 180zM291 325c-109 -16 -178 -71 -178 -154c0 -86 73 -144 178 -144s178 58 178 144c0 83 -69 138 -178 154z" />
    <glyph glyph-name="nine.lprop" unicode="&#xe019;" horiz-adv-x="582" 
d="M509 380c0 -250 -94 -392 -266 -392c-51 0 -104 12 -154 38l17 37c45 -22 91 -35 136 -35c144 0 223 120 221 346c-25 -74 -103 -125 -194 -125c-126 0 -211 87 -211 214c0 126 94 221 217 221c143 0 234 -106 234 -304zM455 447c0 116 -74 197 -179 197
c-97 0 -173 -78 -173 -180c0 -105 69 -175 173 -175c100 0 179 69 179 158z" />
    <glyph glyph-name="dollar.lprop" unicode="&#xe01a;" horiz-adv-x="503" 
d="M231 -128v165c-54 2 -113 17 -177 43l13 39c66 -27 128 -43 182 -43c92 0 153 44 153 114c0 173 -344 84 -344 296c0 84 68 142 173 148v166h42v-165c48 -3 100 -17 157 -40l-13 -39c-60 25 -112 39 -162 39c-90 0 -149 -44 -149 -109c0 -170 344 -79 344 -296
c0 -87 -70 -147 -177 -152v-166h-42z" />
    <glyph glyph-name="cent.lprop" unicode="&#xe01b;" horiz-adv-x="534" 
d="M74 336c0 138 83 238 204 251v149h42v-148c52 -1 102 -18 151 -52l-22 -35c-43 31 -88 48 -135 48c-113 0 -191 -88 -191 -213s78 -213 191 -213c47 0 92 17 135 48l22 -35c-49 -34 -99 -51 -151 -53v-147h-42v149c-121 13 -204 113 -204 251z" />
    <glyph glyph-name="Euro.lprop" unicode="&#xe01c;" horiz-adv-x="563" 
d="M30 255v34h77c-2 15 -3 30 -3 47c0 22 1 43 4 63h-78v34h84c30 152 130 251 263 251c59 0 115 -16 167 -45l-19 -35c-45 25 -92 40 -144 40c-110 0 -193 -84 -218 -211h263v-34h-272c-2 -20 -3 -41 -3 -63c0 -17 1 -32 2 -47h273v-34h-267c22 -137 107 -227 222 -227
c52 0 99 15 144 40l19 -35c-52 -29 -108 -45 -167 -45c-137 0 -240 105 -267 267h-80z" />
    <glyph glyph-name="sterling.lprop" unicode="&#xe01d;" horiz-adv-x="563" 
d="M67 0v40h106v284h-90v40h90v146c0 103 77 174 188 174c43 0 89 -10 138 -29l-13 -38c-41 17 -81 26 -118 26c-86 0 -145 -55 -145 -136v-143h198v-40h-198v-284h288v-40h-444z" />
    <glyph glyph-name="yen.lprop" unicode="&#xe01e;" 
d="M261 0v168h-173v36h173v111h-173v36h160l-210 321h54l194 -303l194 303h54l-210 -321h160v-36h-173v-111h173v-36h-173v-168h-50z" />
    <glyph glyph-name="zero.oprop" unicode="&#xe030;" horiz-adv-x="601" 
d="M65 257c0 159 96 270 235 270s236 -111 236 -270c0 -158 -97 -269 -236 -269s-235 111 -235 269zM112 257c0 -134 78 -228 188 -228c111 0 189 94 189 228c0 135 -78 229 -189 229c-110 0 -188 -94 -188 -229z" />
    <glyph glyph-name="one.oprop" unicode="&#xe031;" horiz-adv-x="380" 
d="M260 515v-515h-47v465l-154 -90l-19 34l180 106h40z" />
    <glyph glyph-name="two.oprop" unicode="&#xe032;" horiz-adv-x="483" 
d="M45 0v32l238 193c54 44 77 86 77 136c0 73 -56 125 -134 125c-50 0 -96 -18 -151 -49l-20 36c62 36 118 54 178 54c102 0 175 -65 175 -162c0 -59 -25 -111 -86 -160l-205 -166h299v-39h-371z" />
    <glyph glyph-name="three.oprop" unicode="&#xe033;" horiz-adv-x="499" 
d="M154 175v37h36c106 0 180 58 180 140c0 79 -61 134 -149 134c-54 0 -110 -12 -174 -42l-16 37c69 33 135 46 195 46c113 0 192 -71 192 -172c0 -78 -53 -139 -134 -160c91 -23 150 -89 150 -171c0 -107 -86 -180 -208 -180c-64 0 -138 15 -211 49l16 38
c67 -31 132 -46 189 -46c97 0 165 58 165 142c0 87 -79 148 -195 148h-36z" />
    <glyph glyph-name="four.oprop" unicode="&#xe034;" horiz-adv-x="550" 
d="M358 -144v144h-335v33l335 482h45v-476h111v-39h-111v-144h-45zM72 39h286v414z" />
    <glyph glyph-name="five.oprop" unicode="&#xe035;" horiz-adv-x="515" 
d="M447 515v-41h-314v-242c41 9 83 13 117 13c137 0 221 -79 221 -200c0 -118 -90 -201 -225 -201c-67 0 -136 22 -198 57l20 37c58 -33 117 -53 175 -53c110 0 181 65 181 161c0 99 -69 162 -185 162c-43 0 -92 -6 -149 -20v327h357z" />
    <glyph glyph-name="six.oprop" unicode="&#xe036;" horiz-adv-x="582" 
d="M73 289c0 244 94 382 266 382c51 0 104 -12 154 -38l-17 -37c-45 22 -91 35 -136 35c-144 0 -223 -116 -221 -336c25 74 103 121 194 121c126 0 211 -84 211 -210c0 -124 -94 -218 -217 -218c-143 0 -234 104 -234 301zM127 221c0 -113 74 -193 179 -193
c97 0 173 76 173 176c0 104 -69 173 -173 173c-100 0 -179 -67 -179 -156z" />
    <glyph glyph-name="seven.oprop" unicode="&#xe037;" horiz-adv-x="470" 
d="M107 -144l267 618h-346v41h400v-32l-271 -627h-50z" />
    <glyph glyph-name="eight.oprop" unicode="&#xe038;" horiz-adv-x="582" 
d="M291 356c93 15 164 63 164 144c0 76 -70 132 -164 132s-164 -56 -164 -132c0 -81 71 -129 164 -144zM65 165c0 86 62 152 169 172c-88 19 -153 80 -153 165c0 98 88 169 210 169s210 -71 210 -169c0 -85 -65 -146 -153 -165c107 -20 169 -86 169 -172
c0 -105 -92 -177 -226 -177s-226 72 -226 177zM291 319c-109 -16 -178 -70 -178 -152c0 -83 73 -140 178 -140s178 57 178 140c0 82 -69 136 -178 152z" />
    <glyph glyph-name="nine.oprop" unicode="&#xe039;" horiz-adv-x="582" 
d="M509 226c0 -244 -94 -382 -266 -382c-51 0 -104 12 -154 38l17 37c45 -22 91 -35 136 -35c144 0 223 116 221 336c-25 -74 -103 -121 -194 -121c-126 0 -211 84 -211 210c0 124 94 218 217 218c143 0 234 -104 234 -301zM455 293c0 114 -74 194 -179 194
c-97 0 -173 -76 -173 -176c0 -104 69 -173 173 -173c100 0 179 66 179 155z" />
    <glyph glyph-name="dollar.oprop" unicode="&#xe03a;" horiz-adv-x="479" 
d="M219 -160v149c-48 3 -103 16 -157 39l12 38c57 -24 114 -39 163 -39c79 0 134 39 134 101c0 152 -305 75 -305 262c0 76 60 128 153 135v150h42v-149c45 -2 93 -15 140 -36l-12 -37c-50 22 -100 35 -145 35c-79 0 -131 -40 -131 -98c0 -148 305 -70 305 -262
c0 -78 -63 -132 -157 -138v-150h-42z" />
    <glyph glyph-name="cent.oprop" unicode="&#xe03b;" horiz-adv-x="502" 
d="M58 257c0 138 83 238 204 251v149h42v-148c52 -1 102 -18 151 -52l-22 -35c-43 31 -88 48 -135 48c-113 0 -191 -88 -191 -213s78 -213 191 -213c47 0 92 17 135 48l22 -35c-49 -34 -99 -51 -151 -53v-147h-42v149c-121 13 -204 113 -204 251z" />
    <glyph glyph-name="Euro.oprop" unicode="&#xe03c;" horiz-adv-x="515" 
d="M38 189v30h68c-1 12 -2 25 -2 38c0 16 1 31 3 47h-69v30h75c26 115 112 193 224 193c53 0 103 -14 150 -41l-18 -31c-40 23 -82 36 -127 36c-89 0 -157 -63 -180 -157h224v-30h-233c-3 -16 -4 -31 -4 -47c0 -13 0 -26 2 -38h235v-30h-226c20 -99 89 -166 182 -165
c45 0 87 13 127 36l18 -31c-47 -27 -97 -41 -150 -41c-115 0 -202 81 -225 201h-74z" />
    <glyph glyph-name="sterling.oprop" unicode="&#xe03d;" horiz-adv-x="470" 
d="M49 0v38h94v207h-82v37h82v111c0 86 67 147 163 147c38 0 77 -10 118 -25l-12 -35c-35 13 -68 22 -99 22c-73 0 -122 -47 -122 -112v-108h168v-37h-168v-207h242v-38h-384z" />
    <glyph glyph-name="yen.oprop" unicode="&#xe03e;" horiz-adv-x="489" 
d="M220 0v114h-151v33h151v84h-151v34h137l-178 250h55l161 -232l161 232h55l-178 -250h137v-34h-151v-84h151v-33h-151v-114h-48z" />
    <glyph glyph-name="a.sup" unicode="&#xe120;" horiz-adv-x="378" 
d="M42 343c0 66 56 105 146 105c24 0 50 -4 77 -9v35c0 49 -34 81 -85 81c-34 0 -69 -8 -108 -24l-10 29c42 17 82 25 120 25c70 0 120 -45 120 -112v-163c0 -20 11 -31 30 -31c6 0 13 1 20 2l3 -30c-9 -2 -20 -3 -31 -3c-34 0 -56 22 -57 58c-24 -37 -65 -58 -114 -58
c-63 0 -111 40 -111 95zM80 344c0 -39 35 -66 79 -66c61 0 106 43 106 102v33c-26 5 -52 8 -75 8c-69 0 -110 -27 -110 -77z" />
    <glyph glyph-name="b.sup" unicode="&#xe121;" horiz-adv-x="402" 
d="M66 256v464h38v-197c20 40 61 62 111 62c85 0 145 -70 145 -168c0 -99 -60 -169 -145 -169c-51 0 -92 23 -113 64l-4 -56h-32zM321 417c0 80 -47 135 -112 135c-63 0 -105 -44 -105 -108v-55c0 -64 42 -108 105 -108c65 0 112 56 112 136z" />
    <glyph glyph-name="c.sup" unicode="&#xe122;" horiz-adv-x="345" 
d="M42 417c0 98 67 168 159 168c36 0 73 -12 108 -35l-17 -28c-28 20 -58 30 -87 30c-73 0 -125 -56 -125 -135c0 -81 52 -136 125 -136c29 0 59 11 87 30l17 -28c-35 -22 -72 -35 -108 -35c-92 0 -159 70 -159 169z" />
    <glyph glyph-name="d.sup" unicode="&#xe123;" horiz-adv-x="402" 
d="M336 720v-464h-32l-5 56c-20 -41 -61 -64 -113 -64c-84 0 -144 70 -144 169c0 98 60 168 144 168c51 0 91 -22 111 -62v197h39zM81 417c0 -80 46 -136 112 -136c62 0 105 44 105 108v55c0 64 -43 108 -105 108c-66 0 -112 -55 -112 -135z" />
    <glyph glyph-name="e.sup" unicode="&#xe124;" horiz-adv-x="373" 
d="M42 417c0 99 64 168 153 168c83 0 143 -66 143 -163c0 -5 0 -10 -1 -15h-256c3 -78 53 -128 125 -128c30 0 66 9 99 29l16 -26c-39 -23 -80 -34 -116 -34c-96 0 -163 69 -163 169zM195 555c-63 0 -109 -48 -114 -121h219c-2 73 -45 121 -105 121z" />
    <glyph glyph-name="f.sup" unicode="&#xe125;" horiz-adv-x="262" 
d="M98 256v289h-70v32h70v63c0 52 38 88 91 88c20 0 41 -3 62 -9l-7 -31c-16 4 -33 7 -49 7c-35 0 -59 -23 -59 -57v-61h96v-32h-96v-289h-38z" />
    <glyph glyph-name="g.sup" unicode="&#xe126;" horiz-adv-x="402" 
d="M336 577v-328c0 -82 -64 -137 -153 -137c-36 0 -77 8 -121 28l12 30c40 -17 78 -26 107 -26c68 0 116 41 116 102v65c-20 -40 -60 -63 -111 -63c-84 0 -144 70 -144 169c0 98 60 168 144 168c52 0 93 -23 113 -64l5 56h32zM81 417c0 -81 46 -136 112 -136
c62 0 105 44 105 108v55c0 64 -43 108 -105 108c-66 0 -112 -56 -112 -135z" />
    <glyph glyph-name="h.sup" unicode="&#xe127;" horiz-adv-x="402" 
d="M66 256v464h38v-203c21 43 64 68 115 68c72 0 123 -50 123 -120v-209h-39v205c0 53 -38 91 -92 91c-62 0 -107 -47 -107 -113v-183h-38z" />
    <glyph glyph-name="i.sup" unicode="&#xe128;" horiz-adv-x="170" 
d="M66 256v321h38v-321h-38zM57 679c0 16 12 28 28 28c17 0 28 -12 28 -28c0 -17 -11 -28 -28 -28c-16 0 -28 11 -28 28z" />
    <glyph glyph-name="j.sup" unicode="&#xe129;" horiz-adv-x="176" 
d="M110 577v-377c0 -52 -38 -88 -90 -88c-21 0 -42 3 -63 9l7 31c16 -4 33 -7 49 -7c35 0 59 23 59 57v375h38zM63 679c0 16 12 28 28 28c17 0 28 -12 28 -28c0 -17 -11 -28 -28 -28c-16 0 -28 11 -28 28z" />
    <glyph glyph-name="k.sup" unicode="&#xe12a;" horiz-adv-x="352" 
d="M66 256v464h37v-311l166 168h48l-148 -149l153 -172h-47l-132 148l-40 -39v-109h-37z" />
    <glyph glyph-name="l.sup" unicode="&#xe12b;" horiz-adv-x="202" 
d="M104 720v-397c0 -25 17 -42 43 -42c10 0 22 2 34 5l5 -32c-15 -4 -31 -6 -45 -6c-45 0 -75 29 -75 72v400h38z" />
    <glyph glyph-name="m.sup" unicode="&#xe12c;" horiz-adv-x="617" 
d="M66 256v321h32l4 -56c22 42 63 64 113 64c51 0 93 -29 107 -73c22 45 65 73 119 73c67 0 116 -47 116 -114v-215h-38v211c0 49 -36 86 -87 86c-59 0 -101 -46 -101 -109v-188h-39v211c0 49 -35 86 -85 86c-60 0 -103 -46 -103 -109v-188h-38z" />
    <glyph glyph-name="n.sup" unicode="&#xe12d;" horiz-adv-x="402" 
d="M66 256v321h32l4 -62c22 45 65 70 117 70c72 0 123 -50 123 -120v-209h-39v205c0 53 -38 91 -92 91c-62 0 -107 -47 -107 -113v-183h-38z" />
    <glyph glyph-name="o.sup" unicode="&#xe12e;" horiz-adv-x="402" 
d="M42 417c0 99 66 168 159 168s159 -69 159 -168c0 -100 -66 -169 -159 -169s-159 69 -159 169zM81 417c0 -81 49 -136 120 -136c70 0 120 55 120 136c0 80 -50 136 -120 136c-71 0 -120 -56 -120 -136z" />
    <glyph glyph-name="p.sup" unicode="&#xe12f;" horiz-adv-x="402" 
d="M66 120v457h32l4 -56c21 41 62 64 113 64c85 0 145 -70 145 -168c0 -99 -60 -169 -145 -169c-50 0 -91 23 -111 63v-191h-38zM321 417c0 79 -47 135 -112 135c-63 0 -105 -44 -105 -108v-55c0 -64 42 -108 105 -108c65 0 112 55 112 136z" />
    <glyph glyph-name="q.sup" unicode="&#xe130;" horiz-adv-x="402" 
d="M336 577v-457h-39v191c-20 -40 -60 -63 -111 -63c-84 0 -144 70 -144 169c0 98 60 168 144 168c52 0 93 -23 113 -64l5 56h32zM81 417c0 -81 46 -136 112 -136c62 0 105 44 105 108v55c0 64 -43 108 -105 108c-66 0 -112 -56 -112 -135z" />
    <glyph glyph-name="r.sup" unicode="&#xe131;" horiz-adv-x="270" 
d="M66 256v321h32l4 -63c17 42 56 68 103 68c13 0 28 -2 41 -5l-6 -33c-11 2 -25 4 -37 4c-59 0 -99 -47 -99 -116v-176h-38z" />
    <glyph glyph-name="s.sup" unicode="&#xe132;" horiz-adv-x="314" 
d="M44 500c0 51 46 85 113 85c31 0 65 -8 103 -21l-10 -30c-33 13 -63 20 -91 20c-46 0 -77 -21 -77 -54c0 -89 190 -41 190 -163c0 -53 -47 -89 -115 -89c-34 0 -73 8 -115 24l10 30c37 -16 72 -23 103 -23c47 0 79 23 79 58c0 91 -190 43 -190 163z" />
    <glyph glyph-name="t.sup" unicode="&#xe133;" horiz-adv-x="282" 
d="M136 673v-96h106v-32h-106v-207c0 -34 24 -57 59 -57c16 0 33 3 49 7l7 -31c-21 -6 -42 -9 -62 -9c-53 0 -91 36 -91 88v209h-70v32h70v96h38z" />
    <glyph glyph-name="u.sup" unicode="&#xe134;" horiz-adv-x="402" 
d="M336 577v-321h-32l-5 62c-21 -44 -64 -70 -117 -70c-71 0 -122 50 -122 121v208h38v-204c0 -54 38 -91 93 -91c62 0 106 46 106 112v183h39z" />
    <glyph glyph-name="v.sup" unicode="&#xe135;" horiz-adv-x="361" 
d="M331 577l-132 -321h-37l-133 321h42l109 -275l110 275h41z" />
    <glyph glyph-name="w.sup" unicode="&#xe136;" horiz-adv-x="531" 
d="M495 577l-105 -321h-39l-86 274l-86 -274h-38l-106 321h39l86 -274l86 274h38l86 -274l86 274h39z" />
    <glyph glyph-name="x.sup" unicode="&#xe137;" horiz-adv-x="361" 
d="M32 256l123 165l-117 156h44l98 -131l99 131h44l-117 -156l123 -165h-44l-105 139l-104 -139h-44z" />
    <glyph glyph-name="y.sup" unicode="&#xe138;" horiz-adv-x="361" 
d="M331 577l-151 -373c-26 -65 -55 -92 -105 -92c-11 0 -27 2 -41 5l5 32c13 -3 24 -5 33 -5c35 0 53 19 73 68l19 47l-135 318h42l112 -275l107 275h41z" />
    <glyph glyph-name="z.sup" unicode="&#xe139;" horiz-adv-x="335" 
d="M42 256v24l194 265h-188v32h240v-23l-194 -266h199v-32h-251z" />
    <glyph glyph-name="ordfeminine" unicode="&#xaa;" horiz-adv-x="378" 
d="M29 239v31h320v-31h-320zM42 439c0 66 56 105 146 105c24 0 50 -4 77 -9v35c0 49 -34 81 -85 81c-34 0 -69 -8 -108 -24l-10 29c42 17 82 25 120 25c70 0 120 -45 120 -112v-163c0 -20 11 -31 30 -31c6 0 13 1 20 2l3 -30c-9 -2 -20 -3 -31 -3c-34 0 -56 22 -57 58
c-24 -37 -65 -58 -114 -58c-63 0 -111 40 -111 95zM80 440c0 -39 35 -66 79 -66c61 0 106 43 106 102v33c-26 5 -52 8 -75 8c-69 0 -110 -27 -110 -77z" />
    <glyph glyph-name="ordmasculine" unicode="&#xba;" horiz-adv-x="402" 
d="M45 239v31h311v-31h-311zM42 513c0 99 66 168 159 168s159 -69 159 -168c0 -100 -66 -169 -159 -169s-159 69 -159 169zM81 513c0 -81 49 -136 120 -136c70 0 120 55 120 136c0 80 -50 136 -120 136c-71 0 -120 -56 -120 -136z" />
    <glyph glyph-name="zero.sup" unicode="&#x2070;" horiz-adv-x="421" 
d="M55 592c0 131 61 215 156 215c94 0 155 -84 155 -215s-61 -215 -155 -215c-95 0 -156 84 -156 215zM93 592c0 -112 45 -183 118 -183c72 0 117 71 117 183s-45 183 -117 183c-73 0 -118 -71 -118 -183z" />
    <glyph glyph-name="onesuperior" unicode="&#xb9;" horiz-adv-x="266" 
d="M185 800v-416h-38v376l-111 -64l-15 27l132 77h32z" />
    <glyph glyph-name="twosuperior" unicode="&#xb2;" horiz-adv-x="340" 
d="M26 384v25l169 170c34 33 51 68 51 103c0 55 -36 92 -92 92c-36 0 -71 -13 -107 -36l-17 29c44 27 87 41 129 41c74 0 125 -50 125 -121c0 -44 -19 -86 -58 -124l-145 -146h209v-33h-264z" />
    <glyph glyph-name="threesuperior" unicode="&#xb3;" horiz-adv-x="340" 
d="M113 582v30h25c62 0 105 34 105 83c0 48 -35 81 -88 81c-31 0 -67 -8 -105 -27l-14 30c44 21 86 29 124 29c72 0 121 -46 121 -110c0 -48 -30 -87 -77 -100c52 -15 87 -56 87 -107c0 -68 -53 -115 -131 -115c-40 0 -84 9 -131 32l15 30c40 -21 76 -30 111 -30
c58 0 97 35 97 86c0 52 -46 88 -114 88h-25z" />
    <glyph glyph-name="four.sup" unicode="&#x2074;" horiz-adv-x="372" 
d="M234 384v100h-205v27l204 289h36v-285h68v-31h-68v-100h-35zM68 515h166v235z" />
    <glyph glyph-name="five.sup" unicode="&#x2075;" horiz-adv-x="340" 
d="M283 800v-32h-190v-143c25 4 49 6 69 6c84 0 137 -50 137 -126c0 -75 -57 -129 -142 -129c-42 0 -85 14 -124 37l16 29c34 -22 71 -33 106 -33c64 0 106 39 106 96c0 59 -40 96 -108 96c-30 0 -60 -4 -95 -11v210h225z" />
    <glyph glyph-name="six.sup" unicode="&#x2076;" horiz-adv-x="382" 
d="M55 567c0 152 58 241 167 241c31 0 64 -8 97 -24l-14 -29c-27 14 -56 21 -82 21c-86 0 -131 -72 -132 -199c19 43 63 71 115 71c78 0 132 -53 132 -134s-63 -138 -138 -138c-90 0 -145 67 -145 191zM96 522c0 -62 38 -114 104 -114c55 0 103 42 103 105
c0 64 -42 104 -102 104c-58 0 -105 -42 -105 -95z" />
    <glyph glyph-name="seven.sup" unicode="&#x2077;" horiz-adv-x="312" 
d="M68 384l168 383h-215v33h257v-25l-169 -391h-41z" />
    <glyph glyph-name="eight.sup" unicode="&#x2078;" horiz-adv-x="382" 
d="M191 612c56 8 97 37 97 85c0 47 -40 80 -97 80s-98 -33 -98 -80c0 -48 42 -77 98 -85zM47 491c0 51 35 93 100 106c-54 12 -90 51 -90 102c0 64 56 109 134 109c79 0 134 -45 134 -109c0 -51 -36 -91 -89 -102c64 -13 99 -55 99 -106c0 -69 -58 -115 -144 -115
c-85 0 -144 46 -144 115zM191 582c-65 -9 -107 -41 -107 -89c0 -52 44 -87 107 -87c64 0 107 35 107 87c0 48 -42 80 -107 89z" />
    <glyph glyph-name="nine.sup" unicode="&#x2079;" horiz-adv-x="382" 
d="M327 617c0 -152 -58 -241 -167 -241c-31 0 -64 8 -97 24l14 29c27 -14 56 -21 82 -21c86 0 131 72 132 199c-19 -43 -63 -71 -115 -71c-78 0 -132 53 -132 134s63 138 138 138c90 0 145 -67 145 -191zM286 662c0 62 -38 114 -104 114c-55 0 -103 -42 -103 -105
c0 -64 41 -104 102 -104c58 0 105 42 105 95z" />
    <glyph glyph-name="plus.sup" unicode="&#x207a;" horiz-adv-x="376" 
d="M44 575v34h127v127h34v-127h127v-34h-127v-127h-34v127h-127z" />
    <glyph glyph-name="minus.sup" unicode="&#x207b;" horiz-adv-x="376" 
d="M44 575v34h288v-34h-288z" />
    <glyph glyph-name="equal.sup" unicode="&#x207c;" horiz-adv-x="376" 
d="M44 644v33h288v-33h-288zM44 507v33h288v-33h-288z" />
    <glyph glyph-name="parenleft.sup" unicode="&#x207d;" horiz-adv-x="226" 
d="M165 863l27 -20c-64 -68 -94 -157 -94 -251s30 -183 94 -250l-27 -21c-69 74 -103 169 -103 271s34 198 103 271z" />
    <glyph glyph-name="parenright.sup" unicode="&#x207e;" horiz-adv-x="226" 
d="M61 321l-28 21c65 67 95 157 95 251s-30 182 -95 250l28 20c68 -73 103 -168 103 -270s-35 -198 -103 -272z" />
    <glyph glyph-name="period.sup" unicode="&#xe060;" horiz-adv-x="169" 
d="M55 408c0 16 13 29 29 29c17 0 30 -13 30 -29c0 -17 -12 -30 -30 -30c-16 0 -29 13 -29 30z" />
    <glyph glyph-name="comma.sup" unicode="&#xe061;" horiz-adv-x="169" 
d="M55 408c0 16 12 29 29 29c20 0 34 -16 34 -43c0 -47 -25 -83 -65 -109l-15 19c29 20 47 47 47 77c-16 -2 -30 10 -30 27z" />
    <glyph glyph-name="zero.sub" unicode="&#x2080;" horiz-adv-x="421" 
d="M55 80c0 131 61 215 156 215c94 0 155 -84 155 -215s-61 -215 -155 -215c-95 0 -156 84 -156 215zM93 80c0 -112 45 -183 118 -183c72 0 117 71 117 183s-45 183 -117 183c-73 0 -118 -71 -118 -183z" />
    <glyph glyph-name="one.sub" unicode="&#x2081;" horiz-adv-x="266" 
d="M185 288v-416h-38v376l-111 -64l-15 27l132 77h32z" />
    <glyph glyph-name="two.sub" unicode="&#x2082;" horiz-adv-x="340" 
d="M26 -128v25l169 170c34 33 51 68 51 103c0 55 -36 92 -92 92c-36 0 -71 -13 -107 -36l-17 29c44 27 87 41 129 41c74 0 125 -50 125 -121c0 -44 -19 -86 -58 -124l-145 -146h209v-33h-264z" />
    <glyph glyph-name="three.sub" unicode="&#x2083;" horiz-adv-x="340" 
d="M113 70v30h25c62 0 105 34 105 83c0 48 -35 81 -88 81c-31 0 -67 -8 -105 -27l-14 30c44 21 86 29 124 29c72 0 121 -46 121 -110c0 -48 -30 -87 -77 -100c52 -15 87 -56 87 -107c0 -68 -53 -115 -131 -115c-40 0 -84 9 -131 32l15 30c40 -21 76 -30 111 -30
c58 0 97 35 97 86c0 52 -46 88 -114 88h-25z" />
    <glyph glyph-name="four.sub" unicode="&#x2084;" horiz-adv-x="372" 
d="M234 -128v100h-205v27l204 289h36v-285h68v-31h-68v-100h-35zM68 3h166v235z" />
    <glyph glyph-name="five.sub" unicode="&#x2085;" horiz-adv-x="340" 
d="M283 288v-32h-190v-143c25 4 49 6 69 6c84 0 137 -50 137 -126c0 -75 -57 -129 -142 -129c-42 0 -85 14 -124 37l16 29c34 -22 71 -33 106 -33c64 0 106 39 106 96c0 59 -40 96 -108 96c-30 0 -60 -4 -95 -11v210h225z" />
    <glyph glyph-name="six.sub" unicode="&#x2086;" horiz-adv-x="382" 
d="M55 55c0 152 58 241 167 241c31 0 64 -8 97 -24l-14 -29c-27 14 -56 21 -82 21c-86 0 -131 -72 -132 -199c19 43 63 71 115 71c78 0 132 -53 132 -134s-63 -138 -138 -138c-90 0 -145 67 -145 191zM96 10c0 -62 38 -114 104 -114c55 0 103 42 103 105
c0 64 -42 104 -102 104c-58 0 -105 -42 -105 -95z" />
    <glyph glyph-name="seven.sub" unicode="&#x2087;" horiz-adv-x="312" 
d="M68 -128l168 383h-215v33h257v-25l-169 -391h-41z" />
    <glyph glyph-name="eight.sub" unicode="&#x2088;" horiz-adv-x="382" 
d="M191 100c56 8 97 37 97 85c0 47 -40 80 -97 80s-98 -33 -98 -80c0 -48 42 -77 98 -85zM47 -21c0 51 35 93 100 106c-54 12 -90 51 -90 102c0 64 56 109 134 109c79 0 134 -45 134 -109c0 -51 -36 -91 -89 -102c64 -13 99 -55 99 -106c0 -69 -58 -115 -144 -115
c-85 0 -144 46 -144 115zM191 70c-65 -9 -107 -41 -107 -89c0 -52 44 -87 107 -87c64 0 107 35 107 87c0 48 -42 80 -107 89z" />
    <glyph glyph-name="nine.sub" unicode="&#x2089;" horiz-adv-x="382" 
d="M327 105c0 -152 -58 -241 -167 -241c-31 0 -64 8 -97 24l14 29c27 -14 56 -21 82 -21c86 0 131 72 132 199c-19 -43 -63 -71 -115 -71c-78 0 -132 53 -132 134s63 138 138 138c90 0 145 -67 145 -191zM286 150c0 62 -38 114 -104 114c-55 0 -103 -42 -103 -105
c0 -64 41 -104 102 -104c58 0 105 42 105 95z" />
    <glyph glyph-name="plus.sub" unicode="&#x208a;" horiz-adv-x="376" 
d="M44 63v34h127v127h34v-127h127v-34h-127v-127h-34v127h-127z" />
    <glyph glyph-name="minus.sub" unicode="&#x208b;" horiz-adv-x="376" 
d="M44 63v34h288v-34h-288z" />
    <glyph glyph-name="equal.sub" unicode="&#x208c;" horiz-adv-x="376" 
d="M44 132v33h288v-33h-288zM44 -5v33h288v-33h-288z" />
    <glyph glyph-name="parenleft.sub" unicode="&#x208d;" horiz-adv-x="226" 
d="M165 351l27 -20c-64 -68 -94 -157 -94 -251s30 -183 94 -250l-27 -21c-69 74 -103 169 -103 271s34 198 103 271z" />
    <glyph glyph-name="parenright.sub" unicode="&#x208e;" horiz-adv-x="226" 
d="M61 -191l-28 21c65 67 95 157 95 251s-30 182 -95 250l28 20c68 -73 103 -168 103 -270s-35 -198 -103 -272z" />
    <glyph glyph-name="period.sub" unicode="&#xe062;" horiz-adv-x="169" 
d="M55 -104c0 16 13 29 29 29c17 0 30 -13 30 -29c0 -17 -12 -30 -30 -30c-16 0 -29 13 -29 30z" />
    <glyph glyph-name="comma.sub" unicode="&#xe063;" horiz-adv-x="169" 
d="M55 -104c0 16 12 29 29 29c20 0 34 -16 34 -43c0 -47 -25 -83 -65 -109l-15 19c29 20 47 47 47 77c-16 -2 -30 10 -30 27z" />
    <glyph glyph-name="zero.num" unicode="&#xe040;" horiz-adv-x="421" 
d="M55 464c0 131 61 215 156 215c94 0 155 -84 155 -215s-61 -215 -155 -215c-95 0 -156 84 -156 215zM93 464c0 -112 45 -183 118 -183c72 0 117 71 117 183s-45 183 -117 183c-73 0 -118 -71 -118 -183z" />
    <glyph glyph-name="one.num" unicode="&#xe041;" horiz-adv-x="266" 
d="M185 672v-416h-38v376l-111 -64l-15 27l132 77h32z" />
    <glyph glyph-name="two.num" unicode="&#xe042;" horiz-adv-x="340" 
d="M26 256v25l169 170c34 33 51 68 51 103c0 55 -36 92 -92 92c-36 0 -71 -13 -107 -36l-17 29c44 27 87 41 129 41c74 0 125 -50 125 -121c0 -44 -19 -86 -58 -124l-145 -146h209v-33h-264z" />
    <glyph glyph-name="three.num" unicode="&#xe043;" horiz-adv-x="340" 
d="M113 454v30h25c62 0 105 34 105 83c0 48 -35 81 -88 81c-31 0 -67 -8 -105 -27l-14 30c44 21 86 29 124 29c72 0 121 -46 121 -110c0 -48 -30 -87 -77 -100c52 -15 87 -56 87 -107c0 -68 -53 -115 -131 -115c-40 0 -84 9 -131 32l15 30c40 -21 76 -30 111 -30
c58 0 97 35 97 86c0 52 -46 88 -114 88h-25z" />
    <glyph glyph-name="four.num" unicode="&#xe044;" horiz-adv-x="372" 
d="M234 256v100h-205v27l204 289h36v-285h68v-31h-68v-100h-35zM68 387h166v235z" />
    <glyph glyph-name="five.num" unicode="&#xe045;" horiz-adv-x="340" 
d="M283 672v-32h-190v-143c25 4 49 6 69 6c84 0 137 -50 137 -126c0 -75 -57 -129 -142 -129c-42 0 -85 14 -124 37l16 29c34 -22 71 -33 106 -33c64 0 106 39 106 96c0 59 -40 96 -108 96c-30 0 -60 -4 -95 -11v210h225z" />
    <glyph glyph-name="six.num" unicode="&#xe046;" horiz-adv-x="382" 
d="M55 439c0 152 58 241 167 241c31 0 64 -8 97 -24l-14 -29c-27 14 -56 21 -82 21c-86 0 -131 -72 -132 -199c19 43 63 71 115 71c78 0 132 -53 132 -134s-63 -138 -138 -138c-90 0 -145 67 -145 191zM96 394c0 -62 38 -114 104 -114c55 0 103 42 103 105
c0 64 -42 104 -102 104c-58 0 -105 -42 -105 -95z" />
    <glyph glyph-name="seven.num" unicode="&#xe047;" horiz-adv-x="312" 
d="M68 256l168 383h-215v33h257v-25l-169 -391h-41z" />
    <glyph glyph-name="eight.num" unicode="&#xe048;" horiz-adv-x="382" 
d="M191 484c56 8 97 37 97 85c0 47 -40 80 -97 80s-98 -33 -98 -80c0 -48 42 -77 98 -85zM47 363c0 51 35 93 100 106c-54 12 -90 51 -90 102c0 64 56 109 134 109c79 0 134 -45 134 -109c0 -51 -36 -91 -89 -102c64 -13 99 -55 99 -106c0 -69 -58 -115 -144 -115
c-85 0 -144 46 -144 115zM191 454c-65 -9 -107 -41 -107 -89c0 -52 44 -87 107 -87c64 0 107 35 107 87c0 48 -42 80 -107 89z" />
    <glyph glyph-name="nine.num" unicode="&#xe049;" horiz-adv-x="382" 
d="M327 489c0 -152 -58 -241 -167 -241c-31 0 -64 8 -97 24l14 29c27 -14 56 -21 82 -21c86 0 131 72 132 199c-19 -43 -63 -71 -115 -71c-78 0 -132 53 -132 134s63 138 138 138c90 0 145 -67 145 -191zM286 534c0 62 -38 114 -104 114c-55 0 -103 -42 -103 -105
c0 -64 41 -104 102 -104c58 0 105 42 105 95z" />
    <glyph glyph-name="plus.num" unicode="&#xe04a;" horiz-adv-x="376" 
d="M44 447v34h127v127h34v-127h127v-34h-127v-127h-34v127h-127z" />
    <glyph glyph-name="minus.num" unicode="&#xe04b;" horiz-adv-x="376" 
d="M44 447v34h288v-34h-288z" />
    <glyph glyph-name="equal.num" unicode="&#xe04c;" horiz-adv-x="376" 
d="M44 516v33h288v-33h-288zM44 379v33h288v-33h-288z" />
    <glyph glyph-name="parenleft.num" unicode="&#xe04d;" horiz-adv-x="226" 
d="M165 735l27 -20c-64 -68 -94 -157 -94 -251s30 -183 94 -250l-27 -21c-69 74 -103 169 -103 271s34 198 103 271z" />
    <glyph glyph-name="parenright.num" unicode="&#xe04e;" horiz-adv-x="226" 
d="M61 193l-28 21c65 67 95 157 95 251s-30 182 -95 250l28 20c68 -73 103 -168 103 -270s-35 -198 -103 -272z" />
    <glyph glyph-name="period.num" unicode="&#xe064;" horiz-adv-x="169" 
d="M55 280c0 16 13 29 29 29c17 0 30 -13 30 -29c0 -17 -12 -30 -30 -30c-16 0 -29 13 -29 30z" />
    <glyph glyph-name="comma.num" unicode="&#xe065;" horiz-adv-x="169" 
d="M55 280c0 16 12 29 29 29c20 0 34 -16 34 -43c0 -47 -25 -83 -65 -109l-15 19c29 20 47 47 47 77c-16 -2 -30 10 -30 27z" />
    <glyph glyph-name="zero.den" unicode="&#xe050;" horiz-adv-x="421" 
d="M55 208c0 131 61 215 156 215c94 0 155 -84 155 -215s-61 -215 -155 -215c-95 0 -156 84 -156 215zM93 208c0 -112 45 -183 118 -183c72 0 117 71 117 183s-45 183 -117 183c-73 0 -118 -71 -118 -183z" />
    <glyph glyph-name="one.den" unicode="&#xe051;" horiz-adv-x="266" 
d="M185 416v-416h-38v376l-111 -64l-15 27l132 77h32z" />
    <glyph glyph-name="two.den" unicode="&#xe052;" horiz-adv-x="340" 
d="M26 0v25l169 170c34 33 51 68 51 103c0 55 -36 92 -92 92c-36 0 -71 -13 -107 -36l-17 29c44 27 87 41 129 41c74 0 125 -50 125 -121c0 -44 -19 -86 -58 -124l-145 -146h209v-33h-264z" />
    <glyph glyph-name="three.den" unicode="&#xe053;" horiz-adv-x="340" 
d="M113 198v30h25c62 0 105 34 105 83c0 48 -35 81 -88 81c-31 0 -67 -8 -105 -27l-14 30c44 21 86 29 124 29c72 0 121 -46 121 -110c0 -48 -30 -87 -77 -100c52 -15 87 -56 87 -107c0 -68 -53 -115 -131 -115c-40 0 -84 9 -131 32l15 30c40 -21 76 -30 111 -30
c58 0 97 35 97 86c0 52 -46 88 -114 88h-25z" />
    <glyph glyph-name="four.den" unicode="&#xe054;" horiz-adv-x="372" 
d="M234 0v100h-205v27l204 289h36v-285h68v-31h-68v-100h-35zM68 131h166v235z" />
    <glyph glyph-name="five.den" unicode="&#xe055;" horiz-adv-x="340" 
d="M283 416v-32h-190v-143c25 4 49 6 69 6c84 0 137 -50 137 -126c0 -75 -57 -129 -142 -129c-42 0 -85 14 -124 37l16 29c34 -22 71 -33 106 -33c64 0 106 39 106 96c0 59 -40 96 -108 96c-30 0 -60 -4 -95 -11v210h225z" />
    <glyph glyph-name="six.den" unicode="&#xe056;" horiz-adv-x="382" 
d="M55 183c0 152 58 241 167 241c31 0 64 -8 97 -24l-14 -29c-27 14 -56 21 -82 21c-86 0 -131 -72 -132 -199c19 43 63 71 115 71c78 0 132 -53 132 -134s-63 -138 -138 -138c-90 0 -145 67 -145 191zM96 138c0 -62 38 -114 104 -114c55 0 103 42 103 105
c0 64 -42 104 -102 104c-58 0 -105 -42 -105 -95z" />
    <glyph glyph-name="seven.den" unicode="&#xe057;" horiz-adv-x="312" 
d="M68 0l168 383h-215v33h257v-25l-169 -391h-41z" />
    <glyph glyph-name="eight.den" unicode="&#xe058;" horiz-adv-x="382" 
d="M191 228c56 8 97 37 97 85c0 47 -40 80 -97 80s-98 -33 -98 -80c0 -48 42 -77 98 -85zM47 107c0 51 35 93 100 106c-54 12 -90 51 -90 102c0 64 56 109 134 109c79 0 134 -45 134 -109c0 -51 -36 -91 -89 -102c64 -13 99 -55 99 -106c0 -69 -58 -115 -144 -115
c-85 0 -144 46 -144 115zM191 198c-65 -9 -107 -41 -107 -89c0 -52 44 -87 107 -87c64 0 107 35 107 87c0 48 -42 80 -107 89z" />
    <glyph glyph-name="nine.den" unicode="&#xe059;" horiz-adv-x="382" 
d="M327 233c0 -152 -58 -241 -167 -241c-31 0 -64 8 -97 24l14 29c27 -14 56 -21 82 -21c86 0 131 72 132 199c-19 -43 -63 -71 -115 -71c-78 0 -132 53 -132 134s63 138 138 138c90 0 145 -67 145 -191zM286 278c0 62 -38 114 -104 114c-55 0 -103 -42 -103 -105
c0 -64 41 -104 102 -104c58 0 105 42 105 95z" />
    <glyph glyph-name="plus.den" unicode="&#xe05a;" horiz-adv-x="376" 
d="M44 191v34h127v127h34v-127h127v-34h-127v-127h-34v127h-127z" />
    <glyph glyph-name="minus.den" unicode="&#xe05b;" horiz-adv-x="376" 
d="M44 191v34h288v-34h-288z" />
    <glyph glyph-name="equal.den" unicode="&#xe05c;" horiz-adv-x="376" 
d="M44 260v33h288v-33h-288zM44 123v33h288v-33h-288z" />
    <glyph glyph-name="parenleft.den" unicode="&#xe05d;" horiz-adv-x="226" 
d="M165 479l27 -20c-64 -68 -94 -157 -94 -251s30 -183 94 -250l-27 -21c-69 74 -103 169 -103 271s34 198 103 271z" />
    <glyph glyph-name="parenright.den" unicode="&#xe05e;" horiz-adv-x="226" 
d="M61 -63l-28 21c65 67 95 157 95 251s-30 182 -95 250l28 20c68 -73 103 -168 103 -270s-35 -198 -103 -272z" />
    <glyph glyph-name="period.den" unicode="&#xe066;" horiz-adv-x="169" 
d="M55 24c0 16 13 29 29 29c17 0 30 -13 30 -29c0 -17 -12 -30 -30 -30c-16 0 -29 13 -29 30z" />
    <glyph glyph-name="comma.den" unicode="&#xe067;" horiz-adv-x="169" 
d="M55 24c0 16 12 29 29 29c20 0 34 -16 34 -43c0 -47 -25 -83 -65 -109l-15 19c29 20 47 47 47 77c-16 -2 -30 10 -30 27z" />
    <glyph glyph-name="fraction" unicode="&#x2044;" horiz-adv-x="192" 
d="M-170 11l504 672l28 -22l-504 -672z" />
    <glyph glyph-name="onehalf" unicode="&#xbd;" horiz-adv-x="960" 
d="M244 672v-416h-38v376l-111 -64l-15 27l132 77h32zM214 11l504 672l28 -22l-504 -672zM624 0v25l169 170c34 33 51 68 51 103c0 55 -36 92 -92 92c-36 0 -71 -13 -107 -36l-17 29c44 27 87 41 129 41c74 0 125 -50 125 -121c0 -44 -19 -86 -58 -124l-145 -146h209v-33
h-264z" />
    <glyph glyph-name="onequarter" unicode="&#xbc;" horiz-adv-x="960" 
d="M244 672v-416h-38v376l-111 -64l-15 27l132 77h32zM214 11l504 672l28 -22l-504 -672zM816 0v100h-205v27l204 289h36v-285h68v-31h-68v-100h-35zM650 131h166v235z" />
    <glyph glyph-name="threequarters" unicode="&#xbe;" horiz-adv-x="960" 
d="M135 454v30h25c62 0 105 34 105 83c0 48 -35 81 -88 81c-31 0 -67 -8 -105 -27l-14 30c44 21 86 29 124 29c72 0 121 -46 121 -110c0 -48 -30 -87 -77 -100c52 -15 87 -56 87 -107c0 -68 -53 -115 -131 -115c-40 0 -84 9 -131 32l15 30c40 -21 76 -30 111 -30
c58 0 97 35 97 86c0 52 -46 88 -114 88h-25zM214 11l504 672l28 -22l-504 -672zM816 0v100h-205v27l204 289h36v-285h68v-31h-68v-100h-35zM650 131h166v235z" />
    <glyph glyph-name="onethird" unicode="&#x2153;" horiz-adv-x="960" 
d="M244 672v-416h-38v376l-111 -64l-15 27l132 77h32zM214 11l504 672l28 -22l-504 -672zM711 198v30h25c62 0 105 34 105 83c0 48 -35 81 -88 81c-31 0 -67 -8 -105 -27l-14 30c44 21 86 29 124 29c72 0 121 -46 121 -110c0 -48 -30 -87 -77 -100c52 -15 87 -56 87 -107
c0 -68 -53 -115 -131 -115c-40 0 -84 9 -131 32l15 30c40 -21 76 -30 111 -30c58 0 97 35 97 86c0 52 -46 88 -114 88h-25z" />
    <glyph glyph-name="twothirds" unicode="&#x2154;" horiz-adv-x="960" 
d="M48 256v25l169 170c34 33 51 68 51 103c0 55 -36 92 -92 92c-36 0 -71 -13 -107 -36l-17 29c44 27 87 41 129 41c74 0 125 -50 125 -121c0 -44 -19 -86 -58 -124l-145 -146h209v-33h-264zM214 11l504 672l28 -22l-504 -672zM711 198v30h25c62 0 105 34 105 83
c0 48 -35 81 -88 81c-31 0 -67 -8 -105 -27l-14 30c44 21 86 29 124 29c72 0 121 -46 121 -110c0 -48 -30 -87 -77 -100c52 -15 87 -56 87 -107c0 -68 -53 -115 -131 -115c-40 0 -84 9 -131 32l15 30c40 -21 76 -30 111 -30c58 0 97 35 97 86c0 52 -46 88 -114 88h-25z" />
    <glyph glyph-name="uni2155" unicode="&#x2155;" horiz-adv-x="960" 
d="M244 672v-416h-38v376l-111 -64l-15 27l132 77h32zM214 11l504 672l28 -22l-504 -672zM881 416v-32h-190v-143c25 4 49 6 69 6c84 0 137 -50 137 -126c0 -75 -57 -129 -142 -129c-42 0 -85 14 -124 37l16 29c34 -22 71 -33 106 -33c64 0 106 39 106 96
c0 59 -40 96 -108 96c-30 0 -60 -4 -95 -11v210h225z" />
    <glyph glyph-name="uni2156" unicode="&#x2156;" horiz-adv-x="960" 
d="M48 256v25l169 170c34 33 51 68 51 103c0 55 -36 92 -92 92c-36 0 -71 -13 -107 -36l-17 29c44 27 87 41 129 41c74 0 125 -50 125 -121c0 -44 -19 -86 -58 -124l-145 -146h209v-33h-264zM214 11l504 672l28 -22l-504 -672zM881 416v-32h-190v-143c25 4 49 6 69 6
c84 0 137 -50 137 -126c0 -75 -57 -129 -142 -129c-42 0 -85 14 -124 37l16 29c34 -22 71 -33 106 -33c64 0 106 39 106 96c0 59 -40 96 -108 96c-30 0 -60 -4 -95 -11v210h225z" />
    <glyph glyph-name="uni2157" unicode="&#x2157;" horiz-adv-x="960" 
d="M135 454v30h25c62 0 105 34 105 83c0 48 -35 81 -88 81c-31 0 -67 -8 -105 -27l-14 30c44 21 86 29 124 29c72 0 121 -46 121 -110c0 -48 -30 -87 -77 -100c52 -15 87 -56 87 -107c0 -68 -53 -115 -131 -115c-40 0 -84 9 -131 32l15 30c40 -21 76 -30 111 -30
c58 0 97 35 97 86c0 52 -46 88 -114 88h-25zM214 11l504 672l28 -22l-504 -672zM881 416v-32h-190v-143c25 4 49 6 69 6c84 0 137 -50 137 -126c0 -75 -57 -129 -142 -129c-42 0 -85 14 -124 37l16 29c34 -22 71 -33 106 -33c64 0 106 39 106 96c0 59 -40 96 -108 96
c-30 0 -60 -4 -95 -11v210h225z" />
    <glyph glyph-name="uni2158" unicode="&#x2158;" horiz-adv-x="960" 
d="M240 256v100h-205v27l204 289h36v-285h68v-31h-68v-100h-35zM74 387h166v235zM214 11l504 672l28 -22l-504 -672zM881 416v-32h-190v-143c25 4 49 6 69 6c84 0 137 -50 137 -126c0 -75 -57 -129 -142 -129c-42 0 -85 14 -124 37l16 29c34 -22 71 -33 106 -33
c64 0 106 39 106 96c0 59 -40 96 -108 96c-30 0 -60 -4 -95 -11v210h225z" />
    <glyph glyph-name="uni2159" unicode="&#x2159;" horiz-adv-x="960" 
d="M244 672v-416h-38v376l-111 -64l-15 27l132 77h32zM214 11l504 672l28 -22l-504 -672zM632 183c0 152 58 241 167 241c31 0 64 -8 97 -24l-14 -29c-27 14 -56 21 -82 21c-86 0 -131 -72 -132 -199c19 43 63 71 115 71c78 0 132 -53 132 -134s-63 -138 -138 -138
c-90 0 -145 67 -145 191zM673 138c0 -62 38 -114 104 -114c55 0 103 42 103 105c0 64 -42 104 -102 104c-58 0 -105 -42 -105 -95z" />
    <glyph glyph-name="uni215A" unicode="&#x215a;" horiz-adv-x="960" 
d="M305 672v-32h-190v-143c25 4 49 6 69 6c84 0 137 -50 137 -126c0 -75 -57 -129 -142 -129c-42 0 -85 14 -124 37l16 29c34 -22 71 -33 106 -33c64 0 106 39 106 96c0 59 -40 96 -108 96c-30 0 -60 -4 -95 -11v210h225zM214 11l504 672l28 -22l-504 -672zM632 183
c0 152 58 241 167 241c31 0 64 -8 97 -24l-14 -29c-27 14 -56 21 -82 21c-86 0 -131 -72 -132 -199c19 43 63 71 115 71c78 0 132 -53 132 -134s-63 -138 -138 -138c-90 0 -145 67 -145 191zM673 138c0 -62 38 -114 104 -114c55 0 103 42 103 105c0 64 -42 104 -102 104
c-58 0 -105 -42 -105 -95z" />
    <glyph glyph-name="oneeighth" unicode="&#x215b;" horiz-adv-x="960" 
d="M244 672v-416h-38v376l-111 -64l-15 27l132 77h32zM214 11l504 672l28 -22l-504 -672zM768 228c56 8 97 37 97 85c0 47 -40 80 -97 80s-98 -33 -98 -80c0 -48 42 -77 98 -85zM624 107c0 51 35 93 100 106c-54 12 -90 51 -90 102c0 64 56 109 134 109
c79 0 134 -45 134 -109c0 -51 -36 -91 -89 -102c64 -13 99 -55 99 -106c0 -69 -58 -115 -144 -115c-85 0 -144 46 -144 115zM768 198c-65 -9 -107 -41 -107 -89c0 -52 44 -87 107 -87c64 0 107 35 107 87c0 48 -42 80 -107 89z" />
    <glyph glyph-name="threeeighths" unicode="&#x215c;" horiz-adv-x="960" 
d="M135 454v30h25c62 0 105 34 105 83c0 48 -35 81 -88 81c-31 0 -67 -8 -105 -27l-14 30c44 21 86 29 124 29c72 0 121 -46 121 -110c0 -48 -30 -87 -77 -100c52 -15 87 -56 87 -107c0 -68 -53 -115 -131 -115c-40 0 -84 9 -131 32l15 30c40 -21 76 -30 111 -30
c58 0 97 35 97 86c0 52 -46 88 -114 88h-25zM214 11l504 672l28 -22l-504 -672zM768 228c56 8 97 37 97 85c0 47 -40 80 -97 80s-98 -33 -98 -80c0 -48 42 -77 98 -85zM624 107c0 51 35 93 100 106c-54 12 -90 51 -90 102c0 64 56 109 134 109c79 0 134 -45 134 -109
c0 -51 -36 -91 -89 -102c64 -13 99 -55 99 -106c0 -69 -58 -115 -144 -115c-85 0 -144 46 -144 115zM768 198c-65 -9 -107 -41 -107 -89c0 -52 44 -87 107 -87c64 0 107 35 107 87c0 48 -42 80 -107 89z" />
    <glyph glyph-name="fiveeighths" unicode="&#x215d;" horiz-adv-x="960" 
d="M305 672v-32h-190v-143c25 4 49 6 69 6c84 0 137 -50 137 -126c0 -75 -57 -129 -142 -129c-42 0 -85 14 -124 37l16 29c34 -22 71 -33 106 -33c64 0 106 39 106 96c0 59 -40 96 -108 96c-30 0 -60 -4 -95 -11v210h225zM214 11l504 672l28 -22l-504 -672zM768 228
c56 8 97 37 97 85c0 47 -40 80 -97 80s-98 -33 -98 -80c0 -48 42 -77 98 -85zM624 107c0 51 35 93 100 106c-54 12 -90 51 -90 102c0 64 56 109 134 109c79 0 134 -45 134 -109c0 -51 -36 -91 -89 -102c64 -13 99 -55 99 -106c0 -69 -58 -115 -144 -115
c-85 0 -144 46 -144 115zM768 198c-65 -9 -107 -41 -107 -89c0 -52 44 -87 107 -87c64 0 107 35 107 87c0 48 -42 80 -107 89z" />
    <glyph glyph-name="seveneighths" unicode="&#x215e;" horiz-adv-x="960" 
d="M104 256l168 383h-215v33h257v-25l-169 -391h-41zM214 11l504 672l28 -22l-504 -672zM768 228c56 8 97 37 97 85c0 47 -40 80 -97 80s-98 -33 -98 -80c0 -48 42 -77 98 -85zM624 107c0 51 35 93 100 106c-54 12 -90 51 -90 102c0 64 56 109 134 109
c79 0 134 -45 134 -109c0 -51 -36 -91 -89 -102c64 -13 99 -55 99 -106c0 -69 -58 -115 -144 -115c-85 0 -144 46 -144 115zM768 198c-65 -9 -107 -41 -107 -89c0 -52 44 -87 107 -87c64 0 107 35 107 87c0 48 -42 80 -107 89z" />
    <glyph glyph-name="Agrave" unicode="&#xc0;" horiz-adv-x="663" 
d="M30 0l278 672h47l278 -672h-51l-82 200h-337l-82 -200h-51zM332 613l-154 -374h307zM227 890l159 -110l-19 -28l-164 105z" />
    <glyph glyph-name="Aacute" unicode="&#xc1;" horiz-adv-x="663" 
d="M30 0l278 672h47l278 -672h-51l-82 200h-337l-82 -200h-51zM332 613l-154 -374h307zM464 857l-164 -105l-20 28l160 110z" />
    <glyph glyph-name="Acircumflex" unicode="&#xc2;" horiz-adv-x="663" 
d="M30 0l278 672h47l278 -672h-51l-82 200h-337l-82 -200h-51zM332 613l-154 -374h307zM194 778l121 118h34l121 -118l-23 -25l-115 107l-115 -107z" />
    <glyph glyph-name="Atilde" unicode="&#xc3;" horiz-adv-x="663" 
d="M30 0l278 672h47l278 -672h-51l-82 200h-337l-82 -200h-51zM332 613l-154 -374h307zM268 864c43 0 91 -39 125 -39c21 0 37 14 45 39l34 -11c-10 -38 -39 -64 -76 -64c-43 0 -91 38 -125 38c-21 0 -38 -14 -45 -38l-34 10c10 38 39 65 76 65z" />
    <glyph glyph-name="Adieresis" unicode="&#xc4;" horiz-adv-x="663" 
d="M30 0l278 672h47l278 -672h-51l-82 200h-337l-82 -200h-51zM332 613l-154 -374h307zM205 826c0 21 15 35 36 35s35 -14 35 -35s-14 -35 -35 -35s-36 14 -36 35zM406 826c0 21 14 35 35 35s36 -14 36 -35s-15 -35 -36 -35s-35 14 -35 35z" />
    <glyph glyph-name="Amacron" unicode="&#x100;" horiz-adv-x="663" 
d="M30 0l278 672h47l278 -672h-51l-82 200h-337l-82 -200h-51zM332 613l-154 -374h307zM190 808v36h284v-36h-284z" />
    <glyph glyph-name="Abreve" unicode="&#x102;" horiz-adv-x="663" 
d="M30 0l278 672h47l278 -672h-51l-82 200h-337l-82 -200h-51zM332 613l-154 -374h307zM194 880h35c3 -56 46 -95 103 -95s100 39 103 95h35c-3 -79 -61 -132 -138 -132s-135 53 -138 132z" />
    <glyph glyph-name="Acaron" unicode="&#x1cd;" horiz-adv-x="663" 
d="M30 0l278 672h47l278 -672h-51l-82 200h-337l-82 -200h-51zM332 613l-154 -374h307zM470 875l-121 -119h-34l-121 119l23 24l115 -106l115 106z" />
    <glyph glyph-name="Aring" unicode="&#xc5;" horiz-adv-x="663" 
d="M30 0l278 672h47l278 -672h-51l-82 200h-337l-82 -200h-51zM332 613l-154 -374h307zM238 826c0 55 39 92 94 92s94 -37 94 -92c0 -54 -37 -92 -92 -92c-56 0 -96 38 -96 92zM267 826c0 -39 28 -65 67 -65c37 0 63 26 63 65s-27 65 -65 65c-39 0 -65 -26 -65 -65z" />
    <glyph glyph-name="Aringacute" unicode="&#x1fa;" horiz-adv-x="686" 
d="M30 0l278 672h47l278 -672h-51l-82 200h-337l-82 -200h-51zM332 613l-154 -374h307zM475 976l-109 -69c42 -9 71 -42 71 -87c0 -54 -37 -91 -92 -91c-56 0 -96 37 -96 91c0 32 13 58 38 75l166 113zM278 820c0 -39 28 -66 67 -66c38 0 63 27 63 66s-27 65 -65 65
c-39 0 -65 -26 -65 -65z" />
    <glyph glyph-name="Aogonek" unicode="&#x104;" horiz-adv-x="670" 
d="M30 0l278 672h47l278 -672c-59 -46 -98 -91 -98 -135c0 -33 25 -52 54 -52c15 0 31 3 45 10l8 -31c-20 -8 -41 -12 -61 -12c-47 0 -84 29 -84 78s35 96 93 142h-8l-82 200h-337l-82 -200h-51zM332 613l-154 -374h307z" />
    <glyph glyph-name="AE" unicode="&#xc6;" horiz-adv-x="966" 
d="M482 0v200h-285l-136 -200h-57l455 672h433v-40h-362v-268h330v-40h-330v-284h378v-40h-426zM482 627l-262 -388h262v388z" />
    <glyph glyph-name="AEacute" unicode="&#x1fc;" horiz-adv-x="966" 
d="M482 0v200h-285l-136 -200h-57l455 672h433v-40h-362v-268h330v-40h-330v-284h378v-40h-426zM482 627l-262 -388h262v388zM703 857l-164 -105l-20 28l160 110z" />
    <glyph glyph-name="Cacute" unicode="&#x106;" horiz-adv-x="643" 
d="M57 336c0 206 131 348 321 348c73 0 149 -24 218 -72l-22 -35c-59 42 -126 65 -191 65c-164 0 -276 -124 -276 -306s112 -306 276 -306c65 0 132 23 191 65l22 -35c-69 -48 -145 -72 -218 -72c-190 0 -321 143 -321 348zM501 857l-164 -105l-20 28l160 110z" />
    <glyph glyph-name="Ccedilla" unicode="&#xc7;" horiz-adv-x="643" 
d="M57 336c0 206 131 348 321 348c73 0 149 -24 218 -72l-22 -35c-59 42 -126 65 -191 65c-164 0 -276 -124 -276 -306s112 -306 276 -306c65 0 132 23 191 65l22 -35c-64 -45 -134 -68 -202 -71l-10 -53c44 -4 76 -37 76 -77c0 -47 -43 -79 -101 -79c-27 0 -57 5 -86 16
l10 31c25 -9 51 -14 72 -14c37 0 64 19 64 50c0 29 -27 49 -66 49h-10l14 78c-179 9 -300 147 -300 346z" />
    <glyph glyph-name="Ccircumflex" unicode="&#x108;" horiz-adv-x="643" 
d="M57 336c0 206 131 348 321 348c73 0 149 -24 218 -72l-22 -35c-59 42 -126 65 -191 65c-164 0 -276 -124 -276 -306s112 -306 276 -306c65 0 132 23 191 65l22 -35c-69 -48 -145 -72 -218 -72c-190 0 -321 143 -321 348zM231 778l121 118h34l121 -118l-23 -25l-115 107
l-115 -107z" />
    <glyph glyph-name="Ccaron" unicode="&#x10c;" horiz-adv-x="643" 
d="M57 336c0 206 131 348 321 348c73 0 149 -24 218 -72l-22 -35c-59 42 -126 65 -191 65c-164 0 -276 -124 -276 -306s112 -306 276 -306c65 0 132 23 191 65l22 -35c-69 -48 -145 -72 -218 -72c-190 0 -321 143 -321 348zM507 875l-121 -119h-34l-121 119l23 24l115 -106
l115 106z" />
    <glyph glyph-name="Cdotaccent" unicode="&#x10a;" horiz-adv-x="643" 
d="M57 336c0 206 131 348 321 348c73 0 149 -24 218 -72l-22 -35c-59 42 -126 65 -191 65c-164 0 -276 -124 -276 -306s112 -306 276 -306c65 0 132 23 191 65l22 -35c-69 -48 -145 -72 -218 -72c-190 0 -321 143 -321 348zM332 826c0 22 15 37 37 37s37 -15 37 -37
s-15 -37 -37 -37s-37 15 -37 37z" />
    <glyph glyph-name="Dcaron" unicode="&#x10e;" horiz-adv-x="711" 
d="M110 0v672h206c201 0 338 -136 338 -336c0 -198 -137 -336 -338 -336h-206zM604 336c0 174 -120 295 -293 295h-152v-590h152c173 0 293 121 293 295zM478 875l-121 -119h-34l-121 119l23 24l115 -106l115 106z" />
    <glyph glyph-name="Dcroat" unicode="&#x110;" horiz-adv-x="727" 
d="M126 0v324h-97v40h97v308h206c201 0 338 -136 338 -336c0 -198 -137 -336 -338 -336h-206zM622 336c0 174 -120 295 -293 295h-155v-267h187v-40h-187v-283h155c173 0 293 121 293 295z" />
    <glyph glyph-name="Eth" unicode="&#xd0;" horiz-adv-x="727" 
d="M126 0v324h-97v40h97v308h206c201 0 338 -136 338 -336c0 -198 -137 -336 -338 -336h-206zM622 336c0 174 -120 295 -293 295h-155v-267h187v-40h-187v-283h155c173 0 293 121 293 295z" />
    <glyph glyph-name="Egrave" unicode="&#xc8;" horiz-adv-x="595" 
d="M110 0v672h411v-40h-362v-268h330v-40h-330v-284h378v-40h-427zM200 890l159 -110l-19 -28l-164 105z" />
    <glyph glyph-name="Eacute" unicode="&#xc9;" horiz-adv-x="595" 
d="M110 0v672h411v-40h-362v-268h330v-40h-330v-284h378v-40h-427zM437 857l-164 -105l-20 28l160 110z" />
    <glyph glyph-name="Ecircumflex" unicode="&#xca;" horiz-adv-x="595" 
d="M110 0v672h411v-40h-362v-268h330v-40h-330v-284h378v-40h-427zM167 778l121 118h34l121 -118l-23 -25l-115 107l-115 -107z" />
    <glyph glyph-name="Ecaron" unicode="&#x11a;" horiz-adv-x="595" 
d="M110 0v672h411v-40h-362v-268h330v-40h-330v-284h378v-40h-427zM443 875l-121 -119h-34l-121 119l23 24l115 -106l115 106z" />
    <glyph glyph-name="Edieresis" unicode="&#xcb;" horiz-adv-x="595" 
d="M110 0v672h411v-40h-362v-268h330v-40h-330v-284h378v-40h-427zM169 826c0 21 15 35 36 35s35 -14 35 -35s-14 -35 -35 -35s-36 14 -36 35zM370 826c0 21 14 35 35 35s36 -14 36 -35s-15 -35 -36 -35s-35 14 -35 35z" />
    <glyph glyph-name="Emacron" unicode="&#x112;" horiz-adv-x="595" 
d="M110 0v672h411v-40h-362v-268h330v-40h-330v-284h378v-40h-427zM163 808v36h284v-36h-284z" />
    <glyph glyph-name="Ebreve" unicode="&#x114;" horiz-adv-x="595" 
d="M110 0v672h411v-40h-362v-268h330v-40h-330v-284h378v-40h-427zM163 880h35c3 -56 46 -95 103 -95s100 39 103 95h35c-3 -79 -61 -132 -138 -132s-135 53 -138 132z" />
    <glyph glyph-name="Edotaccent" unicode="&#x116;" horiz-adv-x="595" 
d="M110 0v672h411v-40h-362v-268h330v-40h-330v-284h378v-40h-427zM268 826c0 22 15 37 37 37s37 -15 37 -37s-15 -37 -37 -37s-37 15 -37 37z" />
    <glyph glyph-name="Eogonek" unicode="&#x118;" horiz-adv-x="595" 
d="M110 0v672h411v-40h-362v-268h330v-40h-330v-284h378v-40c-59 -46 -98 -91 -98 -135c0 -33 25 -52 54 -52c15 0 31 3 45 10l8 -31c-20 -8 -41 -12 -61 -12c-47 0 -84 29 -84 78s35 96 93 142h-384z" />
    <glyph glyph-name="Gcircumflex" unicode="&#x11c;" horiz-adv-x="695" 
d="M621 334v-293c-74 -34 -150 -53 -227 -53c-199 0 -337 144 -337 348s134 348 329 348c75 0 151 -23 226 -65l-20 -36c-69 39 -136 60 -201 60c-169 0 -286 -126 -286 -307c0 -180 120 -307 292 -307c62 0 123 13 178 39v227h-181v39h227zM241 778l121 118h34l121 -118
l-23 -25l-115 107l-115 -107z" />
    <glyph glyph-name="Gbreve" unicode="&#x11e;" horiz-adv-x="695" 
d="M621 334v-293c-74 -34 -150 -53 -227 -53c-199 0 -337 144 -337 348s134 348 329 348c75 0 151 -23 226 -65l-20 -36c-69 39 -136 60 -201 60c-169 0 -286 -126 -286 -307c0 -180 120 -307 292 -307c62 0 123 13 178 39v227h-181v39h227zM236 880h35
c3 -56 46 -95 103 -95s100 39 103 95h35c-3 -79 -61 -132 -138 -132s-135 53 -138 132z" />
    <glyph glyph-name="Gdotaccent" unicode="&#x120;" horiz-adv-x="695" 
d="M621 334v-293c-74 -34 -150 -53 -227 -53c-199 0 -337 144 -337 348s134 348 329 348c75 0 151 -23 226 -65l-20 -36c-69 39 -136 60 -201 60c-169 0 -286 -126 -286 -307c0 -180 120 -307 292 -307c62 0 123 13 178 39v227h-181v39h227zM342 826c0 22 15 37 37 37
s37 -15 37 -37s-15 -37 -37 -37s-37 15 -37 37z" />
    <glyph glyph-name="Gcommaaccent" unicode="&#x122;" horiz-adv-x="695" 
d="M621 334v-293c-74 -34 -150 -53 -227 -53c-199 0 -337 144 -337 348s134 348 329 348c75 0 151 -23 226 -65l-20 -36c-69 39 -136 60 -201 60c-169 0 -286 -126 -286 -307c0 -180 120 -307 292 -307c62 0 123 13 178 39v227h-181v39h227zM344 -105c0 21 14 35 35 35
c24 0 40 -20 40 -54c0 -58 -30 -110 -85 -145l-15 21c40 31 62 67 62 110c-20 -3 -37 12 -37 33z" />
    <glyph glyph-name="Hcircumflex" unicode="&#x124;" horiz-adv-x="759" 
d="M110 0v672h49v-308h441v308h49v-672h-49v324h-441v-324h-49zM242 778l121 118h34l121 -118l-23 -25l-115 107l-115 -107z" />
    <glyph glyph-name="Hbar" unicode="&#x126;" horiz-adv-x="759" 
d="M110 0v532h-81v37h81v103h49v-103h441v103h49v-103h81v-37h-81v-532h-49v324h-441v-324h-49zM159 364h441v168h-441v-168z" />
    <glyph glyph-name="Igrave" unicode="&#xcc;" horiz-adv-x="269" 
d="M110 0v672h49v-672h-49zM30 890l159 -110l-19 -28l-164 105z" />
    <glyph glyph-name="Iacute" unicode="&#xcd;" horiz-adv-x="269" 
d="M110 0v672h49v-672h-49zM267 857l-164 -105l-20 28l160 110z" />
    <glyph glyph-name="Icircumflex" unicode="&#xce;" horiz-adv-x="269" 
d="M110 0v672h49v-672h-49zM-3 778l121 118h34l121 -118l-23 -25l-115 107l-115 -107z" />
    <glyph glyph-name="Itilde" unicode="&#x128;" horiz-adv-x="269" 
d="M110 0v672h49v-672h-49zM71 864c43 0 91 -39 125 -39c21 0 37 14 45 39l34 -11c-10 -38 -39 -64 -76 -64c-43 0 -91 38 -125 38c-21 0 -38 -14 -45 -38l-34 10c10 38 39 65 76 65z" />
    <glyph glyph-name="Idieresis" unicode="&#xcf;" horiz-adv-x="269" 
d="M110 0v672h49v-672h-49zM-1 826c0 21 15 35 36 35s35 -14 35 -35s-14 -35 -35 -35s-36 14 -36 35zM200 826c0 21 14 35 35 35s36 -14 36 -35s-15 -35 -36 -35s-35 14 -35 35z" />
    <glyph glyph-name="Imacron" unicode="&#x12a;" horiz-adv-x="269" 
d="M110 0v672h49v-672h-49zM-7 808v36h284v-36h-284z" />
    <glyph glyph-name="Ibreve" unicode="&#x12c;" horiz-adv-x="269" 
d="M110 0v672h49v-672h-49zM-8 880h35c3 -56 46 -95 103 -95s100 39 103 95h35c-3 -79 -61 -132 -138 -132s-135 53 -138 132z" />
    <glyph glyph-name="Idotaccent" unicode="&#x130;" horiz-adv-x="269" 
d="M110 0v672h49v-672h-49zM98 826c0 22 15 37 37 37s37 -15 37 -37s-15 -37 -37 -37s-37 15 -37 37z" />
    <glyph glyph-name="Iogonek" unicode="&#x12e;" horiz-adv-x="269" 
d="M159 672v-672c-59 -46 -98 -91 -98 -135c0 -33 25 -52 54 -52c15 0 31 3 45 10l8 -31c-20 -8 -41 -12 -61 -12c-47 0 -84 29 -84 78s32 97 87 142v672h49z" />
    <glyph glyph-name="IJ" unicode="&#x132;" horiz-adv-x="707" 
d="M110 0v672h49v-672h-49zM597 672v-509c0 -103 -73 -175 -177 -175c-42 0 -80 6 -123 17l8 40c37 -10 71 -15 106 -15c80 0 137 56 137 136v506h49z" />
    <glyph glyph-name="Jcircumflex" unicode="&#x134;" horiz-adv-x="438" 
d="M328 672v-509c0 -103 -73 -175 -177 -175c-42 0 -80 6 -123 17l8 40c37 -10 71 -15 106 -15c80 0 137 56 137 136v506h49zM165 778l121 118h34l121 -118l-23 -25l-115 107l-115 -107z" />
    <glyph glyph-name="Kcommaaccent" unicode="&#x136;" horiz-adv-x="652" 
d="M110 0v672h48v-378l377 378h60l-313 -314l328 -358h-61l-301 327l-90 -89v-238h-48zM299 -105c0 21 14 35 35 35c24 0 40 -20 40 -54c0 -58 -30 -110 -85 -145l-15 21c40 31 62 67 62 110c-20 -3 -37 12 -37 33z" />
    <glyph glyph-name="Lacute" unicode="&#x139;" horiz-adv-x="531" 
d="M110 0v672h49v-631h343v-41h-392zM267 857l-164 -105l-20 28l160 110z" />
    <glyph glyph-name="Lcaron" unicode="&#x13d;" horiz-adv-x="531" 
d="M110 0v672h49v-631h343v-41h-392zM358 681l-68 -161l-34 12l64 163z" />
    <glyph glyph-name="Lcommaaccent" unicode="&#x13b;" horiz-adv-x="531" 
d="M110 0v672h49v-631h343v-41h-392zM262 -105c0 21 14 35 35 35c24 0 40 -20 40 -54c0 -58 -30 -110 -85 -145l-15 21c40 31 62 67 62 110c-20 -3 -37 12 -37 33z" />
    <glyph glyph-name="Lslash" unicode="&#x141;" horiz-adv-x="547" 
d="M126 0v302l-85 -42l-17 32l102 51v329h49v-304l152 76l18 -32l-170 -85v-286h343v-41h-392z" />
    <glyph glyph-name="Ldot" unicode="&#x13f;" horiz-adv-x="547" 
d="M110 0v672h49v-631h343v-41h-392zM371 353c0 22 15 37 37 37s37 -15 37 -37s-15 -37 -37 -37s-37 15 -37 37z" />
    <glyph glyph-name="Nacute" unicode="&#x143;" horiz-adv-x="775" 
d="M110 0v672h49l444 -603v603h46v-672h-49l-444 603v-603h-46zM512 857l-164 -105l-20 28l160 110z" />
    <glyph glyph-name="Ncaron" unicode="&#x147;" horiz-adv-x="759" 
d="M110 0v672h49l444 -603v603h46v-672h-49l-444 603v-603h-46zM518 875l-121 -119h-34l-121 119l23 24l115 -106l115 106z" />
    <glyph glyph-name="Ntilde" unicode="&#xd1;" horiz-adv-x="759" 
d="M110 0v672h49l444 -603v603h46v-672h-49l-444 603v-603h-46zM316 864c43 0 91 -39 125 -39c21 0 37 14 45 39l34 -11c-10 -38 -39 -64 -76 -64c-43 0 -91 38 -125 38c-21 0 -38 -14 -45 -38l-34 10c10 38 39 65 76 65z" />
    <glyph glyph-name="Ncommaaccent" unicode="&#x145;" horiz-adv-x="759" 
d="M110 0v672h49l444 -603v603h46v-672h-49l-444 603v-603h-46zM345 -105c0 21 14 35 35 35c24 0 40 -20 40 -54c0 -58 -30 -110 -85 -145l-15 21c40 31 62 67 62 110c-20 -3 -37 12 -37 33z" />
    <glyph glyph-name="Eng" unicode="&#x14a;" horiz-adv-x="759" 
d="M110 0v672h49l444 -603v603h46v-717c0 -103 -73 -175 -177 -175c-41 0 -80 6 -123 17l9 40c38 -10 72 -15 108 -15c79 0 136 55 136 131v45l-446 605v-603h-46z" />
    <glyph glyph-name="Ograve" unicode="&#xd2;" horiz-adv-x="759" 
d="M57 336c0 204 133 348 323 348c189 0 322 -144 322 -348s-133 -348 -322 -348c-190 0 -323 144 -323 348zM107 336c0 -179 113 -307 273 -307c159 0 272 128 272 307s-113 307 -272 307c-160 0 -273 -128 -273 -307zM275 890l159 -110l-19 -28l-164 105z" />
    <glyph glyph-name="Oacute" unicode="&#xd3;" horiz-adv-x="759" 
d="M57 336c0 204 133 348 323 348c189 0 322 -144 322 -348s-133 -348 -322 -348c-190 0 -323 144 -323 348zM107 336c0 -179 113 -307 273 -307c159 0 272 128 272 307s-113 307 -272 307c-160 0 -273 -128 -273 -307zM512 857l-164 -105l-20 28l160 110z" />
    <glyph glyph-name="Ocircumflex" unicode="&#xd4;" horiz-adv-x="759" 
d="M57 336c0 204 133 348 323 348c189 0 322 -144 322 -348s-133 -348 -322 -348c-190 0 -323 144 -323 348zM107 336c0 -179 113 -307 273 -307c159 0 272 128 272 307s-113 307 -272 307c-160 0 -273 -128 -273 -307zM242 778l121 118h34l121 -118l-23 -25l-115 107
l-115 -107z" />
    <glyph glyph-name="Otilde" unicode="&#xd5;" horiz-adv-x="759" 
d="M57 336c0 204 133 348 323 348c189 0 322 -144 322 -348s-133 -348 -322 -348c-190 0 -323 144 -323 348zM107 336c0 -179 113 -307 273 -307c159 0 272 128 272 307s-113 307 -272 307c-160 0 -273 -128 -273 -307zM316 864c43 0 91 -39 125 -39c21 0 37 14 45 39
l34 -11c-10 -38 -39 -64 -76 -64c-43 0 -91 38 -125 38c-21 0 -38 -14 -45 -38l-34 10c10 38 39 65 76 65z" />
    <glyph glyph-name="Odieresis" unicode="&#xd6;" horiz-adv-x="759" 
d="M57 336c0 204 133 348 323 348c189 0 322 -144 322 -348s-133 -348 -322 -348c-190 0 -323 144 -323 348zM107 336c0 -179 113 -307 273 -307c159 0 272 128 272 307s-113 307 -272 307c-160 0 -273 -128 -273 -307zM244 826c0 21 15 35 36 35s35 -14 35 -35
s-14 -35 -35 -35s-36 14 -36 35zM445 826c0 21 14 35 35 35s36 -14 36 -35s-15 -35 -36 -35s-35 14 -35 35z" />
    <glyph glyph-name="Omacron" unicode="&#x14c;" horiz-adv-x="759" 
d="M57 336c0 204 133 348 323 348c189 0 322 -144 322 -348s-133 -348 -322 -348c-190 0 -323 144 -323 348zM107 336c0 -179 113 -307 273 -307c159 0 272 128 272 307s-113 307 -272 307c-160 0 -273 -128 -273 -307zM238 808v36h284v-36h-284z" />
    <glyph glyph-name="Obreve" unicode="&#x14e;" horiz-adv-x="759" 
d="M57 336c0 204 133 348 323 348c189 0 322 -144 322 -348s-133 -348 -322 -348c-190 0 -323 144 -323 348zM107 336c0 -179 113 -307 273 -307c159 0 272 128 272 307s-113 307 -272 307c-160 0 -273 -128 -273 -307zM237 880h35c3 -56 46 -95 103 -95s100 39 103 95h35
c-3 -79 -61 -132 -138 -132s-135 53 -138 132z" />
    <glyph glyph-name="Ohungarumlaut" unicode="&#x150;" horiz-adv-x="759" 
d="M57 336c0 204 133 348 323 348c189 0 322 -144 322 -348s-133 -348 -322 -348c-190 0 -323 144 -323 348zM107 336c0 -179 113 -307 273 -307c159 0 272 128 272 307s-113 307 -272 307c-160 0 -273 -128 -273 -307zM597 885l-141 -138l-26 25l138 142zM420 885
l-142 -138l-25 25l138 142z" />
    <glyph glyph-name="Oslash" unicode="&#xd8;" horiz-adv-x="759" 
d="M57 336c0 204 133 348 323 348c74 0 140 -23 192 -64l49 66l26 -21l-49 -65c66 -62 104 -154 104 -264c0 -204 -133 -348 -322 -348c-75 0 -141 23 -193 64l-49 -66l-26 21l48 65c-65 62 -103 154 -103 264zM104 336c0 -94 31 -174 84 -228l358 477
c-44 38 -102 59 -166 59c-162 0 -276 -128 -276 -308zM655 336c0 94 -31 174 -84 228l-358 -478c45 -37 101 -58 167 -58c161 0 275 128 275 308z" />
    <glyph glyph-name="Oslashacute" unicode="&#x1fe;" horiz-adv-x="759" 
d="M57 336c0 204 133 348 323 348c74 0 140 -23 192 -64l49 66l26 -21l-49 -65c66 -62 104 -154 104 -264c0 -204 -133 -348 -322 -348c-75 0 -141 23 -193 64l-49 -66l-26 21l48 65c-65 62 -103 154 -103 264zM104 336c0 -94 31 -174 84 -228l358 477
c-44 38 -102 59 -166 59c-162 0 -276 -128 -276 -308zM655 336c0 94 -31 174 -84 228l-358 -478c45 -37 101 -58 167 -58c161 0 275 128 275 308zM512 857l-164 -105l-20 28l160 110z" />
    <glyph glyph-name="OE" unicode="&#x152;" horiz-adv-x="1008" 
d="M57 336c0 198 136 336 337 336h540v-40h-362v-268h330v-40h-330v-284h378v-40h-556c-201 0 -337 136 -337 336zM107 336c0 -174 120 -295 292 -295h124v590h-124c-172 0 -292 -121 -292 -295z" />
    <glyph glyph-name="Thorn" unicode="&#xde;" horiz-adv-x="614" 
d="M110 0v672h48v-125h190c127 0 217 -84 217 -203s-90 -203 -217 -203h-190v-141h-48zM158 507v-326h185c101 0 173 67 173 163s-72 163 -173 163h-185z" />
    <glyph glyph-name="Racute" unicode="&#x154;" horiz-adv-x="646" 
d="M110 0v672h240c122 0 208 -81 208 -195c0 -104 -71 -180 -178 -190l204 -287h-56l-198 282h-172v-282h-48zM158 631v-309h186c97 0 166 62 166 155c0 91 -69 154 -166 154h-186zM463 857l-164 -105l-20 28l160 110z" />
    <glyph glyph-name="Rcaron" unicode="&#x158;" horiz-adv-x="646" 
d="M110 0v672h240c122 0 208 -81 208 -195c0 -104 -71 -180 -178 -190l204 -287h-56l-198 282h-172v-282h-48zM158 631v-309h186c97 0 166 62 166 155c0 91 -69 154 -166 154h-186zM469 875l-121 -119h-34l-121 119l23 24l115 -106l115 106z" />
    <glyph glyph-name="Rcommaaccent" unicode="&#x156;" horiz-adv-x="646" 
d="M110 0v672h240c122 0 208 -81 208 -195c0 -104 -71 -180 -178 -190l204 -287h-56l-198 282h-172v-282h-48zM158 631v-309h186c97 0 166 62 166 155c0 91 -69 154 -166 154h-186zM296 -105c0 21 14 35 35 35c24 0 40 -20 40 -54c0 -58 -30 -110 -85 -145l-15 21
c40 31 62 67 62 110c-20 -3 -37 12 -37 33z" />
    <glyph glyph-name="Sacute" unicode="&#x15a;" horiz-adv-x="574" 
d="M61 512c0 102 92 172 226 172c64 0 132 -15 205 -45l-13 -39c-68 28 -132 43 -189 43c-108 0 -180 -54 -180 -131c0 -204 406 -97 406 -348c0 -105 -92 -176 -229 -176c-68 0 -146 18 -230 53l13 39c77 -30 152 -51 214 -51c111 0 184 55 184 135
c0 208 -407 102 -407 348zM419 857l-164 -105l-20 28l160 110z" />
    <glyph glyph-name="Scircumflex" unicode="&#x15c;" horiz-adv-x="574" 
d="M61 512c0 102 92 172 226 172c64 0 132 -15 205 -45l-13 -39c-68 28 -132 43 -189 43c-108 0 -180 -54 -180 -131c0 -204 406 -97 406 -348c0 -105 -92 -176 -229 -176c-68 0 -146 18 -230 53l13 39c77 -30 152 -51 214 -51c111 0 184 55 184 135
c0 208 -407 102 -407 348zM149 778l121 118h34l121 -118l-23 -25l-115 107l-115 -107z" />
    <glyph glyph-name="Scaron" unicode="&#x160;" horiz-adv-x="574" 
d="M61 512c0 102 92 172 226 172c64 0 132 -15 205 -45l-13 -39c-68 28 -132 43 -189 43c-108 0 -180 -54 -180 -131c0 -204 406 -97 406 -348c0 -105 -92 -176 -229 -176c-68 0 -146 18 -230 53l13 39c77 -30 152 -51 214 -51c111 0 184 55 184 135
c0 208 -407 102 -407 348zM425 875l-121 -119h-34l-121 119l23 24l115 -106l115 106z" />
    <glyph glyph-name="Scedilla" unicode="&#x15e;" horiz-adv-x="574" 
d="M61 512c0 102 92 172 226 172c64 0 132 -15 205 -45l-13 -39c-68 28 -132 43 -189 43c-108 0 -180 -54 -180 -131c0 -204 406 -97 406 -348c0 -99 -81 -167 -205 -175l-10 -53c44 -4 76 -37 76 -77c0 -47 -43 -79 -101 -79c-26 0 -57 5 -86 16l11 31c25 -9 50 -14 71 -14
c37 0 64 19 64 50c0 29 -27 49 -66 49h-9l14 77c-65 1 -139 18 -218 52l13 39c77 -30 152 -51 214 -51c111 0 184 55 184 135c0 208 -407 102 -407 348z" />
    <glyph glyph-name="Scommaaccent" unicode="&#x218;" horiz-adv-x="574" 
d="M61 512c0 102 92 172 226 172c64 0 132 -15 205 -45l-13 -39c-68 28 -132 43 -189 43c-108 0 -180 -54 -180 -131c0 -204 406 -97 406 -348c0 -105 -92 -176 -229 -176c-68 0 -146 18 -230 53l13 39c77 -30 152 -51 214 -51c111 0 184 55 184 135
c0 208 -407 102 -407 348zM252 -105c0 21 14 35 35 35c24 0 40 -20 40 -54c0 -58 -30 -110 -85 -145l-15 21c40 31 62 67 62 110c-20 -3 -37 12 -37 33z" />
    <glyph glyph-name="Tcaron" unicode="&#x164;" horiz-adv-x="595" 
d="M273 0v631h-244v41h537v-41h-244v-631h-49zM436 875l-121 -119h-34l-121 119l23 24l115 -106l115 106z" />
    <glyph glyph-name="Tcommaaccent" unicode="&#x162;" horiz-adv-x="595" 
d="M273 0v631h-244v41h537v-41h-244v-631h-49zM262 -105c0 21 14 35 35 35c24 0 40 -20 40 -54c0 -58 -30 -110 -85 -145l-15 21c40 31 62 67 62 110c-20 -3 -37 12 -37 33z" />
    <glyph glyph-name="uni021A" unicode="&#x21a;" horiz-adv-x="595" 
d="M273 0v631h-244v41h537v-41h-244v-631h-49zM262 -105c0 21 14 35 35 35c24 0 40 -20 40 -54c0 -58 -30 -110 -85 -145l-15 21c40 31 62 67 62 110c-20 -3 -37 12 -37 33z" />
    <glyph glyph-name="Tbar" unicode="&#x166;" horiz-adv-x="595" 
d="M273 0v300h-151v39h151v292h-244v41h537v-41h-244v-292h151v-39h-151v-300h-49z" />
    <glyph glyph-name="Ugrave" unicode="&#xd9;" horiz-adv-x="759" 
d="M657 672v-420c0 -155 -118 -264 -277 -264c-160 0 -278 109 -278 264v420h49v-418c0 -132 97 -225 229 -225c131 0 228 93 228 225v418h49zM275 890l159 -110l-19 -28l-164 105z" />
    <glyph glyph-name="Uacute" unicode="&#xda;" horiz-adv-x="759" 
d="M657 672v-420c0 -155 -118 -264 -277 -264c-160 0 -278 109 -278 264v420h49v-418c0 -132 97 -225 229 -225c131 0 228 93 228 225v418h49zM512 857l-164 -105l-20 28l160 110z" />
    <glyph glyph-name="Ucircumflex" unicode="&#xdb;" horiz-adv-x="759" 
d="M657 672v-420c0 -155 -118 -264 -277 -264c-160 0 -278 109 -278 264v420h49v-418c0 -132 97 -225 229 -225c131 0 228 93 228 225v418h49zM242 778l121 118h34l121 -118l-23 -25l-115 107l-115 -107z" />
    <glyph glyph-name="Utilde" unicode="&#x168;" horiz-adv-x="759" 
d="M657 672v-420c0 -155 -118 -264 -277 -264c-160 0 -278 109 -278 264v420h49v-418c0 -132 97 -225 229 -225c131 0 228 93 228 225v418h49zM316 864c43 0 91 -39 125 -39c21 0 37 14 45 39l34 -11c-10 -38 -39 -64 -76 -64c-43 0 -91 38 -125 38c-21 0 -38 -14 -45 -38
l-34 10c10 38 39 65 76 65z" />
    <glyph glyph-name="Udieresis" unicode="&#xdc;" horiz-adv-x="759" 
d="M657 672v-420c0 -155 -118 -264 -277 -264c-160 0 -278 109 -278 264v420h49v-418c0 -132 97 -225 229 -225c131 0 228 93 228 225v418h49zM244 826c0 21 15 35 36 35s35 -14 35 -35s-14 -35 -35 -35s-36 14 -36 35zM445 826c0 21 14 35 35 35s36 -14 36 -35
s-15 -35 -36 -35s-35 14 -35 35z" />
    <glyph glyph-name="Umacron" unicode="&#x16a;" horiz-adv-x="759" 
d="M657 672v-420c0 -155 -118 -264 -277 -264c-160 0 -278 109 -278 264v420h49v-418c0 -132 97 -225 229 -225c131 0 228 93 228 225v418h49zM238 808v36h284v-36h-284z" />
    <glyph glyph-name="Ubreve" unicode="&#x16c;" horiz-adv-x="759" 
d="M657 672v-420c0 -155 -118 -264 -277 -264c-160 0 -278 109 -278 264v420h49v-418c0 -132 97 -225 229 -225c131 0 228 93 228 225v418h49zM237 880h35c3 -56 46 -95 103 -95s100 39 103 95h35c-3 -79 -61 -132 -138 -132s-135 53 -138 132z" />
    <glyph glyph-name="Uring" unicode="&#x16e;" horiz-adv-x="759" 
d="M657 672v-420c0 -155 -118 -264 -277 -264c-160 0 -278 109 -278 264v420h49v-418c0 -132 97 -225 229 -225c131 0 228 93 228 225v418h49zM286 826c0 55 39 92 94 92s94 -37 94 -92c0 -54 -37 -92 -92 -92c-56 0 -96 38 -96 92zM315 826c0 -39 28 -65 67 -65
c37 0 63 26 63 65s-27 65 -65 65c-39 0 -65 -26 -65 -65z" />
    <glyph glyph-name="Uhungarumlaut" unicode="&#x170;" horiz-adv-x="759" 
d="M657 672v-420c0 -155 -118 -264 -277 -264c-160 0 -278 109 -278 264v420h49v-418c0 -132 97 -225 229 -225c131 0 228 93 228 225v418h49zM597 885l-141 -138l-26 25l138 142zM420 885l-142 -138l-25 25l138 142z" />
    <glyph glyph-name="Uogonek" unicode="&#x172;" horiz-adv-x="759" 
d="M657 672v-417c0 -119 -59 -189 -165 -250c-105 -60 -131 -106 -131 -140c0 -33 24 -52 54 -52c14 0 30 3 43 10l10 -31c-21 -8 -41 -12 -62 -12c-47 0 -84 29 -84 78c0 47 34 91 98 133c-18 -2 -36 -3 -54 -2c-149 4 -264 112 -264 263v420h49v-418
c0 -132 97 -225 229 -225c131 0 228 96 228 225v418h49z" />
    <glyph glyph-name="Wgrave" unicode="&#x1e80;" horiz-adv-x="999" 
d="M957 672l-216 -672h-50l-191 609l-192 -609h-50l-216 672h50l192 -609l192 609h48l191 -609l192 609h50zM395 890l159 -110l-19 -28l-164 105z" />
    <glyph glyph-name="Wacute" unicode="&#x1e82;" horiz-adv-x="999" 
d="M957 672l-216 -672h-50l-191 609l-192 -609h-50l-216 672h50l192 -609l192 609h48l191 -609l192 609h50zM632 857l-164 -105l-20 28l160 110z" />
    <glyph glyph-name="Wcircumflex" unicode="&#x174;" horiz-adv-x="999" 
d="M957 672l-216 -672h-50l-191 609l-192 -609h-50l-216 672h50l192 -609l192 609h48l191 -609l192 609h50zM362 778l121 118h34l121 -118l-23 -25l-115 107l-115 -107z" />
    <glyph glyph-name="Wdieresis" unicode="&#x1e84;" horiz-adv-x="999" 
d="M957 672l-216 -672h-50l-191 609l-192 -609h-50l-216 672h50l192 -609l192 609h48l191 -609l192 609h50zM364 826c0 21 15 35 36 35s35 -14 35 -35s-14 -35 -35 -35s-36 14 -36 35zM565 826c0 21 14 35 35 35s36 -14 36 -35s-15 -35 -36 -35s-35 14 -35 35z" />
    <glyph glyph-name="Ygrave" unicode="&#x1ef2;" horiz-adv-x="588" 
d="M269 0v295l-247 377h55l217 -332l216 332h56l-248 -377v-295h-49zM189 890l159 -110l-19 -28l-164 105z" />
    <glyph glyph-name="Yacute" unicode="&#xdd;" horiz-adv-x="588" 
d="M269 0v295l-247 377h55l217 -332l216 332h56l-248 -377v-295h-49zM426 857l-164 -105l-20 28l160 110z" />
    <glyph glyph-name="Ycircumflex" unicode="&#x176;" horiz-adv-x="588" 
d="M269 0v295l-247 377h55l217 -332l216 332h56l-248 -377v-295h-49zM156 778l121 118h34l121 -118l-23 -25l-115 107l-115 -107z" />
    <glyph glyph-name="Ydieresis" unicode="&#x178;" horiz-adv-x="588" 
d="M269 0v295l-247 377h55l217 -332l216 332h56l-248 -377v-295h-49zM158 826c0 21 15 35 36 35s35 -14 35 -35s-14 -35 -35 -35s-36 14 -36 35zM359 826c0 21 14 35 35 35s36 -14 36 -35s-15 -35 -36 -35s-35 14 -35 35z" />
    <glyph glyph-name="Zacute" unicode="&#x179;" horiz-adv-x="622" 
d="M57 0v30l430 601h-418v41h483v-30l-429 -601h441v-41h-507zM443 857l-164 -105l-20 28l160 110z" />
    <glyph glyph-name="Zcaron" unicode="&#x17d;" horiz-adv-x="622" 
d="M57 0v30l430 601h-418v41h483v-30l-429 -601h441v-41h-507zM449 875l-121 -119h-34l-121 119l23 24l115 -106l115 106z" />
    <glyph glyph-name="Zdotaccent" unicode="&#x17b;" horiz-adv-x="622" 
d="M57 0v30l430 601h-418v41h483v-30l-429 -601h441v-41h-507zM274 826c0 22 15 37 37 37s37 -15 37 -37s-15 -37 -37 -37s-37 15 -37 37z" />
    <glyph glyph-name="agrave" unicode="&#xe0;" horiz-adv-x="537" 
d="M50 129c0 100 82 158 219 158c37 0 76 -4 117 -14v64c0 71 -53 119 -130 119c-53 0 -105 -11 -162 -35l-13 36c62 26 120 38 179 38c102 0 173 -65 173 -158v-260c0 -31 19 -50 50 -50c9 0 20 2 28 4l5 -38c-13 -3 -29 -5 -43 -5c-48 0 -82 32 -82 82v18
c-32 -63 -98 -100 -176 -100c-94 0 -165 60 -165 141zM98 131c0 -60 55 -106 126 -106c97 0 162 68 162 167v48c-40 10 -76 15 -113 15c-110 0 -175 -46 -175 -124zM155 701l159 -110l-19 -28l-164 105z" />
    <glyph glyph-name="aacute" unicode="&#xe1;" horiz-adv-x="537" 
d="M50 129c0 100 82 158 219 158c37 0 76 -4 117 -14v64c0 71 -53 119 -130 119c-53 0 -105 -11 -162 -35l-13 36c62 26 120 38 179 38c102 0 173 -65 173 -158v-260c0 -31 19 -50 50 -50c9 0 20 2 28 4l5 -38c-13 -3 -29 -5 -43 -5c-48 0 -82 32 -82 82v18
c-32 -63 -98 -100 -176 -100c-94 0 -165 60 -165 141zM98 131c0 -60 55 -106 126 -106c97 0 162 68 162 167v48c-40 10 -76 15 -113 15c-110 0 -175 -46 -175 -124zM392 668l-164 -105l-20 28l160 110z" />
    <glyph glyph-name="acircumflex" unicode="&#xe2;" horiz-adv-x="537" 
d="M50 129c0 100 82 158 219 158c37 0 76 -4 117 -14v64c0 71 -53 119 -130 119c-53 0 -105 -11 -162 -35l-13 36c62 26 120 38 179 38c102 0 173 -65 173 -158v-260c0 -31 19 -50 50 -50c9 0 20 2 28 4l5 -38c-13 -3 -29 -5 -43 -5c-48 0 -82 32 -82 82v18
c-32 -63 -98 -100 -176 -100c-94 0 -165 60 -165 141zM98 131c0 -60 55 -106 126 -106c97 0 162 68 162 167v48c-40 10 -76 15 -113 15c-110 0 -175 -46 -175 -124zM122 589l121 118h34l121 -118l-23 -25l-115 107l-115 -107z" />
    <glyph glyph-name="atilde" unicode="&#xe3;" horiz-adv-x="537" 
d="M50 129c0 100 82 158 219 158c37 0 76 -4 117 -14v64c0 71 -53 119 -130 119c-53 0 -105 -11 -162 -35l-13 36c62 26 120 38 179 38c102 0 173 -65 173 -158v-260c0 -31 19 -50 50 -50c9 0 20 2 28 4l5 -38c-13 -3 -29 -5 -43 -5c-48 0 -82 32 -82 82v18
c-32 -63 -98 -100 -176 -100c-94 0 -165 60 -165 141zM98 131c0 -60 55 -106 126 -106c97 0 162 68 162 167v48c-40 10 -76 15 -113 15c-110 0 -175 -46 -175 -124zM196 675c43 0 91 -39 125 -39c21 0 37 14 45 39l34 -11c-10 -38 -39 -64 -76 -64c-43 0 -91 38 -125 38
c-21 0 -38 -14 -45 -38l-34 10c10 38 39 65 76 65z" />
    <glyph glyph-name="adieresis" unicode="&#xe4;" horiz-adv-x="537" 
d="M50 129c0 100 82 158 219 158c37 0 76 -4 117 -14v64c0 71 -53 119 -130 119c-53 0 -105 -11 -162 -35l-13 36c62 26 120 38 179 38c102 0 173 -65 173 -158v-260c0 -31 19 -50 50 -50c9 0 20 2 28 4l5 -38c-13 -3 -29 -5 -43 -5c-48 0 -82 32 -82 82v18
c-32 -63 -98 -100 -176 -100c-94 0 -165 60 -165 141zM98 131c0 -60 55 -106 126 -106c97 0 162 68 162 167v48c-40 10 -76 15 -113 15c-110 0 -175 -46 -175 -124zM124 637c0 21 15 35 36 35s35 -14 35 -35s-14 -35 -35 -35s-36 14 -36 35zM325 637c0 21 14 35 35 35
s36 -14 36 -35s-15 -35 -36 -35s-35 14 -35 35z" />
    <glyph glyph-name="amacron" unicode="&#x101;" horiz-adv-x="537" 
d="M50 129c0 100 82 158 219 158c37 0 76 -4 117 -14v64c0 71 -53 119 -130 119c-53 0 -105 -11 -162 -35l-13 36c62 26 120 38 179 38c102 0 173 -65 173 -158v-260c0 -31 19 -50 50 -50c9 0 20 2 28 4l5 -38c-13 -3 -29 -5 -43 -5c-48 0 -82 32 -82 82v18
c-32 -63 -98 -100 -176 -100c-94 0 -165 60 -165 141zM98 131c0 -60 55 -106 126 -106c97 0 162 68 162 167v48c-40 10 -76 15 -113 15c-110 0 -175 -46 -175 -124zM118 619v36h284v-36h-284z" />
    <glyph glyph-name="abreve" unicode="&#x103;" horiz-adv-x="537" 
d="M50 129c0 100 82 158 219 158c37 0 76 -4 117 -14v64c0 71 -53 119 -130 119c-53 0 -105 -11 -162 -35l-13 36c62 26 120 38 179 38c102 0 173 -65 173 -158v-260c0 -31 19 -50 50 -50c9 0 20 2 28 4l5 -38c-13 -3 -29 -5 -43 -5c-48 0 -82 32 -82 82v18
c-32 -63 -98 -100 -176 -100c-94 0 -165 60 -165 141zM98 131c0 -60 55 -106 126 -106c97 0 162 68 162 167v48c-40 10 -76 15 -113 15c-110 0 -175 -46 -175 -124zM122 691h35c3 -56 46 -95 103 -95s100 39 103 95h35c-3 -79 -61 -132 -138 -132s-135 53 -138 132z" />
    <glyph glyph-name="acaron" unicode="&#x1ce;" horiz-adv-x="529" 
d="M50 129c0 100 82 158 219 158c37 0 76 -4 117 -14v64c0 71 -53 119 -130 119c-53 0 -105 -11 -162 -35l-13 36c62 26 120 38 179 38c102 0 173 -65 173 -158v-260c0 -31 19 -50 50 -50c9 0 20 2 28 4l5 -38c-13 -3 -29 -5 -43 -5c-48 0 -82 32 -82 82v18
c-32 -63 -98 -100 -176 -100c-94 0 -165 60 -165 141zM98 131c0 -60 55 -106 126 -106c97 0 162 68 162 167v48c-40 10 -76 15 -113 15c-110 0 -175 -46 -175 -124zM402 686l-121 -119h-34l-121 119l23 24l115 -106l115 106z" />
    <glyph glyph-name="aring" unicode="&#xe5;" horiz-adv-x="537" 
d="M50 129c0 100 82 158 219 158c37 0 76 -4 117 -14v64c0 71 -53 119 -130 119c-53 0 -105 -11 -162 -35l-13 36c62 26 120 38 179 38c102 0 173 -65 173 -158v-260c0 -31 19 -50 50 -50c9 0 20 2 28 4l5 -38c-13 -3 -29 -5 -43 -5c-48 0 -82 32 -82 82v18
c-32 -63 -98 -100 -176 -100c-94 0 -165 60 -165 141zM98 131c0 -60 55 -106 126 -106c97 0 162 68 162 167v48c-40 10 -76 15 -113 15c-110 0 -175 -46 -175 -124zM166 637c0 55 39 92 94 92s94 -37 94 -92c0 -54 -37 -92 -92 -92c-56 0 -96 38 -96 92zM195 637
c0 -39 28 -65 67 -65c37 0 63 26 63 65s-27 65 -65 65c-39 0 -65 -26 -65 -65z" />
    <glyph glyph-name="aringacute" unicode="&#x1fb;" horiz-adv-x="537" 
d="M50 129c0 100 82 158 219 158c37 0 76 -4 117 -14v64c0 71 -53 119 -130 119c-53 0 -105 -11 -162 -35l-13 36c62 26 120 38 179 38c102 0 173 -65 173 -158v-260c0 -31 19 -50 50 -50c9 0 20 2 28 4l5 -38c-13 -3 -29 -5 -43 -5c-48 0 -82 32 -82 82v18
c-32 -63 -98 -100 -176 -100c-94 0 -165 60 -165 141zM98 131c0 -60 55 -106 126 -106c97 0 162 68 162 167v48c-40 10 -76 15 -113 15c-110 0 -175 -46 -175 -124zM392 787l-109 -69c42 -9 71 -42 71 -87c0 -54 -37 -91 -92 -91c-56 0 -96 37 -96 91c0 32 13 58 38 75
l166 113zM195 631c0 -39 28 -66 67 -66c38 0 63 27 63 66s-27 65 -65 65c-39 0 -65 -26 -65 -65z" />
    <glyph glyph-name="aogonek" unicode="&#x105;" horiz-adv-x="537" 
d="M50 129c0 100 82 158 219 158c37 0 76 -4 117 -14v64c0 71 -53 119 -130 119c-53 0 -105 -11 -162 -35l-13 36c62 26 120 38 179 38c102 0 173 -65 173 -158v-260c0 -31 19 -50 50 -50c9 0 20 2 28 4l5 -38c-59 -44 -98 -86 -98 -128c0 -33 24 -52 54 -52
c15 0 30 3 44 10l9 -31c-20 -8 -41 -12 -62 -12c-46 0 -83 29 -83 78c0 45 32 88 87 130c-45 3 -76 34 -76 82v18c-32 -63 -98 -100 -176 -100c-94 0 -165 60 -165 141zM98 131c0 -60 55 -106 126 -106c97 0 162 68 162 167v48c-40 10 -76 15 -113 15
c-110 0 -175 -46 -175 -124z" />
    <glyph glyph-name="ae" unicode="&#xe6;" horiz-adv-x="864" 
d="M50 128c0 101 82 159 219 159c37 0 76 -4 117 -14v64c0 71 -53 119 -130 119c-53 0 -105 -11 -162 -35l-13 36c62 26 120 38 179 38c87 0 151 -46 162 -115c33 72 102 115 190 115c124 0 210 -100 210 -244c0 -7 0 -14 -1 -20h-388c5 -121 85 -205 199 -205
c45 0 97 14 149 42l17 -35c-59 -31 -118 -45 -170 -45c-98 0 -178 53 -216 141c-22 -86 -98 -141 -195 -141c-95 0 -167 60 -167 140zM612 456c-101 0 -172 -77 -179 -192h342c-2 114 -68 192 -163 192zM98 131c0 -60 55 -106 126 -106c96 0 162 68 162 167v48
c-40 10 -76 15 -113 15c-110 0 -175 -46 -175 -124z" />
    <glyph glyph-name="aeacute" unicode="&#x1fd;" horiz-adv-x="864" 
d="M564 668l-164 -105l-20 28l160 110zM50 128c0 101 82 159 219 159c37 0 76 -4 117 -14v64c0 71 -53 119 -130 119c-53 0 -105 -11 -162 -35l-13 36c62 26 120 38 179 38c87 0 151 -46 162 -115c33 72 102 115 190 115c124 0 210 -100 210 -244c0 -7 0 -14 -1 -20h-388
c5 -121 85 -205 199 -205c45 0 97 14 149 42l17 -35c-59 -31 -118 -45 -170 -45c-98 0 -178 53 -216 141c-22 -86 -98 -141 -195 -141c-95 0 -167 60 -167 140zM612 456c-101 0 -172 -77 -179 -192h342c-2 114 -68 192 -163 192zM98 131c0 -60 55 -106 126 -106
c96 0 162 68 162 167v48c-40 10 -76 15 -113 15c-110 0 -175 -46 -175 -124z" />
    <glyph glyph-name="cacute" unicode="&#x107;" horiz-adv-x="486" 
d="M50 241c0 149 97 254 234 254c56 0 111 -18 162 -54l-21 -34c-43 31 -88 47 -136 47c-111 0 -190 -87 -190 -213c0 -125 79 -212 190 -212c48 0 93 16 136 47l21 -35c-51 -35 -106 -53 -162 -53c-137 0 -234 105 -234 253zM407 668l-164 -105l-20 28l160 110z" />
    <glyph glyph-name="ccedilla" unicode="&#xe7;" horiz-adv-x="486" 
d="M50 241c0 149 97 254 234 254c56 0 111 -18 162 -54l-21 -34c-43 31 -88 47 -136 47c-111 0 -190 -87 -190 -213c0 -125 79 -212 190 -212c48 0 93 16 136 47l21 -35c-47 -33 -96 -50 -147 -52l-10 -53c44 -4 76 -37 76 -77c0 -47 -43 -79 -101 -79c-26 0 -57 5 -86 16
l11 31c25 -9 50 -14 71 -14c35 0 64 18 64 50c0 29 -27 49 -66 49h-9l14 77c-126 9 -213 110 -213 252z" />
    <glyph glyph-name="ccircumflex" unicode="&#x109;" horiz-adv-x="486" 
d="M50 241c0 149 97 254 234 254c56 0 111 -18 162 -54l-21 -34c-43 31 -88 47 -136 47c-111 0 -190 -87 -190 -213c0 -125 79 -212 190 -212c48 0 93 16 136 47l21 -35c-51 -35 -106 -53 -162 -53c-137 0 -234 105 -234 253zM137 589l121 118h34l121 -118l-23 -25l-115 107
l-115 -107z" />
    <glyph glyph-name="ccaron" unicode="&#x10d;" horiz-adv-x="486" 
d="M50 241c0 149 97 254 234 254c56 0 111 -18 162 -54l-21 -34c-43 31 -88 47 -136 47c-111 0 -190 -87 -190 -213c0 -125 79 -212 190 -212c48 0 93 16 136 47l21 -35c-51 -35 -106 -53 -162 -53c-137 0 -234 105 -234 253zM413 686l-121 -119h-34l-121 119l23 24
l115 -106l115 106z" />
    <glyph glyph-name="cdotaccent" unicode="&#x10b;" horiz-adv-x="486" 
d="M50 241c0 149 97 254 234 254c56 0 111 -18 162 -54l-21 -34c-43 31 -88 47 -136 47c-111 0 -190 -87 -190 -213c0 -125 79 -212 190 -212c48 0 93 16 136 47l21 -35c-51 -35 -106 -53 -162 -53c-137 0 -234 105 -234 253zM238 637c0 22 15 37 37 37s37 -15 37 -37
s-15 -37 -37 -37s-37 15 -37 37z" />
    <glyph glyph-name="dcaron" unicode="&#x10f;" horiz-adv-x="644" 
d="M484 704v-704h-39l-6 92c-34 -66 -96 -104 -173 -104c-126 0 -216 105 -216 253c0 149 90 254 216 254c76 0 137 -37 170 -102v311h48zM99 241c0 -124 73 -213 176 -213c96 0 162 71 162 170v87c0 99 -66 170 -162 170c-103 0 -176 -89 -176 -214zM659 713l-68 -161
l-34 12l64 163z" />
    <glyph glyph-name="dcroat" unicode="&#x111;" 
d="M484 704v-87h74v-37h-74v-580h-39l-6 92c-34 -66 -96 -104 -173 -104c-126 0 -216 105 -216 253c0 149 90 254 216 254c76 0 137 -37 170 -102v187h-183v37h183v87h48zM99 241c0 -124 73 -213 176 -213c96 0 162 71 162 170v87c0 99 -66 170 -162 170
c-103 0 -176 -89 -176 -214z" />
    <glyph glyph-name="eth" unicode="&#xf0;" 
d="M50 241c0 147 93 250 222 250c66 0 118 -19 165 -75c-28 83 -79 152 -150 201l-131 -65l-15 29l112 55c-30 18 -61 33 -96 46l13 34c47 -15 89 -34 127 -58l119 58l14 -28l-102 -51c105 -78 171 -192 183 -324c2 -20 2 -40 1 -60c-4 -157 -101 -265 -236 -265
c-132 0 -226 104 -226 253zM97 239c0 -125 75 -213 181 -213c109 0 187 93 187 226c0 118 -78 200 -187 200c-106 0 -181 -87 -181 -213z" />
    <glyph glyph-name="egrave" unicode="&#xe8;" horiz-adv-x="529" 
d="M50 241c0 149 93 254 226 254c124 0 210 -100 210 -244v-20h-388c4 -121 85 -205 199 -205c45 0 96 14 149 42l16 -35c-59 -31 -119 -45 -170 -45c-141 0 -242 105 -242 253zM276 456c-100 0 -171 -77 -178 -192h342c-2 114 -68 192 -164 192zM171 701l159 -110l-19 -28
l-164 105z" />
    <glyph glyph-name="eacute" unicode="&#xe9;" horiz-adv-x="529" 
d="M50 241c0 149 93 254 226 254c124 0 210 -100 210 -244v-20h-388c4 -121 85 -205 199 -205c45 0 96 14 149 42l16 -35c-59 -31 -119 -45 -170 -45c-141 0 -242 105 -242 253zM276 456c-100 0 -171 -77 -178 -192h342c-2 114 -68 192 -164 192zM408 668l-164 -105l-20 28
l160 110z" />
    <glyph glyph-name="ecircumflex" unicode="&#xea;" horiz-adv-x="529" 
d="M50 241c0 149 93 254 226 254c124 0 210 -100 210 -244v-20h-388c4 -121 85 -205 199 -205c45 0 96 14 149 42l16 -35c-59 -31 -119 -45 -170 -45c-141 0 -242 105 -242 253zM276 456c-100 0 -171 -77 -178 -192h342c-2 114 -68 192 -164 192zM138 589l121 118h34
l121 -118l-23 -25l-115 107l-115 -107z" />
    <glyph glyph-name="ecaron" unicode="&#x11b;" horiz-adv-x="529" 
d="M50 241c0 149 93 254 226 254c124 0 210 -100 210 -244v-20h-388c4 -121 85 -205 199 -205c45 0 96 14 149 42l16 -35c-59 -31 -119 -45 -170 -45c-141 0 -242 105 -242 253zM276 456c-100 0 -171 -77 -178 -192h342c-2 114 -68 192 -164 192zM414 686l-121 -119h-34
l-121 119l23 24l115 -106l115 106z" />
    <glyph glyph-name="edieresis" unicode="&#xeb;" horiz-adv-x="529" 
d="M50 241c0 149 93 254 226 254c124 0 210 -100 210 -244v-20h-388c4 -121 85 -205 199 -205c45 0 96 14 149 42l16 -35c-59 -31 -119 -45 -170 -45c-141 0 -242 105 -242 253zM276 456c-100 0 -171 -77 -178 -192h342c-2 114 -68 192 -164 192zM140 637c0 21 15 35 36 35
s35 -14 35 -35s-14 -35 -35 -35s-36 14 -36 35zM341 637c0 21 14 35 35 35s36 -14 36 -35s-15 -35 -36 -35s-35 14 -35 35z" />
    <glyph glyph-name="emacron" unicode="&#x113;" horiz-adv-x="529" 
d="M50 241c0 149 93 254 226 254c124 0 210 -100 210 -244v-20h-388c4 -121 85 -205 199 -205c45 0 96 14 149 42l16 -35c-59 -31 -119 -45 -170 -45c-141 0 -242 105 -242 253zM276 456c-100 0 -171 -77 -178 -192h342c-2 114 -68 192 -164 192zM134 619v36h284v-36h-284z
" />
    <glyph glyph-name="ebreve" unicode="&#x115;" horiz-adv-x="529" 
d="M50 241c0 149 93 254 226 254c124 0 210 -100 210 -244v-20h-388c4 -121 85 -205 199 -205c45 0 96 14 149 42l16 -35c-59 -31 -119 -45 -170 -45c-141 0 -242 105 -242 253zM276 456c-100 0 -171 -77 -178 -192h342c-2 114 -68 192 -164 192zM133 691h35
c3 -56 46 -95 103 -95s100 39 103 95h35c-3 -79 -61 -132 -138 -132s-135 53 -138 132z" />
    <glyph glyph-name="edotaccent" unicode="&#x117;" horiz-adv-x="529" 
d="M50 241c0 149 93 254 226 254c124 0 210 -100 210 -244v-20h-388c4 -121 85 -205 199 -205c45 0 96 14 149 42l16 -35c-59 -31 -119 -45 -170 -45c-141 0 -242 105 -242 253zM276 456c-100 0 -171 -77 -178 -192h342c-2 114 -68 192 -164 192zM239 637c0 22 15 37 37 37
s37 -15 37 -37s-15 -37 -37 -37s-37 15 -37 37z" />
    <glyph glyph-name="eogonek" unicode="&#x119;" horiz-adv-x="529" 
d="M50 241c0 149 93 254 226 254c124 0 210 -100 210 -244v-20h-388c4 -121 85 -205 199 -205c45 0 96 14 149 42l16 -35c-70 -59 -106 -111 -106 -160c0 -38 25 -60 55 -60c13 0 28 3 42 10l9 -31c-21 -8 -41 -12 -59 -12c-47 0 -86 32 -86 85c0 48 29 96 78 140
c-37 -11 -72 -17 -103 -17c-141 0 -242 105 -242 253zM276 456c-100 0 -171 -77 -178 -192h342c-2 114 -68 192 -164 192z" />
    <glyph glyph-name="gcircumflex" unicode="&#x11d;" 
d="M484 483v-503c0 -117 -93 -200 -224 -200c-52 0 -114 13 -179 41l15 38c60 -26 116 -39 161 -39c105 0 179 65 179 158v112c-33 -65 -94 -102 -170 -102c-126 0 -216 105 -216 253c0 149 90 254 216 254c77 0 139 -38 173 -105l6 93h39zM99 241c0 -124 73 -213 176 -213
c96 0 162 71 162 170v87c0 99 -66 170 -162 170c-103 0 -176 -89 -176 -214zM148 589l121 118h34l121 -118l-23 -25l-115 107l-115 -107z" />
    <glyph glyph-name="gbreve" unicode="&#x11f;" 
d="M484 483v-503c0 -117 -93 -200 -224 -200c-52 0 -114 13 -179 41l15 38c60 -26 116 -39 161 -39c105 0 179 65 179 158v112c-33 -65 -94 -102 -170 -102c-126 0 -216 105 -216 253c0 149 90 254 216 254c77 0 139 -38 173 -105l6 93h39zM99 241c0 -124 73 -213 176 -213
c96 0 162 71 162 170v87c0 99 -66 170 -162 170c-103 0 -176 -89 -176 -214zM143 691h35c3 -56 46 -95 103 -95s100 39 103 95h35c-3 -79 -61 -132 -138 -132s-135 53 -138 132z" />
    <glyph glyph-name="gdotaccent" unicode="&#x121;" 
d="M484 483v-503c0 -117 -93 -200 -224 -200c-52 0 -114 13 -179 41l15 38c60 -26 116 -39 161 -39c105 0 179 65 179 158v112c-33 -65 -94 -102 -170 -102c-126 0 -216 105 -216 253c0 149 90 254 216 254c77 0 139 -38 173 -105l6 93h39zM99 241c0 -124 73 -213 176 -213
c96 0 162 71 162 170v87c0 99 -66 170 -162 170c-103 0 -176 -89 -176 -214zM249 637c0 22 15 37 37 37s37 -15 37 -37s-15 -37 -37 -37s-37 15 -37 37z" />
    <glyph glyph-name="gcommaaccent" unicode="&#x123;" 
d="M484 483v-503c0 -117 -93 -200 -224 -200c-52 0 -114 13 -179 41l15 38c60 -26 116 -39 161 -39c105 0 179 65 179 158v112c-33 -65 -94 -102 -170 -102c-126 0 -216 105 -216 253c0 149 90 254 216 254c77 0 139 -38 173 -105l6 93h39zM99 241c0 -124 73 -213 176 -213
c96 0 162 71 162 170v87c0 99 -66 170 -162 170c-103 0 -176 -89 -176 -214zM321 588c0 -21 -14 -35 -35 -35c-24 0 -40 20 -40 54c0 58 30 110 85 145l15 -21c-40 -31 -62 -68 -62 -110c20 2 37 -13 37 -33z" />
    <glyph glyph-name="hcircumflex" unicode="&#x125;" 
d="M87 0v704h48v-319c32 69 98 110 177 110c105 0 180 -73 180 -176v-319h-48v313c0 83 -60 141 -143 141c-95 0 -166 -72 -166 -177v-277h-48zM-27 810l121 118h34l121 -118l-23 -25l-115 107l-115 -107z" />
    <glyph glyph-name="hbar" unicode="&#x127;" 
d="M87 0v580h-74v37h74v87h48v-87h183v-37h-183v-195c32 69 98 110 177 110c105 0 180 -73 180 -176v-319h-48v313c0 83 -60 141 -143 141c-95 0 -166 -72 -166 -177v-277h-48z" />
    <glyph glyph-name="dotlessi" unicode="&#x131;" horiz-adv-x="222" 
d="M87 0v483h48v-483h-48z" />
    <glyph glyph-name="igrave" unicode="&#xec;" horiz-adv-x="222" 
d="M87 0v483h48v-483h-48zM6 701l159 -110l-19 -28l-164 105z" />
    <glyph glyph-name="iacute" unicode="&#xed;" horiz-adv-x="222" 
d="M87 0v483h48v-483h-48zM243 668l-164 -105l-20 28l160 110z" />
    <glyph glyph-name="icircumflex" unicode="&#xee;" horiz-adv-x="222" 
d="M87 0v483h48v-483h-48zM-27 589l121 118h34l121 -118l-23 -25l-115 107l-115 -107z" />
    <glyph glyph-name="itilde" unicode="&#x129;" horiz-adv-x="222" 
d="M87 0v483h48v-483h-48zM47 675c43 0 91 -39 125 -39c21 0 37 14 45 39l34 -11c-10 -38 -39 -64 -76 -64c-43 0 -91 38 -125 38c-21 0 -38 -14 -45 -38l-34 10c10 38 39 65 76 65z" />
    <glyph glyph-name="idieresis" unicode="&#xef;" horiz-adv-x="222" 
d="M87 0v483h48v-483h-48zM-25 637c0 21 15 35 36 35s35 -14 35 -35s-14 -35 -35 -35s-36 14 -36 35zM176 637c0 21 14 35 35 35s36 -14 36 -35s-15 -35 -36 -35s-35 14 -35 35z" />
    <glyph glyph-name="imacron" unicode="&#x12b;" horiz-adv-x="222" 
d="M87 0v483h48v-483h-48zM-31 619v36h284v-36h-284z" />
    <glyph glyph-name="ibreve" unicode="&#x12d;" horiz-adv-x="222" 
d="M87 0v483h48v-483h-48zM-32 691h35c3 -56 46 -95 103 -95s100 39 103 95h35c-3 -79 -61 -132 -138 -132s-135 53 -138 132z" />
    <glyph glyph-name="iogonek" unicode="&#x12f;" horiz-adv-x="222" 
d="M135 483v-483c-59 -46 -98 -91 -98 -135c0 -33 25 -52 54 -52c15 0 31 3 45 10l8 -31c-20 -8 -41 -12 -61 -12c-47 0 -84 29 -84 78s33 96 88 142v483h48zM74 637c0 22 15 38 37 38s38 -16 38 -38s-16 -37 -38 -37s-37 15 -37 37z" />
    <glyph glyph-name="ij" unicode="&#x133;" horiz-adv-x="453" 
d="M87 0v483h48v-483h-48zM74 637c0 22 15 38 37 38s38 -16 38 -38s-16 -37 -38 -37s-37 15 -37 37zM365 483v-572c0 -77 -55 -131 -133 -131c-28 0 -58 4 -89 13l8 39c26 -8 50 -11 72 -11c56 0 94 38 94 93v569h48zM304 637c0 22 15 38 37 38s38 -16 38 -38
s-16 -37 -38 -37s-37 15 -37 37z" />
    <glyph glyph-name="jcircumflex" unicode="&#x135;" horiz-adv-x="230" 
d="M143 483v-572c0 -77 -55 -131 -133 -131c-28 0 -58 4 -89 13l8 39c26 -8 50 -11 72 -11c56 0 94 38 94 93v569h48zM-19 589l121 118h34l121 -118l-23 -25l-115 107l-115 -107z" />
    <glyph glyph-name="kcommaaccent" unicode="&#x137;" horiz-adv-x="494" 
d="M87 0v704h47v-482l260 261h58l-225 -226l233 -257h-58l-207 228l-61 -61v-167h-47zM212 -105c0 21 14 35 35 35c24 0 40 -20 40 -54c0 -58 -30 -110 -85 -145l-15 21c40 31 62 67 62 110c-20 -3 -37 12 -37 33z" />
    <glyph glyph-name="kgreenlandic" unicode="&#x138;" horiz-adv-x="494" 
d="M87 0v483h47v-261l260 261h58l-225 -226l233 -257h-58l-207 228l-61 -61v-167h-47z" />
    <glyph glyph-name="lacute" unicode="&#x13a;" horiz-adv-x="270" 
d="M135 704v-610c0 -41 26 -65 66 -65c13 0 31 2 49 7l7 -39c-24 -6 -46 -9 -65 -9c-64 0 -105 39 -105 102v614h48zM243 889l-164 -105l-20 28l160 110z" />
    <glyph glyph-name="lcaron" unicode="&#x13e;" horiz-adv-x="268" 
d="M135 704v-610c0 -41 26 -65 66 -65c13 0 31 2 49 7l7 -39c-24 -6 -46 -9 -65 -9c-64 0 -105 39 -105 102v614h48zM318 713l-68 -161l-34 12l64 163z" />
    <glyph glyph-name="lcommaaccent" unicode="&#x13c;" horiz-adv-x="270" 
d="M135 704v-610c0 -41 26 -65 66 -65c13 0 31 2 49 7l7 -39c-24 -6 -46 -9 -65 -9c-64 0 -105 39 -105 102v614h48zM129 -105c0 21 14 35 35 35c24 0 40 -20 40 -54c0 -58 -30 -110 -85 -145l-15 21c40 31 62 67 62 110c-20 -3 -37 12 -37 33z" />
    <glyph glyph-name="lslash" unicode="&#x142;" horiz-adv-x="302" 
d="M-17 308l112 56v340h48v-316l111 56l18 -32l-129 -64v-254c0 -41 26 -65 66 -65c13 0 31 2 49 7l7 -39c-24 -6 -45 -9 -65 -9c-64 0 -105 40 -105 102v234l-95 -48z" />
    <glyph glyph-name="ldot" unicode="&#x140;" horiz-adv-x="317" 
d="M135 704v-610c0 -41 26 -65 66 -65c13 0 31 2 49 7l7 -39c-24 -6 -46 -9 -65 -9c-64 0 -105 39 -105 102v614h48zM233 344c0 22 15 37 37 37s37 -15 37 -37s-15 -37 -37 -37s-37 15 -37 37z" />
    <glyph glyph-name="nacute" unicode="&#x144;" 
d="M87 0v483h39l6 -101c32 71 100 113 180 113c105 0 180 -73 180 -176v-319h-48v313c0 83 -60 141 -143 141c-95 0 -166 -72 -166 -177v-277h-48zM422 668l-164 -105l-20 28l160 110z" />
    <glyph glyph-name="ncaron" unicode="&#x148;" 
d="M87 0v483h39l6 -101c32 71 100 113 180 113c105 0 180 -73 180 -176v-319h-48v313c0 83 -60 141 -143 141c-95 0 -166 -72 -166 -177v-277h-48zM428 686l-121 -119h-34l-121 119l23 24l115 -106l115 106z" />
    <glyph glyph-name="ntilde" unicode="&#xf1;" 
d="M87 0v483h39l6 -101c32 71 100 113 180 113c105 0 180 -73 180 -176v-319h-48v313c0 83 -60 141 -143 141c-95 0 -166 -72 -166 -177v-277h-48zM222 675c43 0 91 -39 125 -39c21 0 37 14 45 39l34 -11c-10 -38 -39 -64 -76 -64c-43 0 -91 38 -125 38
c-21 0 -38 -14 -45 -38l-34 10c10 38 39 65 76 65z" />
    <glyph glyph-name="ncommaaccent" unicode="&#x146;" 
d="M87 0v483h39l6 -101c32 71 100 113 180 113c105 0 180 -73 180 -176v-319h-48v313c0 83 -60 141 -143 141c-95 0 -166 -72 -166 -177v-277h-48zM255 -105c0 21 14 35 35 35c24 0 40 -20 40 -54c0 -58 -30 -110 -85 -145l-15 21c40 31 62 67 62 110c-20 -3 -37 12 -37 33z
" />
    <glyph glyph-name="napostrophe" unicode="&#x149;" horiz-adv-x="711" 
d="M227 0v483h39l6 -101c32 71 100 113 180 113c105 0 180 -73 180 -176v-319h-48v313c0 83 -60 141 -143 141c-95 0 -166 -72 -166 -177v-277h-48zM69 659c0 21 14 35 35 35c24 0 40 -20 40 -54c0 -58 -30 -110 -85 -145l-15 21c40 31 62 67 62 110c-20 -3 -37 12 -37 33z
" />
    <glyph glyph-name="eng" unicode="&#x14b;" 
d="M87 0v483h39l6 -101c32 71 98 113 180 113c106 0 180 -74 180 -180v-404c0 -77 -55 -131 -133 -131c-28 0 -58 4 -88 13l7 39c26 -8 50 -11 73 -11c55 0 93 38 93 93v395c0 86 -59 145 -143 145c-97 0 -166 -72 -166 -173v-281h-48z" />
    <glyph glyph-name="ograve" unicode="&#xf2;" 
d="M50 241c0 149 98 254 236 254s235 -105 235 -254c0 -148 -97 -253 -235 -253s-236 105 -236 253zM99 241c0 -125 77 -213 187 -213c109 0 187 88 187 213c0 126 -78 214 -187 214c-110 0 -187 -88 -187 -214zM181 701l159 -110l-19 -28l-164 105z" />
    <glyph glyph-name="oacute" unicode="&#xf3;" 
d="M50 241c0 149 98 254 236 254s235 -105 235 -254c0 -148 -97 -253 -235 -253s-236 105 -236 253zM99 241c0 -125 77 -213 187 -213c109 0 187 88 187 213c0 126 -78 214 -187 214c-110 0 -187 -88 -187 -214zM418 668l-164 -105l-20 28l160 110z" />
    <glyph glyph-name="ocircumflex" unicode="&#xf4;" 
d="M50 241c0 149 98 254 236 254s235 -105 235 -254c0 -148 -97 -253 -235 -253s-236 105 -236 253zM99 241c0 -125 77 -213 187 -213c109 0 187 88 187 213c0 126 -78 214 -187 214c-110 0 -187 -88 -187 -214zM148 589l121 118h34l121 -118l-23 -25l-115 107l-115 -107z
" />
    <glyph glyph-name="otilde" unicode="&#xf5;" 
d="M50 241c0 149 98 254 236 254s235 -105 235 -254c0 -148 -97 -253 -235 -253s-236 105 -236 253zM99 241c0 -125 77 -213 187 -213c109 0 187 88 187 213c0 126 -78 214 -187 214c-110 0 -187 -88 -187 -214zM222 675c43 0 91 -39 125 -39c21 0 37 14 45 39l34 -11
c-10 -38 -39 -64 -76 -64c-43 0 -91 38 -125 38c-21 0 -38 -14 -45 -38l-34 10c10 38 39 65 76 65z" />
    <glyph glyph-name="odieresis" unicode="&#xf6;" 
d="M50 241c0 149 98 254 236 254s235 -105 235 -254c0 -148 -97 -253 -235 -253s-236 105 -236 253zM99 241c0 -125 77 -213 187 -213c109 0 187 88 187 213c0 126 -78 214 -187 214c-110 0 -187 -88 -187 -214zM150 637c0 21 15 35 36 35s35 -14 35 -35s-14 -35 -35 -35
s-36 14 -36 35zM351 637c0 21 14 35 35 35s36 -14 36 -35s-15 -35 -36 -35s-35 14 -35 35z" />
    <glyph glyph-name="omacron" unicode="&#x14d;" 
d="M50 241c0 149 98 254 236 254s235 -105 235 -254c0 -148 -97 -253 -235 -253s-236 105 -236 253zM99 241c0 -125 77 -213 187 -213c109 0 187 88 187 213c0 126 -78 214 -187 214c-110 0 -187 -88 -187 -214zM144 619v36h284v-36h-284z" />
    <glyph glyph-name="obreve" unicode="&#x14f;" 
d="M50 241c0 149 98 254 236 254s235 -105 235 -254c0 -148 -97 -253 -235 -253s-236 105 -236 253zM99 241c0 -125 77 -213 187 -213c109 0 187 88 187 213c0 126 -78 214 -187 214c-110 0 -187 -88 -187 -214zM143 691h35c3 -56 46 -95 103 -95s100 39 103 95h35
c-3 -79 -61 -132 -138 -132s-135 53 -138 132z" />
    <glyph glyph-name="ohungarumlaut" unicode="&#x151;" 
d="M50 241c0 149 98 254 236 254s235 -105 235 -254c0 -148 -97 -253 -235 -253s-236 105 -236 253zM99 241c0 -125 77 -213 187 -213c109 0 187 88 187 213c0 126 -78 214 -187 214c-110 0 -187 -88 -187 -214zM503 696l-141 -138l-26 25l138 142zM326 696l-142 -138
l-25 25l138 142z" />
    <glyph glyph-name="oslash" unicode="&#xf8;" 
d="M50 241c0 149 98 254 236 254c53 0 100 -17 137 -45l35 46l24 -19l-35 -46c46 -45 74 -111 74 -190c0 -148 -97 -253 -235 -253c-54 0 -101 16 -137 45l-35 -46l-24 19l34 44c-47 46 -74 112 -74 191zM96 241c0 -64 20 -117 55 -155l247 331c-30 25 -69 39 -112 39
c-112 0 -190 -88 -190 -215zM476 241c0 64 -21 118 -55 155l-248 -330c30 -25 68 -40 113 -40c111 0 190 89 190 215z" />
    <glyph glyph-name="oslashacute" unicode="&#x1ff;" 
d="M50 241c0 149 98 254 236 254c53 0 100 -17 137 -45l35 46l24 -19l-35 -46c46 -45 74 -111 74 -190c0 -148 -97 -253 -235 -253c-54 0 -101 16 -137 45l-35 -46l-24 19l34 44c-47 46 -74 112 -74 191zM96 241c0 -64 20 -117 55 -155l247 331c-30 25 -69 39 -112 39
c-112 0 -190 -88 -190 -215zM476 241c0 64 -21 118 -55 155l-248 -330c30 -25 68 -40 113 -40c111 0 190 89 190 215zM418 668l-164 -105l-20 28l160 110z" />
    <glyph glyph-name="oe" unicode="&#x153;" horiz-adv-x="952" 
d="M50 241c0 149 98 254 236 254c101 0 182 -62 211 -157c29 95 104 157 203 157c124 0 210 -100 210 -244c0 -7 0 -14 -1 -20h-388c5 -121 85 -205 199 -205c45 0 97 14 148 42l18 -35c-60 -31 -119 -45 -170 -45c-105 0 -188 61 -219 158c-29 -96 -109 -158 -211 -158
c-138 0 -236 105 -236 253zM99 241c0 -125 77 -213 187 -213c109 0 187 88 187 213c0 126 -78 214 -187 214c-110 0 -187 -88 -187 -214zM700 456c-101 0 -171 -78 -179 -192h342c-2 114 -68 192 -163 192z" />
    <glyph glyph-name="thorn" unicode="&#xfe;" 
d="M87 -208v912h48v-311c34 65 95 102 171 102c125 0 215 -105 215 -254c0 -148 -90 -253 -215 -253c-76 0 -137 37 -171 102v-298h-48zM473 241c0 125 -74 214 -177 214c-95 0 -162 -71 -162 -170v-87c0 -99 67 -170 162 -170c103 0 177 89 177 213z" />
    <glyph glyph-name="racute" unicode="&#x155;" horiz-adv-x="372" 
d="M87 0v483h39l6 -102c23 68 82 110 156 110c19 0 41 -3 62 -9l-7 -40c-19 5 -40 8 -58 8c-89 0 -150 -74 -150 -181v-269h-48zM336 668l-164 -105l-20 28l160 110z" />
    <glyph glyph-name="rcaron" unicode="&#x159;" horiz-adv-x="372" 
d="M87 0v483h39l6 -102c23 68 82 110 156 110c19 0 41 -3 62 -9l-7 -40c-19 5 -40 8 -58 8c-89 0 -150 -74 -150 -181v-269h-48zM342 686l-121 -119h-34l-121 119l23 24l115 -106l115 106z" />
    <glyph glyph-name="rcommaaccent" unicode="&#x157;" horiz-adv-x="372" 
d="M87 0v483h39l6 -102c23 68 82 110 156 110c19 0 41 -3 62 -9l-7 -40c-19 5 -40 8 -58 8c-89 0 -150 -74 -150 -181v-269h-48zM76 -105c0 21 14 35 35 35c24 0 40 -20 40 -54c0 -58 -30 -110 -85 -145l-15 21c40 31 62 67 62 110c-20 -3 -37 12 -37 33z" />
    <glyph glyph-name="sacute" unicode="&#x15b;" horiz-adv-x="441" 
d="M54 367c0 75 68 128 166 128c48 0 100 -11 154 -33l-12 -37c-49 21 -96 31 -139 31c-72 0 -122 -36 -122 -89c0 -140 289 -64 289 -247c0 -78 -69 -132 -170 -132c-51 0 -109 12 -170 37l12 37c56 -24 109 -36 155 -36c76 0 126 38 126 94c0 144 -289 68 -289 247z
M352 668l-164 -105l-20 28l160 110z" />
    <glyph glyph-name="scircumflex" unicode="&#x15d;" horiz-adv-x="441" 
d="M54 367c0 75 68 128 166 128c48 0 100 -11 154 -33l-12 -37c-49 21 -96 31 -139 31c-72 0 -122 -36 -122 -89c0 -140 289 -64 289 -247c0 -78 -69 -132 -170 -132c-51 0 -109 12 -170 37l12 37c56 -24 109 -36 155 -36c76 0 126 38 126 94c0 144 -289 68 -289 247z
M82 589l121 118h34l121 -118l-23 -25l-115 107l-115 -107z" />
    <glyph glyph-name="scaron" unicode="&#x161;" horiz-adv-x="441" 
d="M54 367c0 75 68 128 166 128c48 0 100 -11 154 -33l-12 -37c-49 21 -96 31 -139 31c-72 0 -122 -36 -122 -89c0 -140 289 -64 289 -247c0 -78 -69 -132 -170 -132c-51 0 -109 12 -170 37l12 37c56 -24 109 -36 155 -36c76 0 126 38 126 94c0 144 -289 68 -289 247z
M358 686l-121 -119h-34l-121 119l23 24l115 -106l115 106z" />
    <glyph glyph-name="scedilla" unicode="&#x15f;" horiz-adv-x="441" 
d="M54 367c0 75 68 128 166 128c48 0 100 -11 154 -33l-12 -37c-49 21 -96 31 -139 31c-72 0 -122 -36 -122 -89c0 -140 289 -64 289 -247c0 -72 -58 -123 -145 -130l-10 -54c44 -4 75 -37 75 -77c0 -47 -42 -79 -101 -79c-26 0 -56 5 -85 16l10 31c25 -9 51 -14 72 -14
c36 0 64 19 64 50c0 29 -27 49 -66 49h-10l14 77c-48 1 -102 12 -158 36l12 37c56 -24 109 -36 155 -36c76 0 126 38 126 94c0 144 -289 68 -289 247z" />
    <glyph glyph-name="scommaaccent" unicode="&#x219;" horiz-adv-x="441" 
d="M54 367c0 75 68 128 166 128c48 0 100 -11 154 -33l-12 -37c-49 21 -96 31 -139 31c-72 0 -122 -36 -122 -89c0 -140 289 -64 289 -247c0 -78 -69 -132 -170 -132c-51 0 -109 12 -170 37l12 37c56 -24 109 -36 155 -36c76 0 126 38 126 94c0 144 -289 68 -289 247z
M185 -105c0 21 14 35 35 35c24 0 40 -20 40 -54c0 -58 -30 -110 -85 -145l-15 21c40 31 62 67 62 110c-20 -3 -37 12 -37 33z" />
    <glyph glyph-name="germandbls" unicode="&#xdf;" horiz-adv-x="604" 
d="M314 359c0 93 90 118 90 207c0 62 -51 111 -128 111c-85 0 -142 -56 -142 -147v-530h-47v532c0 113 77 184 191 184c103 0 174 -65 174 -149c0 -101 -90 -126 -90 -206c0 -119 199 -91 199 -241c0 -81 -67 -132 -162 -132c-43 0 -86 10 -136 33l14 37
c44 -21 82 -31 119 -31c70 0 119 35 119 93c0 120 -201 93 -201 239z" />
    <glyph glyph-name="tcaron" unicode="&#x165;" horiz-adv-x="393" 
d="M183 627v-144h165v-39h-165v-322c0 -55 39 -93 94 -93c23 0 46 3 72 11l8 -39c-30 -9 -60 -13 -89 -13c-78 0 -133 54 -133 131v325h-106v39h106v144h48zM358 713l-68 -161l-34 12l64 163z" />
    <glyph glyph-name="tcommaaccent" unicode="&#x163;" horiz-adv-x="393" 
d="M183 627v-144h165v-39h-165v-322c0 -55 39 -93 94 -93c23 0 46 3 72 11l8 -39c-30 -9 -60 -13 -89 -13c-78 0 -133 54 -133 131v325h-106v39h106v144h48zM200 -105c0 21 14 35 35 35c24 0 40 -20 40 -54c0 -58 -30 -110 -85 -145l-15 21c40 31 62 67 62 110
c-20 -3 -37 12 -37 33z" />
    <glyph glyph-name="uni021B" unicode="&#x21b;" horiz-adv-x="393" 
d="M183 627v-144h165v-39h-165v-322c0 -55 39 -93 94 -93c23 0 46 3 72 11l8 -39c-30 -9 -60 -13 -89 -13c-78 0 -133 54 -133 131v325h-106v39h106v144h48zM200 -105c0 21 14 35 35 35c24 0 40 -20 40 -54c0 -58 -30 -110 -85 -145l-15 21c40 31 62 67 62 110
c-20 -3 -37 12 -37 33z" />
    <glyph glyph-name="tbar" unicode="&#x167;" horiz-adv-x="393" 
d="M183 627v-144h165v-39h-165v-179h149v-36h-149v-107c0 -55 38 -93 94 -93c23 0 46 3 72 11l8 -39c-30 -9 -60 -13 -89 -13c-78 0 -133 54 -133 131v110h-98v36h98v179h-106v39h106v144h48z" />
    <glyph glyph-name="ugrave" unicode="&#xf9;" 
d="M484 483v-483h-39l-6 100c-31 -71 -99 -112 -179 -112c-105 0 -181 73 -181 176v319h48v-313c0 -83 60 -141 144 -141c95 0 165 72 165 177v277h48zM181 701l159 -110l-19 -28l-164 105z" />
    <glyph glyph-name="uacute" unicode="&#xfa;" 
d="M484 483v-483h-39l-6 100c-31 -71 -99 -112 -179 -112c-105 0 -181 73 -181 176v319h48v-313c0 -83 60 -141 144 -141c95 0 165 72 165 177v277h48zM418 668l-164 -105l-20 28l160 110z" />
    <glyph glyph-name="ucircumflex" unicode="&#xfb;" 
d="M484 483v-483h-39l-6 100c-31 -71 -99 -112 -179 -112c-105 0 -181 73 -181 176v319h48v-313c0 -83 60 -141 144 -141c95 0 165 72 165 177v277h48zM148 589l121 118h34l121 -118l-23 -25l-115 107l-115 -107z" />
    <glyph glyph-name="utilde" unicode="&#x169;" 
d="M484 483v-483h-39l-6 100c-31 -71 -99 -112 -179 -112c-105 0 -181 73 -181 176v319h48v-313c0 -83 60 -141 144 -141c95 0 165 72 165 177v277h48zM218 675c43 0 91 -39 125 -39c21 0 37 14 45 39l34 -11c-10 -38 -39 -64 -76 -64c-43 0 -91 38 -125 38
c-21 0 -38 -14 -45 -38l-34 10c10 38 39 65 76 65z" />
    <glyph glyph-name="udieresis" unicode="&#xfc;" 
d="M484 483v-483h-39l-6 100c-31 -71 -99 -112 -179 -112c-105 0 -181 73 -181 176v319h48v-313c0 -83 60 -141 144 -141c95 0 165 72 165 177v277h48zM150 637c0 21 15 35 36 35s35 -14 35 -35s-14 -35 -35 -35s-36 14 -36 35zM351 637c0 21 14 35 35 35s36 -14 36 -35
s-15 -35 -36 -35s-35 14 -35 35z" />
    <glyph glyph-name="umacron" unicode="&#x16b;" 
d="M484 483v-483h-39l-6 100c-31 -71 -99 -112 -179 -112c-105 0 -181 73 -181 176v319h48v-313c0 -83 60 -141 144 -141c95 0 165 72 165 177v277h48zM140 619v36h284v-36h-284z" />
    <glyph glyph-name="ubreve" unicode="&#x16d;" 
d="M484 483v-483h-39l-6 100c-31 -71 -99 -112 -179 -112c-105 0 -181 73 -181 176v319h48v-313c0 -83 60 -141 144 -141c95 0 165 72 165 177v277h48zM139 691h35c3 -56 46 -95 103 -95s100 39 103 95h35c-3 -79 -61 -132 -138 -132s-135 53 -138 132z" />
    <glyph glyph-name="uring" unicode="&#x16f;" 
d="M484 483v-483h-39l-6 100c-31 -71 -99 -112 -179 -112c-105 0 -181 73 -181 176v319h48v-313c0 -83 60 -141 144 -141c95 0 165 72 165 177v277h48zM188 637c0 55 39 92 94 92s94 -37 94 -92c0 -54 -37 -92 -92 -92c-56 0 -96 38 -96 92zM217 637c0 -39 28 -65 67 -65
c37 0 63 26 63 65s-27 65 -65 65c-39 0 -65 -26 -65 -65z" />
    <glyph glyph-name="uhungarumlaut" unicode="&#x171;" 
d="M484 483v-483h-39l-6 100c-31 -71 -99 -112 -179 -112c-105 0 -181 73 -181 176v319h48v-313c0 -83 60 -141 144 -141c95 0 165 72 165 177v277h48zM499 696l-141 -138l-26 25l138 142zM322 696l-142 -138l-25 25l138 142z" />
    <glyph glyph-name="uogonek" unicode="&#x173;" 
d="M484 483v-483c-59 -46 -98 -91 -98 -135c0 -33 25 -52 54 -52c15 0 31 3 45 10l8 -31c-20 -8 -41 -12 -61 -12c-47 0 -84 29 -84 78c0 50 36 98 97 144l-6 98c-31 -71 -99 -112 -179 -112c-105 0 -181 73 -181 176v319h48v-313c0 -83 60 -141 144 -141
c95 0 165 72 165 177v277h48z" />
    <glyph glyph-name="wgrave" unicode="&#x1e81;" horiz-adv-x="764" 
d="M724 483l-159 -483h-48l-135 424l-135 -424h-49l-159 483h49l135 -424l135 424h47l135 -424l136 424h48zM277 701l159 -110l-19 -28l-164 105z" />
    <glyph glyph-name="wacute" unicode="&#x1e83;" horiz-adv-x="764" 
d="M724 483l-159 -483h-48l-135 424l-135 -424h-49l-159 483h49l135 -424l135 424h47l135 -424l136 424h48zM514 668l-164 -105l-20 28l160 110z" />
    <glyph glyph-name="wcircumflex" unicode="&#x175;" horiz-adv-x="764" 
d="M724 483l-159 -483h-48l-135 424l-135 -424h-49l-159 483h49l135 -424l135 424h47l135 -424l136 424h48zM244 589l121 118h34l121 -118l-23 -25l-115 107l-115 -107z" />
    <glyph glyph-name="wdieresis" unicode="&#x1e85;" horiz-adv-x="764" 
d="M724 483l-159 -483h-48l-135 424l-135 -424h-49l-159 483h49l135 -424l135 424h47l135 -424l136 424h48zM246 637c0 21 15 35 36 35s35 -14 35 -35s-14 -35 -35 -35s-36 14 -36 35zM447 637c0 21 14 35 35 35s36 -14 36 -35s-15 -35 -36 -35s-35 14 -35 35z" />
    <glyph glyph-name="ygrave" unicode="&#x1ef3;" horiz-adv-x="508" 
d="M476 483l-230 -567c-38 -95 -80 -136 -151 -136c-17 0 -39 3 -62 8l8 40c19 -5 37 -7 51 -7c52 0 81 30 111 105l31 77l-203 480h50l176 -426l169 426h50zM149 701l159 -110l-19 -28l-164 105z" />
    <glyph glyph-name="yacute" unicode="&#xfd;" horiz-adv-x="508" 
d="M476 483l-230 -567c-38 -95 -80 -136 -151 -136c-17 0 -39 3 -62 8l8 40c19 -5 37 -7 51 -7c52 0 81 30 111 105l31 77l-203 480h50l176 -426l169 426h50zM386 668l-164 -105l-20 28l160 110z" />
    <glyph glyph-name="ycircumflex" unicode="&#x177;" horiz-adv-x="508" 
d="M476 483l-230 -567c-38 -95 -80 -136 -151 -136c-17 0 -39 3 -62 8l8 40c19 -5 37 -7 51 -7c52 0 81 30 111 105l31 77l-203 480h50l176 -426l169 426h50zM116 589l121 118h34l121 -118l-23 -25l-115 107l-115 -107z" />
    <glyph glyph-name="ydieresis" unicode="&#xff;" horiz-adv-x="508" 
d="M476 483l-230 -567c-38 -95 -80 -136 -151 -136c-17 0 -39 3 -62 8l8 40c19 -5 37 -7 51 -7c52 0 81 30 111 105l31 77l-203 480h50l176 -426l169 426h50zM118 637c0 21 15 35 36 35s35 -14 35 -35s-14 -35 -35 -35s-36 14 -36 35zM319 637c0 21 14 35 35 35
s36 -14 36 -35s-15 -35 -36 -35s-35 14 -35 35z" />
    <glyph glyph-name="zacute" unicode="&#x17a;" horiz-adv-x="473" 
d="M50 0v29l301 415h-293v39h356v-29l-300 -415h308v-39h-372zM368 668l-164 -105l-20 28l160 110z" />
    <glyph glyph-name="zcaron" unicode="&#x17e;" horiz-adv-x="473" 
d="M50 0v29l301 415h-293v39h356v-29l-300 -415h308v-39h-372zM374 686l-121 -119h-34l-121 119l23 24l115 -106l115 106z" />
    <glyph glyph-name="zdotaccent" unicode="&#x17c;" horiz-adv-x="473" 
d="M50 0v29l301 415h-293v39h356v-29l-300 -415h308v-39h-372zM199 637c0 22 15 37 37 37s37 -15 37 -37s-15 -37 -37 -37s-37 15 -37 37z" />
    <glyph glyph-name="Agrave.sc" unicode="&#xe21a;" horiz-adv-x="549" 
d="M39 0l213 515h45l214 -515h-49l-61 148h-253l-61 -148h-48zM275 460l-114 -276h228zM170 733l159 -110l-19 -28l-164 105z" />
    <glyph glyph-name="Aacute.sc" unicode="&#xe21b;" horiz-adv-x="549" 
d="M39 0l213 515h45l214 -515h-49l-61 148h-253l-61 -148h-48zM275 460l-114 -276h228zM407 700l-164 -105l-20 28l160 110z" />
    <glyph glyph-name="Acircumflex.sc" unicode="&#xe21c;" horiz-adv-x="549" 
d="M39 0l213 515h45l214 -515h-49l-61 148h-253l-61 -148h-48zM275 460l-114 -276h228zM137 621l121 118h34l121 -118l-23 -25l-115 107l-115 -107z" />
    <glyph glyph-name="Atilde.sc" unicode="&#xe21d;" horiz-adv-x="549" 
d="M39 0l213 515h45l214 -515h-49l-61 148h-253l-61 -148h-48zM275 460l-114 -276h228zM211 707c43 0 91 -39 125 -39c21 0 37 14 45 39l34 -11c-10 -38 -39 -64 -76 -64c-43 0 -91 38 -125 38c-21 0 -38 -14 -45 -38l-34 10c10 38 39 65 76 65z" />
    <glyph glyph-name="Adieresis.sc" unicode="&#xe21e;" horiz-adv-x="549" 
d="M39 0l213 515h45l214 -515h-49l-61 148h-253l-61 -148h-48zM275 460l-114 -276h228zM139 669c0 21 15 35 36 35s35 -14 35 -35s-14 -35 -35 -35s-36 14 -36 35zM340 669c0 21 14 35 35 35s36 -14 36 -35s-15 -35 -36 -35s-35 14 -35 35z" />
    <glyph glyph-name="Amacron.sc" unicode="&#xe221;" horiz-adv-x="549" 
d="M39 0l213 515h45l214 -515h-49l-61 148h-253l-61 -148h-48zM275 460l-114 -276h228zM133 651v36h284v-36h-284z" />
    <glyph glyph-name="Abreve.sc" unicode="&#xe222;" horiz-adv-x="549" 
d="M39 0l213 515h45l214 -515h-49l-61 148h-253l-61 -148h-48zM275 460l-114 -276h228zM137 723h35c3 -56 46 -95 103 -95s100 39 103 95h35c-3 -79 -61 -132 -138 -132s-135 53 -138 132z" />
    <glyph glyph-name="Acaron.sc" horiz-adv-x="549" 
d="M39 0l213 515h45l214 -515h-49l-61 148h-253l-61 -148h-48zM275 460l-114 -276h228zM412 718l-121 -119h-34l-121 119l23 24l115 -106l115 106z" />
    <glyph glyph-name="Aring.sc" unicode="&#xe21f;" horiz-adv-x="549" 
d="M39 0l213 515h45l214 -515h-49l-61 148h-253l-61 -148h-48zM275 460l-114 -276h228zM181 669c0 55 39 92 94 92s94 -37 94 -92c0 -54 -37 -92 -92 -92c-56 0 -96 38 -96 92zM210 669c0 -39 28 -65 67 -65c37 0 63 26 63 65s-27 65 -65 65c-39 0 -65 -26 -65 -65z" />
    <glyph glyph-name="Aringacute.sc" unicode="&#xe220;" horiz-adv-x="549" 
d="M39 0l213 515h45l214 -515h-49l-61 148h-253l-61 -148h-48zM275 460l-114 -276h228zM407 819l-109 -69c42 -9 71 -42 71 -87c0 -54 -37 -91 -92 -91c-56 0 -96 37 -96 91c0 32 13 58 38 75l166 113zM210 663c0 -39 28 -66 67 -66c38 0 63 27 63 66s-27 65 -65 65
c-39 0 -65 -26 -65 -65z" />
    <glyph glyph-name="Aogonek.sc" unicode="&#xe223;" horiz-adv-x="549" 
d="M39 0l213 515h45l214 -515c-59 -46 -98 -91 -98 -135c0 -33 25 -52 54 -52c15 0 31 3 45 10l8 -31c-20 -8 -41 -12 -61 -12c-47 0 -84 29 -84 78s35 96 93 142h-6l-61 148h-253l-61 -148h-48zM275 460l-114 -276h228z" />
    <glyph glyph-name="AE.sc" unicode="&#xe224;" horiz-adv-x="781" 
d="M387 0v148h-214l-99 -148h-53l346 515h340v-38h-274v-195h249v-37h-249v-207h286v-38h-332zM387 470l-191 -284h191v284z" />
    <glyph glyph-name="AEacute.sc" unicode="&#xe225;" horiz-adv-x="781" 
d="M588 700l-164 -105l-20 28l160 110zM387 0v148h-214l-99 -148h-53l346 515h340v-38h-274v-195h249v-37h-249v-207h286v-38h-332zM387 470l-191 -284h191v284z" />
    <glyph glyph-name="Cacute.sc" unicode="&#xe226;" horiz-adv-x="534" 
d="M61 257c0 159 103 270 251 270c55 0 114 -18 169 -55l-22 -33c-45 31 -95 47 -143 47c-121 0 -206 -93 -206 -229c0 -135 85 -228 206 -228c48 0 98 16 143 47l22 -33c-55 -37 -114 -55 -169 -55c-148 0 -251 111 -251 269zM431 700l-164 -105l-20 28l160 110z" />
    <glyph glyph-name="Ccircumflex.sc" unicode="&#xe227;" horiz-adv-x="534" 
d="M61 257c0 159 103 270 251 270c55 0 114 -18 169 -55l-22 -33c-45 31 -95 47 -143 47c-121 0 -206 -93 -206 -229c0 -135 85 -228 206 -228c48 0 98 16 143 47l22 -33c-55 -37 -114 -55 -169 -55c-148 0 -251 111 -251 269zM161 621l121 118h34l121 -118l-23 -25
l-115 107l-115 -107z" />
    <glyph glyph-name="Ccaron.sc" unicode="&#xe228;" horiz-adv-x="534" 
d="M61 257c0 159 103 270 251 270c55 0 114 -18 169 -55l-22 -33c-45 31 -95 47 -143 47c-121 0 -206 -93 -206 -229c0 -135 85 -228 206 -228c48 0 98 16 143 47l22 -33c-55 -37 -114 -55 -169 -55c-148 0 -251 111 -251 269zM437 718l-121 -119h-34l-121 119l23 24
l115 -106l115 106z" />
    <glyph glyph-name="Ccedilla.sc" unicode="&#xe22a;" horiz-adv-x="534" 
d="M61 257c0 159 103 270 251 270c55 0 115 -18 169 -55l-22 -33c-45 31 -95 47 -143 47c-121 0 -206 -93 -206 -229c0 -135 85 -228 206 -228c48 0 98 16 143 47l22 -33c-51 -35 -106 -52 -158 -54l-10 -53c44 -4 76 -37 76 -77c0 -47 -43 -79 -101 -79c-26 0 -57 5 -86 16
l11 31c25 -9 50 -14 71 -14c37 0 64 19 64 50c0 29 -27 49 -66 49h-9l14 78c-134 11 -226 117 -226 267z" />
    <glyph glyph-name="Cdotaccent.sc" unicode="&#xe229;" horiz-adv-x="534" 
d="M61 257c0 159 103 270 251 270c55 0 114 -18 169 -55l-22 -33c-45 31 -95 47 -143 47c-121 0 -206 -93 -206 -229c0 -135 85 -228 206 -228c48 0 98 16 143 47l22 -33c-55 -37 -114 -55 -169 -55c-148 0 -251 111 -251 269zM262 669c0 22 15 37 37 37s37 -15 37 -37
s-15 -37 -37 -37s-37 15 -37 37z" />
    <glyph glyph-name="Dcaron.sc" unicode="&#xe22b;" horiz-adv-x="586" 
d="M101 0v515h163c156 0 261 -105 261 -258c0 -152 -104 -257 -260 -257h-164zM476 257c0 129 -87 219 -216 219h-111v-437h111c129 0 216 89 216 218zM419 718l-121 -119h-34l-121 119l23 24l115 -106l115 106z" />
    <glyph glyph-name="Dcroat.sc" unicode="&#xe22c;" horiz-adv-x="598" 
d="M113 0v245h-76v37h76v233h163c156 0 261 -105 261 -258c0 -152 -104 -257 -260 -257h-164zM490 257c0 130 -88 220 -218 220h-113v-195h146v-37h-146v-207h113c130 0 218 90 218 219z" />
    <glyph glyph-name="Eth.sc" unicode="&#xe282;" horiz-adv-x="598" 
d="M113 0v245h-76v37h76v233h163c156 0 261 -105 261 -258c0 -152 -104 -257 -260 -257h-164zM490 257c0 130 -88 220 -218 220h-113v-195h146v-37h-146v-207h113c130 0 218 90 218 219z" />
    <glyph glyph-name="Egrave.sc" unicode="&#xe22d;" horiz-adv-x="497" 
d="M101 0v515h321v-38h-273v-195h249v-37h-249v-207h285v-38h-333zM152 733l159 -110l-19 -28l-164 105z" />
    <glyph glyph-name="Eacute.sc" unicode="&#xe22e;" horiz-adv-x="497" 
d="M101 0v515h321v-38h-273v-195h249v-37h-249v-207h285v-38h-333zM389 700l-164 -105l-20 28l160 110z" />
    <glyph glyph-name="Ecircumflex.sc" unicode="&#xe22f;" horiz-adv-x="497" 
d="M101 0v515h321v-38h-273v-195h249v-37h-249v-207h285v-38h-333zM119 621l121 118h34l121 -118l-23 -25l-115 107l-115 -107z" />
    <glyph glyph-name="Ecaron.sc" unicode="&#xe230;" horiz-adv-x="497" 
d="M101 0v515h321v-38h-273v-195h249v-37h-249v-207h285v-38h-333zM395 718l-121 -119h-34l-121 119l23 24l115 -106l115 106z" />
    <glyph glyph-name="Edieresis.sc" unicode="&#xe231;" horiz-adv-x="497" 
d="M101 0v515h321v-38h-273v-195h249v-37h-249v-207h285v-38h-333zM121 669c0 21 15 35 36 35s35 -14 35 -35s-14 -35 -35 -35s-36 14 -36 35zM322 669c0 21 14 35 35 35s36 -14 36 -35s-15 -35 -36 -35s-35 14 -35 35z" />
    <glyph glyph-name="Emacron.sc" unicode="&#xe232;" horiz-adv-x="497" 
d="M101 0v515h321v-38h-273v-195h249v-37h-249v-207h285v-38h-333zM115 651v36h284v-36h-284z" />
    <glyph glyph-name="Ebreve.sc" unicode="&#xe233;" horiz-adv-x="497" 
d="M101 0v515h321v-38h-273v-195h249v-37h-249v-207h285v-38h-333zM119 723h35c3 -56 46 -95 103 -95s100 39 103 95h35c-3 -79 -61 -132 -138 -132s-135 53 -138 132z" />
    <glyph glyph-name="Edotaccent.sc" unicode="&#xe234;" horiz-adv-x="497" 
d="M101 0v515h321v-38h-273v-195h249v-37h-249v-207h285v-38h-333zM220 669c0 22 15 37 37 37s37 -15 37 -37s-15 -37 -37 -37s-37 15 -37 37z" />
    <glyph glyph-name="Eogonek.sc" unicode="&#xe235;" horiz-adv-x="497" 
d="M101 0v515h321v-38h-273v-195h249v-37h-249v-207h285v-38c-59 -46 -98 -91 -98 -135c0 -33 25 -52 54 -52c15 0 31 3 45 10l8 -31c-20 -8 -41 -12 -61 -12c-47 0 -84 29 -84 78s35 96 93 142h-290z" />
    <glyph glyph-name="Gcircumflex.sc" unicode="&#xe236;" horiz-adv-x="574" 
d="M499 261v-232c-57 -27 -117 -41 -178 -41c-154 0 -260 112 -260 269c0 158 104 270 255 270c57 0 117 -17 178 -52l-21 -34c-51 30 -103 47 -153 47c-126 0 -212 -95 -212 -231s89 -230 217 -230c47 0 91 10 130 29v167h-135v38h179zM170 621l121 118h34l121 -118
l-23 -25l-115 107l-115 -107z" />
    <glyph glyph-name="Gbreve.sc" unicode="&#xe237;" horiz-adv-x="574" 
d="M499 261v-232c-57 -27 -117 -41 -178 -41c-154 0 -260 112 -260 269c0 158 104 270 255 270c57 0 117 -17 178 -52l-21 -34c-51 30 -103 47 -153 47c-126 0 -212 -95 -212 -231s89 -230 217 -230c47 0 91 10 130 29v167h-135v38h179zM170 723h35c3 -56 46 -95 103 -95
s100 39 103 95h35c-3 -79 -61 -132 -138 -132s-135 53 -138 132z" />
    <glyph glyph-name="Gdotaccent.sc" unicode="&#xe238;" horiz-adv-x="574" 
d="M499 261v-232c-57 -27 -117 -41 -178 -41c-154 0 -260 112 -260 269c0 158 104 270 255 270c57 0 117 -17 178 -52l-21 -34c-51 30 -103 47 -153 47c-126 0 -212 -95 -212 -231s89 -230 217 -230c47 0 91 10 130 29v167h-135v38h179zM271 669c0 22 15 37 37 37
s37 -15 37 -37s-15 -37 -37 -37s-37 15 -37 37z" />
    <glyph glyph-name="Gcommaaccent.sc" unicode="&#xe239;" horiz-adv-x="574" 
d="M499 261v-232c-57 -27 -117 -41 -178 -41c-154 0 -260 112 -260 269c0 158 104 270 255 270c57 0 117 -17 178 -52l-21 -34c-51 30 -103 47 -153 47c-126 0 -212 -95 -212 -231s89 -230 217 -230c47 0 91 10 130 29v167h-135v38h179zM273 -105c0 21 14 35 35 35
c24 0 40 -20 40 -54c0 -58 -30 -110 -85 -145l-15 21c40 31 62 67 62 110c-20 -3 -37 12 -37 33z" />
    <glyph glyph-name="Hcircumflex.sc" unicode="&#xe23a;" horiz-adv-x="626" 
d="M101 0v515h48v-232h328v232h48v-515h-48v244h-328v-244h-48zM175 621l121 118h34l121 -118l-23 -25l-115 107l-115 -107z" />
    <glyph glyph-name="Hbar.sc" unicode="&#xe23b;" horiz-adv-x="626" 
d="M29 402v34h72v79h48v-79h328v79h48v-79h72v-34h-72v-402h-48v244h-328v-244h-48v402h-72zM149 282h328v120h-328v-120z" />
    <glyph glyph-name="dotlessi.sc" unicode="&#xe244;" horiz-adv-x="250" 
d="M101 0v515h48v-515h-48z" />
    <glyph glyph-name="Igrave.sc" unicode="&#xe23c;" horiz-adv-x="250" 
d="M101 0v515h48v-515h-48zM20 733l159 -110l-19 -28l-164 105z" />
    <glyph glyph-name="Iacute.sc" unicode="&#xe23d;" horiz-adv-x="250" 
d="M101 0v515h48v-515h-48zM257 700l-164 -105l-20 28l160 110z" />
    <glyph glyph-name="Icircumflex.sc" unicode="&#xe23e;" horiz-adv-x="250" 
d="M101 0v515h48v-515h-48zM-13 621l121 118h34l121 -118l-23 -25l-115 107l-115 -107z" />
    <glyph glyph-name="Itilde.sc" unicode="&#xe23f;" horiz-adv-x="250" 
d="M101 0v515h48v-515h-48zM61 707c43 0 91 -39 125 -39c21 0 37 14 45 39l34 -11c-10 -38 -39 -64 -76 -64c-43 0 -91 38 -125 38c-21 0 -38 -14 -45 -38l-34 10c10 38 39 65 76 65z" />
    <glyph glyph-name="Idieresis.sc" unicode="&#xe240;" horiz-adv-x="250" 
d="M101 0v515h48v-515h-48zM-11 669c0 21 15 35 36 35s35 -14 35 -35s-14 -35 -35 -35s-36 14 -36 35zM190 669c0 21 14 35 35 35s36 -14 36 -35s-15 -35 -36 -35s-35 14 -35 35z" />
    <glyph glyph-name="Imacron.sc" unicode="&#xe241;" horiz-adv-x="250" 
d="M101 0v515h48v-515h-48zM-17 651v36h284v-36h-284z" />
    <glyph glyph-name="Ibreve.sc" unicode="&#xe242;" horiz-adv-x="250" 
d="M101 0v515h48v-515h-48zM-13 723h35c3 -56 46 -95 103 -95s100 39 103 95h35c-3 -79 -61 -132 -138 -132s-135 53 -138 132z" />
    <glyph glyph-name="Idotaccent.sc" unicode="&#xe243;" horiz-adv-x="250" 
d="M101 0v515h48v-515h-48zM88 669c0 22 15 37 37 37s37 -15 37 -37s-15 -37 -37 -37s-37 15 -37 37z" />
    <glyph glyph-name="Iogonek.sc" unicode="&#xe245;" horiz-adv-x="250" 
d="M149 515v-515c-59 -46 -98 -91 -98 -135c0 -33 25 -52 54 -52c15 0 31 3 45 10l8 -31c-20 -8 -41 -12 -61 -12c-47 0 -84 29 -84 78s32 97 88 142v515h48z" />
    <glyph glyph-name="IJ.sc" unicode="&#xe246;" horiz-adv-x="611" 
d="M101 0v515h48v-515h-48zM511 515v-388c0 -82 -59 -139 -141 -139c-32 0 -62 4 -96 13l8 39c28 -7 53 -11 79 -11c61 0 102 40 102 101v385h48z" />
    <glyph glyph-name="Jcircumflex.sc" unicode="&#xe247;" horiz-adv-x="378" 
d="M277 515v-388c0 -82 -59 -139 -141 -139c-32 0 -62 4 -96 13l8 39c28 -7 53 -11 79 -11c61 0 102 40 102 101v385h48zM115 621l121 118h34l121 -118l-23 -25l-115 107l-115 -107z" />
    <glyph glyph-name="Kcommaaccent.sc" unicode="&#xe248;" horiz-adv-x="542" 
d="M101 0v515h46v-282l279 282h58l-239 -242l251 -273h-59l-224 244l-66 -65v-179h-46zM240 -105c0 21 14 35 35 35c24 0 40 -20 40 -54c0 -58 -30 -110 -85 -145l-15 21c40 31 62 67 62 110c-20 -3 -37 12 -37 33z" />
    <glyph glyph-name="Lacute.sc" unicode="&#xe24a;" horiz-adv-x="449" 
d="M101 0v515h48v-476h259v-39h-307zM257 700l-164 -105l-20 28l160 110z" />
    <glyph glyph-name="Lcaron.sc" unicode="&#xe24b;" horiz-adv-x="449" 
d="M101 0v515h48v-476h259v-39h-307zM334 524l-68 -161l-34 12l64 163z" />
    <glyph glyph-name="Lcommaaccent.sc" unicode="&#xe24d;" horiz-adv-x="449" 
d="M101 0v515h48v-476h259v-39h-307zM208 -105c0 21 14 35 35 35c24 0 40 -20 40 -54c0 -58 -30 -110 -85 -145l-15 21c40 31 62 67 62 110c-20 -3 -37 12 -37 33z" />
    <glyph glyph-name="Lslash.sc" unicode="&#xe24e;" horiz-adv-x="461" 
d="M113 0v227l-63 -30l-15 31l78 39v248h48v-224l117 57l16 -31l-133 -66v-212h258v-39h-306z" />
    <glyph glyph-name="Ldot.sc" unicode="&#xe24c;" horiz-adv-x="449" 
d="M305 271c0 21 15 36 36 36c22 0 37 -15 37 -36s-15 -36 -37 -36c-21 0 -36 15 -36 36zM101 0v515h48v-476h259v-39h-307z" />
    <glyph glyph-name="Nacute.sc" unicode="&#xe24f;" horiz-adv-x="626" 
d="M101 0v515h48l332 -449v449h44v-515h-48l-332 449v-449h-44zM445 700l-164 -105l-20 28l160 110z" />
    <glyph glyph-name="Ncaron.sc" horiz-adv-x="626" 
d="M101 0v515h48l332 -449v449h44v-515h-48l-332 449v-449h-44zM451 718l-121 -119h-34l-121 119l23 24l115 -106l115 106z" />
    <glyph glyph-name="Ntilde.sc" unicode="&#xe251;" horiz-adv-x="626" 
d="M101 0v515h48l332 -449v449h44v-515h-48l-332 449v-449h-44zM249 707c43 0 91 -39 125 -39c21 0 37 14 45 39l34 -11c-10 -38 -39 -64 -76 -64c-43 0 -91 38 -125 38c-21 0 -38 -14 -45 -38l-34 10c10 38 39 65 76 65z" />
    <glyph glyph-name="Ncommaaccent.sc" unicode="&#xe252;" horiz-adv-x="626" 
d="M101 0v515h48l332 -449v449h44v-515h-48l-332 449v-449h-44zM278 -105c0 21 14 35 35 35c24 0 40 -20 40 -54c0 -58 -30 -110 -85 -145l-15 21c40 31 62 67 62 110c-20 -3 -37 12 -37 33z" />
    <glyph glyph-name="Napostrophe.sc" unicode="&#xe253;" horiz-adv-x="782" 
d="M257 0v515h48l332 -449v449h44v-515h-48l-332 449v-449h-44zM83 659c0 21 14 35 35 35c24 0 40 -20 40 -54c0 -58 -30 -110 -85 -145l-15 21c40 31 62 67 62 110c-20 -3 -37 12 -37 33z" />
    <glyph glyph-name="Eng.sc" unicode="&#xe281;" horiz-adv-x="626" 
d="M101 0v515h48l331 -448v448h45v-596c0 -82 -58 -139 -141 -139c-32 0 -61 4 -95 13l8 39c28 -8 53 -11 80 -11c60 0 102 40 102 100v77l-333 450v-448h-45z" />
    <glyph glyph-name="Ograve.sc" unicode="&#xe254;" horiz-adv-x="626" 
d="M61 257c0 158 104 270 252 270s252 -112 252 -270c0 -157 -104 -269 -252 -269s-252 112 -252 269zM110 257c0 -134 83 -229 203 -229s203 95 203 229c0 135 -83 230 -203 230s-203 -95 -203 -230zM208 733l159 -110l-19 -28l-164 105z" />
    <glyph glyph-name="Oacute.sc" unicode="&#xe255;" horiz-adv-x="626" 
d="M61 257c0 158 104 270 252 270s252 -112 252 -270c0 -157 -104 -269 -252 -269s-252 112 -252 269zM110 257c0 -134 83 -229 203 -229s203 95 203 229c0 135 -83 230 -203 230s-203 -95 -203 -230zM445 700l-164 -105l-20 28l160 110z" />
    <glyph glyph-name="Ocircumflex.sc" unicode="&#xe256;" horiz-adv-x="626" 
d="M61 257c0 158 104 270 252 270s252 -112 252 -270c0 -157 -104 -269 -252 -269s-252 112 -252 269zM110 257c0 -134 83 -229 203 -229s203 95 203 229c0 135 -83 230 -203 230s-203 -95 -203 -230zM175 621l121 118h34l121 -118l-23 -25l-115 107l-115 -107z" />
    <glyph glyph-name="Otilde.sc" unicode="&#xe257;" horiz-adv-x="626" 
d="M61 257c0 158 104 270 252 270s252 -112 252 -270c0 -157 -104 -269 -252 -269s-252 112 -252 269zM110 257c0 -134 83 -229 203 -229s203 95 203 229c0 135 -83 230 -203 230s-203 -95 -203 -230zM249 707c43 0 91 -39 125 -39c21 0 37 14 45 39l34 -11
c-10 -38 -39 -64 -76 -64c-43 0 -91 38 -125 38c-21 0 -38 -14 -45 -38l-34 10c10 38 39 65 76 65z" />
    <glyph glyph-name="Odieresis.sc" unicode="&#xe258;" horiz-adv-x="626" 
d="M61 257c0 158 104 270 252 270s252 -112 252 -270c0 -157 -104 -269 -252 -269s-252 112 -252 269zM110 257c0 -134 83 -229 203 -229s203 95 203 229c0 135 -83 230 -203 230s-203 -95 -203 -230zM177 669c0 21 15 35 36 35s35 -14 35 -35s-14 -35 -35 -35
s-36 14 -36 35zM378 669c0 21 14 35 35 35s36 -14 36 -35s-15 -35 -36 -35s-35 14 -35 35z" />
    <glyph glyph-name="Omacron.sc" unicode="&#xe259;" horiz-adv-x="626" 
d="M61 257c0 158 104 270 252 270s252 -112 252 -270c0 -157 -104 -269 -252 -269s-252 112 -252 269zM110 257c0 -134 83 -229 203 -229s203 95 203 229c0 135 -83 230 -203 230s-203 -95 -203 -230zM171 651v36h284v-36h-284z" />
    <glyph glyph-name="Obreve.sc" unicode="&#xe25a;" horiz-adv-x="626" 
d="M61 257c0 158 104 270 252 270s252 -112 252 -270c0 -157 -104 -269 -252 -269s-252 112 -252 269zM110 257c0 -134 83 -229 203 -229s203 95 203 229c0 135 -83 230 -203 230s-203 -95 -203 -230zM175 723h35c3 -56 46 -95 103 -95s100 39 103 95h35
c-3 -79 -61 -132 -138 -132s-135 53 -138 132z" />
    <glyph glyph-name="Ohungarumlaut.sc" unicode="&#xe25b;" horiz-adv-x="626" 
d="M61 257c0 158 104 270 252 270s252 -112 252 -270c0 -157 -104 -269 -252 -269s-252 112 -252 269zM110 257c0 -134 83 -229 203 -229s203 95 203 229c0 135 -83 230 -203 230s-203 -95 -203 -230zM530 728l-141 -138l-26 25l138 142zM353 728l-142 -138l-25 25l138 142z
" />
    <glyph glyph-name="Oslash.sc" unicode="&#xe25c;" horiz-adv-x="626" 
d="M61 257c0 158 104 270 252 270c57 0 107 -18 147 -48l37 49l24 -19l-37 -48c51 -48 81 -120 81 -204c0 -157 -104 -269 -252 -269c-57 0 -107 17 -147 47l-37 -48l-24 19l36 47c-50 49 -80 120 -80 204zM519 257c0 69 -23 128 -61 168l-268 -357c33 -26 75 -42 123 -42
c122 0 206 96 206 231zM107 257c0 -69 22 -128 61 -168l267 357c-32 27 -75 42 -122 42c-121 0 -206 -95 -206 -231z" />
    <glyph glyph-name="Oslashacute.sc" unicode="&#xe25d;" horiz-adv-x="626" 
d="M61 257c0 158 104 270 252 270c57 0 107 -18 147 -48l37 49l24 -19l-37 -48c51 -48 81 -120 81 -204c0 -157 -104 -269 -252 -269c-57 0 -107 17 -147 47l-37 -48l-24 19l36 47c-50 49 -80 120 -80 204zM519 257c0 69 -23 128 -61 168l-268 -357c33 -26 75 -42 123 -42
c122 0 206 96 206 231zM107 257c0 -69 22 -128 61 -168l267 357c-32 27 -75 42 -122 42c-121 0 -206 -95 -206 -231zM445 700l-164 -105l-20 28l160 110z" />
    <glyph glyph-name="OE.sc" unicode="&#xe25e;" horiz-adv-x="812" 
d="M738 515v-38h-274v-195h249v-37h-249v-207h286v-38h-428c-156 0 -261 105 -261 257c0 153 104 258 260 258h417zM110 257c0 -129 87 -218 216 -218h90v437h-90c-129 0 -216 -90 -216 -219z" />
    <glyph glyph-name="Thorn.sc" unicode="&#xe283;" horiz-adv-x="512" 
d="M101 0v515h46v-94h141c100 0 169 -64 169 -158c0 -93 -69 -157 -169 -157h-141v-106h-46zM147 383v-239h135c77 0 128 48 128 119c0 72 -51 120 -128 120h-135z" />
    <glyph glyph-name="Racute.sc" unicode="&#xe25f;" horiz-adv-x="536" 
d="M101 0v515h189c95 0 162 -60 162 -151c0 -80 -53 -138 -133 -146l153 -218h-53l-147 212h-126v-212h-45zM146 476v-226h139c71 0 122 45 122 113c0 69 -51 113 -122 113h-139zM404 700l-164 -105l-20 28l160 110z" />
    <glyph glyph-name="Rcaron.sc" unicode="&#xe260;" horiz-adv-x="536" 
d="M101 0v515h189c95 0 162 -60 162 -151c0 -80 -53 -138 -133 -146l153 -218h-53l-147 212h-126v-212h-45zM146 476v-226h139c71 0 122 45 122 113c0 69 -51 113 -122 113h-139zM410 718l-121 -119h-34l-121 119l23 24l115 -106l115 106z" />
    <glyph glyph-name="Rcommaaccent.sc" unicode="&#xe261;" horiz-adv-x="536" 
d="M101 0v515h189c95 0 162 -60 162 -151c0 -80 -53 -138 -133 -146l153 -218h-53l-147 212h-126v-212h-45zM146 476v-226h139c71 0 122 45 122 113c0 69 -51 113 -122 113h-139zM237 -105c0 21 14 35 35 35c24 0 40 -20 40 -54c0 -58 -30 -110 -85 -145l-15 21
c40 31 62 67 62 110c-20 -3 -37 12 -37 33z" />
    <glyph glyph-name="Sacute.sc" unicode="&#xe262;" horiz-adv-x="480" 
d="M65 390c0 82 71 137 175 137c51 0 107 -13 162 -37l-12 -37c-51 22 -101 35 -147 35c-79 0 -130 -40 -130 -98c0 -148 305 -70 305 -262c0 -84 -72 -140 -178 -140c-54 0 -118 15 -179 40l13 38c57 -24 115 -39 163 -39c81 0 134 41 134 101c0 152 -306 75 -306 262z
M372 700l-164 -105l-20 28l160 110z" />
    <glyph glyph-name="Scircumflex.sc" unicode="&#xe263;" horiz-adv-x="480" 
d="M65 390c0 82 71 137 175 137c51 0 107 -13 162 -37l-12 -37c-51 22 -101 35 -147 35c-79 0 -130 -40 -130 -98c0 -148 305 -70 305 -262c0 -84 -72 -140 -178 -140c-54 0 -118 15 -179 40l13 38c57 -24 115 -39 163 -39c81 0 134 41 134 101c0 152 -306 75 -306 262z
M102 621l121 118h34l121 -118l-23 -25l-115 107l-115 -107z" />
    <glyph glyph-name="Scaron.sc" unicode="&#xe264;" horiz-adv-x="480" 
d="M65 390c0 82 71 137 175 137c51 0 107 -13 162 -37l-12 -37c-51 22 -101 35 -147 35c-79 0 -130 -40 -130 -98c0 -148 305 -70 305 -262c0 -84 -72 -140 -178 -140c-54 0 -118 15 -179 40l13 38c57 -24 115 -39 163 -39c81 0 134 41 134 101c0 152 -306 75 -306 262z
M378 718l-121 -119h-34l-121 119l23 24l115 -106l115 106z" />
    <glyph glyph-name="Scedilla.sc" unicode="&#xe265;" horiz-adv-x="480" 
d="M65 390c0 82 71 137 175 137c51 0 107 -13 162 -37l-12 -37c-51 22 -101 35 -147 35c-79 0 -130 -40 -130 -98c0 -148 305 -70 305 -262c0 -78 -61 -131 -154 -138l-9 -54c43 -4 75 -37 75 -77c0 -47 -43 -79 -101 -79c-26 0 -57 5 -86 16l11 31c25 -9 51 -14 71 -14
c37 0 65 19 65 50c0 29 -28 49 -67 49h-9l14 77c-51 1 -110 15 -167 39l13 38c57 -24 115 -39 163 -39c81 0 134 41 134 101c0 152 -306 75 -306 262z" />
    <glyph glyph-name="Scommaaccent.sc" unicode="&#xe266;" horiz-adv-x="480" 
d="M65 390c0 82 71 137 175 137c51 0 107 -13 162 -37l-12 -37c-51 22 -101 35 -147 35c-79 0 -130 -40 -130 -98c0 -148 305 -70 305 -262c0 -84 -72 -140 -178 -140c-54 0 -118 15 -179 40l13 38c57 -24 115 -39 163 -39c81 0 134 41 134 101c0 152 -306 75 -306 262z
M205 -105c0 21 14 35 35 35c24 0 40 -20 40 -54c0 -58 -30 -110 -85 -145l-15 21c40 31 62 67 62 110c-20 -3 -37 12 -37 33z" />
    <glyph glyph-name="germandoubles.sc" unicode="&#xe267;" horiz-adv-x="626" 
d="M101 0v515h440v-28l-136 -186c92 -7 154 -68 154 -154c0 -91 -71 -157 -169 -157c-48 0 -98 14 -148 43l18 36c44 -25 87 -39 126 -39c75 0 127 49 127 118c0 70 -56 120 -138 120h-16l-8 25l134 184h-339v-477h-45z" />
    <glyph glyph-name="Tcaron.sc" unicode="&#xe268;" horiz-adv-x="497" 
d="M225 0v476h-184v39h415v-39h-184v-476h-47zM387 718l-121 -119h-34l-121 119l23 24l115 -106l115 106z" />
    <glyph glyph-name="Tcommaaccent.sc" unicode="&#xe269;" horiz-adv-x="497" 
d="M225 0v476h-184v39h415v-39h-184v-476h-47zM214 -105c0 21 14 35 35 35c24 0 40 -20 40 -54c0 -58 -30 -110 -85 -145l-15 21c40 31 62 67 62 110c-20 -3 -37 12 -37 33z" />
    <glyph glyph-name="uni021A.sc" horiz-adv-x="497" 
d="M225 0v476h-184v39h415v-39h-184v-476h-47zM214 -105c0 21 14 35 35 35c24 0 40 -20 40 -54c0 -58 -30 -110 -85 -145l-15 21c40 31 62 67 62 110c-20 -3 -37 12 -37 33z" />
    <glyph glyph-name="Tbar.sc" unicode="&#xe26b;" horiz-adv-x="497" 
d="M225 0v227h-113v36h113v213h-184v39h415v-39h-184v-213h113v-36h-113v-227h-47z" />
    <glyph glyph-name="Ugrave.sc" unicode="&#xe26c;" horiz-adv-x="626" 
d="M531 515v-320c0 -121 -91 -207 -218 -207c-126 0 -218 86 -218 207v320h48v-319c0 -99 71 -168 170 -168s170 69 170 168v319h48zM208 733l159 -110l-19 -28l-164 105z" />
    <glyph glyph-name="Uacute.sc" unicode="&#xe26d;" horiz-adv-x="626" 
d="M531 515v-320c0 -121 -91 -207 -218 -207c-126 0 -218 86 -218 207v320h48v-319c0 -99 71 -168 170 -168s170 69 170 168v319h48zM445 700l-164 -105l-20 28l160 110z" />
    <glyph glyph-name="Ucircumflex.sc" unicode="&#xe26e;" horiz-adv-x="626" 
d="M531 515v-320c0 -121 -91 -207 -218 -207c-126 0 -218 86 -218 207v320h48v-319c0 -99 71 -168 170 -168s170 69 170 168v319h48zM175 621l121 118h34l121 -118l-23 -25l-115 107l-115 -107z" />
    <glyph glyph-name="Utilde.sc" unicode="&#xe26f;" horiz-adv-x="626" 
d="M531 515v-320c0 -121 -91 -207 -218 -207c-126 0 -218 86 -218 207v320h48v-319c0 -99 71 -168 170 -168s170 69 170 168v319h48zM249 707c43 0 91 -39 125 -39c21 0 37 14 45 39l34 -11c-10 -38 -39 -64 -76 -64c-43 0 -91 38 -125 38c-21 0 -38 -14 -45 -38l-34 10
c10 38 39 65 76 65z" />
    <glyph glyph-name="Udieresis.sc" unicode="&#xe270;" horiz-adv-x="626" 
d="M531 515v-320c0 -121 -91 -207 -218 -207c-126 0 -218 86 -218 207v320h48v-319c0 -99 71 -168 170 -168s170 69 170 168v319h48zM177 669c0 21 15 35 36 35s35 -14 35 -35s-14 -35 -35 -35s-36 14 -36 35zM378 669c0 21 14 35 35 35s36 -14 36 -35s-15 -35 -36 -35
s-35 14 -35 35z" />
    <glyph glyph-name="Umacron.sc" unicode="&#xe272;" horiz-adv-x="626" 
d="M531 515v-320c0 -121 -91 -207 -218 -207c-126 0 -218 86 -218 207v320h48v-319c0 -99 71 -168 170 -168s170 69 170 168v319h48zM171 651v36h284v-36h-284z" />
    <glyph glyph-name="Ubreve.sc" unicode="&#xe273;" horiz-adv-x="626" 
d="M531 515v-320c0 -121 -91 -207 -218 -207c-126 0 -218 86 -218 207v320h48v-319c0 -99 71 -168 170 -168s170 69 170 168v319h48zM175 723h35c3 -56 46 -95 103 -95s100 39 103 95h35c-3 -79 -61 -132 -138 -132s-135 53 -138 132z" />
    <glyph glyph-name="Uring.sc" unicode="&#xe271;" horiz-adv-x="626" 
d="M531 515v-320c0 -121 -91 -207 -218 -207c-126 0 -218 86 -218 207v320h48v-319c0 -99 71 -168 170 -168s170 69 170 168v319h48zM219 669c0 55 39 92 94 92s94 -37 94 -92c0 -54 -37 -92 -92 -92c-56 0 -96 38 -96 92zM248 669c0 -39 28 -65 67 -65c37 0 63 26 63 65
s-27 65 -65 65c-39 0 -65 -26 -65 -65z" />
    <glyph glyph-name="Uhungarumlaut.sc" unicode="&#xe274;" horiz-adv-x="626" 
d="M531 515v-320c0 -121 -91 -207 -218 -207c-126 0 -218 86 -218 207v320h48v-319c0 -99 71 -168 170 -168s170 69 170 168v319h48zM530 728l-141 -138l-26 25l138 142zM353 728l-142 -138l-25 25l138 142z" />
    <glyph glyph-name="Uogonek.sc" unicode="&#xe275;" horiz-adv-x="626" 
d="M531 515v-317c0 -95 -49 -149 -128 -199c-78 -47 -113 -92 -113 -134c0 -33 24 -52 54 -52c15 0 30 3 44 10l9 -31c-20 -8 -41 -12 -62 -12c-46 0 -83 29 -83 78c0 50 40 97 90 132c-15 -1 -29 -2 -43 -1c-115 5 -204 85 -204 206v320h48v-319c0 -99 71 -168 170 -168
c95 0 170 68 170 168v319h48z" />
    <glyph glyph-name="Wgrave.sc" unicode="&#xe276;" horiz-adv-x="807" 
d="M760 515l-165 -515h-48l-144 454l-142 -454h-48l-166 515h48l143 -454l142 454h46l144 -454l143 454h47zM298 733l159 -110l-19 -28l-164 105z" />
    <glyph glyph-name="Wacute.sc" unicode="&#xe277;" horiz-adv-x="807" 
d="M760 515l-165 -515h-48l-144 454l-142 -454h-48l-166 515h48l143 -454l142 454h46l144 -454l143 454h47zM535 700l-164 -105l-20 28l160 110z" />
    <glyph glyph-name="Wcircumflex.sc" unicode="&#xe278;" horiz-adv-x="807" 
d="M760 515l-165 -515h-48l-144 454l-142 -454h-48l-166 515h48l143 -454l142 454h46l144 -454l143 454h47zM265 621l121 118h34l121 -118l-23 -25l-115 107l-115 -107z" />
    <glyph glyph-name="Wdieresis.sc" unicode="&#xe279;" horiz-adv-x="807" 
d="M760 515l-165 -515h-48l-144 454l-142 -454h-48l-166 515h48l143 -454l142 454h46l144 -454l143 454h47zM267 669c0 21 15 35 36 35s35 -14 35 -35s-14 -35 -35 -35s-36 14 -36 35zM468 669c0 21 14 35 35 35s36 -14 36 -35s-15 -35 -36 -35s-35 14 -35 35z" />
    <glyph glyph-name="Ygrave.sc" unicode="&#xe27a;" horiz-adv-x="494" 
d="M223 0v223l-189 292h53l160 -248l160 248h53l-189 -292v-223h-48zM142 733l159 -110l-19 -28l-164 105z" />
    <glyph glyph-name="Yacute.sc" unicode="&#xe27b;" horiz-adv-x="494" 
d="M223 0v223l-189 292h53l160 -248l160 248h53l-189 -292v-223h-48zM379 700l-164 -105l-20 28l160 110z" />
    <glyph glyph-name="Ycircumflex.sc" unicode="&#xe27c;" horiz-adv-x="494" 
d="M223 0v223l-189 292h53l160 -248l160 248h53l-189 -292v-223h-48zM109 621l121 118h34l121 -118l-23 -25l-115 107l-115 -107z" />
    <glyph glyph-name="Ydieresis.sc" unicode="&#xe27d;" horiz-adv-x="494" 
d="M223 0v223l-189 292h53l160 -248l160 248h53l-189 -292v-223h-48zM111 669c0 21 15 35 36 35s35 -14 35 -35s-14 -35 -35 -35s-36 14 -36 35zM312 669c0 21 14 35 35 35s36 -14 36 -35s-15 -35 -36 -35s-35 14 -35 35z" />
    <glyph glyph-name="Zacute.sc" unicode="&#xe27e;" horiz-adv-x="520" 
d="M62 0v29l325 447h-317v39h380v-29l-325 -447h333v-39h-396zM392 700l-164 -105l-20 28l160 110z" />
    <glyph glyph-name="Zcaron.sc" unicode="&#xe27f;" horiz-adv-x="520" 
d="M62 0v29l325 447h-317v39h380v-29l-325 -447h333v-39h-396zM398 718l-121 -119h-34l-121 119l23 24l115 -106l115 106z" />
    <glyph glyph-name="Zdotaccent.sc" unicode="&#xe280;" horiz-adv-x="520" 
d="M62 0v29l325 447h-317v39h380v-29l-325 -447h333v-39h-396zM223 669c0 22 15 37 37 37s37 -15 37 -37s-15 -37 -37 -37s-37 15 -37 37z" />
    <glyph glyph-name="afii10017" unicode="&#x410;" horiz-adv-x="663" 
d="M30 0l278 672h47l278 -672h-51l-82 200h-337l-82 -200h-51zM332 613l-154 -374h307z" />
    <glyph glyph-name="afii10018" unicode="&#x411;" horiz-adv-x="631" 
d="M110 0v672h420v-39h-372v-256h220c119 0 203 -78 203 -189c0 -110 -84 -188 -203 -188h-268zM158 338v-299h214c94 0 160 61 160 149s-65 150 -160 150h-214z" />
    <glyph glyph-name="afii10019" unicode="&#x412;" horiz-adv-x="646" 
d="M110 0v672h258c110 0 189 -71 189 -171c0 -70 -42 -129 -109 -154c83 -21 133 -86 133 -168c0 -108 -83 -179 -197 -179h-274zM158 326v-287h220c91 0 154 59 154 144c0 84 -63 143 -154 143h-220zM158 633v-271h205c85 0 146 56 146 135c0 80 -61 136 -146 136h-205z
" />
    <glyph glyph-name="afii10020" unicode="&#x413;" horiz-adv-x="531" 
d="M110 0v672h392v-41h-343v-631h-49z" />
    <glyph glyph-name="afii10021" unicode="&#x414;" horiz-adv-x="767" 
d="M34 -176v217h48c57 102 85 220 85 350v281h455v-631h96v-217h-46v176h-591v-176h-47zM575 41v590h-360v-243c0 -128 -27 -246 -78 -347h438z" />
    <glyph glyph-name="afii10022" unicode="&#x415;" horiz-adv-x="595" 
d="M110 0v672h411v-40h-362v-268h330v-40h-330v-284h378v-40h-427z" />
    <glyph glyph-name="afii10024" unicode="&#x416;" horiz-adv-x="976" 
d="M464 0v324h-106l-255 -324h-57l273 345l-259 327h55l244 -308h105v308h48v-308h105l244 308h55l-259 -327l273 -345h-57l-255 324h-106v-324h-48z" />
    <glyph glyph-name="afii10025" unicode="&#x417;" horiz-adv-x="534" 
d="M173 325v38h52c117 0 188 58 188 142c0 81 -67 138 -164 138c-60 0 -126 -16 -191 -43l-16 39c71 29 144 45 212 45c121 0 207 -72 207 -175c0 -80 -53 -144 -139 -163c97 -23 155 -91 155 -175c0 -108 -92 -183 -223 -183c-72 0 -153 17 -228 49l16 39
c69 -29 142 -47 206 -47c106 0 180 61 180 146c0 89 -77 150 -203 150h-52z" />
    <glyph glyph-name="afii10026" unicode="&#x418;" horiz-adv-x="759" 
d="M110 0v672h46v-603l444 603h49v-672h-46v603l-444 -603h-49z" />
    <glyph glyph-name="afii10027" unicode="&#x419;" horiz-adv-x="759" 
d="M237 880h35c3 -56 46 -95 103 -95s100 39 103 95h35c-3 -79 -61 -132 -138 -132s-135 53 -138 132zM110 0v672h46v-603l444 603h49v-672h-46v603l-444 -603h-49z" />
    <glyph glyph-name="afii10028" unicode="&#x41a;" horiz-adv-x="652" 
d="M110 0v672h48v-308h104l275 308h58l-292 -326l306 -346h-59l-287 324h-105v-324h-48z" />
    <glyph glyph-name="afii10029" unicode="&#x41b;" horiz-adv-x="783" 
d="M673 672v-672h-47v631h-381v-443c0 -127 -62 -200 -169 -200c-19 0 -40 2 -63 6l5 42c20 -4 37 -6 53 -6c82 0 126 57 126 160v482h476z" />
    <glyph glyph-name="afii10030" unicode="&#x41c;" horiz-adv-x="847" 
d="M110 0v672h49l265 -358l264 358h49v-672h-46v603l-252 -343h-31l-252 343v-603h-46z" />
    <glyph glyph-name="afii10031" unicode="&#x41d;" horiz-adv-x="759" 
d="M110 0v672h49v-308h441v308h49v-672h-49v324h-441v-324h-49z" />
    <glyph glyph-name="afii10032" unicode="&#x41e;" horiz-adv-x="759" 
d="M57 336c0 204 133 348 323 348c189 0 322 -144 322 -348s-133 -348 -322 -348c-190 0 -323 144 -323 348zM107 336c0 -179 113 -307 273 -307c159 0 272 128 272 307s-113 307 -272 307c-160 0 -273 -128 -273 -307z" />
    <glyph glyph-name="afii10033" unicode="&#x41f;" horiz-adv-x="759" 
d="M110 0v672h539v-672h-49v631h-441v-631h-49z" />
    <glyph glyph-name="afii10034" unicode="&#x420;" horiz-adv-x="614" 
d="M110 0v672h238c127 0 217 -84 217 -203s-90 -203 -217 -203h-190v-266h-48zM158 631v-325h185c101 0 173 67 173 163c0 95 -72 162 -173 162h-185z" />
    <glyph glyph-name="afii10035" unicode="&#x421;" horiz-adv-x="643" 
d="M57 336c0 206 131 348 321 348c73 0 149 -24 218 -72l-22 -35c-59 42 -126 65 -191 65c-164 0 -276 -124 -276 -306s112 -306 276 -306c65 0 132 23 191 65l22 -35c-69 -48 -145 -72 -218 -72c-190 0 -321 143 -321 348z" />
    <glyph glyph-name="afii10036" unicode="&#x422;" horiz-adv-x="595" 
d="M273 0v631h-244v41h537v-41h-244v-631h-49z" />
    <glyph glyph-name="afii10037" unicode="&#x423;" horiz-adv-x="630" 
d="M600 672l-264 -567c-38 -78 -94 -117 -164 -117c-27 0 -54 4 -87 13l9 40c28 -8 52 -11 73 -11c52 0 93 28 124 93l10 20l-255 529h51l229 -483l222 483h52z" />
    <glyph glyph-name="afii10038" unicode="&#x424;" horiz-adv-x="764" 
d="M359 -32v106c-184 3 -310 112 -310 270s126 267 310 270v90h46v-90c182 -3 310 -112 310 -270s-128 -267 -310 -270v-106h-46zM96 344c0 -133 108 -226 263 -229v458c-155 -3 -263 -96 -263 -229zM668 344c0 133 -108 226 -263 229v-458c155 3 263 96 263 229z" />
    <glyph glyph-name="afii10039" unicode="&#x425;" horiz-adv-x="671" 
d="M43 0l261 344l-249 328h56l225 -295l224 295h56l-249 -328l261 -344h-57l-235 311l-236 -311h-57z" />
    <glyph glyph-name="afii10040" unicode="&#x426;" horiz-adv-x="794" 
d="M110 0v672h49v-631h441v631h49v-631h96v-217h-46v176h-589z" />
    <glyph glyph-name="afii10041" unicode="&#x427;" horiz-adv-x="689" 
d="M530 0v307c-80 -18 -160 -29 -229 -29c-139 0 -235 91 -235 220v174h50v-171c0 -107 78 -182 194 -182c66 0 143 11 220 29v324h49v-672h-49z" />
    <glyph glyph-name="afii10042" unicode="&#x428;" horiz-adv-x="1091" 
d="M110 0v672h49v-631h362v631h49v-631h362v631h49v-672h-871z" />
    <glyph glyph-name="afii10043" unicode="&#x429;" horiz-adv-x="1126" 
d="M110 0v672h49v-631h362v631h49v-631h362v631h49v-631h96v-217h-48v176h-919z" />
    <glyph glyph-name="afii10044" unicode="&#x42a;" horiz-adv-x="758" 
d="M238 631h-209v41h257v-284h216c120 0 207 -81 207 -194c0 -114 -87 -194 -207 -194h-264v631zM286 347v-306h210c97 0 164 63 164 153s-67 153 -164 153h-210z" />
    <glyph glyph-name="afii10045" unicode="&#x42b;" horiz-adv-x="899" 
d="M110 0v672h48v-284h216c120 0 207 -81 207 -194c0 -114 -87 -194 -207 -194h-264zM158 347v-306h210c97 0 164 63 164 153s-67 153 -164 153h-210zM740 0v672h49v-672h-49z" />
    <glyph glyph-name="afii10046" unicode="&#x42c;" horiz-adv-x="630" 
d="M110 0v672h48v-284h216c120 0 207 -81 207 -194c0 -114 -87 -194 -207 -194h-264zM158 347v-306h210c97 0 164 63 164 153s-67 153 -164 153h-210z" />
    </font>
</defs>
</svg>
