<?xml version="1.0" standalone="no"?>
<!DOCTYPE svg PUBLIC "-//W3C//DTD SVG 1.1//EN" "http://www.w3.org/Graphics/SVG/1.1/DTD/svg11.dtd" >
<svg xmlns="http://www.w3.org/2000/svg" xmlns:xlink="http://www.w3.org/1999/xlink" version="1.1">
<metadata>
Created by FontForge 20170812 at Mon May 18 20:25:55 2015
 By www-data
Copyright (c) 2012 by Fontsmith Ltd. All rights reserved.
</metadata>
<defs>
<font id="FSElliotPro" horiz-adv-x="583" >
  <font-face 
    font-family="FS Elliot Pro"
    font-weight="400"
    font-stretch="normal"
    units-per-em="1000"
    panose-1="2 0 5 3 4 0 0 2 0 4"
    ascent="750"
    descent="-250"
    x-height="486"
    cap-height="672"
    bbox="-177 -282 1205 1008"
    underline-thickness="62"
    underline-position="-100"
    stemh="65"
    stemv="80"
    unicode-range="U+000D-FB04"
  />
<missing-glyph horiz-adv-x="500" 
d="M12 0v672h476v-672h-476zM88 624l162 -244l162 244h-324zM60 580v-488l162 244zM440 580l-162 -244l162 -244v488zM412 48l-162 244l-162 -244h324z" />
    <glyph glyph-name="fi" unicode="fi" horiz-adv-x="580" 
d="M127 0v423h-101v63h101v67c0 96 75 163 178 163c46 0 96 -8 152 -25l-16 -62c-48 15 -88 23 -124 23c-65 0 -111 -42 -111 -102v-64h296v-486h-80v423h-216v-423h-79z" />
    <glyph glyph-name="fl" unicode="fl" horiz-adv-x="628" 
d="M127 0v423h-101v63h101v67c0 97 74 163 181 163c57 0 121 -8 194 -20v-584c0 -36 23 -59 59 -59c13 0 30 3 47 7l10 -63c-27 -6 -52 -9 -75 -9c-73 0 -121 46 -121 117v536c-37 7 -74 11 -108 11c-64 0 -108 -41 -108 -102v-64h137v-63h-137v-423h-79z" />
    <glyph glyph-name="f_f" unicode="ff" horiz-adv-x="681" 
d="M127 0v423h-101v63h101v88c0 84 59 142 146 142c31 0 63 -4 97 -13l-11 -62c-25 6 -48 10 -69 10c-50 0 -84 -34 -84 -84v-81h232v88c0 84 60 142 146 142c31 0 63 -4 97 -13l-11 -62c-25 6 -48 10 -69 10c-49 0 -83 -34 -83 -84v-81h136v-63h-136v-423h-80v423h-232
v-423h-79z" />
    <glyph glyph-name="f_f_i" unicode="ffi" horiz-adv-x="892" 
d="M127 0v423h-101v63h101v88c0 84 59 142 146 142c31 0 63 -4 97 -13l-11 -62c-25 6 -48 10 -69 10c-50 0 -84 -34 -84 -84v-81h232v67c0 96 75 163 179 163c46 0 95 -8 151 -25l-16 -62c-47 15 -88 23 -124 23c-64 0 -110 -42 -110 -102v-64h295v-486h-80v423h-215v-423
h-80v423h-232v-423h-79z" />
    <glyph glyph-name="f_j" unicode="fj" horiz-adv-x="580" 
d="M127 0v423h-101v63h101v67c0 96 75 163 178 163c46 0 96 -8 152 -25l-16 -62c-48 15 -88 23 -124 23c-65 0 -111 -42 -111 -102v-64h296v-564c0 -84 -60 -142 -146 -142c-32 0 -64 4 -98 13l11 62c25 -6 48 -10 69 -10c50 0 84 34 84 84v494h-216v-423h-79z" />
    <glyph glyph-name="f_f_j" unicode="ffj" horiz-adv-x="892" 
d="M127 0v423h-101v63h101v88c0 84 59 142 146 142c31 0 63 -4 97 -13l-11 -62c-25 6 -48 10 -69 10c-50 0 -84 -34 -84 -84v-81h232v67c0 96 75 163 179 163c46 0 95 -8 151 -25l-16 -62c-47 15 -88 23 -124 23c-64 0 -110 -42 -110 -102v-64h295v-564
c0 -84 -60 -142 -146 -142c-31 0 -64 4 -98 13l12 62c24 -6 47 -10 68 -10c50 0 84 34 84 84v494h-215v-423h-80v423h-232v-423h-79z" />
    <glyph glyph-name="f_f_l" unicode="ffl" horiz-adv-x="940" 
d="M127 0v423h-101v63h101v88c0 84 59 142 146 142c31 0 63 -4 97 -13l-11 -62c-25 6 -48 10 -69 10c-50 0 -84 -34 -84 -84v-81h232v67c0 97 75 163 182 163c57 0 121 -8 193 -20v-584c0 -36 23 -59 59 -59c13 0 30 3 48 7l9 -63c-27 -6 -51 -9 -75 -9
c-73 0 -121 46 -121 117v536c-37 7 -74 11 -108 11c-64 0 -107 -41 -107 -102v-64h136v-63h-136v-423h-80v423h-232v-423h-79z" />
    <glyph glyph-name="f_b" unicode="fb" horiz-adv-x="926" 
d="M127 0v423h-101v63h101v67c0 96 74 163 181 163c57 0 121 -8 194 -20v-287c34 57 91 89 161 89c128 0 219 -106 219 -255s-91 -255 -219 -255c-73 0 -132 33 -167 93l-10 -81h-64v641c-37 7 -74 11 -108 11c-64 0 -108 -41 -108 -102v-64h137v-63h-137v-423h-79zM801 243
c0 111 -66 190 -157 190c-85 0 -144 -63 -144 -151v-78c0 -89 59 -151 144 -151c91 0 157 78 157 190z" />
    <glyph glyph-name="f_f_b" unicode="ffb" horiz-adv-x="1238" 
d="M127 0v423h-101v63h101v88c0 84 59 142 146 142c31 0 63 -4 97 -13l-11 -62c-25 6 -48 10 -69 10c-49 0 -84 -33 -84 -84v-81h232v67c0 96 75 163 182 163c57 0 121 -8 193 -20v-287c27 41 66 68 113 80c23 6 47 8 71 6c99 -11 173 -88 190 -199c4 -26 5 -52 3 -79
c-9 -135 -97 -229 -216 -229c-73 0 -132 33 -167 93l-10 -81h-64v641c-37 7 -74 11 -108 11c-64 0 -107 -41 -107 -102v-64h136v-63h-136v-423h-80v423h-232v-423h-79zM1112 243c0 111 -65 190 -157 190c-84 0 -144 -63 -144 -151v-78c0 -89 60 -151 144 -151
c92 0 157 78 157 190z" />
    <glyph glyph-name="f_h" unicode="fh" horiz-adv-x="926" 
d="M127 0v423h-101v63h101v67c0 96 74 163 181 163c57 0 121 -8 194 -20v-295c33 61 95 97 169 97c108 0 185 -74 185 -181v-317h-80v305c0 74 -53 126 -127 126c-85 0 -147 -64 -147 -157v-274h-80v641c-37 7 -74 11 -108 11c-64 0 -108 -41 -108 -102v-64h137v-63h-137
v-423h-79z" />
    <glyph glyph-name="f_f_h" unicode="ffh" horiz-adv-x="1238" 
d="M127 0v423h-101v63h101v88c0 84 59 142 146 142c31 0 63 -4 97 -13l-11 -62c-25 6 -48 10 -69 10c-49 0 -84 -33 -84 -84v-81h232v67c0 96 75 163 182 163c57 0 121 -8 193 -20v-295c33 61 96 97 169 97c108 0 185 -74 185 -181v-317h-80v305c0 74 -53 126 -127 126
c-84 0 -147 -64 -147 -157v-274h-80v641c-37 7 -74 11 -108 11c-64 0 -107 -41 -107 -102v-64h136v-63h-136v-423h-80v423h-232v-423h-79z" />
    <glyph glyph-name="f_k" unicode="fk" horiz-adv-x="852" 
d="M127 0v423h-101v63h101v67c0 96 74 163 181 163c56 0 120 -8 191 -20v-451l230 241h93l-219 -227l227 -259h-93l-186 211l-52 -52v-159h-77v641c-37 7 -74 11 -108 11c-64 0 -108 -41 -108 -102v-64h137v-63h-137v-423h-79z" />
    <glyph glyph-name="f_f_k" unicode="ffk" horiz-adv-x="1164" 
d="M127 0v423h-101v63h101v88c0 84 59 142 146 142c31 0 63 -4 97 -13l-11 -62c-25 6 -48 10 -69 10c-50 0 -84 -34 -84 -84v-81h232v67c0 96 75 163 182 163c55 0 119 -8 190 -20v-451l231 241h93l-219 -227l227 -259h-94l-185 211l-53 -52v-159h-77v641
c-37 7 -74 11 -108 11c-64 0 -107 -41 -107 -102v-64h136v-63h-136v-423h-80v423h-232v-423h-79z" />
    <glyph glyph-name=".notdef" horiz-adv-x="500" 
d="M12 0v672h476v-672h-476zM88 624l162 -244l162 244h-324zM60 580v-488l162 244zM440 580l-162 -244l162 -244v488zM412 48l-162 244l-162 -244h324z" />
    <glyph glyph-name=".null" horiz-adv-x="0" 
 />
    <glyph glyph-name=".null" horiz-adv-x="0" 
 />
    <glyph glyph-name="CR" unicode="&#xd;" horiz-adv-x="240" 
 />
    <glyph glyph-name="space" unicode=" " horiz-adv-x="240" 
 />
    <glyph glyph-name="nbspace" unicode="&#xa0;" horiz-adv-x="240" 
 />
    <glyph glyph-name="A" unicode="A" horiz-adv-x="671" 
d="M20 0l277 672h77l277 -672h-84l-74 184h-315l-74 -184h-84zM335 578l-134 -331h268z" />
    <glyph glyph-name="B" unicode="B" horiz-adv-x="652" 
d="M100 0v672h271c117 0 199 -72 199 -174c0 -69 -40 -125 -103 -150c79 -23 127 -87 127 -166c0 -109 -86 -182 -207 -182h-287zM180 316v-254h196c81 0 137 52 137 127s-56 127 -137 127h-196zM180 610v-238h181c76 0 129 49 129 119s-53 119 -129 119h-181z" />
    <glyph glyph-name="C" unicode="C" horiz-adv-x="646" 
d="M49 336c0 205 135 348 331 348c77 0 156 -25 227 -74l-35 -56c-56 40 -119 62 -181 62c-153 0 -257 -114 -257 -280s104 -280 257 -280c62 0 125 22 181 62l35 -56c-71 -49 -150 -74 -227 -74c-196 0 -331 143 -331 348z" />
    <glyph glyph-name="D" unicode="D" horiz-adv-x="719" 
d="M100 0v672h227c204 0 342 -136 342 -336c0 -198 -138 -336 -342 -336h-227zM585 336c0 159 -109 271 -266 271h-137v-542h137c157 0 266 112 266 271z" />
    <glyph glyph-name="E" unicode="E" horiz-adv-x="598" 
d="M100 0v672h429v-64h-347v-233h315v-62h-315v-249h363v-64h-445z" />
    <glyph glyph-name="F" unicode="F" horiz-adv-x="582" 
d="M100 0v672h429v-65h-347v-256h315v-65h-315v-286h-82z" />
    <glyph glyph-name="G" unicode="G" horiz-adv-x="703" 
d="M634 349v-306c-77 -36 -157 -55 -238 -55c-204 0 -347 144 -347 348s140 348 339 348c78 0 157 -23 235 -67l-31 -57c-67 37 -131 59 -195 59c-157 0 -266 -117 -266 -283s111 -283 271 -283c55 0 107 12 155 34v200h-169v62h246z" />
    <glyph glyph-name="H" unicode="H" horiz-adv-x="767" 
d="M100 0v672h82v-295h402v295h83v-672h-83v311h-402v-311h-82z" />
    <glyph glyph-name="I" unicode="I" horiz-adv-x="282" 
d="M100 0v672h82v-672h-82z" />
    <glyph glyph-name="J" unicode="J" horiz-adv-x="444" 
d="M344 672v-498c0 -110 -78 -186 -190 -186c-43 0 -85 6 -131 17l12 66c36 -10 68 -15 101 -15c74 0 125 51 125 125v491h83z" />
    <glyph glyph-name="K" unicode="K" horiz-adv-x="663" 
d="M100 0v672h80v-355l344 355h98l-306 -314l320 -358h-99l-277 308l-80 -80v-228h-80z" />
    <glyph glyph-name="L" unicode="L" horiz-adv-x="534" 
d="M100 0v672h82v-607h326v-65h-408z" />
    <glyph glyph-name="M" unicode="M" horiz-adv-x="855" 
d="M100 0v672h81l246 -336l247 336h81v-672h-77v558l-227 -309h-48l-226 309v-558h-77z" />
    <glyph glyph-name="N" unicode="N" horiz-adv-x="767" 
d="M100 0v672h81l409 -558v558h77v-672h-81l-409 558v-558h-77z" />
    <glyph glyph-name="O" unicode="O" horiz-adv-x="767" 
d="M49 336c0 204 139 348 334 348c196 0 334 -144 334 -348s-138 -348 -334 -348c-195 0 -334 144 -334 348zM134 336c0 -165 103 -281 249 -281s250 116 250 281s-104 281 -250 281s-249 -116 -249 -281z" />
    <glyph glyph-name="P" unicode="P" horiz-adv-x="620" 
d="M100 0v672h253c131 0 225 -87 225 -211c0 -123 -94 -210 -225 -210h-173v-251h-80zM180 607v-291h161c91 0 156 60 156 145s-65 146 -156 146h-161z" />
    <glyph glyph-name="Q" unicode="Q" horiz-adv-x="767" 
d="M49 336c0 204 139 348 334 348c196 0 334 -144 334 -348c0 -134 -59 -241 -154 -298l164 -120l-41 -52l-192 141c-34 -12 -71 -19 -111 -19c-195 0 -334 144 -334 348zM134 336c0 -165 103 -281 249 -281s250 116 250 281s-104 281 -250 281s-249 -116 -249 -281z" />
    <glyph glyph-name="R" unicode="R" horiz-adv-x="652" 
d="M100 0v672h256c127 0 217 -83 217 -201c0 -102 -67 -179 -169 -192l196 -279h-91l-185 267h-144v-267h-80zM180 607v-275h164c87 0 148 55 148 137c0 81 -61 138 -148 138h-164z" />
    <glyph glyph-name="S" unicode="S" horiz-adv-x="580" 
d="M55 504c0 106 96 180 235 180c67 0 139 -15 215 -45l-20 -64c-68 28 -132 42 -189 42c-96 0 -160 -45 -160 -113c0 -180 393 -78 393 -332c0 -109 -97 -184 -239 -184c-71 0 -153 18 -239 53l20 64c76 -30 152 -50 213 -50c99 0 163 47 163 117c0 184 -392 84 -392 332z
" />
    <glyph glyph-name="T" unicode="T" horiz-adv-x="598" 
d="M258 0v607h-232v65h546v-65h-232v-607h-82z" />
    <glyph glyph-name="U" unicode="U" horiz-adv-x="767" 
d="M675 672v-415c0 -159 -124 -269 -292 -269s-291 110 -291 269v415h82v-412c0 -121 89 -205 209 -205c121 0 209 84 209 205v412h83z" />
    <glyph glyph-name="V" unicode="V" horiz-adv-x="671" 
d="M651 672l-277 -672h-77l-277 672h87l228 -570l229 570h87z" />
    <glyph glyph-name="W" unicode="W" horiz-adv-x="1007" 
d="M975 672l-215 -672h-82l-175 570l-174 -570h-82l-215 672h83l175 -570l174 570h78l175 -570l174 570h84z" />
    <glyph glyph-name="X" unicode="X" horiz-adv-x="679" 
d="M30 0l256 344l-244 328h92l205 -275l205 275h93l-245 -328l257 -344h-94l-216 291l-215 -291h-94z" />
    <glyph glyph-name="Y" unicode="Y" horiz-adv-x="599" 
d="M258 0v287l-246 385h91l197 -311l196 311h92l-247 -385v-287h-83z" />
    <glyph glyph-name="Z" unicode="Z" horiz-adv-x="628" 
d="M51 0v48l406 559h-394v65h502v-48l-406 -559h418v-65h-526z" />
    <glyph glyph-name="a" unicode="a" horiz-adv-x="537" 
d="M44 134c0 102 84 161 222 161c34 0 71 -4 109 -14v50c0 62 -48 106 -119 106c-52 0 -105 -12 -161 -36l-22 58c68 26 130 39 192 39c110 0 186 -68 186 -169v-235c0 -27 16 -44 44 -44c8 0 20 2 26 3l6 -60c-16 -3 -34 -5 -52 -5c-53 0 -87 31 -93 81
c-39 -51 -102 -81 -169 -81c-96 0 -169 63 -169 146zM122 139c0 -53 47 -93 110 -93c84 0 143 60 143 146v41c-34 8 -67 12 -100 12c-96 0 -153 -40 -153 -106z" />
    <glyph glyph-name="b" unicode="b" 
d="M79 0v704h79v-295c35 57 92 89 162 89c127 0 219 -106 219 -255s-92 -255 -219 -255c-73 0 -133 33 -167 93l-10 -81h-64zM458 243c0 111 -66 190 -157 190c-85 0 -144 -63 -144 -151v-78c0 -89 59 -151 144 -151c91 0 157 78 157 190z" />
    <glyph glyph-name="c" unicode="c" horiz-adv-x="492" 
d="M44 243c0 149 102 255 245 255c59 0 117 -18 172 -55l-33 -55c-42 29 -84 44 -129 44c-102 0 -173 -77 -173 -189s71 -190 173 -190c45 0 87 16 129 45l33 -55c-55 -37 -113 -55 -172 -55c-143 0 -245 105 -245 255z" />
    <glyph glyph-name="d" unicode="d" 
d="M505 704v-704h-64l-10 81c-35 -60 -95 -93 -167 -93c-128 0 -220 106 -220 255s92 255 220 255c69 0 127 -32 161 -89v295h80zM126 243c0 -112 65 -190 157 -190c84 0 143 62 143 151v78c0 88 -59 151 -143 151c-92 0 -157 -79 -157 -190z" />
    <glyph glyph-name="e" unicode="e" horiz-adv-x="537" 
d="M44 243c0 150 98 255 237 255c130 0 220 -101 220 -246c0 -10 0 -19 -1 -29h-376c7 -103 79 -174 181 -174c44 0 95 13 147 41l25 -55c-64 -32 -126 -47 -180 -47c-148 0 -253 105 -253 255zM281 437c-87 0 -149 -65 -157 -163h300c-3 96 -61 163 -143 163z" />
    <glyph glyph-name="f" unicode="f" horiz-adv-x="369" 
d="M127 0v423h-101v63h101v88c0 84 59 142 146 142c31 0 63 -4 97 -13l-11 -62c-25 6 -48 10 -69 10c-50 0 -84 -34 -84 -84v-81h137v-63h-137v-423h-79z" />
    <glyph glyph-name="g" unicode="g" 
d="M505 486v-495c0 -123 -101 -211 -240 -211c-57 0 -123 14 -192 43l24 60c60 -26 117 -39 162 -39c97 0 166 59 166 144v88c-34 -56 -92 -88 -161 -88c-128 0 -220 106 -220 255s92 255 220 255c72 0 132 -33 167 -93l10 81h64zM126 243c0 -112 65 -190 157 -190
c84 0 143 62 143 151v78c0 88 -59 151 -143 151c-92 0 -157 -79 -157 -190z" />
    <glyph glyph-name="h" unicode="h" 
d="M79 0v704h79v-303c33 61 96 97 170 97c108 0 185 -74 185 -181v-317h-80v305c0 74 -53 126 -128 126c-84 0 -147 -64 -147 -157v-274h-79z" />
    <glyph glyph-name="i" unicode="i" horiz-adv-x="237" 
d="M79 0v486h79v-486h-79zM65 634c0 31 22 53 54 53c31 0 53 -22 53 -53s-22 -53 -53 -53c-32 0 -54 22 -54 53z" />
    <glyph glyph-name="j" unicode="j" horiz-adv-x="245" 
d="M166 486v-564c0 -84 -59 -142 -146 -142c-31 0 -63 4 -97 13l11 62c25 -6 48 -10 69 -10c50 0 84 34 84 84v557h79zM73 634c0 31 22 53 54 53c31 0 53 -22 53 -53s-22 -53 -53 -53c-32 0 -54 22 -54 53z" />
    <glyph glyph-name="k" unicode="k" horiz-adv-x="509" 
d="M79 0v704h77v-459l230 241h93l-219 -227l227 -259h-94l-185 211l-52 -52v-159h-77z" />
    <glyph glyph-name="l" unicode="l" horiz-adv-x="285" 
d="M158 704v-592c0 -36 23 -59 59 -59c14 0 31 3 48 7l10 -63c-27 -6 -53 -9 -75 -9c-75 0 -121 45 -121 117v599h79z" />
    <glyph glyph-name="m" unicode="m" horiz-adv-x="905" 
d="M79 0v486h64l10 -85c34 62 94 97 167 97c76 0 137 -41 160 -106c38 66 101 106 178 106c104 0 177 -72 177 -173v-325h-80v313c0 69 -49 118 -119 118c-81 0 -139 -62 -139 -149v-282h-80v313c0 69 -49 118 -120 118c-81 0 -139 -62 -139 -149v-282h-79z" />
    <glyph glyph-name="n" unicode="n" 
d="M79 0v486h64l10 -89c33 64 98 101 175 101c108 0 185 -74 185 -181v-317h-80v305c0 74 -53 126 -128 126c-84 0 -147 -64 -147 -157v-274h-79z" />
    <glyph glyph-name="o" unicode="o" 
d="M44 243c0 150 103 255 248 255c144 0 247 -105 247 -255s-103 -255 -247 -255c-145 0 -248 105 -248 255zM126 243c0 -113 68 -191 166 -191c97 0 166 78 166 191c0 112 -69 191 -166 191c-98 0 -166 -79 -166 -191z" />
    <glyph glyph-name="p" unicode="p" 
d="M79 -208v694h64l10 -81c34 60 94 93 167 93c127 0 219 -106 219 -255s-92 -255 -219 -255c-70 0 -127 32 -162 88v-284h-79zM458 243c0 111 -66 190 -157 190c-85 0 -144 -63 -144 -151v-78c0 -89 59 -151 144 -151c91 0 157 78 157 190z" />
    <glyph glyph-name="q" unicode="q" 
d="M505 486v-694h-80v284c-34 -56 -92 -88 -161 -88c-128 0 -220 106 -220 255s92 255 220 255c72 0 132 -33 167 -93l10 81h64zM126 243c0 -112 65 -190 157 -190c84 0 143 62 143 151v78c0 88 -59 151 -143 151c-92 0 -157 -79 -157 -190z" />
    <glyph glyph-name="r" unicode="r" horiz-adv-x="383" 
d="M79 0v486h64l10 -92c24 62 81 100 151 100c18 0 40 -3 61 -8l-9 -65c-19 4 -39 7 -58 7c-83 0 -140 -67 -140 -165v-263h-79z" />
    <glyph glyph-name="s" unicode="s" horiz-adv-x="449" 
d="M48 362c0 79 73 136 177 136c51 0 107 -11 164 -34l-18 -59c-50 21 -98 32 -140 32c-63 0 -104 -30 -104 -75c0 -120 278 -48 278 -234c0 -82 -73 -140 -180 -140c-56 0 -117 12 -181 37l19 59c56 -23 109 -35 156 -35c65 0 108 32 108 79c0 123 -279 52 -279 234z" />
    <glyph glyph-name="t" unicode="t" horiz-adv-x="401" 
d="M206 630v-144h153v-63h-153v-286c0 -50 34 -84 84 -84c21 0 44 4 69 10l11 -62c-34 -9 -66 -13 -97 -13c-87 0 -146 58 -146 142v293h-101v63h101v144h79z" />
    <glyph glyph-name="u" unicode="u" 
d="M505 486v-486h-64l-10 89c-34 -64 -99 -101 -176 -101c-108 0 -184 74 -184 181v317h79v-306c0 -74 54 -125 128 -125c84 0 147 64 147 157v274h80z" />
    <glyph glyph-name="v" unicode="v" horiz-adv-x="519" 
d="M497 486l-200 -486h-74l-200 486h83l154 -394l153 394h84z" />
    <glyph glyph-name="w" unicode="w" horiz-adv-x="775" 
d="M745 486l-160 -486h-78l-119 392l-120 -392h-78l-159 486h80l120 -392l119 392h75l120 -392l119 392h81z" />
    <glyph glyph-name="x" unicode="x" horiz-adv-x="519" 
d="M25 0l183 249l-175 237h89l138 -186l137 186h89l-175 -237l183 -249h-91l-143 198l-144 -198h-91z" />
    <glyph glyph-name="y" unicode="y" horiz-adv-x="519" 
d="M497 486l-226 -559c-40 -101 -90 -147 -168 -147c-19 0 -44 3 -68 9l11 64c18 -5 36 -8 49 -8c49 0 78 28 104 96l25 63l-201 482h83l156 -394l151 394h84z" />
    <glyph glyph-name="z" unicode="z" horiz-adv-x="481" 
d="M44 0v45l280 378h-272v63h377v-46l-280 -378h288v-62h-393z" />
    <glyph glyph-name="ampersand" unicode="&#x26;" horiz-adv-x="641" 
d="M550 0l-81 87c-58 -64 -129 -99 -202 -99c-132 0 -226 80 -226 194c0 80 55 146 157 199c-50 52 -85 96 -85 154c0 87 71 149 172 149c96 0 165 -57 165 -140c0 -68 -40 -119 -148 -178l171 -184c24 42 37 92 38 144h68c-2 -72 -22 -140 -59 -196l120 -130h-90zM117 188
c0 -81 67 -138 156 -138c57 0 112 31 154 83l-190 206c-78 -43 -120 -93 -120 -151zM285 622c-59 0 -99 -37 -99 -90c0 -42 31 -78 76 -122c84 45 117 82 117 127c0 50 -39 85 -94 85z" />
    <glyph glyph-name="at" unicode="@" horiz-adv-x="972" 
d="M49 243c0 261 187 447 449 447c247 0 424 -164 424 -396c0 -160 -78 -269 -194 -269c-57 0 -100 33 -112 82c-33 -52 -86 -82 -153 -82c-109 0 -190 91 -190 218s81 218 190 218c62 0 110 -28 139 -75l8 65h66v-297c0 -42 23 -70 61 -70c70 0 117 82 117 204
c0 200 -149 341 -356 341c-222 0 -380 -160 -380 -386s157 -386 380 -386c76 0 159 25 246 73l31 -54c-98 -53 -191 -80 -277 -80c-263 0 -449 185 -449 447zM353 243c0 -91 54 -155 129 -155c70 0 115 53 115 124v62c0 71 -45 124 -115 124c-75 0 -129 -64 -129 -155z" />
    <glyph glyph-name="exclam" unicode="!" horiz-adv-x="263" 
d="M98 209l-7 463h81l-7 -463h-67zM78 44c0 31 22 53 54 53c31 0 53 -22 53 -53s-22 -53 -53 -53c-33 0 -54 22 -54 53z" />
    <glyph glyph-name="exclamdown" unicode="&#xa1;" horiz-adv-x="263" 
d="M165 276l7 -462h-81l7 462h67zM185 442c0 -31 -22 -53 -53 -53c-32 0 -54 22 -54 53s22 53 54 53s53 -22 53 -53z" />
    <glyph glyph-name="question" unicode="?" horiz-adv-x="460" 
d="M247 209h-67v14c0 122 152 163 152 273c0 70 -51 120 -125 120c-48 0 -94 -19 -144 -52l-32 59c59 40 124 61 188 61c113 0 193 -75 193 -178c0 -144 -158 -189 -164 -289zM161 45c0 31 22 52 53 52s53 -21 53 -52s-22 -54 -53 -54c-32 0 -53 23 -53 54z" />
    <glyph glyph-name="questiondown" unicode="&#xbf;" horiz-adv-x="396" 
d="M204 276h67v-13c0 -123 -152 -163 -152 -273c0 -71 52 -120 125 -120c49 0 95 19 144 52l32 -59c-58 -40 -123 -61 -187 -61c-113 0 -194 74 -194 178c0 144 159 189 165 288v8zM291 442c0 -31 -22 -53 -53 -53s-53 22 -53 53s22 53 53 53s53 -22 53 -53z" />
    <glyph glyph-name="asterisk" unicode="*" horiz-adv-x="492" 
d="M274 672v-165l157 51l17 -53l-157 -52l97 -133l-45 -33l-97 135l-97 -135l-45 33l96 133l-157 52l18 53l156 -51v165h57z" />
    <glyph glyph-name="period" unicode="." horiz-adv-x="247" 
d="M68 46c0 33 23 56 56 56c32 0 56 -23 56 -56c0 -32 -24 -55 -56 -55c-33 0 -56 23 -56 55z" />
    <glyph glyph-name="comma" unicode="," horiz-adv-x="247" 
d="M68 46c0 33 23 56 56 56c36 0 59 -30 59 -77c0 -73 -40 -140 -110 -185l-25 34c46 35 70 75 73 121c-30 -1 -53 21 -53 51z" />
    <glyph glyph-name="colon" unicode=":" horiz-adv-x="263" 
d="M76 46c0 33 23 56 56 56c32 0 56 -23 56 -56c0 -32 -24 -55 -56 -55c-33 0 -56 23 -56 55zM76 439c0 33 23 56 56 56c32 0 56 -23 56 -56c0 -32 -24 -55 -56 -55c-33 0 -56 23 -56 55z" />
    <glyph glyph-name="semicolon" unicode=";" horiz-adv-x="263" 
d="M76 46c0 33 23 56 56 56c36 0 59 -30 59 -77c0 -73 -40 -140 -110 -185l-25 34c46 35 70 75 73 121c-30 -1 -53 21 -53 51zM76 439c0 33 23 56 56 56c32 0 56 -23 56 -56c0 -32 -24 -55 -56 -55c-33 0 -56 23 -56 55z" />
    <glyph glyph-name="ellipsis" unicode="&#x2026;" horiz-adv-x="960" 
d="M104 46c0 33 23 56 56 56c32 0 56 -23 56 -56c0 -32 -24 -55 -56 -55c-33 0 -56 23 -56 55zM424 46c0 33 23 56 56 56c32 0 56 -23 56 -56c0 -32 -24 -55 -56 -55c-33 0 -56 23 -56 55zM744 46c0 33 23 56 56 56c32 0 56 -23 56 -56c0 -32 -24 -55 -56 -55
c-33 0 -56 23 -56 55z" />
    <glyph glyph-name="periodcentered" unicode="&#xb7;" horiz-adv-x="247" 
d="M68 248c0 33 23 56 56 56c32 0 56 -23 56 -56c0 -32 -24 -55 -56 -55c-33 0 -56 23 -56 55z" />
    <glyph glyph-name="uni22C5" unicode="&#x22c5;" horiz-adv-x="247" 
d="M68 248c0 33 23 56 56 56c32 0 56 -23 56 -56c0 -32 -24 -55 -56 -55c-33 0 -56 23 -56 55z" />
    <glyph glyph-name="bullet" unicode="&#x2022;" horiz-adv-x="480" 
d="M96 288c0 80 64 144 144 144s144 -64 144 -144s-64 -144 -144 -144s-144 64 -144 144z" />
    <glyph glyph-name="slash" unicode="/" horiz-adv-x="384" 
d="M9 -121l302 839l64 -21l-302 -839z" />
    <glyph glyph-name="parenleft" unicode="(" horiz-adv-x="337" 
d="M79 288c0 166 59 320 171 441l57 -39c-103 -110 -154 -252 -154 -402s51 -292 154 -402l-57 -39c-112 120 -171 274 -171 441z" />
    <glyph glyph-name="brokenbar" unicode="&#xa6;" horiz-adv-x="240" 
d="M86 688h68v-384h-68v384zM154 -176h-68v384h68v-384z" />
    <glyph glyph-name="parenright" unicode=")" horiz-adv-x="337" 
d="M259 288c0 -166 -60 -320 -171 -441l-57 39c102 110 154 252 154 402s-52 292 -154 402l57 39c111 -120 171 -274 171 -441z" />
    <glyph glyph-name="bracketleft" unicode="[" horiz-adv-x="337" 
d="M105 -134v844h196v-66h-122v-712h122v-66h-196z" />
    <glyph glyph-name="backslash" unicode="\" horiz-adv-x="384" 
d="M311 -142l-302 839l64 21l302 -839z" />
    <glyph glyph-name="bracketright" unicode="]" horiz-adv-x="337" 
d="M233 710v-844h-197v66h123v712h-123v66h197z" />
    <glyph glyph-name="braceleft" unicode="{" horiz-adv-x="337" 
d="M31 255v66h16c48 0 84 35 84 85s-13 105 -13 158c0 86 64 146 150 146h33v-66h-16c-53 0 -92 -37 -92 -95c0 -47 12 -99 12 -149c0 -53 -26 -96 -75 -112c49 -16 75 -59 75 -112c0 -49 -12 -101 -12 -149c0 -57 39 -95 92 -95h16v-66h-33c-86 0 -150 60 -150 146
c0 53 13 106 13 158c0 48 -35 85 -84 85h-16z" />
    <glyph glyph-name="bar" unicode="|" horiz-adv-x="240" 
d="M86 -224v960h68v-960h-68z" />
    <glyph glyph-name="braceright" unicode="}" horiz-adv-x="337" 
d="M307 321v-66h-16c-49 0 -85 -35 -85 -85s14 -105 14 -158c0 -86 -64 -146 -150 -146h-34v66h16c53 0 92 37 92 95c0 47 -12 99 -12 149c0 53 26 96 75 112c-49 16 -75 59 -75 112c0 49 12 101 12 149c0 57 -39 95 -92 95h-16v66h34c86 0 150 -60 150 -146
c0 -53 -14 -106 -14 -158c0 -48 35 -85 85 -85h16z" />
    <glyph glyph-name="hyphen" unicode="-" horiz-adv-x="320" 
d="M26 218v62h268v-62h-268z" />
    <glyph glyph-name="uni00AD" unicode="&#xad;" horiz-adv-x="320" 
d="M26 218v62h268v-62h-268z" />
    <glyph glyph-name="endash" unicode="&#x2013;" horiz-adv-x="480" 
d="M26 218v62h428v-62h-428z" />
    <glyph glyph-name="emdash" unicode="&#x2014;" horiz-adv-x="960" 
d="M26 218v62h908v-62h-908z" />
    <glyph glyph-name="underscore" unicode="_" horiz-adv-x="480" 
d="M0 -159v62h480v-62h-480z" />
    <glyph glyph-name="dagger" unicode="&#x2020;" horiz-adv-x="492" 
d="M215 0v437h-173v63h173v172h62v-172h172v-63h-172v-437h-62z" />
    <glyph glyph-name="daggerdbl" unicode="&#x2021;" horiz-adv-x="492" 
d="M215 0v172h-173v63h173v202h-173v63h173v172h62v-172h172v-63h-172v-202h172v-63h-172v-172h-62z" />
    <glyph glyph-name="section" unicode="&#xa7;" horiz-adv-x="529" 
d="M67 525c0 94 83 159 206 159c59 0 122 -14 191 -41l-20 -64c-60 25 -116 38 -165 38c-81 0 -131 -37 -131 -92c0 -146 334 -66 334 -283c0 -56 -29 -101 -80 -128c38 -25 64 -63 64 -123c0 -100 -85 -163 -209 -163c-64 0 -136 15 -210 45l20 63c66 -26 131 -42 184 -42
c82 0 134 37 134 97c0 149 -334 71 -334 283c0 56 31 102 85 127c-41 24 -69 63 -69 124zM132 278c0 -92 112 -99 198 -131c44 16 71 50 71 91c0 90 -106 101 -190 130c-48 -14 -79 -48 -79 -90z" />
    <glyph glyph-name="paragraph" unicode="&#xb6;" 
d="M309 259h-42c-131 0 -226 86 -226 206c0 121 95 207 226 207h217v-832h-69v764h-106v-345z" />
    <glyph glyph-name="registered" unicode="&#xae;" horiz-adv-x="832" 
d="M48 336c0 216 152 368 368 368s368 -152 368 -368s-152 -368 -368 -368s-368 152 -368 368zM93 336c0 -190 133 -323 323 -323s323 133 323 323s-133 323 -323 323s-323 -133 -323 -323zM276 128v416h163c81 0 138 -52 138 -127c0 -63 -40 -110 -100 -120l114 -169h-66
l-105 161h-86v-161h-58zM334 495v-159h99c50 0 85 31 85 80c0 48 -35 79 -85 79h-99z" />
    <glyph glyph-name="copyright" unicode="&#xa9;" horiz-adv-x="832" 
d="M48 336c0 216 152 368 368 368s368 -152 368 -368s-152 -368 -368 -368s-368 152 -368 368zM93 336c0 -190 133 -323 323 -323s323 133 323 323s-133 323 -323 323s-323 -133 -323 -323zM220 336c0 127 85 216 208 216c48 0 98 -15 144 -46l-28 -43
c-34 24 -71 37 -109 37c-90 0 -151 -67 -151 -164s61 -164 151 -164c38 0 75 13 109 37l28 -43c-46 -31 -96 -46 -144 -46c-123 0 -208 89 -208 216z" />
    <glyph glyph-name="trademark" unicode="&#x2122;" horiz-adv-x="942" 
d="M165 256v367h-141v49h343v-49h-140v-367h-62zM460 256v416h61l146 -198l145 198h62v-416h-58v331l-131 -180h-37l-132 180v-331h-56z" />
    <glyph glyph-name="quotedblleft" unicode="&#x201c;" horiz-adv-x="442" 
d="M180 479c0 -32 -24 -56 -56 -56c-36 0 -60 31 -60 77c0 73 40 141 110 186l25 -34c-45 -35 -70 -75 -73 -121c30 1 54 -21 54 -52zM375 479c0 -32 -24 -56 -56 -56c-36 0 -60 31 -60 77c0 73 40 141 110 186l25 -34c-45 -35 -70 -75 -73 -121c30 1 54 -21 54 -52z" />
    <glyph glyph-name="quotedblright" unicode="&#x201d;" horiz-adv-x="442" 
d="M68 626c0 33 23 56 56 56c36 0 59 -30 59 -77c0 -73 -40 -140 -110 -185l-25 34c46 35 70 75 73 121c-30 -1 -53 21 -53 51zM263 626c0 33 23 56 56 56c36 0 59 -30 59 -77c0 -73 -40 -140 -110 -185l-25 34c46 35 70 75 73 121c-30 -1 -53 21 -53 51z" />
    <glyph glyph-name="quoteleft" unicode="&#x2018;" horiz-adv-x="247" 
d="M180 479c0 -32 -24 -56 -56 -56c-36 0 -60 31 -60 77c0 73 40 141 110 186l25 -34c-45 -35 -70 -75 -73 -121c30 1 54 -21 54 -52z" />
    <glyph glyph-name="quoteright" unicode="&#x2019;" horiz-adv-x="247" 
d="M68 626c0 33 23 56 56 56c36 0 59 -30 59 -77c0 -73 -40 -140 -110 -185l-25 34c46 35 70 75 73 121c-30 -1 -53 21 -53 51z" />
    <glyph glyph-name="guillemotleft" unicode="&#xab;" horiz-adv-x="538" 
d="M29 231v36l198 220l48 -38l-168 -200l168 -200l-48 -39zM256 231v36l198 220l48 -38l-168 -200l168 -200l-48 -39z" />
    <glyph glyph-name="guillemotright" unicode="&#xbb;" horiz-adv-x="538" 
d="M282 267v-36l-198 -221l-48 39l168 200l-168 200l48 38zM509 267v-36l-198 -221l-48 39l168 200l-168 200l48 38z" />
    <glyph glyph-name="guilsinglleft" unicode="&#x2039;" horiz-adv-x="311" 
d="M29 231v36l198 220l48 -38l-168 -200l168 -200l-48 -39z" />
    <glyph glyph-name="guilsinglright" unicode="&#x203a;" horiz-adv-x="311" 
d="M282 267v-36l-198 -221l-48 39l168 200l-168 200l48 38z" />
    <glyph glyph-name="quotesinglbase" unicode="&#x201a;" horiz-adv-x="215" 
d="M68 46c0 33 23 56 56 56c36 0 59 -30 59 -77c0 -73 -40 -140 -110 -185l-25 34c46 35 70 75 73 121c-30 -1 -53 21 -53 51z" />
    <glyph glyph-name="quotedblbase" unicode="&#x201e;" horiz-adv-x="442" 
d="M68 46c0 33 23 56 56 56c36 0 59 -30 59 -77c0 -73 -40 -140 -110 -185l-25 34c46 35 70 75 73 121c-30 -1 -53 21 -53 51zM263 46c0 33 23 56 56 56c36 0 59 -30 59 -77c0 -73 -40 -140 -110 -185l-25 34c46 35 70 75 73 121c-30 -1 -53 21 -53 51z" />
    <glyph glyph-name="arrowleft" unicode="&#x2190;" horiz-adv-x="960" 
d="M928 251h-759l239 -233l-55 -51l-321 321l321 321l55 -51l-239 -233h759v-74z" />
    <glyph glyph-name="arrowup" unicode="&#x2191;" horiz-adv-x="960" 
d="M443 -160v759l-233 -239l-51 55l321 321l321 -321l-51 -55l-233 239v-759h-74z" />
    <glyph glyph-name="arrowright" unicode="&#x2192;" horiz-adv-x="960" 
d="M32 325h759l-239 233l55 51l321 -321l-321 -321l-55 51l239 233h-759v74z" />
    <glyph glyph-name="arrowdown" unicode="&#x2193;" horiz-adv-x="960" 
d="M517 736v-759l233 239l51 -55l-321 -321l-321 321l51 55l233 -239v759h74z" />
    <glyph glyph-name="grave" unicode="`" horiz-adv-x="240" 
d="M19 714l170 -118l-31 -45l-175 111z" />
    <glyph glyph-name="acute" unicode="&#xb4;" horiz-adv-x="240" 
d="M263 662l-175 -111l-31 45l170 118z" />
    <glyph glyph-name="dieresis" unicode="&#xa8;" horiz-adv-x="240" 
d="M-34 634c0 29 20 49 49 49s49 -20 49 -49s-20 -49 -49 -49s-49 20 -49 49zM176 634c0 29 20 49 49 49s49 -20 49 -49s-20 -49 -49 -49s-49 20 -49 49z" />
    <glyph glyph-name="circumflex" unicode="&#x2c6;" horiz-adv-x="240" 
d="M-28 591l123 119h50l123 -119l-35 -38l-113 100l-113 -100z" />
    <glyph glyph-name="tilde" unicode="&#x2dc;" horiz-adv-x="240" 
d="M56 681c46 0 91 -37 122 -37c20 0 35 14 42 37l51 -15c-10 -47 -43 -79 -87 -79c-46 0 -91 37 -122 37c-20 0 -35 -13 -42 -37l-51 16c10 47 43 78 87 78z" />
    <glyph glyph-name="macron" unicode="&#xaf;" horiz-adv-x="240" 
d="M-28 606v57h296v-57h-296z" />
    <glyph glyph-name="breve" unicode="&#x2d8;" horiz-adv-x="240" 
d="M-28 694h53c4 -52 42 -87 95 -87s91 35 95 87h53c-3 -87 -65 -143 -148 -143s-145 56 -148 143z" />
    <glyph glyph-name="dotaccent" unicode="&#x2d9;" horiz-adv-x="240" 
d="M68 634c0 31 22 52 52 52s52 -21 52 -52c0 -30 -22 -52 -52 -52s-52 22 -52 52z" />
    <glyph glyph-name="ring" unicode="&#x2da;" horiz-adv-x="240" 
d="M20 634c0 57 41 97 100 97s100 -40 100 -97s-40 -97 -99 -97s-101 40 -101 97zM63 634c0 -34 24 -57 58 -57s56 23 56 57s-23 58 -57 58s-57 -24 -57 -58z" />
    <glyph glyph-name="cedilla" unicode="&#xb8;" horiz-adv-x="240" 
d="M156 0l-10 -56c44 -6 74 -41 74 -82c0 -51 -47 -87 -114 -87c-28 0 -60 6 -91 18l14 47c25 -9 50 -14 70 -14c32 0 56 17 56 43s-25 43 -60 43h-11l16 88h56z" />
    <glyph glyph-name="hungarumlaut" unicode="&#x2dd;" horiz-adv-x="240" 
d="M355 691l-149 -143l-42 41l144 149zM160 691l-149 -143l-41 41l143 149z" />
    <glyph glyph-name="ogonek" unicode="&#x2db;" horiz-adv-x="240" 
d="M117 13l43 -13c-56 -44 -91 -86 -91 -127c0 -29 22 -47 50 -47c13 0 28 3 41 8l11 -46c-23 -9 -46 -13 -69 -13c-54 0 -94 32 -94 85s41 106 109 153z" />
    <glyph glyph-name="caron" unicode="&#x2c7;" horiz-adv-x="240" 
d="M268 677l-123 -118h-50l-123 118l35 39l113 -101l113 101z" />
    <glyph glyph-name="commaaccent" unicode="&#xf6c3;" horiz-adv-x="240" 
d="M71 -109c0 29 20 49 49 49c32 0 53 -25 53 -65c0 -63 -34 -120 -95 -157l-23 31c37 28 58 62 61 99c-25 -1 -45 18 -45 43z" />
    <glyph glyph-name="grave.sc" unicode="&#xe4c0;" horiz-adv-x="240" 
d="M19 746l170 -118l-31 -45l-175 111z" />
    <glyph glyph-name="acute.sc" unicode="&#xe4c1;" horiz-adv-x="240" 
d="M263 694l-175 -111l-31 45l170 118z" />
    <glyph glyph-name="dieresis.sc" unicode="&#xe4c5;" horiz-adv-x="240" 
d="M-34 666c0 29 20 49 49 49s49 -20 49 -49s-20 -49 -49 -49s-49 20 -49 49zM176 666c0 29 20 49 49 49s49 -20 49 -49s-20 -49 -49 -49s-49 20 -49 49z" />
    <glyph glyph-name="circumflex.sc" unicode="&#xe4c2;" horiz-adv-x="240" 
d="M-28 623l123 119h50l123 -119l-35 -38l-113 100l-113 -100z" />
    <glyph glyph-name="tilde.sc" unicode="&#xe4c4;" horiz-adv-x="240" 
d="M56 713c46 0 91 -37 122 -37c20 0 35 14 42 37l51 -15c-10 -47 -43 -79 -87 -79c-46 0 -91 37 -122 37c-20 0 -35 -13 -42 -37l-51 16c10 47 43 78 87 78z" />
    <glyph glyph-name="macron.sc" unicode="&#xe4c6;" horiz-adv-x="240" 
d="M-28 638v57h296v-57h-296z" />
    <glyph glyph-name="breve.sc" unicode="&#xe4c7;" horiz-adv-x="240" 
d="M-28 726h53c4 -52 42 -87 95 -87s91 35 95 87h53c-3 -87 -65 -143 -148 -143s-145 56 -148 143z" />
    <glyph glyph-name="dotaccent.sc" unicode="&#xe4ca;" horiz-adv-x="240" 
d="M68 666c0 31 22 52 52 52s52 -21 52 -52c0 -30 -22 -52 -52 -52s-52 22 -52 52z" />
    <glyph glyph-name="ring.sc" unicode="&#xe4c8;" horiz-adv-x="240" 
d="M20 666c0 57 41 97 100 97s100 -40 100 -97s-40 -97 -99 -97s-101 40 -101 97zM63 666c0 -34 24 -57 58 -57s56 23 56 57s-23 58 -57 58s-57 -24 -57 -58z" />
    <glyph glyph-name="hungarumlaut.sc" unicode="&#xe4c9;" horiz-adv-x="240" 
d="M355 723l-149 -143l-42 41l144 149zM160 723l-149 -143l-41 41l143 149z" />
    <glyph glyph-name="caron.sc" unicode="&#xe4c3;" horiz-adv-x="240" 
d="M268 709l-123 -118h-50l-123 118l35 39l113 -101l113 101z" />
    <glyph glyph-name="grave.cap" unicode="&#xe840;" horiz-adv-x="240" 
d="M19 900l170 -118l-31 -45l-175 111z" />
    <glyph glyph-name="acute.cap" unicode="&#xe841;" horiz-adv-x="240" 
d="M263 848l-175 -111l-31 45l170 118z" />
    <glyph glyph-name="dieresis.cap" unicode="&#xe845;" horiz-adv-x="240" 
d="M-34 820c0 29 20 49 49 49s49 -20 49 -49s-20 -49 -49 -49s-49 20 -49 49zM176 820c0 29 20 49 49 49s49 -20 49 -49s-20 -49 -49 -49s-49 20 -49 49z" />
    <glyph glyph-name="circumflex.cap" unicode="&#xe842;" horiz-adv-x="240" 
d="M-28 777l123 119h50l123 -119l-35 -38l-113 100l-113 -100z" />
    <glyph glyph-name="tilde.cap" unicode="&#xe844;" horiz-adv-x="240" 
d="M56 867c46 0 91 -37 122 -37c20 0 35 14 42 37l51 -15c-10 -47 -43 -79 -87 -79c-46 0 -91 37 -122 37c-20 0 -35 -13 -42 -37l-51 16c10 47 43 78 87 78z" />
    <glyph glyph-name="macron.cap" unicode="&#xe846;" horiz-adv-x="240" 
d="M-28 792v57h296v-57h-296z" />
    <glyph glyph-name="breve.cap" unicode="&#xe847;" horiz-adv-x="240" 
d="M-28 880h53c4 -52 42 -87 95 -87s91 35 95 87h53c-3 -87 -65 -143 -148 -143s-145 56 -148 143z" />
    <glyph glyph-name="dotaccent.cap" unicode="&#xe84a;" horiz-adv-x="240" 
d="M68 820c0 31 22 52 52 52s52 -21 52 -52c0 -30 -22 -52 -52 -52s-52 22 -52 52z" />
    <glyph glyph-name="ring.cap" unicode="&#xe848;" horiz-adv-x="240" 
d="M20 820c0 57 41 97 100 97s100 -40 100 -97s-40 -97 -99 -97s-101 40 -101 97zM63 820c0 -34 24 -57 58 -57s56 23 56 57s-23 58 -57 58s-57 -24 -57 -58z" />
    <glyph glyph-name="hungarumlaut.cap" unicode="&#xe849;" horiz-adv-x="240" 
d="M355 877l-149 -143l-42 41l144 149zM160 877l-149 -143l-41 41l143 149z" />
    <glyph glyph-name="caron.cap" unicode="&#xe843;" horiz-adv-x="240" 
d="M268 863l-123 -118h-50l-123 118l35 39l113 -101l113 101z" />
    <glyph glyph-name="periodcentered.cap" unicode="&#xe805;" horiz-adv-x="247" 
d="M68 344c0 33 23 56 56 56c32 0 56 -23 56 -56c0 -32 -24 -55 -56 -55c-33 0 -56 23 -56 55z" />
    <glyph glyph-name="bullet.cap" unicode="&#xe815;" horiz-adv-x="480" 
d="M96 336c0 80 64 144 144 144s144 -64 144 -144s-64 -144 -144 -144s-144 64 -144 144z" />
    <glyph glyph-name="at.cap" unicode="&#xe814;" horiz-adv-x="972" 
d="M49 336c0 261 187 447 449 447c247 0 424 -164 424 -396c0 -160 -78 -269 -194 -269c-57 0 -100 33 -112 82c-33 -52 -86 -82 -153 -82c-109 0 -190 91 -190 218s81 218 190 218c62 0 110 -28 139 -75l8 65h66v-297c0 -42 23 -70 61 -70c70 0 117 82 117 204
c0 200 -149 341 -356 341c-222 0 -380 -160 -380 -386s157 -386 380 -386c76 0 159 25 246 73l31 -54c-98 -53 -191 -80 -277 -80c-263 0 -449 185 -449 447zM353 336c0 -91 54 -155 129 -155c70 0 115 53 115 124v62c0 71 -45 124 -115 124c-75 0 -129 -64 -129 -155z" />
    <glyph glyph-name="parenleft.cap" unicode="&#xe808;" horiz-adv-x="337" 
d="M79 336c0 166 59 320 171 441l57 -39c-103 -110 -154 -252 -154 -402s51 -292 154 -402l-57 -39c-112 120 -171 274 -171 441z" />
    <glyph glyph-name="parenright.cap" unicode="&#xe809;" horiz-adv-x="337" 
d="M259 336c0 -166 -60 -320 -171 -441l-57 39c102 110 154 252 154 402s-52 292 -154 402l57 39c111 -120 171 -274 171 -441z" />
    <glyph glyph-name="bracketleft.cap" unicode="&#xe80a;" horiz-adv-x="337" 
d="M105 -86v844h196v-66h-122v-712h122v-66h-196z" />
    <glyph glyph-name="bracketright.cap" unicode="&#xe80b;" horiz-adv-x="337" 
d="M233 758v-844h-197v66h123v712h-123v66h197z" />
    <glyph glyph-name="braceleft.cap" unicode="&#xe80c;" horiz-adv-x="337" 
d="M31 303v66h16c48 0 84 35 84 85s-13 105 -13 158c0 86 64 146 150 146h33v-66h-16c-53 0 -92 -37 -92 -95c0 -47 12 -99 12 -149c0 -53 -26 -96 -75 -112c49 -16 75 -59 75 -112c0 -49 -12 -101 -12 -149c0 -57 39 -95 92 -95h16v-66h-33c-86 0 -150 60 -150 146
c0 53 13 106 13 158c0 48 -35 85 -84 85h-16z" />
    <glyph glyph-name="braceright.cap" unicode="&#xe80d;" horiz-adv-x="337" 
d="M307 369v-66h-16c-49 0 -85 -35 -85 -85s14 -105 14 -158c0 -86 -64 -146 -150 -146h-34v66h16c53 0 92 37 92 95c0 47 -12 99 -12 149c0 53 26 96 75 112c-49 16 -75 59 -75 112c0 49 12 101 12 149c0 57 -39 95 -92 95h-16v66h34c86 0 150 -60 150 -146
c0 -53 -14 -106 -14 -158c0 -48 35 -85 85 -85h16z" />
    <glyph glyph-name="questiondown.cap" unicode="&#xe813;" horiz-adv-x="460" 
d="M212 462h67v-13c0 -123 -152 -163 -152 -273c0 -71 52 -120 125 -120c49 0 95 19 144 52l32 -59c-58 -40 -123 -61 -187 -61c-113 0 -194 74 -194 178c0 144 159 189 165 288v8zM299 628c0 -31 -22 -53 -53 -53s-53 22 -53 53s22 53 53 53s53 -22 53 -53z" />
    <glyph glyph-name="exclamdown.cap" unicode="&#xe812;" horiz-adv-x="263" 
d="M165 462l7 -462h-81l7 462h67zM185 628c0 -31 -22 -53 -53 -53c-32 0 -54 22 -54 53s22 53 54 53s53 -22 53 -53z" />
    <glyph glyph-name="guillemotleft.cap" unicode="&#xe810;" horiz-adv-x="538" 
d="M29 326v36l198 220l48 -38l-168 -200l168 -200l-48 -39zM256 326v36l198 220l48 -38l-168 -200l168 -200l-48 -39z" />
    <glyph glyph-name="guillemotright.cap" unicode="&#xe811;" horiz-adv-x="538" 
d="M282 362v-36l-198 -221l-48 39l168 200l-168 200l48 38zM509 362v-36l-198 -221l-48 39l168 200l-168 200l48 38z" />
    <glyph glyph-name="guilsinglleft.cap" unicode="&#xe80e;" horiz-adv-x="311" 
d="M29 326v36l198 220l48 -38l-168 -200l168 -200l-48 -39z" />
    <glyph glyph-name="guilsinglright.cap" unicode="&#xe80f;" horiz-adv-x="311" 
d="M282 362v-36l-198 -221l-48 39l168 200l-168 200l48 38z" />
    <glyph glyph-name="hyphen.cap" unicode="&#xe800;" horiz-adv-x="320" 
d="M26 313v62h268v-62h-268z" />
    <glyph glyph-name="uni00AD.cap" unicode="&#xe801;" horiz-adv-x="320" 
d="M26 313v62h268v-62h-268z" />
    <glyph glyph-name="endash.cap" unicode="&#xe802;" horiz-adv-x="480" 
d="M26 313v62h428v-62h-428z" />
    <glyph glyph-name="emdash.cap" unicode="&#xe803;" horiz-adv-x="960" 
d="M26 313v62h908v-62h-908z" />
    <glyph glyph-name="afii00208.cap" unicode="&#xe804;" horiz-adv-x="960" 
d="M26 313v62h908v-62h-908z" />
    <glyph glyph-name="A.sc" unicode="&#xe200;" horiz-adv-x="559" 
d="M29 0l213 518h74l214 -518h-80l-53 134h-235l-53 -134h-80zM279 433l-97 -243h195z" />
    <glyph glyph-name="B.sc" unicode="&#xe201;" horiz-adv-x="545" 
d="M92 0v518h217c92 0 157 -57 157 -136c0 -53 -30 -96 -75 -113c58 -20 93 -67 93 -127c0 -84 -67 -142 -163 -142h-229zM166 239v-182h144c59 0 99 37 99 91s-40 91 -99 91h-144zM166 460v-170h133c55 0 93 35 93 85s-38 85 -93 85h-133z" />
    <glyph glyph-name="C.sc" unicode="&#xe202;" horiz-adv-x="540" 
d="M55 259c0 159 107 271 260 271c60 0 122 -19 179 -57l-34 -55c-43 30 -90 46 -136 46c-111 0 -188 -84 -188 -205s77 -206 188 -206c46 0 93 17 136 47l34 -55c-57 -38 -119 -57 -179 -57c-153 0 -260 111 -260 271z" />
    <glyph glyph-name="D.sc" unicode="&#xe203;" horiz-adv-x="596" 
d="M92 0v518h185c158 0 264 -106 264 -259s-105 -259 -263 -259h-186zM460 259c0 116 -77 196 -191 196h-97v-393h97c114 0 191 81 191 197z" />
    <glyph glyph-name="E.sc" unicode="&#xe204;" horiz-adv-x="502" 
d="M92 0v518h341v-60h-261v-165h236v-56h-236v-177h273v-60h-353z" />
    <glyph glyph-name="F.sc" unicode="&#xe205;" horiz-adv-x="490" 
d="M92 0v518h341v-61h-261v-181h236v-61h-236v-215h-80z" />
    <glyph glyph-name="G.sc" unicode="&#xe206;" horiz-adv-x="584" 
d="M514 276v-245c-61 -28 -125 -43 -189 -43c-160 0 -270 113 -270 271s109 271 265 271c61 0 124 -18 188 -53l-32 -55c-50 29 -100 45 -148 45c-116 0 -196 -85 -196 -208c0 -124 82 -209 200 -209c40 0 76 8 110 24v142h-126v60h198z" />
    <glyph glyph-name="H.sc" unicode="&#xe207;" horiz-adv-x="636" 
d="M92 0v518h80v-222h293v222h79v-518h-79v234h-293v-234h-80z" />
    <glyph glyph-name="I.sc" unicode="&#xe208;" horiz-adv-x="264" 
d="M92 0v518h80v-518h-80z" />
    <glyph glyph-name="J.sc" unicode="&#xe209;" horiz-adv-x="385" 
d="M293 518v-380c0 -89 -63 -150 -154 -150c-33 0 -66 4 -102 13l11 63c27 -7 51 -11 75 -11c54 0 91 37 91 91v374h79z" />
    <glyph glyph-name="K.sc" unicode="&#xe20a;" horiz-adv-x="556" 
d="M92 0v518h77v-261l249 261h94l-234 -243l245 -275h-94l-204 228l-56 -58v-170h-77z" />
    <glyph glyph-name="L.sc" unicode="&#xe20b;" horiz-adv-x="454" 
d="M92 0v518h80v-456h244v-62h-324z" />
    <glyph glyph-name="M.sc" unicode="&#xe20c;" horiz-adv-x="702" 
d="M92 0v518h78l181 -245l181 245h78v-518h-73v410l-164 -222h-44l-165 222v-410h-72z" />
    <glyph glyph-name="N.sc" unicode="&#xe20d;" horiz-adv-x="636" 
d="M92 0v518h78l302 -411v411h72v-518h-78l-302 410v-410h-72z" />
    <glyph glyph-name="O.sc" unicode="&#xe20e;" horiz-adv-x="636" 
d="M55 259c0 159 108 271 263 271s263 -112 263 -271s-108 -271 -263 -271s-263 112 -263 271zM136 259c0 -122 75 -207 182 -207s182 85 182 207c0 121 -75 207 -182 207s-182 -86 -182 -207z" />
    <glyph glyph-name="P.sc" unicode="&#xe20f;" horiz-adv-x="520" 
d="M92 0v518h202c105 0 178 -67 178 -165c0 -99 -73 -166 -178 -166h-128v-187h-74zM166 457v-209h118c67 0 112 42 112 105c0 62 -45 104 -112 104h-118z" />
    <glyph glyph-name="Q.sc" unicode="&#xe210;" horiz-adv-x="636" 
d="M55 259c0 159 108 271 263 271s263 -112 263 -271c0 -102 -43 -183 -114 -228l118 -85l-38 -51l-145 108c-25 -10 -54 -15 -84 -15c-155 0 -263 112 -263 271zM136 259c0 -122 75 -207 182 -207s182 85 182 207c0 121 -75 207 -182 207s-182 -86 -182 -207z" />
    <glyph glyph-name="R.sc" unicode="&#xe211;" horiz-adv-x="545" 
d="M92 0v518h205c101 0 171 -63 171 -158c0 -78 -49 -138 -124 -150l146 -210h-86l-134 199h-104v-199h-74zM166 457v-197h121c63 0 106 39 106 99c0 59 -43 98 -106 98h-121z" />
    <glyph glyph-name="S.sc" unicode="&#xe212;" horiz-adv-x="488" 
d="M59 384c0 86 75 146 185 146c55 0 114 -14 172 -38l-19 -60c-50 23 -101 35 -147 35c-69 0 -113 -34 -113 -83c0 -127 296 -53 296 -248c0 -90 -76 -148 -189 -148c-58 0 -126 15 -189 41l18 60c58 -24 116 -39 166 -39c70 0 116 35 116 86c0 131 -296 59 -296 248z" />
    <glyph glyph-name="T.sc" unicode="&#xe213;" horiz-adv-x="502" 
d="M211 0v455h-173v63h426v-63h-173v-455h-80z" />
    <glyph glyph-name="U.sc" unicode="&#xe214;" horiz-adv-x="636" 
d="M550 518v-317c0 -125 -97 -213 -232 -213s-231 88 -231 213v317h79v-316c0 -88 63 -150 152 -150s152 62 152 150v316h80z" />
    <glyph glyph-name="V.sc" unicode="&#xe215;" horiz-adv-x="559" 
d="M530 518l-214 -518h-74l-213 518h84l166 -420l167 420h84z" />
    <glyph glyph-name="W.sc" unicode="&#xe216;" horiz-adv-x="818" 
d="M781 518l-166 -518h-79l-127 419l-127 -419h-78l-167 518h80l128 -419l127 419h74l127 -419l128 419h80z" />
    <glyph glyph-name="X.sc" unicode="&#xe217;" horiz-adv-x="571" 
d="M39 0l195 265l-185 253h89l147 -203l148 203h89l-186 -253l196 -265h-91l-156 214l-155 -214h-91z" />
    <glyph glyph-name="Y.sc" unicode="&#xe218;" horiz-adv-x="508" 
d="M214 0v216l-190 302h87l143 -230l142 230h87l-189 -302v-216h-80z" />
    <glyph glyph-name="Z.sc" unicode="&#xe219;" horiz-adv-x="528" 
d="M56 0v47l304 408h-296v63h400v-47l-304 -409h312v-62h-416z" />
    <glyph glyph-name="ampersand.sc" unicode="&#xe490;" horiz-adv-x="538" 
d="M437 0l-57 62c-40 -48 -99 -74 -155 -74c-104 0 -178 61 -178 148c0 62 43 114 118 153c-38 39 -63 75 -63 119c0 71 59 122 140 122c78 0 134 -45 134 -113c0 -53 -35 -95 -117 -139l121 -130c19 30 28 67 29 103h62c-4 -56 -19 -109 -48 -150l94 -101h-80zM228 42
c41 0 82 22 112 62l-139 148c-55 -32 -85 -68 -85 -111c0 -57 46 -99 112 -99zM242 473c-44 0 -74 -28 -74 -68c0 -32 24 -58 58 -91c60 34 86 62 86 97c0 37 -29 62 -70 62z" />
    <glyph glyph-name="at.sc" unicode="&#xe491;" horiz-adv-x="792" 
d="M55 259c0 204 146 348 350 348c195 0 332 -129 332 -308c0 -124 -63 -208 -155 -208c-44 0 -80 23 -92 60c-26 -40 -65 -60 -115 -60c-86 0 -146 70 -146 168s60 168 146 168c45 0 81 -20 104 -56l6 48h60v-219c0 -31 18 -53 46 -53c50 0 85 57 85 146
c0 150 -112 261 -271 261c-168 0 -289 -123 -289 -295c0 -173 121 -295 289 -295c60 0 125 20 190 60l29 -48c-77 -43 -149 -65 -219 -65c-205 0 -350 144 -350 348zM298 259c0 -66 40 -112 94 -112c52 0 85 39 85 90v44c0 52 -33 90 -85 90c-54 0 -94 -47 -94 -112z" />
    <glyph glyph-name="exclam.sc" unicode="&#xe484;" horiz-adv-x="255" 
d="M95 164l-7 354h79l-7 -354h-65zM79 39c0 29 20 49 49 49s48 -20 48 -49s-19 -48 -48 -48s-49 19 -49 48z" />
    <glyph glyph-name="exclamdown.sc" unicode="&#xe485;" horiz-adv-x="255" 
d="M160 353l7 -353h-79l7 353h65zM176 478c0 -29 -19 -48 -48 -48s-49 19 -49 48s20 49 49 49s48 -20 48 -49z" />
    <glyph glyph-name="question.sc" unicode="&#xe486;" horiz-adv-x="399" 
d="M217 159h-64v11c0 93 112 130 112 209c0 49 -36 85 -88 85c-35 0 -69 -12 -108 -36l-28 54c48 32 98 48 149 48c90 0 153 -59 153 -139c0 -115 -123 -151 -126 -224v-8zM136 39c0 29 20 49 49 49s49 -20 49 -49s-20 -48 -49 -48s-49 19 -49 48z" />
    <glyph glyph-name="questiondown.sc" unicode="&#xe487;" horiz-adv-x="399" 
d="M182 359h64v-11c0 -93 -112 -131 -112 -209c0 -49 35 -86 87 -86c35 0 70 13 108 37l29 -54c-49 -33 -98 -48 -149 -48c-90 0 -154 59 -154 139c0 115 123 151 126 224zM263 478c0 -29 -20 -48 -49 -48s-49 19 -49 48s20 49 49 49s49 -20 49 -49z" />
    <glyph glyph-name="slash.sc" unicode="&#xe488;" horiz-adv-x="336" 
d="M23 -55l227 648l63 -20l-227 -648z" />
    <glyph glyph-name="backslash.sc" unicode="&#xe489;" horiz-adv-x="336" 
d="M250 -75l-227 648l63 20l227 -648z" />
    <glyph glyph-name="parenleft.sc" unicode="&#xe48a;" horiz-adv-x="305" 
d="M76 259c0 129 47 251 134 345l56 -38c-79 -85 -119 -193 -119 -307s40 -222 119 -307l-56 -38c-87 93 -134 216 -134 345z" />
    <glyph glyph-name="parenright.sc" unicode="&#xe48b;" horiz-adv-x="305" 
d="M229 259c0 -129 -47 -252 -134 -345l-55 38c79 85 118 193 118 307s-39 222 -118 307l55 38c87 -94 134 -216 134 -345z" />
    <glyph glyph-name="bracketleft.sc" unicode="&#xe48c;" horiz-adv-x="305" 
d="M96 -68v654h162v-63h-91v-528h91v-63h-162z" />
    <glyph glyph-name="bracketright.sc" unicode="&#xe48d;" horiz-adv-x="305" 
d="M210 586v-654h-163v63h92v528h-92v63h163z" />
    <glyph glyph-name="braceleft.sc" unicode="&#xe48e;" horiz-adv-x="305" 
d="M40 228v62h12c36 0 62 28 62 61c0 39 -9 75 -9 114c0 72 53 121 126 121h27v-63h-12c-40 0 -70 -28 -70 -73c0 -35 9 -69 9 -104c0 -40 -19 -75 -58 -87c39 -12 58 -47 58 -87c0 -35 -9 -69 -9 -105c0 -43 30 -72 70 -72h12v-63h-27c-73 0 -126 49 -126 121
c0 39 9 75 9 113c0 35 -26 62 -62 62h-12z" />
    <glyph glyph-name="braceright.sc" unicode="&#xe48f;" horiz-adv-x="305" 
d="M265 290v-62h-12c-36 0 -61 -28 -61 -62c0 -38 9 -74 9 -113c0 -72 -54 -121 -126 -121h-28v63h12c40 0 70 28 70 72c0 36 -9 70 -9 105c0 40 20 75 58 87c-38 12 -58 47 -58 87c0 35 9 69 9 104c0 44 -30 73 -70 73h-12v63h28c72 0 126 -49 126 -121
c0 -39 -9 -75 -9 -114c0 -34 25 -61 61 -61h12z" />
    <glyph glyph-name="quoteleft.sc" unicode="&#xe480;" horiz-adv-x="263" 
d="M188 325c0 -32 -24 -56 -56 -56c-36 0 -60 31 -60 77c0 73 40 141 110 186l25 -34c-45 -35 -70 -75 -73 -121c30 1 54 -21 54 -52z" />
    <glyph glyph-name="quoteright.sc" unicode="&#xe481;" horiz-adv-x="263" 
d="M76 471c0 33 23 56 56 56c36 0 59 -30 59 -77c0 -73 -40 -140 -110 -185l-25 34c46 35 70 75 73 121c-30 -1 -53 21 -53 51z" />
    <glyph glyph-name="quotedblleft.sc" unicode="&#xe482;" horiz-adv-x="458" 
d="M188 325c0 -32 -24 -56 -56 -56c-36 0 -60 31 -60 77c0 73 40 141 110 186l25 -34c-45 -35 -70 -75 -73 -121c30 1 54 -21 54 -52zM383 325c0 -32 -24 -56 -56 -56c-36 0 -60 31 -60 77c0 73 40 141 110 186l25 -34c-45 -35 -70 -75 -73 -121c30 1 54 -21 54 -52z" />
    <glyph glyph-name="quotedblright.sc" unicode="&#xe483;" horiz-adv-x="458" 
d="M76 471c0 33 23 56 56 56c36 0 59 -30 59 -77c0 -73 -40 -140 -110 -185l-25 34c46 35 70 75 73 121c-30 -1 -53 21 -53 51zM271 471c0 33 23 56 56 56c36 0 59 -30 59 -77c0 -73 -40 -140 -110 -185l-25 34c46 35 70 75 73 121c-30 -1 -53 21 -53 51z" />
    <glyph glyph-name="FI.sc" unicode="&#xe284;" horiz-adv-x="754" 
d="M92 0v518h341v-61h-261v-181h236v-61h-236v-215h-80zM582 0v518h80v-518h-80z" />
    <glyph glyph-name="FL.sc" unicode="&#xe285;" horiz-adv-x="944" 
d="M92 0v518h341v-61h-261v-181h236v-61h-236v-215h-80zM582 0v518h80v-456h244v-62h-324z" />
    <glyph glyph-name="zero" unicode="0" horiz-adv-x="576" 
d="M41 336c0 214 95 348 247 348s247 -134 247 -348s-95 -348 -247 -348s-247 134 -247 348zM117 336c0 -172 66 -281 171 -281s171 109 171 281c0 173 -66 281 -171 281s-171 -108 -171 -281z" />
    <glyph glyph-name="one" unicode="1" horiz-adv-x="576" 
d="M301 0v592l-174 -100l-28 56l215 124h67v-672h-80z" />
    <glyph glyph-name="two" unicode="2" horiz-adv-x="576" 
d="M55 0v51l263 263c54 54 82 109 82 163c0 82 -58 139 -143 139c-56 0 -108 -23 -165 -59l-32 60c71 43 142 67 212 67c122 0 207 -81 207 -197c0 -70 -33 -140 -96 -203l-219 -219h323v-65h-432z" />
    <glyph glyph-name="three" unicode="3" horiz-adv-x="576" 
d="M193 314v60h41c95 0 160 52 160 125c0 71 -53 120 -131 120c-52 0 -107 -14 -169 -42l-26 60c73 33 142 47 207 47c117 0 198 -73 198 -178c0 -77 -48 -138 -123 -160c84 -23 139 -90 139 -172c0 -110 -88 -186 -214 -186c-69 0 -146 15 -223 51l26 60
c65 -30 128 -46 184 -46c85 0 146 53 146 128c0 79 -71 133 -174 133h-41z" />
    <glyph glyph-name="four" unicode="4" horiz-adv-x="576" 
d="M358 0v159h-327v55l325 458h76v-451h103v-62h-103v-159h-74zM109 221h249v351z" />
    <glyph glyph-name="five" unicode="5" horiz-adv-x="576" 
d="M476 672v-65h-299v-215c34 7 69 11 98 11c139 0 225 -82 225 -206c0 -122 -94 -209 -234 -209c-70 0 -140 21 -203 59l31 60c55 -34 112 -52 166 -52c98 0 161 57 161 143c0 90 -62 146 -169 146c-43 0 -90 -5 -147 -18v346h371z" />
    <glyph glyph-name="six" unicode="6" horiz-adv-x="576" 
d="M60 297c0 246 99 387 276 387c54 0 111 -13 164 -40l-27 -59c-45 22 -90 35 -134 35c-129 0 -203 -103 -204 -296c29 63 99 105 181 105c127 0 213 -87 213 -215c0 -129 -96 -226 -225 -226c-151 0 -244 110 -244 309zM143 225c0 -101 66 -173 158 -173
c87 0 154 69 154 159c0 93 -61 156 -152 156c-90 0 -160 -62 -160 -142z" />
    <glyph glyph-name="seven" unicode="7" horiz-adv-x="576" 
d="M139 0l263 607h-337v65h424v-51l-267 -621h-83z" />
    <glyph glyph-name="eight" unicode="8" horiz-adv-x="576" 
d="M288 374c82 14 143 57 143 129c0 68 -61 119 -143 119s-143 -51 -143 -119c0 -72 61 -115 143 -129zM52 173c0 83 56 148 155 171c-81 21 -139 82 -139 163c0 104 91 177 220 177s220 -73 220 -177c0 -81 -58 -142 -139 -163c99 -23 155 -88 155 -171
c0 -110 -96 -185 -236 -185s-236 75 -236 185zM288 314c-96 -15 -156 -63 -156 -137c0 -75 64 -127 156 -127s156 52 156 127c0 74 -60 122 -156 137z" />
    <glyph glyph-name="nine" unicode="9" horiz-adv-x="576" 
d="M516 375c0 -246 -99 -387 -276 -387c-54 0 -111 13 -164 40l27 59c45 -22 90 -35 134 -35c129 0 203 103 204 296c-29 -63 -99 -105 -181 -105c-127 0 -213 87 -213 215c0 129 96 226 225 226c151 0 244 -110 244 -309zM433 447c0 101 -66 173 -158 173
c-87 0 -154 -69 -154 -159c0 -93 61 -156 152 -156c90 0 160 62 160 142z" />
    <glyph glyph-name="dollar" unicode="$" horiz-adv-x="576" 
d="M254 -128v166c-54 3 -112 17 -174 43l19 63c66 -27 130 -43 183 -43c81 0 133 37 133 97c0 149 -331 65 -331 280c0 85 67 144 170 155v167h68v-166c48 -4 99 -18 154 -39l-19 -64c-60 25 -114 40 -163 40c-79 0 -129 -38 -129 -93c0 -145 331 -59 331 -280
c0 -88 -68 -149 -174 -159v-167h-68z" />
    <glyph glyph-name="cent" unicode="&#xa2;" horiz-adv-x="576" 
d="M87 336c0 134 80 233 199 250v150h68v-147c51 -3 101 -21 149 -53l-33 -55c-42 29 -84 45 -129 45c-102 0 -173 -78 -173 -190s71 -190 173 -190c45 0 87 16 129 45l33 -55c-48 -32 -98 -50 -149 -53v-147h-68v150c-119 17 -199 116 -199 250z" />
    <glyph glyph-name="Euro" unicode="&#x20ac;" horiz-adv-x="576" 
d="M34 247v50h70c-1 13 -1 25 -1 39c0 19 0 37 2 55h-71v50h81c33 149 136 243 269 243c62 0 121 -16 175 -47l-31 -55c-42 24 -86 38 -135 38c-97 0 -172 -71 -197 -179h245v-50h-259c-2 -18 -2 -36 -2 -55c0 -14 0 -26 1 -39h260v-50h-249c22 -118 98 -195 201 -195
c49 0 93 14 135 38l31 -55c-54 -31 -113 -47 -175 -47c-137 0 -242 101 -273 259h-77z" />
    <glyph glyph-name="florin" unicode="&#x192;" horiz-adv-x="576" 
d="M143 365v63h97v127c0 77 56 129 133 129c30 0 60 -4 92 -13l-11 -64c-23 7 -43 10 -62 10c-40 0 -69 -27 -69 -68v-121h121v-63h-121v-248c0 -77 -57 -129 -134 -129c-29 0 -59 4 -92 13l12 64c23 -7 45 -10 63 -10c39 0 68 27 68 68v242h-97z" />
    <glyph glyph-name="sterling" unicode="&#xa3;" horiz-adv-x="576" 
d="M68 0v64h101v249h-85v62h85v125c0 109 82 184 199 184c46 0 95 -10 148 -31l-21 -60c-38 16 -77 24 -112 24c-78 0 -131 -50 -131 -123v-119h187v-62h-187v-249h272v-64h-456z" />
    <glyph glyph-name="yen" unicode="&#xa5;" horiz-adv-x="576" 
d="M247 0v152h-163v57h163v93h-163v57h141l-201 313h88l176 -285l176 285h88l-201 -313h141v-57h-163v-93h163v-57h-163v-152h-82z" />
    <glyph glyph-name="numbersign" unicode="#" horiz-adv-x="652" 
d="M16 179v62h134l36 190h-122v62h134l35 185l62 -9l-33 -176h188l35 185l62 -9l-33 -176h122v-62h-134l-37 -190h122v-62h-134l-35 -185l-62 9l34 176h-188l-35 -185l-62 9l33 176h-122zM250 431l-36 -190h188l36 190h-188z" />
    <glyph glyph-name="percent" unicode="%" horiz-adv-x="864" 
d="M487 168c0 105 69 180 166 180s167 -75 167 -180c0 -106 -70 -180 -167 -180s-166 74 -166 180zM548 168c0 -78 43 -131 105 -131s106 53 106 131c0 77 -44 131 -106 131s-105 -54 -105 -131zM44 504c0 105 70 180 167 180s166 -75 166 -180c0 -106 -69 -180 -166 -180
s-167 74 -167 180zM105 504c0 -78 44 -131 106 -131s105 53 105 131c0 77 -43 131 -105 131s-106 -54 -106 -131zM159 16l504 672l42 -32l-504 -672z" />
    <glyph glyph-name="perthousand" unicode="&#x2030;" horiz-adv-x="1249" 
d="M872 168c0 105 69 180 167 180c97 0 166 -75 166 -180c0 -106 -69 -180 -166 -180c-98 0 -167 74 -167 180zM933 168c0 -78 43 -131 106 -131c62 0 105 53 105 131c0 77 -43 131 -105 131c-63 0 -106 -54 -106 -131zM487 168c0 105 69 180 166 180s167 -75 167 -180
c0 -106 -70 -180 -167 -180s-166 74 -166 180zM548 168c0 -78 43 -131 105 -131s106 53 106 131c0 77 -44 131 -106 131s-105 -54 -105 -131zM44 504c0 105 70 180 167 180s166 -75 166 -180c0 -106 -69 -180 -166 -180s-167 74 -167 180zM105 504c0 -78 44 -131 106 -131
s105 53 105 131c0 77 -43 131 -105 131s-106 -54 -106 -131zM159 16l504 672l42 -32l-504 -672z" />
    <glyph glyph-name="plus" unicode="+" horiz-adv-x="576" 
d="M52 254v68h202v202h68v-202h202v-68h-202v-202h-68v202h-202z" />
    <glyph glyph-name="minus" unicode="&#x2212;" horiz-adv-x="576" 
d="M52 254v68h472v-68h-472z" />
    <glyph glyph-name="multiply" unicode="&#xd7;" horiz-adv-x="576" 
d="M123 75l-48 48l165 165l-165 165l48 48l165 -165l165 165l48 -48l-165 -165l165 -165l-48 -48l-165 165z" />
    <glyph glyph-name="less" unicode="&#x3c;" horiz-adv-x="576" 
d="M52 254v68l451 208l28 -65l-386 -177l386 -177l-28 -65z" />
    <glyph glyph-name="divide" unicode="&#xf7;" horiz-adv-x="576" 
d="M52 257v62h472v-62h-472zM242 480c0 27 19 46 46 46s46 -17 46 -46c0 -27 -19 -46 -46 -46s-46 19 -46 46zM242 96c0 27 19 46 46 46s46 -19 46 -46s-19 -46 -46 -46s-46 19 -46 46z" />
    <glyph glyph-name="equal" unicode="=" horiz-adv-x="576" 
d="M52 361v69h472v-69h-472zM52 146v69h472v-69h-472z" />
    <glyph glyph-name="logicalnot" unicode="&#xac;" horiz-adv-x="576" 
d="M52 254v68h472v-270h-69v202h-403z" />
    <glyph glyph-name="greater" unicode="&#x3e;" horiz-adv-x="576" 
d="M524 322v-68l-451 -208l-28 65l386 177l-386 177l28 65z" />
    <glyph glyph-name="notequal" unicode="&#x2260;" horiz-adv-x="576" 
d="M52 359v68h267l72 144l61 -30l-57 -114h129v-68h-163l-70 -142h233v-68h-267l-72 -144l-61 30l56 114h-128v68h162l71 142h-233z" />
    <glyph glyph-name="approxequal" unicode="&#x2248;" horiz-adv-x="576" 
d="M78 126l-37 57c43 37 91 56 145 56c86 0 126 -48 204 -48c41 0 73 13 108 43l37 -57c-43 -36 -91 -55 -145 -55c-86 0 -126 48 -204 48c-41 0 -73 -13 -108 -44zM78 342l-37 57c43 36 91 55 145 55c86 0 126 -48 204 -48c41 0 73 13 108 44l37 -57
c-43 -37 -91 -56 -145 -56c-86 0 -126 48 -204 48c-41 0 -73 -13 -108 -43z" />
    <glyph glyph-name="plusminus" unicode="&#xb1;" horiz-adv-x="576" 
d="M52 0v68h472v-68h-472zM52 343v68h202v201h68v-201h202v-68h-202v-202h-68v202h-202z" />
    <glyph glyph-name="lessequal" unicode="&#x2264;" horiz-adv-x="576" 
d="M52 0v68h472v-68h-472zM52 343v68l451 208l28 -65l-386 -177l386 -178l-28 -64z" />
    <glyph glyph-name="greaterequal" unicode="&#x2265;" horiz-adv-x="576" 
d="M524 411v-68l-451 -208l-28 64l386 178l-386 177l28 65zM52 0v68h472v-68h-472z" />
    <glyph glyph-name="asciicircum" unicode="^" horiz-adv-x="576" 
d="M254 672h68l208 -456l-65 -25l-177 389l-177 -389l-65 25z" />
    <glyph glyph-name="asciitilde" unicode="~" horiz-adv-x="576" 
d="M78 234l-37 57c43 36 91 55 145 55c86 0 126 -48 204 -48c41 0 73 14 108 44l37 -57c-43 -36 -91 -55 -145 -55c-86 0 -126 48 -204 48c-41 0 -73 -14 -108 -44z" />
    <glyph glyph-name="lozenge" unicode="&#x25ca;" horiz-adv-x="576" 
d="M254 0l-213 336l213 336h68l213 -336l-213 -336h-68zM288 597l-165 -261l165 -263l165 263z" />
    <glyph glyph-name="degree" unicode="&#xb0;" horiz-adv-x="332" 
d="M46 561c0 71 50 120 120 120s120 -49 120 -120c0 -70 -50 -119 -120 -119s-120 49 -120 119zM92 561c0 -43 31 -73 74 -73s73 30 73 73c0 44 -30 74 -73 74s-74 -30 -74 -74z" />
    <glyph glyph-name="quotesingle" unicode="'" horiz-adv-x="215" 
d="M77 451l-7 221h75l-7 -221h-61z" />
    <glyph glyph-name="quotedbl" unicode="&#x22;" horiz-adv-x="404" 
d="M77 451l-7 221h75l-7 -221h-61zM266 451l-7 221h75l-7 -221h-61z" />
    <glyph glyph-name="radical" unicode="&#x221a;" horiz-adv-x="663" 
d="M643 697l-260 -905h-83l-115 338l-162 -52l-21 64l227 73l111 -326l236 825z" />
    <glyph glyph-name="currency" unicode="&#xa4;" horiz-adv-x="576" 
d="M100 100l-48 48l81 81c-22 28 -33 65 -33 107s11 78 32 107l-80 81l48 48l80 -81c29 22 66 33 108 33s78 -11 107 -33l81 81l48 -48l-81 -81c22 -29 33 -65 33 -107s-12 -79 -33 -107l81 -81l-48 -48l-81 81c-29 -21 -65 -33 -107 -33s-79 12 -107 33zM162 336
c0 -74 52 -125 126 -125s126 51 126 125s-52 126 -126 126s-126 -52 -126 -126z" />
    <glyph glyph-name="infinity" unicode="&#x221e;" horiz-adv-x="785" 
d="M36 288c0 111 69 192 173 192c78 0 130 -42 184 -135c54 93 105 135 184 135c103 0 172 -80 172 -192c0 -110 -69 -192 -172 -192c-79 0 -130 42 -184 135c-54 -93 -106 -135 -184 -135c-104 0 -173 80 -173 192zM110 288c0 -75 43 -128 109 -128c59 0 96 42 138 128
c-42 86 -79 128 -138 128c-66 0 -109 -54 -109 -128zM675 288c0 75 -43 128 -108 128c-59 0 -96 -42 -139 -128c43 -86 80 -128 139 -128c65 0 108 54 108 128z" />
    <glyph glyph-name="uni00B5" unicode="&#xb5;" horiz-adv-x="607" 
d="M79 -208v694h79v-306c0 -74 54 -125 128 -125c84 0 147 64 147 157v274h80v-389c0 -27 16 -44 43 -44c9 0 20 2 27 3l7 -63c-16 -3 -35 -5 -53 -5c-57 0 -94 35 -97 89c-35 -57 -93 -88 -156 -88c-55 0 -100 20 -126 59v-256h-79z" />
    <glyph glyph-name="partialdiff" unicode="&#x2202;" 
d="M44 254c0 141 96 244 225 244c77 0 142 -34 179 -97c-8 165 -76 251 -186 251c-40 0 -88 -12 -138 -37l-29 58c59 30 118 43 173 43c165 0 263 -124 263 -400c0 -204 -98 -328 -248 -328c-140 0 -239 109 -239 266zM121 249c0 -115 69 -194 165 -194c95 0 165 89 165 215
c0 91 -68 161 -165 161c-96 0 -165 -74 -165 -182z" />
    <glyph glyph-name="summation" unicode="&#x2211;" horiz-adv-x="630" 
d="M41 -208v50l326 414l-310 398v50h534v-65h-424l280 -363v-40l-296 -379h456v-65h-566z" />
    <glyph glyph-name="product" unicode="&#x220f;" horiz-adv-x="785" 
d="M100 -208v912h586v-912h-83v847h-421v-847h-82z" />
    <glyph glyph-name="integral" unicode="&#x222b;" horiz-adv-x="401" 
d="M170 547c0 -163 143 -412 143 -592c0 -102 -62 -175 -149 -175c-26 0 -53 4 -80 13l16 64c18 -7 35 -10 52 -10c47 0 79 42 79 102c0 163 -142 412 -142 592c0 102 61 175 149 175c25 0 52 -4 80 -13l-16 -64c-18 7 -36 10 -53 10c-46 0 -79 -42 -79 -102z" />
    <glyph glyph-name="litre" unicode="&#x2113;" horiz-adv-x="381" 
d="M355 563c0 -111 -74 -221 -202 -306v-121c0 -49 34 -83 83 -83c22 0 46 4 72 11l11 -63c-33 -9 -64 -13 -94 -13c-85 0 -146 59 -146 142v429c0 94 57 157 141 157c78 0 135 -64 135 -153zM292 553c0 57 -28 97 -69 97c-42 0 -70 -39 -70 -95v-224c88 65 139 142 139 222
z" />
    <glyph glyph-name="estimated" unicode="&#x212e;" horiz-adv-x="960" 
d="M480 16c97 0 184 43 243 112h66c-70 -87 -182 -144 -309 -144c-212 0 -384 158 -384 352s172 352 384 352s384 -158 384 -352c0 -6 0 -11 -1 -16h-623v-196c58 -67 144 -108 240 -108zM240 548v-196h480v196c-59 66 -145 108 -240 108c-96 0 -182 -42 -240 -108z" />
    <glyph glyph-name="numero" unicode="&#x2116;" horiz-adv-x="1176" 
d="M100 0v672h81l409 -558v558h77v-672h-81l-409 558v-558h-77zM809 231v45h325v-45h-325zM804 513c0 100 69 170 167 170s167 -70 167 -170c0 -99 -69 -169 -167 -169s-167 70 -167 169zM866 513c0 -71 44 -120 105 -120c62 0 105 49 105 120c0 72 -43 121 -105 121
c-61 0 -105 -49 -105 -121z" />
    <glyph glyph-name="zero.otab" unicode="&#xe020;" horiz-adv-x="576" 
d="M47 259c0 159 98 271 241 271s241 -112 241 -271s-98 -271 -241 -271s-241 112 -241 271zM121 259c0 -121 69 -206 167 -206s167 85 167 206s-69 205 -167 205s-167 -84 -167 -205z" />
    <glyph glyph-name="one.otab" unicode="&#xe021;" horiz-adv-x="576" 
d="M373 518v-518h-80v438l-139 -81l-31 56l183 105h67z" />
    <glyph glyph-name="two.otab" unicode="&#xe022;" horiz-adv-x="576" 
d="M87 0v51l225 181c49 40 71 77 71 123c0 63 -49 108 -118 108c-46 0 -90 -17 -141 -46l-32 58c64 36 125 55 188 55c107 0 183 -68 183 -168c0 -58 -27 -112 -86 -160l-173 -140h267v-62h-384z" />
    <glyph glyph-name="three.otab" unicode="&#xe023;" horiz-adv-x="576" 
d="M185 165v60h41c95 0 160 50 160 122c0 70 -53 117 -131 117c-52 0 -107 -13 -169 -41l-26 60c73 33 142 47 207 47c117 0 198 -72 198 -175c0 -77 -48 -136 -123 -158c84 -23 139 -89 139 -170c0 -108 -88 -183 -214 -183c-69 0 -146 15 -223 51l26 60
c65 -30 128 -46 184 -46c85 0 146 52 146 126c0 77 -71 130 -174 130h-41z" />
    <glyph glyph-name="four.otab" unicode="&#xe024;" horiz-adv-x="576" 
d="M358 -144v144h-327v52l325 466h76v-456h103v-62h-103v-144h-74zM109 62h249v361z" />
    <glyph glyph-name="five.otab" unicode="&#xe025;" horiz-adv-x="576" 
d="M484 518v-66h-299v-209c34 7 69 10 98 10c139 0 225 -79 225 -203c0 -121 -94 -206 -234 -206c-70 0 -140 22 -203 59l31 60c55 -33 112 -52 166 -52c98 0 161 56 161 141c0 88 -62 143 -169 143c-43 0 -90 -5 -147 -18v341h371z" />
    <glyph glyph-name="six.otab" unicode="&#xe026;" horiz-adv-x="576" 
d="M60 294c0 242 99 380 276 380c54 0 111 -13 164 -41l-27 -58c-45 22 -90 35 -134 35c-129 0 -203 -100 -204 -288c29 63 99 102 181 102c127 0 213 -86 213 -212c0 -129 -96 -224 -225 -224c-151 0 -244 108 -244 306zM143 223c0 -101 66 -171 158 -171
c87 0 154 67 154 157c0 91 -61 153 -152 153c-90 0 -160 -59 -160 -139z" />
    <glyph glyph-name="seven.otab" unicode="&#xe027;" horiz-adv-x="576" 
d="M144 -144l258 596h-329v66h416v-51l-262 -611h-83z" />
    <glyph glyph-name="eight.otab" unicode="&#xe028;" horiz-adv-x="576" 
d="M288 369c82 14 143 55 143 126c0 67 -61 116 -143 116s-143 -49 -143 -116c0 -71 61 -112 143 -126zM52 170c0 82 56 146 155 169c-81 21 -139 81 -139 161c0 102 91 174 220 174s220 -72 220 -174c0 -80 -58 -140 -139 -161c99 -24 155 -87 155 -169
c0 -108 -96 -182 -236 -182s-236 74 -236 182zM288 309c-96 -16 -156 -62 -156 -134c0 -75 64 -125 156 -125s156 50 156 125c0 72 -60 118 -156 134z" />
    <glyph glyph-name="nine.otab" unicode="&#xe029;" horiz-adv-x="576" 
d="M516 224c0 -242 -99 -380 -276 -380c-54 0 -111 13 -164 40l27 59c45 -22 90 -35 134 -35c129 0 203 100 204 288c-29 -63 -99 -102 -181 -102c-127 0 -213 86 -213 212c0 129 96 224 225 224c151 0 244 -109 244 -306zM433 295c0 100 -66 171 -158 171
c-87 0 -154 -68 -154 -157c0 -92 61 -153 152 -153c90 0 160 59 160 139z" />
    <glyph glyph-name="dollar.otab" unicode="&#xe02a;" horiz-adv-x="576" 
d="M254 -160v150c-48 4 -102 17 -154 39l18 60c57 -24 115 -39 164 -39c69 0 116 33 116 86c0 131 -294 59 -294 248c0 77 58 132 150 142v152h68v-151c44 -3 91 -16 137 -35l-18 -60c-51 23 -100 35 -147 35c-68 0 -112 -34 -112 -83c0 -127 294 -53 294 -248
c0 -80 -61 -135 -154 -145v-151h-68z" />
    <glyph glyph-name="cent.otab" unicode="&#xe02b;" horiz-adv-x="576" 
d="M87 259c0 134 80 233 199 250v150h68v-147c51 -3 101 -21 149 -53l-33 -55c-42 29 -84 45 -129 45c-102 0 -173 -78 -173 -190s71 -190 173 -190c45 0 87 16 129 45l33 -55c-48 -32 -98 -50 -149 -53v-147h-68v150c-119 17 -199 116 -199 250z" />
    <glyph glyph-name="Euro.otab" unicode="&#xe02c;" horiz-adv-x="576" 
d="M66 181v46h62c-1 10 -1 21 -1 32c0 14 0 27 1 40h-62v45h72c30 112 116 186 230 186c55 0 107 -15 156 -42l-29 -48c-37 22 -75 33 -117 33c-76 0 -136 -51 -158 -129h205v-45h-221c-3 -13 -3 -26 -3 -40c0 -11 0 -22 1 -32h223v-46h-208c20 -82 81 -137 161 -136
c42 0 80 11 117 33l29 -49c-49 -27 -101 -41 -156 -41c-117 0 -205 77 -231 193h-71z" />
    <glyph glyph-name="sterling.otab" unicode="&#xe02d;" horiz-adv-x="576" 
d="M96 0v60h89v177h-77v56h77v92c0 91 71 155 172 155c42 0 84 -10 128 -25l-18 -56c-34 12 -66 20 -95 20c-64 0 -107 -41 -107 -99v-87h158v-56h-158v-177h227v-60h-396z" />
    <glyph glyph-name="yen.otab" unicode="&#xe02e;" horiz-adv-x="576" 
d="M248 0v99h-143v51h143v73h-143v50h122l-171 245h89l143 -216l143 216h89l-171 -245h122v-50h-143v-73h143v-51h-143v-99h-80z" />
    <glyph glyph-name="zero.lprop" unicode="&#xe010;" horiz-adv-x="652" 
d="M65 336c0 212 104 348 261 348s260 -136 260 -348s-103 -348 -260 -348s-261 136 -261 348zM147 336c0 -175 69 -284 179 -284s179 109 179 284c0 176 -69 284 -179 284s-179 -108 -179 -284z" />
    <glyph glyph-name="one.lprop" unicode="&#xe011;" horiz-adv-x="401" 
d="M214 0v592l-174 -100l-28 56l215 124h67v-672h-80z" />
    <glyph glyph-name="two.lprop" unicode="&#xe012;" horiz-adv-x="518" 
d="M26 0v51l263 263c54 54 82 109 82 163c0 82 -58 139 -143 139c-56 0 -108 -23 -165 -59l-32 60c71 43 142 67 212 67c122 0 207 -81 207 -197c0 -70 -33 -140 -96 -203l-219 -219h323v-65h-432z" />
    <glyph glyph-name="three.lprop" unicode="&#xe013;" horiz-adv-x="518" 
d="M164 314v60h41c95 0 160 52 160 125c0 71 -53 120 -131 120c-52 0 -107 -14 -169 -42l-26 60c73 33 142 47 207 47c117 0 198 -73 198 -178c0 -77 -48 -138 -123 -160c84 -23 139 -90 139 -172c0 -110 -88 -186 -214 -186c-69 0 -146 15 -223 51l26 60
c65 -30 128 -46 184 -46c85 0 146 53 146 128c0 79 -71 133 -174 133h-41z" />
    <glyph glyph-name="four.lprop" unicode="&#xe014;" horiz-adv-x="572" 
d="M356 0v159h-327v55l325 458h76v-451h103v-62h-103v-159h-74zM107 221h249v351z" />
    <glyph glyph-name="five.lprop" unicode="&#xe015;" horiz-adv-x="518" 
d="M447 672v-65h-299v-215c34 7 69 11 98 11c139 0 225 -82 225 -206c0 -122 -94 -209 -234 -209c-70 0 -140 21 -203 59l31 60c55 -34 112 -52 166 -52c98 0 161 57 161 143c0 90 -62 146 -169 146c-43 0 -90 -5 -147 -18v346h371z" />
    <glyph glyph-name="six.lprop" unicode="&#xe016;" horiz-adv-x="588" 
d="M66 297c0 246 99 387 276 387c54 0 111 -13 164 -40l-27 -59c-45 22 -90 35 -134 35c-129 0 -203 -103 -204 -296c29 63 99 105 181 105c127 0 213 -87 213 -215c0 -129 -96 -226 -225 -226c-151 0 -244 110 -244 309zM149 225c0 -101 66 -173 158 -173
c87 0 154 69 154 159c0 93 -61 156 -152 156c-90 0 -160 -62 -160 -142z" />
    <glyph glyph-name="seven.lprop" unicode="&#xe017;" horiz-adv-x="476" 
d="M89 0l263 607h-337v65h424v-51l-267 -621h-83z" />
    <glyph glyph-name="eight.lprop" unicode="&#xe018;" horiz-adv-x="588" 
d="M294 374c82 14 143 57 143 129c0 68 -61 119 -143 119s-143 -51 -143 -119c0 -72 61 -115 143 -129zM58 173c0 83 56 148 155 171c-81 21 -139 82 -139 163c0 104 91 177 220 177s220 -73 220 -177c0 -81 -58 -142 -139 -163c99 -23 155 -88 155 -171
c0 -110 -96 -185 -236 -185s-236 75 -236 185zM294 314c-96 -15 -156 -63 -156 -137c0 -75 64 -127 156 -127s156 52 156 127c0 74 -60 122 -156 137z" />
    <glyph glyph-name="nine.lprop" unicode="&#xe019;" horiz-adv-x="588" 
d="M522 375c0 -246 -99 -387 -276 -387c-54 0 -111 13 -164 40l27 59c45 -22 90 -35 134 -35c129 0 203 103 204 296c-29 -63 -99 -105 -181 -105c-127 0 -213 87 -213 215c0 129 96 226 225 226c151 0 244 -110 244 -309zM439 447c0 101 -66 173 -158 173
c-87 0 -154 -69 -154 -159c0 -93 61 -156 152 -156c90 0 160 62 160 142z" />
    <glyph glyph-name="dollar.lprop" unicode="&#xe01a;" horiz-adv-x="511" 
d="M221 -128v166c-54 3 -112 17 -174 43l19 63c66 -27 130 -43 183 -43c81 0 133 37 133 97c0 149 -331 65 -331 280c0 85 67 144 170 155v167h68v-166c48 -4 99 -18 154 -39l-19 -64c-60 25 -114 40 -163 40c-79 0 -129 -38 -129 -93c0 -145 331 -59 331 -280
c0 -88 -68 -149 -174 -159v-167h-68z" />
    <glyph glyph-name="cent.lprop" unicode="&#xe01b;" horiz-adv-x="540" 
d="M69 336c0 134 80 233 199 250v150h68v-147c51 -3 101 -21 149 -53l-33 -55c-42 29 -84 45 -129 45c-102 0 -173 -78 -173 -190s71 -190 173 -190c45 0 87 16 129 45l33 -55c-48 -32 -98 -50 -149 -53v-147h-68v150c-119 17 -199 116 -199 250z" />
    <glyph glyph-name="Euro.lprop" unicode="&#xe01c;" horiz-adv-x="566" 
d="M29 247v50h70c-1 13 -1 25 -1 39c0 19 0 37 2 55h-71v50h81c33 149 136 243 269 243c62 0 121 -16 175 -47l-31 -55c-42 24 -86 38 -135 38c-97 0 -172 -71 -197 -179h245v-50h-259c-2 -18 -2 -36 -2 -55c0 -14 0 -26 1 -39h260v-50h-249c22 -118 98 -195 201 -195
c49 0 93 14 135 38l31 -55c-54 -31 -113 -47 -175 -47c-137 0 -242 101 -273 259h-77z" />
    <glyph glyph-name="sterling.lprop" unicode="&#xe01d;" horiz-adv-x="566" 
d="M63 0v64h101v249h-85v62h85v125c0 109 82 184 199 184c46 0 95 -10 148 -31l-21 -60c-38 16 -77 24 -112 24c-78 0 -131 -50 -131 -123v-119h187v-62h-187v-249h272v-64h-456z" />
    <glyph glyph-name="yen.lprop" unicode="&#xe01e;" 
d="M251 0v152h-163v57h163v93h-163v57h141l-201 313h88l176 -285l176 285h88l-201 -313h141v-57h-163v-93h163v-57h-163v-152h-82z" />
    <glyph glyph-name="zero.oprop" unicode="&#xe030;" horiz-adv-x="609" 
d="M57 259c0 159 102 271 248 271s247 -112 247 -271s-101 -271 -247 -271s-248 112 -248 271zM136 259c0 -121 69 -206 169 -206c99 0 169 85 169 206s-70 205 -169 205c-100 0 -169 -84 -169 -205z" />
    <glyph glyph-name="one.oprop" unicode="&#xe031;" horiz-adv-x="391" 
d="M281 518v-518h-80v438l-139 -81l-31 56l183 105h67z" />
    <glyph glyph-name="two.oprop" unicode="&#xe032;" horiz-adv-x="486" 
d="M42 0v51l225 181c49 40 71 77 71 123c0 63 -49 108 -118 108c-46 0 -90 -17 -141 -46l-32 58c64 36 125 55 188 55c107 0 183 -68 183 -168c0 -58 -27 -112 -86 -160l-173 -140h267v-62h-384z" />
    <glyph glyph-name="three.oprop" unicode="&#xe033;" horiz-adv-x="502" 
d="M148 165v60h41c95 0 160 50 160 122c0 70 -53 117 -131 117c-52 0 -107 -13 -169 -41l-26 60c73 33 142 47 207 47c117 0 198 -72 198 -175c0 -77 -48 -136 -123 -158c84 -23 139 -89 139 -170c0 -108 -88 -183 -214 -183c-69 0 -146 15 -223 51l26 60
c65 -30 128 -46 184 -46c85 0 146 52 146 126c0 77 -71 130 -174 130h-41z" />
    <glyph glyph-name="four.oprop" unicode="&#xe034;" horiz-adv-x="556" 
d="M348 -144v144h-327v52l325 466h76v-456h103v-62h-103v-144h-74zM99 62h249v361z" />
    <glyph glyph-name="five.oprop" unicode="&#xe035;" horiz-adv-x="518" 
d="M455 518v-66h-299v-209c34 7 69 10 98 10c139 0 225 -79 225 -203c0 -121 -94 -206 -234 -206c-70 0 -140 22 -203 59l31 60c55 -33 112 -52 166 -52c98 0 161 56 161 141c0 88 -62 143 -169 143c-43 0 -90 -5 -147 -18v341h371z" />
    <glyph glyph-name="six.oprop" unicode="&#xe036;" horiz-adv-x="588" 
d="M66 294c0 242 99 380 276 380c54 0 111 -13 164 -41l-27 -58c-45 22 -90 35 -134 35c-129 0 -203 -100 -204 -288c29 63 99 102 181 102c127 0 213 -86 213 -212c0 -129 -96 -224 -225 -224c-151 0 -244 108 -244 306zM149 223c0 -101 66 -171 158 -171
c87 0 154 67 154 157c0 91 -61 153 -152 153c-90 0 -160 -59 -160 -139z" />
    <glyph glyph-name="seven.oprop" unicode="&#xe037;" horiz-adv-x="476" 
d="M94 -144l258 596h-329v66h416v-51l-262 -611h-83z" />
    <glyph glyph-name="eight.oprop" unicode="&#xe038;" horiz-adv-x="588" 
d="M294 369c82 14 143 55 143 126c0 67 -61 116 -143 116s-143 -49 -143 -116c0 -71 61 -112 143 -126zM58 170c0 82 56 146 155 169c-81 21 -139 81 -139 161c0 102 91 174 220 174s220 -72 220 -174c0 -80 -58 -140 -139 -161c99 -24 155 -87 155 -169
c0 -108 -96 -182 -236 -182s-236 74 -236 182zM294 309c-96 -16 -156 -62 -156 -134c0 -75 64 -125 156 -125s156 50 156 125c0 72 -60 118 -156 134z" />
    <glyph glyph-name="nine.oprop" unicode="&#xe039;" horiz-adv-x="588" 
d="M522 224c0 -242 -99 -380 -276 -380c-54 0 -111 13 -164 40l27 59c45 -22 90 -35 134 -35c129 0 203 100 204 288c-29 -63 -99 -102 -181 -102c-127 0 -213 86 -213 212c0 129 96 224 225 224c151 0 244 -109 244 -306zM439 295c0 100 -66 171 -158 171
c-87 0 -154 -68 -154 -157c0 -92 61 -153 152 -153c90 0 160 59 160 139z" />
    <glyph glyph-name="dollar.oprop" unicode="&#xe03a;" horiz-adv-x="487" 
d="M209 -160v150c-48 4 -102 17 -154 39l18 60c57 -24 115 -39 164 -39c69 0 116 33 116 86c0 131 -294 59 -294 248c0 77 58 132 150 142v152h68v-151c44 -3 91 -16 137 -35l-18 -60c-51 23 -100 35 -147 35c-68 0 -112 -34 -112 -83c0 -127 294 -53 294 -248
c0 -80 -61 -135 -154 -145v-151h-68z" />
    <glyph glyph-name="cent.oprop" unicode="&#xe03b;" horiz-adv-x="508" 
d="M53 259c0 134 80 233 199 250v150h68v-147c51 -3 101 -21 149 -53l-33 -55c-42 29 -84 45 -129 45c-102 0 -173 -78 -173 -190s71 -190 173 -190c45 0 87 16 129 45l33 -55c-48 -32 -98 -50 -149 -53v-147h-68v150c-119 17 -199 116 -199 250z" />
    <glyph glyph-name="Euro.oprop" unicode="&#xe03c;" horiz-adv-x="518" 
d="M37 181v46h62c-1 10 -1 21 -1 32c0 14 0 27 1 40h-62v45h72c30 112 116 186 230 186c55 0 107 -15 156 -42l-29 -48c-37 22 -75 33 -117 33c-76 0 -136 -51 -158 -129h205v-45h-221c-3 -13 -3 -26 -3 -40c0 -11 0 -22 1 -32h223v-46h-208c20 -82 81 -137 161 -136
c42 0 80 11 117 33l29 -49c-49 -27 -101 -41 -156 -41c-117 0 -205 77 -231 193h-71z" />
    <glyph glyph-name="sterling.oprop" unicode="&#xe03d;" horiz-adv-x="476" 
d="M46 0v60h89v177h-77v56h77v92c0 91 71 155 172 155c42 0 84 -10 128 -25l-18 -56c-34 12 -66 20 -95 20c-64 0 -107 -41 -107 -99v-87h158v-56h-158v-177h227v-60h-396z" />
    <glyph glyph-name="yen.oprop" unicode="&#xe03e;" horiz-adv-x="497" 
d="M209 0v99h-143v51h143v73h-143v50h122l-171 245h89l143 -216l143 216h89l-171 -245h122v-50h-143v-73h143v-51h-143v-99h-80z" />
    <glyph glyph-name="a.sup" unicode="&#xe120;" horiz-adv-x="384" 
d="M37 346c0 66 58 105 149 105c23 0 47 -3 70 -8v27c0 43 -30 71 -77 71c-33 0 -68 -7 -107 -24l-16 43c46 18 88 27 128 27c77 0 129 -47 129 -119v-146c0 -16 10 -26 26 -26c7 0 15 1 19 2l5 -47c-11 -2 -25 -3 -38 -3c-33 0 -59 20 -65 50c-25 -32 -64 -50 -109 -50
c-65 0 -114 42 -114 98zM96 349c0 -33 29 -57 69 -57c53 0 91 36 91 87v28c-21 5 -43 8 -64 8c-60 0 -96 -24 -96 -66z" />
    <glyph glyph-name="b.sup" unicode="&#xe121;" horiz-adv-x="409" 
d="M60 256v464h61v-186c20 34 57 53 104 53c86 0 147 -70 147 -170c0 -99 -61 -169 -147 -169c-49 0 -87 21 -109 57l-6 -49h-50zM309 417c0 71 -41 120 -98 120c-54 0 -91 -39 -91 -95v-49c0 -56 37 -95 91 -95c57 0 98 49 98 119z" />
    <glyph glyph-name="c.sup" unicode="&#xe122;" horiz-adv-x="349" 
d="M37 417c0 100 70 170 167 170c37 0 77 -13 115 -37l-27 -42c-26 18 -54 29 -82 29c-65 0 -111 -50 -111 -120s46 -119 111 -119c28 0 56 11 82 29l27 -42c-38 -24 -78 -37 -115 -37c-97 0 -167 70 -167 169z" />
    <glyph glyph-name="d.sup" unicode="&#xe123;" horiz-adv-x="409" 
d="M350 720v-464h-51l-6 49c-22 -36 -60 -57 -109 -57c-86 0 -147 70 -147 169c0 100 61 170 147 170c47 0 84 -19 105 -53v186h61zM100 417c0 -70 41 -119 98 -119c54 0 92 39 92 95v49c0 56 -38 95 -92 95c-57 0 -98 -49 -98 -120z" />
    <glyph glyph-name="e.sup" unicode="&#xe124;" horiz-adv-x="379" 
d="M37 417c0 100 69 170 161 170c87 0 150 -68 150 -164c0 -7 -1 -15 -1 -22h-249c5 -65 50 -107 113 -107c28 0 63 9 96 28l24 -38c-42 -24 -85 -36 -124 -36c-99 0 -170 70 -170 169zM197 541c-53 0 -92 -40 -99 -101h191c-3 61 -40 101 -92 101z" />
    <glyph glyph-name="f.sup" unicode="&#xe125;" horiz-adv-x="268" 
d="M92 256v274h-66v49h66v54c0 56 41 95 99 95c22 0 45 -3 68 -9l-9 -48c-14 4 -31 7 -46 7c-30 0 -51 -21 -51 -50v-49h87v-49h-87v-274h-61z" />
    <glyph glyph-name="g.sup" unicode="&#xe126;" horiz-adv-x="409" 
d="M350 579v-322c0 -86 -68 -145 -164 -145c-39 0 -83 8 -130 29l19 45c40 -17 79 -26 106 -26c64 0 108 37 108 91v50c-21 -34 -58 -53 -105 -53c-86 0 -147 70 -147 169c0 100 61 170 147 170c49 0 87 -21 109 -57l6 49h51zM100 417c0 -70 41 -119 98 -119
c54 0 92 39 92 95v49c0 56 -38 95 -92 95c-57 0 -98 -49 -98 -120z" />
    <glyph glyph-name="h.sup" unicode="&#xe127;" horiz-adv-x="409" 
d="M60 256v464h61v-192c21 37 62 59 110 59c73 0 125 -51 125 -123v-208h-61v200c0 46 -34 79 -81 79c-55 0 -93 -40 -93 -98v-181h-61z" />
    <glyph glyph-name="i.sup" unicode="&#xe128;" horiz-adv-x="180" 
d="M60 256v323h61v-323h-61zM51 676c0 23 16 39 39 39s39 -16 39 -39s-16 -39 -39 -39s-39 16 -39 39z" />
    <glyph glyph-name="j.sup" unicode="&#xe129;" horiz-adv-x="186" 
d="M127 579v-372c0 -56 -42 -95 -100 -95c-22 0 -45 3 -68 9l9 48c15 -4 31 -7 46 -7c30 0 52 21 52 50v367h61zM57 676c0 23 16 39 39 39s39 -16 39 -39s-16 -39 -39 -39s-39 16 -39 39z" />
    <glyph glyph-name="k.sup" unicode="&#xe12a;" horiz-adv-x="362" 
d="M60 256v464h58v-295l146 154h72l-144 -151l149 -172h-72l-118 135l-33 -32v-103h-58z" />
    <glyph glyph-name="l.sup" unicode="&#xe12b;" horiz-adv-x="212" 
d="M121 720v-385c0 -21 15 -36 38 -36c9 0 21 1 32 4l7 -49c-17 -3 -35 -6 -53 -6c-50 0 -85 33 -85 82v390h61z" />
    <glyph glyph-name="m.sup" unicode="&#xe12c;" horiz-adv-x="622" 
d="M60 256v323h50l6 -50c23 38 63 58 111 58s87 -26 104 -66c25 41 68 66 118 66c70 0 120 -49 120 -117v-214h-62v205c0 44 -30 75 -74 75c-52 0 -88 -39 -88 -94v-186h-61v205c0 44 -31 75 -75 75c-51 0 -88 -39 -88 -94v-186h-61z" />
    <glyph glyph-name="n.sup" unicode="&#xe12d;" horiz-adv-x="409" 
d="M60 256v323h50l6 -55c24 40 65 63 115 63c73 0 125 -51 125 -123v-208h-61v200c0 46 -34 79 -81 79c-55 0 -93 -40 -93 -98v-181h-61z" />
    <glyph glyph-name="o.sup" unicode="&#xe12e;" horiz-adv-x="409" 
d="M37 417c0 100 70 170 168 170c97 0 167 -70 167 -170c0 -99 -70 -169 -167 -169c-98 0 -168 70 -168 169zM100 417c0 -71 43 -120 105 -120c61 0 104 49 104 120c0 72 -43 121 -104 121c-62 0 -105 -49 -105 -121z" />
    <glyph glyph-name="p.sup" unicode="&#xe12f;" horiz-adv-x="409" 
d="M60 120v459h50l6 -49c22 36 60 57 109 57c86 0 147 -70 147 -170c0 -99 -61 -169 -147 -169c-47 0 -84 19 -104 53v-181h-61zM309 417c0 71 -41 120 -98 120c-54 0 -91 -39 -91 -95v-49c0 -56 37 -95 91 -95c57 0 98 49 98 119z" />
    <glyph glyph-name="q.sup" unicode="&#xe130;" horiz-adv-x="409" 
d="M350 579v-459h-61v181c-21 -34 -58 -53 -105 -53c-86 0 -147 70 -147 169c0 100 61 170 147 170c49 0 87 -21 109 -57l6 49h51zM100 417c0 -70 41 -119 98 -119c54 0 92 39 92 95v49c0 56 -38 95 -92 95c-57 0 -98 -49 -98 -120z" />
    <glyph glyph-name="r.sup" unicode="&#xe131;" horiz-adv-x="278" 
d="M60 256v323h50l6 -56c18 38 55 61 100 61c12 0 27 -2 40 -5l-7 -51c-11 3 -25 5 -38 5c-55 0 -90 -43 -90 -106v-171h-61z" />
    <glyph glyph-name="s.sup" unicode="&#xe132;" horiz-adv-x="320" 
d="M40 495c0 55 50 92 120 92c34 0 70 -8 110 -23l-14 -44c-33 12 -64 20 -92 20c-39 0 -64 -17 -64 -45c0 -74 182 -28 182 -152c0 -56 -51 -95 -122 -95c-37 0 -78 8 -122 25l14 44c37 -15 73 -23 103 -23c41 0 67 20 67 49c0 77 -182 31 -182 152z" />
    <glyph glyph-name="t.sup" unicode="&#xe133;" horiz-adv-x="288" 
d="M153 675v-96h97v-49h-97v-182c0 -29 21 -50 51 -50c15 0 32 3 46 7l9 -48c-23 -6 -46 -9 -68 -9c-58 0 -99 39 -99 95v187h-66v49h66v96h61z" />
    <glyph glyph-name="u.sup" unicode="&#xe134;" horiz-adv-x="409" 
d="M350 579v-323h-51l-6 55c-23 -40 -65 -63 -114 -63c-74 0 -125 51 -125 123v208h61v-200c0 -47 33 -79 80 -79c55 0 94 40 94 98v181h61z" />
    <glyph glyph-name="v.sup" unicode="&#xe135;" horiz-adv-x="368" 
d="M345 579l-133 -323h-56l-133 323h64l97 -252l96 252h65z" />
    <glyph glyph-name="w.sup" unicode="&#xe136;" horiz-adv-x="537" 
d="M508 579l-105 -323h-60l-74 251l-75 -251h-60l-105 323h61l75 -251l75 251h57l75 -251l75 251h61z" />
    <glyph glyph-name="x.sup" unicode="&#xe137;" horiz-adv-x="368" 
d="M23 256l121 165l-115 158h69l86 -119l86 119h68l-114 -158l120 -165h-69l-91 127l-91 -127h-70z" />
    <glyph glyph-name="y.sup" unicode="&#xe138;" horiz-adv-x="368" 
d="M345 579l-148 -367c-27 -69 -62 -100 -117 -100c-13 0 -30 2 -46 5l9 49c11 -3 23 -5 31 -5c32 0 50 18 67 61l16 37l-134 320h64l99 -252l94 252h65z" />
    <glyph glyph-name="z.sup" unicode="&#xe139;" horiz-adv-x="341" 
d="M38 256v35l179 239h-174v49h255v-35l-179 -239h184v-49h-265z" />
    <glyph glyph-name="ordfeminine" unicode="&#xaa;" horiz-adv-x="384" 
d="M26 231v45h331v-45h-331zM37 442c0 66 58 105 149 105c23 0 47 -3 70 -8v27c0 43 -30 71 -77 71c-33 0 -68 -7 -107 -24l-16 43c46 18 88 27 128 27c77 0 129 -47 129 -119v-146c0 -16 10 -26 26 -26c7 0 15 1 19 2l5 -47c-11 -2 -25 -3 -38 -3c-33 0 -59 20 -65 50
c-25 -32 -64 -50 -109 -50c-65 0 -114 42 -114 98zM96 445c0 -33 29 -57 69 -57c53 0 91 36 91 87v28c-21 5 -43 8 -64 8c-60 0 -96 -24 -96 -66z" />
    <glyph glyph-name="ordmasculine" unicode="&#xba;" horiz-adv-x="409" 
d="M42 231v45h325v-45h-325zM37 513c0 100 70 170 168 170c97 0 167 -70 167 -170c0 -99 -70 -169 -167 -169c-98 0 -168 70 -168 169zM100 513c0 -71 43 -120 105 -120c61 0 104 49 104 120c0 72 -43 121 -104 121c-62 0 -105 -49 -105 -121z" />
    <glyph glyph-name="zero.sup" unicode="&#x2070;" horiz-adv-x="426" 
d="M49 592c0 131 64 215 164 215s164 -84 164 -215s-65 -215 -164 -215s-164 84 -164 215zM110 592c0 -104 39 -167 103 -167s103 63 103 167s-39 167 -103 167s-103 -63 -103 -167z" />
    <glyph glyph-name="onesuperior" unicode="&#xb9;" horiz-adv-x="272" 
d="M198 800v-416h-60v355l-102 -58l-23 42l135 77h50z" />
    <glyph glyph-name="twosuperior" unicode="&#xb2;" horiz-adv-x="342" 
d="M24 384v39l159 158c31 32 48 63 48 95c0 47 -32 80 -81 80c-34 0 -67 -13 -101 -35l-24 45c45 28 91 42 135 42c77 0 130 -52 130 -124c0 -44 -19 -85 -58 -125l-125 -126h189v-49h-272z" />
    <glyph glyph-name="threesuperior" unicode="&#xb3;" horiz-adv-x="342" 
d="M109 576v42h28c54 0 91 30 91 73c0 40 -30 68 -75 68c-31 0 -65 -7 -103 -26l-20 45c47 22 91 30 132 30c75 0 127 -46 127 -112c0 -46 -28 -83 -71 -97c48 -16 81 -56 81 -106c0 -69 -57 -117 -137 -117c-44 0 -91 9 -139 33l20 44c39 -20 75 -28 108 -28
c52 0 86 30 86 73c0 46 -41 78 -100 78h-28z" />
    <glyph glyph-name="four.sup" unicode="&#x2074;" horiz-adv-x="376" 
d="M228 384v94h-201v43l198 279h58v-276h61v-46h-61v-94h-55zM84 524h144v205z" />
    <glyph glyph-name="five.sup" unicode="&#x2075;" horiz-adv-x="342" 
d="M289 800v-48h-181v-121c21 4 41 5 57 5c84 0 139 -50 139 -128c0 -77 -60 -132 -147 -132c-46 0 -89 14 -129 38l24 43c32 -20 67 -32 99 -32c57 0 94 34 94 84c0 51 -36 84 -98 84c-28 0 -58 -4 -93 -12v219h235z" />
    <glyph glyph-name="six.sup" unicode="&#x2076;" horiz-adv-x="386" 
d="M49 570c0 148 64 238 174 238c34 0 69 -8 104 -26l-20 -43c-27 13 -55 21 -81 21c-77 0 -117 -60 -120 -166c20 36 60 59 106 59c78 0 134 -54 134 -135c0 -83 -64 -142 -144 -142c-95 0 -153 69 -153 194zM110 523c0 -55 34 -99 91 -99c49 0 90 37 90 91
c0 56 -36 91 -89 91c-51 0 -92 -37 -92 -83z" />
    <glyph glyph-name="seven.sup" unicode="&#x2077;" horiz-adv-x="317" 
d="M61 384l159 367h-202v49h268v-39l-162 -377h-63z" />
    <glyph glyph-name="eight.sup" unicode="&#x2078;" horiz-adv-x="386" 
d="M193 618c49 8 85 34 85 75s-36 70 -85 70s-85 -30 -85 -70c0 -41 36 -67 85 -75zM43 493c0 50 31 89 91 104c-49 13 -81 51 -81 99c0 66 57 112 140 112s140 -46 140 -112c0 -48 -31 -86 -79 -99c58 -14 89 -54 89 -104c0 -70 -60 -117 -150 -117c-89 0 -150 47 -150 117
zM193 576c-57 -9 -94 -37 -94 -79c0 -46 39 -76 94 -76s93 30 93 76c0 42 -36 70 -93 79z" />
    <glyph glyph-name="nine.sup" unicode="&#x2079;" horiz-adv-x="386" 
d="M337 614c0 -148 -64 -238 -174 -238c-34 0 -69 8 -104 26l20 43c27 -13 55 -21 81 -21c77 0 117 60 120 166c-20 -36 -60 -59 -106 -59c-78 0 -134 54 -134 135c0 83 64 142 144 142c95 0 153 -69 153 -194zM276 661c0 55 -34 99 -91 99c-49 0 -90 -37 -90 -91
c0 -56 36 -91 89 -91c51 0 92 37 92 83z" />
    <glyph glyph-name="plus.sup" unicode="&#x207a;" horiz-adv-x="376" 
d="M41 567v50h122v122h50v-122h122v-50h-122v-122h-50v122h-122z" />
    <glyph glyph-name="minus.sup" unicode="&#x207b;" horiz-adv-x="376" 
d="M41 567v50h294v-50h-294z" />
    <glyph glyph-name="equal.sup" unicode="&#x207c;" horiz-adv-x="376" 
d="M41 639v51h294v-51h-294zM41 494v51h294v-51h-294z" />
    <glyph glyph-name="parenleft.sup" unicode="&#x207d;" horiz-adv-x="232" 
d="M162 869l43 -30c-64 -68 -93 -155 -93 -247s29 -178 93 -247l-43 -29c-70 75 -106 172 -106 276s36 202 106 277z" />
    <glyph glyph-name="parenright.sup" unicode="&#x207e;" horiz-adv-x="232" 
d="M69 316l-42 29c63 69 92 156 92 248c0 91 -29 178 -92 246l42 30c71 -75 106 -172 106 -276s-35 -202 -106 -277z" />
    <glyph glyph-name="period.sup" unicode="&#xe060;" horiz-adv-x="177" 
d="M48 418c0 24 17 41 41 41c23 0 40 -17 40 -41c0 -23 -16 -41 -40 -41s-41 18 -41 41z" />
    <glyph glyph-name="comma.sup" unicode="&#xe061;" horiz-adv-x="177" 
d="M48 418c0 24 17 41 41 41c26 0 43 -21 43 -53c0 -51 -26 -91 -73 -121l-20 27c26 18 44 42 46 69c-20 0 -37 16 -37 37z" />
    <glyph glyph-name="zero.sub" unicode="&#x2080;" horiz-adv-x="426" 
d="M49 80c0 131 64 215 164 215s164 -84 164 -215s-65 -215 -164 -215s-164 84 -164 215zM110 80c0 -104 39 -167 103 -167s103 63 103 167s-39 167 -103 167s-103 -63 -103 -167z" />
    <glyph glyph-name="one.sub" unicode="&#x2081;" horiz-adv-x="272" 
d="M198 288v-416h-60v355l-102 -58l-23 42l135 77h50z" />
    <glyph glyph-name="two.sub" unicode="&#x2082;" horiz-adv-x="342" 
d="M24 -128v39l159 158c31 32 48 63 48 95c0 47 -32 80 -81 80c-34 0 -67 -13 -101 -35l-24 45c45 28 91 42 135 42c77 0 130 -52 130 -124c0 -44 -19 -85 -58 -125l-125 -126h189v-49h-272z" />
    <glyph glyph-name="three.sub" unicode="&#x2083;" horiz-adv-x="342" 
d="M109 64v42h28c54 0 91 30 91 73c0 40 -30 68 -75 68c-31 0 -65 -7 -103 -26l-20 45c47 22 91 30 132 30c75 0 127 -46 127 -112c0 -46 -28 -83 -71 -97c48 -16 81 -56 81 -106c0 -69 -57 -117 -137 -117c-44 0 -91 9 -139 33l20 44c39 -20 75 -28 108 -28
c52 0 86 30 86 73c0 46 -41 78 -100 78h-28z" />
    <glyph glyph-name="four.sub" unicode="&#x2084;" horiz-adv-x="376" 
d="M228 -128v94h-201v43l198 279h58v-276h61v-46h-61v-94h-55zM84 12h144v205z" />
    <glyph glyph-name="five.sub" unicode="&#x2085;" horiz-adv-x="342" 
d="M289 288v-48h-181v-121c21 4 41 5 57 5c84 0 139 -50 139 -128c0 -77 -60 -132 -147 -132c-46 0 -89 14 -129 38l24 43c32 -20 67 -32 99 -32c57 0 94 34 94 84c0 51 -36 84 -98 84c-28 0 -58 -4 -93 -12v219h235z" />
    <glyph glyph-name="six.sub" unicode="&#x2086;" horiz-adv-x="386" 
d="M49 58c0 148 64 238 174 238c34 0 69 -8 104 -26l-20 -43c-27 13 -55 21 -81 21c-77 0 -117 -60 -120 -166c20 36 60 59 106 59c78 0 134 -54 134 -135c0 -83 -64 -142 -144 -142c-95 0 -153 69 -153 194zM110 11c0 -55 34 -99 91 -99c49 0 90 37 90 91
c0 56 -36 91 -89 91c-51 0 -92 -37 -92 -83z" />
    <glyph glyph-name="seven.sub" unicode="&#x2087;" horiz-adv-x="317" 
d="M61 -128l159 367h-202v49h268v-39l-162 -377h-63z" />
    <glyph glyph-name="eight.sub" unicode="&#x2088;" horiz-adv-x="386" 
d="M193 106c49 8 85 34 85 75s-36 70 -85 70s-85 -30 -85 -70c0 -41 36 -67 85 -75zM43 -19c0 50 31 89 91 104c-49 13 -81 51 -81 99c0 66 57 112 140 112s140 -46 140 -112c0 -48 -31 -86 -79 -99c58 -14 89 -54 89 -104c0 -70 -60 -117 -150 -117c-89 0 -150 47 -150 117
zM193 64c-57 -9 -94 -37 -94 -79c0 -46 39 -76 94 -76s93 30 93 76c0 42 -36 70 -93 79z" />
    <glyph glyph-name="nine.sub" unicode="&#x2089;" horiz-adv-x="386" 
d="M337 102c0 -148 -64 -238 -174 -238c-34 0 -69 8 -104 26l20 43c27 -13 55 -21 81 -21c77 0 117 60 120 166c-20 -36 -60 -59 -106 -59c-78 0 -134 54 -134 135c0 83 64 142 144 142c95 0 153 -69 153 -194zM276 149c0 55 -34 99 -91 99c-49 0 -90 -37 -90 -91
c0 -56 36 -91 89 -91c51 0 92 37 92 83z" />
    <glyph glyph-name="plus.sub" unicode="&#x208a;" horiz-adv-x="376" 
d="M41 55v50h122v122h50v-122h122v-50h-122v-122h-50v122h-122z" />
    <glyph glyph-name="minus.sub" unicode="&#x208b;" horiz-adv-x="376" 
d="M41 55v50h294v-50h-294z" />
    <glyph glyph-name="equal.sub" unicode="&#x208c;" horiz-adv-x="376" 
d="M41 127v51h294v-51h-294zM41 -18v51h294v-51h-294z" />
    <glyph glyph-name="parenleft.sub" unicode="&#x208d;" horiz-adv-x="232" 
d="M162 357l43 -30c-64 -68 -93 -155 -93 -247s29 -178 93 -247l-43 -29c-70 75 -106 172 -106 276s36 202 106 277z" />
    <glyph glyph-name="parenright.sub" unicode="&#x208e;" horiz-adv-x="232" 
d="M69 -196l-42 29c63 69 92 156 92 248c0 91 -29 178 -92 246l42 30c71 -75 106 -172 106 -276s-35 -202 -106 -277z" />
    <glyph glyph-name="period.sub" unicode="&#xe062;" horiz-adv-x="177" 
d="M48 -94c0 24 17 41 41 41c23 0 40 -17 40 -41c0 -23 -16 -41 -40 -41s-41 18 -41 41z" />
    <glyph glyph-name="comma.sub" unicode="&#xe063;" horiz-adv-x="177" 
d="M48 -94c0 24 17 41 41 41c26 0 43 -21 43 -53c0 -51 -26 -91 -73 -121l-20 27c26 18 44 42 46 69c-20 0 -37 16 -37 37z" />
    <glyph glyph-name="zero.num" unicode="&#xe040;" horiz-adv-x="426" 
d="M49 464c0 131 64 215 164 215s164 -84 164 -215s-65 -215 -164 -215s-164 84 -164 215zM110 464c0 -104 39 -167 103 -167s103 63 103 167s-39 167 -103 167s-103 -63 -103 -167z" />
    <glyph glyph-name="one.num" unicode="&#xe041;" horiz-adv-x="272" 
d="M198 672v-416h-60v355l-102 -58l-23 42l135 77h50z" />
    <glyph glyph-name="two.num" unicode="&#xe042;" horiz-adv-x="342" 
d="M24 256v39l159 158c31 32 48 63 48 95c0 47 -32 80 -81 80c-34 0 -67 -13 -101 -35l-24 45c45 28 91 42 135 42c77 0 130 -52 130 -124c0 -44 -19 -85 -58 -125l-125 -126h189v-49h-272z" />
    <glyph glyph-name="three.num" unicode="&#xe043;" horiz-adv-x="342" 
d="M109 448v42h28c54 0 91 30 91 73c0 40 -30 68 -75 68c-31 0 -65 -7 -103 -26l-20 45c47 22 91 30 132 30c75 0 127 -46 127 -112c0 -46 -28 -83 -71 -97c48 -16 81 -56 81 -106c0 -69 -57 -117 -137 -117c-44 0 -91 9 -139 33l20 44c39 -20 75 -28 108 -28
c52 0 86 30 86 73c0 46 -41 78 -100 78h-28z" />
    <glyph glyph-name="four.num" unicode="&#xe044;" horiz-adv-x="376" 
d="M228 256v94h-201v43l198 279h58v-276h61v-46h-61v-94h-55zM84 396h144v205z" />
    <glyph glyph-name="five.num" unicode="&#xe045;" horiz-adv-x="342" 
d="M289 672v-48h-181v-121c21 4 41 5 57 5c84 0 139 -50 139 -128c0 -77 -60 -132 -147 -132c-46 0 -89 14 -129 38l24 43c32 -20 67 -32 99 -32c57 0 94 34 94 84c0 51 -36 84 -98 84c-28 0 -58 -4 -93 -12v219h235z" />
    <glyph glyph-name="six.num" unicode="&#xe046;" horiz-adv-x="386" 
d="M49 442c0 148 64 238 174 238c34 0 69 -8 104 -26l-20 -43c-27 13 -55 21 -81 21c-77 0 -117 -60 -120 -166c20 36 60 59 106 59c78 0 134 -54 134 -135c0 -83 -64 -142 -144 -142c-95 0 -153 69 -153 194zM110 395c0 -55 34 -99 91 -99c49 0 90 37 90 91
c0 56 -36 91 -89 91c-51 0 -92 -37 -92 -83z" />
    <glyph glyph-name="seven.num" unicode="&#xe047;" horiz-adv-x="317" 
d="M61 256l159 367h-202v49h268v-39l-162 -377h-63z" />
    <glyph glyph-name="eight.num" unicode="&#xe048;" horiz-adv-x="386" 
d="M193 490c49 8 85 34 85 75s-36 70 -85 70s-85 -30 -85 -70c0 -41 36 -67 85 -75zM43 365c0 50 31 89 91 104c-49 13 -81 51 -81 99c0 66 57 112 140 112s140 -46 140 -112c0 -48 -31 -86 -79 -99c58 -14 89 -54 89 -104c0 -70 -60 -117 -150 -117c-89 0 -150 47 -150 117
zM193 448c-57 -9 -94 -37 -94 -79c0 -46 39 -76 94 -76s93 30 93 76c0 42 -36 70 -93 79z" />
    <glyph glyph-name="nine.num" unicode="&#xe049;" horiz-adv-x="386" 
d="M337 486c0 -148 -64 -238 -174 -238c-34 0 -69 8 -104 26l20 43c27 -13 55 -21 81 -21c77 0 117 60 120 166c-20 -36 -60 -59 -106 -59c-78 0 -134 54 -134 135c0 83 64 142 144 142c95 0 153 -69 153 -194zM276 533c0 55 -34 99 -91 99c-49 0 -90 -37 -90 -91
c0 -56 36 -91 89 -91c51 0 92 37 92 83z" />
    <glyph glyph-name="plus.num" unicode="&#xe04a;" horiz-adv-x="376" 
d="M41 439v50h122v122h50v-122h122v-50h-122v-122h-50v122h-122z" />
    <glyph glyph-name="minus.num" unicode="&#xe04b;" horiz-adv-x="376" 
d="M41 439v50h294v-50h-294z" />
    <glyph glyph-name="equal.num" unicode="&#xe04c;" horiz-adv-x="376" 
d="M41 511v51h294v-51h-294zM41 366v51h294v-51h-294z" />
    <glyph glyph-name="parenleft.num" unicode="&#xe04d;" horiz-adv-x="232" 
d="M162 741l43 -30c-64 -68 -93 -155 -93 -247s29 -178 93 -247l-43 -29c-70 75 -106 172 -106 276s36 202 106 277z" />
    <glyph glyph-name="parenright.num" unicode="&#xe04e;" horiz-adv-x="232" 
d="M69 188l-42 29c63 69 92 156 92 248c0 91 -29 178 -92 246l42 30c71 -75 106 -172 106 -276s-35 -202 -106 -277z" />
    <glyph glyph-name="period.num" unicode="&#xe064;" horiz-adv-x="177" 
d="M48 290c0 24 17 41 41 41c23 0 40 -17 40 -41c0 -23 -16 -41 -40 -41s-41 18 -41 41z" />
    <glyph glyph-name="comma.num" unicode="&#xe065;" horiz-adv-x="177" 
d="M48 290c0 24 17 41 41 41c26 0 43 -21 43 -53c0 -51 -26 -91 -73 -121l-20 27c26 18 44 42 46 69c-20 0 -37 16 -37 37z" />
    <glyph glyph-name="zero.den" unicode="&#xe050;" horiz-adv-x="426" 
d="M49 208c0 131 64 215 164 215s164 -84 164 -215s-65 -215 -164 -215s-164 84 -164 215zM110 208c0 -104 39 -167 103 -167s103 63 103 167s-39 167 -103 167s-103 -63 -103 -167z" />
    <glyph glyph-name="one.den" unicode="&#xe051;" horiz-adv-x="272" 
d="M198 416v-416h-60v355l-102 -58l-23 42l135 77h50z" />
    <glyph glyph-name="two.den" unicode="&#xe052;" horiz-adv-x="342" 
d="M24 0v39l159 158c31 32 48 63 48 95c0 47 -32 80 -81 80c-34 0 -67 -13 -101 -35l-24 45c45 28 91 42 135 42c77 0 130 -52 130 -124c0 -44 -19 -85 -58 -125l-125 -126h189v-49h-272z" />
    <glyph glyph-name="three.den" unicode="&#xe053;" horiz-adv-x="342" 
d="M109 192v42h28c54 0 91 30 91 73c0 40 -30 68 -75 68c-31 0 -65 -7 -103 -26l-20 45c47 22 91 30 132 30c75 0 127 -46 127 -112c0 -46 -28 -83 -71 -97c48 -16 81 -56 81 -106c0 -69 -57 -117 -137 -117c-44 0 -91 9 -139 33l20 44c39 -20 75 -28 108 -28
c52 0 86 30 86 73c0 46 -41 78 -100 78h-28z" />
    <glyph glyph-name="four.den" unicode="&#xe054;" horiz-adv-x="376" 
d="M228 0v94h-201v43l198 279h58v-276h61v-46h-61v-94h-55zM84 140h144v205z" />
    <glyph glyph-name="five.den" unicode="&#xe055;" horiz-adv-x="342" 
d="M289 416v-48h-181v-121c21 4 41 5 57 5c84 0 139 -50 139 -128c0 -77 -60 -132 -147 -132c-46 0 -89 14 -129 38l24 43c32 -20 67 -32 99 -32c57 0 94 34 94 84c0 51 -36 84 -98 84c-28 0 -58 -4 -93 -12v219h235z" />
    <glyph glyph-name="six.den" unicode="&#xe056;" horiz-adv-x="386" 
d="M49 186c0 148 64 238 174 238c34 0 69 -8 104 -26l-20 -43c-27 13 -55 21 -81 21c-77 0 -117 -60 -120 -166c20 36 60 59 106 59c78 0 134 -54 134 -135c0 -83 -64 -142 -144 -142c-95 0 -153 69 -153 194zM110 139c0 -55 34 -99 91 -99c49 0 90 37 90 91
c0 56 -36 91 -89 91c-51 0 -92 -37 -92 -83z" />
    <glyph glyph-name="seven.den" unicode="&#xe057;" horiz-adv-x="317" 
d="M61 0l159 367h-202v49h268v-39l-162 -377h-63z" />
    <glyph glyph-name="eight.den" unicode="&#xe058;" horiz-adv-x="386" 
d="M193 234c49 8 85 34 85 75s-36 70 -85 70s-85 -30 -85 -70c0 -41 36 -67 85 -75zM43 109c0 50 31 89 91 104c-49 13 -81 51 -81 99c0 66 57 112 140 112s140 -46 140 -112c0 -48 -31 -86 -79 -99c58 -14 89 -54 89 -104c0 -70 -60 -117 -150 -117c-89 0 -150 47 -150 117
zM193 192c-57 -9 -94 -37 -94 -79c0 -46 39 -76 94 -76s93 30 93 76c0 42 -36 70 -93 79z" />
    <glyph glyph-name="nine.den" unicode="&#xe059;" horiz-adv-x="386" 
d="M337 230c0 -148 -64 -238 -174 -238c-34 0 -69 8 -104 26l20 43c27 -13 55 -21 81 -21c77 0 117 60 120 166c-20 -36 -60 -59 -106 -59c-78 0 -134 54 -134 135c0 83 64 142 144 142c95 0 153 -69 153 -194zM276 277c0 55 -34 99 -91 99c-49 0 -90 -37 -90 -91
c0 -56 36 -91 89 -91c51 0 92 37 92 83z" />
    <glyph glyph-name="plus.den" unicode="&#xe05a;" horiz-adv-x="376" 
d="M41 183v50h122v122h50v-122h122v-50h-122v-122h-50v122h-122z" />
    <glyph glyph-name="minus.den" unicode="&#xe05b;" horiz-adv-x="376" 
d="M41 183v50h294v-50h-294z" />
    <glyph glyph-name="equal.den" unicode="&#xe05c;" horiz-adv-x="376" 
d="M41 255v51h294v-51h-294zM41 110v51h294v-51h-294z" />
    <glyph glyph-name="parenleft.den" unicode="&#xe05d;" horiz-adv-x="232" 
d="M162 485l43 -30c-64 -68 -93 -155 -93 -247s29 -178 93 -247l-43 -29c-70 75 -106 172 -106 276s36 202 106 277z" />
    <glyph glyph-name="parenright.den" unicode="&#xe05e;" horiz-adv-x="232" 
d="M69 -68l-42 29c63 69 92 156 92 248c0 91 -29 178 -92 246l42 30c71 -75 106 -172 106 -276s-35 -202 -106 -277z" />
    <glyph glyph-name="period.den" unicode="&#xe066;" horiz-adv-x="177" 
d="M48 34c0 24 17 41 41 41c23 0 40 -17 40 -41c0 -23 -16 -41 -40 -41s-41 18 -41 41z" />
    <glyph glyph-name="comma.den" unicode="&#xe067;" horiz-adv-x="177" 
d="M48 34c0 24 17 41 41 41c26 0 43 -21 43 -53c0 -51 -26 -91 -73 -121l-20 27c26 18 44 42 46 69c-20 0 -37 16 -37 37z" />
    <glyph glyph-name="fraction" unicode="&#x2044;" horiz-adv-x="192" 
d="M-177 16l504 672l42 -32l-504 -672z" />
    <glyph glyph-name="onehalf" unicode="&#xbd;" horiz-adv-x="960" 
d="M254 672v-416h-60v355l-102 -58l-23 42l135 77h50zM207 16l504 672l42 -32l-504 -672zM621 0v39l159 158c31 32 48 63 48 95c0 47 -32 80 -81 80c-34 0 -67 -13 -101 -35l-24 45c45 28 91 42 135 42c77 0 130 -52 130 -124c0 -44 -19 -85 -58 -125l-125 -126h189v-49
h-272z" />
    <glyph glyph-name="onequarter" unicode="&#xbc;" horiz-adv-x="960" 
d="M254 672v-416h-60v355l-102 -58l-23 42l135 77h50zM207 16l504 672l42 -32l-504 -672zM808 0v94h-201v43l198 279h58v-276h61v-46h-61v-94h-55zM664 140h144v205z" />
    <glyph glyph-name="threequarters" unicode="&#xbe;" horiz-adv-x="960" 
d="M130 448v42h28c54 0 91 30 91 73c0 40 -30 68 -75 68c-31 0 -65 -7 -103 -26l-20 45c47 22 91 30 132 30c75 0 127 -46 127 -112c0 -46 -28 -83 -71 -97c48 -16 81 -56 81 -106c0 -69 -57 -117 -137 -117c-44 0 -91 9 -139 33l20 44c39 -20 75 -28 108 -28
c52 0 86 30 86 73c0 46 -41 78 -100 78h-28zM207 16l504 672l42 -32l-504 -672zM808 0v94h-201v43l198 279h58v-276h61v-46h-61v-94h-55zM664 140h144v205z" />
    <glyph glyph-name="onethird" unicode="&#x2153;" horiz-adv-x="960" 
d="M254 672v-416h-60v355l-102 -58l-23 42l135 77h50zM207 16l504 672l42 -32l-504 -672zM706 192v42h28c54 0 91 30 91 73c0 40 -30 68 -75 68c-31 0 -65 -7 -103 -26l-20 45c47 22 91 30 132 30c75 0 127 -46 127 -112c0 -46 -28 -83 -71 -97c48 -16 81 -56 81 -106
c0 -69 -57 -117 -137 -117c-44 0 -91 9 -139 33l20 44c39 -20 75 -28 108 -28c52 0 86 30 86 73c0 46 -41 78 -100 78h-28z" />
    <glyph glyph-name="twothirds" unicode="&#x2154;" horiz-adv-x="960" 
d="M45 256v39l159 158c31 32 48 63 48 95c0 47 -32 80 -81 80c-34 0 -67 -13 -101 -35l-24 45c45 28 91 42 135 42c77 0 130 -52 130 -124c0 -44 -19 -85 -58 -125l-125 -126h189v-49h-272zM207 16l504 672l42 -32l-504 -672zM706 192v42h28c54 0 91 30 91 73
c0 40 -30 68 -75 68c-31 0 -65 -7 -103 -26l-20 45c47 22 91 30 132 30c75 0 127 -46 127 -112c0 -46 -28 -83 -71 -97c48 -16 81 -56 81 -106c0 -69 -57 -117 -137 -117c-44 0 -91 9 -139 33l20 44c39 -20 75 -28 108 -28c52 0 86 30 86 73c0 46 -41 78 -100 78h-28z" />
    <glyph glyph-name="uni2155" unicode="&#x2155;" horiz-adv-x="960" 
d="M254 672v-416h-60v355l-102 -58l-23 42l135 77h50zM207 16l504 672l42 -32l-504 -672zM886 416v-48h-181v-121c21 4 41 5 57 5c84 0 139 -50 139 -128c0 -77 -60 -132 -147 -132c-46 0 -89 14 -129 38l24 43c32 -20 67 -32 99 -32c57 0 94 34 94 84c0 51 -36 84 -98 84
c-28 0 -58 -4 -93 -12v219h235z" />
    <glyph glyph-name="uni2156" unicode="&#x2156;" horiz-adv-x="960" 
d="M45 256v39l159 158c31 32 48 63 48 95c0 47 -32 80 -81 80c-34 0 -67 -13 -101 -35l-24 45c45 28 91 42 135 42c77 0 130 -52 130 -124c0 -44 -19 -85 -58 -125l-125 -126h189v-49h-272zM207 16l504 672l42 -32l-504 -672zM886 416v-48h-181v-121c21 4 41 5 57 5
c84 0 139 -50 139 -128c0 -77 -60 -132 -147 -132c-46 0 -89 14 -129 38l24 43c32 -20 67 -32 99 -32c57 0 94 34 94 84c0 51 -36 84 -98 84c-28 0 -58 -4 -93 -12v219h235z" />
    <glyph glyph-name="uni2157" unicode="&#x2157;" horiz-adv-x="960" 
d="M130 448v42h28c54 0 91 30 91 73c0 40 -30 68 -75 68c-31 0 -65 -7 -103 -26l-20 45c47 22 91 30 132 30c75 0 127 -46 127 -112c0 -46 -28 -83 -71 -97c48 -16 81 -56 81 -106c0 -69 -57 -117 -137 -117c-44 0 -91 9 -139 33l20 44c39 -20 75 -28 108 -28
c52 0 86 30 86 73c0 46 -41 78 -100 78h-28zM207 16l504 672l42 -32l-504 -672zM886 416v-48h-181v-121c21 4 41 5 57 5c84 0 139 -50 139 -128c0 -77 -60 -132 -147 -132c-46 0 -89 14 -129 38l24 43c32 -20 67 -32 99 -32c57 0 94 34 94 84c0 51 -36 84 -98 84
c-28 0 -58 -4 -93 -12v219h235z" />
    <glyph glyph-name="uni2158" unicode="&#x2158;" horiz-adv-x="960" 
d="M232 256v94h-201v43l198 279h58v-276h61v-46h-61v-94h-55zM88 396h144v205zM207 16l504 672l42 -32l-504 -672zM886 416v-48h-181v-121c21 4 41 5 57 5c84 0 139 -50 139 -128c0 -77 -60 -132 -147 -132c-46 0 -89 14 -129 38l24 43c32 -20 67 -32 99 -32
c57 0 94 34 94 84c0 51 -36 84 -98 84c-28 0 -58 -4 -93 -12v219h235z" />
    <glyph glyph-name="uni2159" unicode="&#x2159;" horiz-adv-x="960" 
d="M254 672v-416h-60v355l-102 -58l-23 42l135 77h50zM207 16l504 672l42 -32l-504 -672zM624 186c0 148 64 238 174 238c34 0 69 -8 104 -26l-20 -43c-27 13 -55 21 -81 21c-77 0 -117 -60 -120 -166c20 36 60 59 106 59c78 0 134 -54 134 -135c0 -83 -64 -142 -144 -142
c-95 0 -153 69 -153 194zM685 139c0 -55 34 -99 91 -99c49 0 90 37 90 91c0 56 -36 91 -89 91c-51 0 -92 -37 -92 -83z" />
    <glyph glyph-name="uni215A" unicode="&#x215a;" horiz-adv-x="960" 
d="M310 672v-48h-181v-121c21 4 41 5 57 5c84 0 139 -50 139 -128c0 -77 -60 -132 -147 -132c-46 0 -89 14 -129 38l24 43c32 -20 67 -32 99 -32c57 0 94 34 94 84c0 51 -36 84 -98 84c-28 0 -58 -4 -93 -12v219h235zM207 16l504 672l42 -32l-504 -672zM624 186
c0 148 64 238 174 238c34 0 69 -8 104 -26l-20 -43c-27 13 -55 21 -81 21c-77 0 -117 -60 -120 -166c20 36 60 59 106 59c78 0 134 -54 134 -135c0 -83 -64 -142 -144 -142c-95 0 -153 69 -153 194zM685 139c0 -55 34 -99 91 -99c49 0 90 37 90 91c0 56 -36 91 -89 91
c-51 0 -92 -37 -92 -83z" />
    <glyph glyph-name="oneeighth" unicode="&#x215b;" horiz-adv-x="960" 
d="M254 672v-416h-60v355l-102 -58l-23 42l135 77h50zM207 16l504 672l42 -32l-504 -672zM768 234c49 8 85 34 85 75s-36 70 -85 70s-85 -30 -85 -70c0 -41 36 -67 85 -75zM618 109c0 50 31 89 91 104c-49 13 -81 51 -81 99c0 66 57 112 140 112s140 -46 140 -112
c0 -48 -31 -86 -79 -99c58 -14 89 -54 89 -104c0 -70 -60 -117 -150 -117c-89 0 -150 47 -150 117zM768 192c-57 -9 -94 -37 -94 -79c0 -46 39 -76 94 -76s93 30 93 76c0 42 -36 70 -93 79z" />
    <glyph glyph-name="threeeighths" unicode="&#x215c;" horiz-adv-x="960" 
d="M130 448v42h28c54 0 91 30 91 73c0 40 -30 68 -75 68c-31 0 -65 -7 -103 -26l-20 45c47 22 91 30 132 30c75 0 127 -46 127 -112c0 -46 -28 -83 -71 -97c48 -16 81 -56 81 -106c0 -69 -57 -117 -137 -117c-44 0 -91 9 -139 33l20 44c39 -20 75 -28 108 -28
c52 0 86 30 86 73c0 46 -41 78 -100 78h-28zM207 16l504 672l42 -32l-504 -672zM768 234c49 8 85 34 85 75s-36 70 -85 70s-85 -30 -85 -70c0 -41 36 -67 85 -75zM618 109c0 50 31 89 91 104c-49 13 -81 51 -81 99c0 66 57 112 140 112s140 -46 140 -112
c0 -48 -31 -86 -79 -99c58 -14 89 -54 89 -104c0 -70 -60 -117 -150 -117c-89 0 -150 47 -150 117zM768 192c-57 -9 -94 -37 -94 -79c0 -46 39 -76 94 -76s93 30 93 76c0 42 -36 70 -93 79z" />
    <glyph glyph-name="fiveeighths" unicode="&#x215d;" horiz-adv-x="960" 
d="M310 672v-48h-181v-121c21 4 41 5 57 5c84 0 139 -50 139 -128c0 -77 -60 -132 -147 -132c-46 0 -89 14 -129 38l24 43c32 -20 67 -32 99 -32c57 0 94 34 94 84c0 51 -36 84 -98 84c-28 0 -58 -4 -93 -12v219h235zM207 16l504 672l42 -32l-504 -672zM768 234
c49 8 85 34 85 75s-36 70 -85 70s-85 -30 -85 -70c0 -41 36 -67 85 -75zM618 109c0 50 31 89 91 104c-49 13 -81 51 -81 99c0 66 57 112 140 112s140 -46 140 -112c0 -48 -31 -86 -79 -99c58 -14 89 -54 89 -104c0 -70 -60 -117 -150 -117c-89 0 -150 47 -150 117zM768 192
c-57 -9 -94 -37 -94 -79c0 -46 39 -76 94 -76s93 30 93 76c0 42 -36 70 -93 79z" />
    <glyph glyph-name="seveneighths" unicode="&#x215e;" horiz-adv-x="960" 
d="M95 256l159 367h-202v49h268v-39l-162 -377h-63zM207 16l504 672l42 -32l-504 -672zM768 234c49 8 85 34 85 75s-36 70 -85 70s-85 -30 -85 -70c0 -41 36 -67 85 -75zM618 109c0 50 31 89 91 104c-49 13 -81 51 -81 99c0 66 57 112 140 112s140 -46 140 -112
c0 -48 -31 -86 -79 -99c58 -14 89 -54 89 -104c0 -70 -60 -117 -150 -117c-89 0 -150 47 -150 117zM768 192c-57 -9 -94 -37 -94 -79c0 -46 39 -76 94 -76s93 30 93 76c0 42 -36 70 -93 79z" />
    <glyph glyph-name="Agrave" unicode="&#xc0;" horiz-adv-x="671" 
d="M20 0l277 672h77l277 -672h-84l-74 184h-315l-74 -184h-84zM335 578l-134 -331h268zM234 900l170 -118l-31 -45l-175 111z" />
    <glyph glyph-name="Aacute" unicode="&#xc1;" horiz-adv-x="671" 
d="M20 0l277 672h77l277 -672h-84l-74 184h-315l-74 -184h-84zM335 578l-134 -331h268zM478 848l-175 -111l-31 45l170 118z" />
    <glyph glyph-name="Acircumflex" unicode="&#xc2;" horiz-adv-x="671" 
d="M20 0l277 672h77l277 -672h-84l-74 184h-315l-74 -184h-84zM335 578l-134 -331h268zM187 777l123 119h50l123 -119l-35 -38l-113 100l-113 -100z" />
    <glyph glyph-name="Atilde" unicode="&#xc3;" horiz-adv-x="671" 
d="M20 0l277 672h77l277 -672h-84l-74 184h-315l-74 -184h-84zM335 578l-134 -331h268zM271 867c46 0 91 -37 122 -37c20 0 35 14 42 37l51 -15c-10 -47 -43 -79 -87 -79c-46 0 -91 37 -122 37c-20 0 -35 -13 -42 -37l-51 16c10 47 43 78 87 78z" />
    <glyph glyph-name="Adieresis" unicode="&#xc4;" horiz-adv-x="671" 
d="M20 0l277 672h77l277 -672h-84l-74 184h-315l-74 -184h-84zM335 578l-134 -331h268zM189 820c0 29 20 49 49 49s49 -20 49 -49s-20 -49 -49 -49s-49 20 -49 49zM399 820c0 29 20 49 49 49s49 -20 49 -49s-20 -49 -49 -49s-49 20 -49 49z" />
    <glyph glyph-name="Amacron" unicode="&#x100;" horiz-adv-x="671" 
d="M20 0l277 672h77l277 -672h-84l-74 184h-315l-74 -184h-84zM335 578l-134 -331h268zM187 792v57h296v-57h-296z" />
    <glyph glyph-name="Abreve" unicode="&#x102;" horiz-adv-x="671" 
d="M20 0l277 672h77l277 -672h-84l-74 184h-315l-74 -184h-84zM335 578l-134 -331h268zM187 880h53c4 -52 42 -87 95 -87s91 35 95 87h53c-3 -87 -65 -143 -148 -143s-145 56 -148 143z" />
    <glyph glyph-name="Acaron" unicode="&#x1cd;" horiz-adv-x="671" 
d="M20 0l277 672h77l277 -672h-84l-74 184h-315l-74 -184h-84zM335 578l-134 -331h268zM484 863l-123 -118h-50l-123 118l35 39l113 -101l113 101z" />
    <glyph glyph-name="Aring" unicode="&#xc5;" horiz-adv-x="671" 
d="M20 0l277 672h77l277 -672h-84l-74 184h-315l-74 -184h-84zM335 578l-134 -331h268zM235 820c0 57 41 97 100 97s100 -40 100 -97s-40 -97 -99 -97s-101 40 -101 97zM278 820c0 -34 24 -57 58 -57s56 23 56 57s-23 58 -57 58s-57 -24 -57 -58z" />
    <glyph glyph-name="Aringacute" unicode="&#x1fa;" horiz-adv-x="692" 
d="M20 0l277 672h77l277 -672h-84l-74 184h-315l-74 -184h-84zM335 578l-134 -331h268zM287 815c0 -35 25 -59 60 -59s58 24 58 59s-25 59 -59 59c-35 0 -59 -24 -59 -59zM489 958l-96 -59c33 -14 53 -45 53 -84c0 -55 -40 -94 -99 -94s-101 39 -101 94c0 36 18 64 48 84
l162 109z" />
    <glyph glyph-name="Aogonek" unicode="&#x104;" horiz-adv-x="676" 
d="M20 0l277 672h77l277 -672c-56 -44 -91 -86 -91 -127c0 -29 22 -47 50 -47c13 0 28 3 41 8l11 -46c-23 -9 -46 -13 -69 -13c-54 0 -94 32 -94 85c0 48 34 97 91 140h-23l-74 184h-315l-74 -184h-84zM335 578l-134 -331h268z" />
    <glyph glyph-name="AE" unicode="&#xc6;" horiz-adv-x="972" 
d="M476 0v184h-268l-121 -184h-94l446 672h464v-64h-347v-233h315v-62h-315v-249h363v-64h-443zM476 598l-231 -351h231v351z" />
    <glyph glyph-name="AEacute" unicode="&#x1fc;" horiz-adv-x="972" 
d="M476 0v184h-268l-121 -184h-94l446 672h464v-64h-347v-233h315v-62h-315v-249h363v-64h-443zM476 598l-231 -351h231v351zM717 848l-175 -111l-31 45l170 118z" />
    <glyph glyph-name="Cacute" unicode="&#x106;" horiz-adv-x="646" 
d="M49 336c0 205 135 348 331 348c77 0 156 -25 227 -74l-35 -56c-56 40 -119 62 -181 62c-153 0 -257 -114 -257 -280s104 -280 257 -280c62 0 125 22 181 62l35 -56c-71 -49 -150 -74 -227 -74c-196 0 -331 143 -331 348zM514 848l-175 -111l-31 45l170 118z" />
    <glyph glyph-name="Ccedilla" unicode="&#xc7;" horiz-adv-x="646" 
d="M49 336c0 205 135 348 331 348c77 0 156 -25 227 -74l-35 -56c-56 40 -119 62 -181 62c-153 0 -257 -114 -257 -280s104 -280 257 -280c62 0 125 22 181 62l35 -56c-63 -45 -133 -68 -202 -73l-8 -45c44 -6 74 -41 74 -82c0 -51 -47 -87 -114 -87c-28 0 -61 6 -92 18
l15 47c25 -9 50 -14 70 -14c32 0 56 17 56 43s-25 43 -61 43h-10l14 79c-179 13 -300 150 -300 345z" />
    <glyph glyph-name="Ccircumflex" unicode="&#x108;" horiz-adv-x="646" 
d="M49 336c0 205 135 348 331 348c77 0 156 -25 227 -74l-35 -56c-56 40 -119 62 -181 62c-153 0 -257 -114 -257 -280s104 -280 257 -280c62 0 125 22 181 62l35 -56c-71 -49 -150 -74 -227 -74c-196 0 -331 143 -331 348zM223 777l123 119h50l123 -119l-35 -38l-113 100
l-113 -100z" />
    <glyph glyph-name="Ccaron" unicode="&#x10c;" horiz-adv-x="646" 
d="M49 336c0 205 135 348 331 348c77 0 156 -25 227 -74l-35 -56c-56 40 -119 62 -181 62c-153 0 -257 -114 -257 -280s104 -280 257 -280c62 0 125 22 181 62l35 -56c-71 -49 -150 -74 -227 -74c-196 0 -331 143 -331 348zM519 863l-123 -118h-50l-123 118l35 39l113 -101
l113 101z" />
    <glyph glyph-name="Cdotaccent" unicode="&#x10a;" horiz-adv-x="646" 
d="M49 336c0 205 135 348 331 348c77 0 156 -25 227 -74l-35 -56c-56 40 -119 62 -181 62c-153 0 -257 -114 -257 -280s104 -280 257 -280c62 0 125 22 181 62l35 -56c-71 -49 -150 -74 -227 -74c-196 0 -331 143 -331 348zM319 820c0 31 22 52 52 52s52 -21 52 -52
c0 -30 -22 -52 -52 -52s-52 22 -52 52z" />
    <glyph glyph-name="Dcaron" unicode="&#x10e;" horiz-adv-x="719" 
d="M100 0v672h227c204 0 342 -136 342 -336c0 -198 -138 -336 -342 -336h-227zM585 336c0 159 -109 271 -266 271h-137v-542h137c157 0 266 112 266 271zM491 863l-123 -118h-50l-123 118l35 39l113 -101l113 101z" />
    <glyph glyph-name="Dcroat" unicode="&#x110;" horiz-adv-x="735" 
d="M116 0v313h-90v62h90v297h227c204 0 342 -136 342 -336c0 -198 -138 -336 -342 -336h-227zM604 336c0 159 -110 271 -267 271h-141v-232h173v-62h-173v-248h141c157 0 267 112 267 271z" />
    <glyph glyph-name="Eth" unicode="&#xd0;" horiz-adv-x="735" 
d="M116 0v313h-90v62h90v297h227c204 0 342 -136 342 -336c0 -198 -138 -336 -342 -336h-227zM604 336c0 159 -110 271 -267 271h-141v-232h173v-62h-173v-248h141c157 0 267 112 267 271z" />
    <glyph glyph-name="Egrave" unicode="&#xc8;" horiz-adv-x="598" 
d="M100 0v672h429v-64h-347v-233h315v-62h-315v-249h363v-64h-445zM206 900l170 -118l-31 -45l-175 111z" />
    <glyph glyph-name="Eacute" unicode="&#xc9;" horiz-adv-x="598" 
d="M100 0v672h429v-64h-347v-233h315v-62h-315v-249h363v-64h-445zM450 848l-175 -111l-31 45l170 118z" />
    <glyph glyph-name="Ecircumflex" unicode="&#xca;" horiz-adv-x="598" 
d="M100 0v672h429v-64h-347v-233h315v-62h-315v-249h363v-64h-445zM159 777l123 119h50l123 -119l-35 -38l-113 100l-113 -100z" />
    <glyph glyph-name="Ecaron" unicode="&#x11a;" horiz-adv-x="598" 
d="M100 0v672h429v-64h-347v-233h315v-62h-315v-249h363v-64h-445zM455 863l-123 -118h-50l-123 118l35 39l113 -101l113 101z" />
    <glyph glyph-name="Edieresis" unicode="&#xcb;" horiz-adv-x="598" 
d="M100 0v672h429v-64h-347v-233h315v-62h-315v-249h363v-64h-445zM153 820c0 29 20 49 49 49s49 -20 49 -49s-20 -49 -49 -49s-49 20 -49 49zM363 820c0 29 20 49 49 49s49 -20 49 -49s-20 -49 -49 -49s-49 20 -49 49z" />
    <glyph glyph-name="Emacron" unicode="&#x112;" horiz-adv-x="598" 
d="M100 0v672h429v-64h-347v-233h315v-62h-315v-249h363v-64h-445zM159 792v57h296v-57h-296z" />
    <glyph glyph-name="Ebreve" unicode="&#x114;" horiz-adv-x="598" 
d="M100 0v672h429v-64h-347v-233h315v-62h-315v-249h363v-64h-445zM155 880h53c4 -52 42 -87 95 -87s91 35 95 87h53c-3 -87 -65 -143 -148 -143s-145 56 -148 143z" />
    <glyph glyph-name="Edotaccent" unicode="&#x116;" horiz-adv-x="598" 
d="M100 0v672h429v-64h-347v-233h315v-62h-315v-249h363v-64h-445zM255 820c0 31 22 52 52 52s52 -21 52 -52c0 -30 -22 -52 -52 -52s-52 22 -52 52z" />
    <glyph glyph-name="Eogonek" unicode="&#x118;" horiz-adv-x="598" 
d="M100 0v672h429v-64h-347v-233h315v-62h-315v-249h363v-64c-56 -44 -91 -86 -91 -127c0 -29 22 -47 50 -47c13 0 28 3 41 8l11 -46c-23 -9 -46 -13 -69 -13c-54 0 -94 32 -94 85c0 48 34 97 91 140h-384z" />
    <glyph glyph-name="Gcircumflex" unicode="&#x11c;" horiz-adv-x="703" 
d="M634 349v-306c-77 -36 -157 -55 -238 -55c-204 0 -347 144 -347 348s140 348 339 348c78 0 157 -23 235 -67l-31 -57c-67 37 -131 59 -195 59c-157 0 -266 -117 -266 -283s111 -283 271 -283c55 0 107 12 155 34v200h-169v62h246zM234 777l123 119h50l123 -119l-35 -38
l-113 100l-113 -100z" />
    <glyph glyph-name="Gbreve" unicode="&#x11e;" horiz-adv-x="703" 
d="M634 349v-306c-77 -36 -157 -55 -238 -55c-204 0 -347 144 -347 348s140 348 339 348c78 0 157 -23 235 -67l-31 -57c-67 37 -131 59 -195 59c-157 0 -266 -117 -266 -283s111 -283 271 -283c55 0 107 12 155 34v200h-169v62h246zM230 880h53c4 -52 42 -87 95 -87
s91 35 95 87h53c-3 -87 -65 -143 -148 -143s-145 56 -148 143z" />
    <glyph glyph-name="Gdotaccent" unicode="&#x120;" horiz-adv-x="703" 
d="M634 349v-306c-77 -36 -157 -55 -238 -55c-204 0 -347 144 -347 348s140 348 339 348c78 0 157 -23 235 -67l-31 -57c-67 37 -131 59 -195 59c-157 0 -266 -117 -266 -283s111 -283 271 -283c55 0 107 12 155 34v200h-169v62h246zM330 820c0 31 22 52 52 52
s52 -21 52 -52c0 -30 -22 -52 -52 -52s-52 22 -52 52z" />
    <glyph glyph-name="Gcommaaccent" unicode="&#x122;" horiz-adv-x="703" 
d="M634 349v-306c-77 -36 -157 -55 -238 -55c-204 0 -347 144 -347 348s140 348 339 348c78 0 157 -23 235 -67l-31 -57c-67 37 -131 59 -195 59c-157 0 -266 -117 -266 -283s111 -283 271 -283c55 0 107 12 155 34v200h-169v62h246zM333 -109c0 29 20 49 49 49
c32 0 53 -25 53 -65c0 -63 -34 -120 -95 -157l-23 31c37 28 58 62 61 99c-25 -1 -45 18 -45 43z" />
    <glyph glyph-name="Hcircumflex" unicode="&#x124;" horiz-adv-x="767" 
d="M100 0v672h82v-295h402v295h83v-672h-83v311h-402v-311h-82zM235 777l123 119h50l123 -119l-35 -38l-113 100l-113 -100z" />
    <glyph glyph-name="Hbar" unicode="&#x126;" horiz-adv-x="767" 
d="M100 0v521h-74v56h74v95h82v-95h402v95h83v-95h73v-56h-73v-521h-83v311h-402v-311h-82zM182 377h402v144h-402v-144z" />
    <glyph glyph-name="Igrave" unicode="&#xcc;" horiz-adv-x="282" 
d="M100 0v672h82v-672h-82zM40 900l170 -118l-31 -45l-175 111z" />
    <glyph glyph-name="Iacute" unicode="&#xcd;" horiz-adv-x="282" 
d="M100 0v672h82v-672h-82zM284 848l-175 -111l-31 45l170 118z" />
    <glyph glyph-name="Icircumflex" unicode="&#xce;" horiz-adv-x="282" 
d="M100 0v672h82v-672h-82zM-7 777l123 119h50l123 -119l-35 -38l-113 100l-113 -100z" />
    <glyph glyph-name="Itilde" unicode="&#x128;" horiz-adv-x="282" 
d="M100 0v672h82v-672h-82zM77 867c46 0 91 -37 122 -37c20 0 35 14 42 37l51 -15c-10 -47 -43 -79 -87 -79c-46 0 -91 37 -122 37c-20 0 -35 -13 -42 -37l-51 16c10 47 43 78 87 78z" />
    <glyph glyph-name="Idieresis" unicode="&#xcf;" horiz-adv-x="282" 
d="M100 0v672h82v-672h-82zM-13 820c0 29 20 49 49 49s49 -20 49 -49s-20 -49 -49 -49s-49 20 -49 49zM197 820c0 29 20 49 49 49s49 -20 49 -49s-20 -49 -49 -49s-49 20 -49 49z" />
    <glyph glyph-name="Imacron" unicode="&#x12a;" horiz-adv-x="282" 
d="M100 0v672h82v-672h-82zM-7 792v57h296v-57h-296z" />
    <glyph glyph-name="Ibreve" unicode="&#x12c;" horiz-adv-x="282" 
d="M100 0v672h82v-672h-82zM-11 880h53c4 -52 42 -87 95 -87s91 35 95 87h53c-3 -87 -65 -143 -148 -143s-145 56 -148 143z" />
    <glyph glyph-name="Idotaccent" unicode="&#x130;" horiz-adv-x="282" 
d="M100 0v672h82v-672h-82zM89 820c0 31 22 52 52 52s52 -21 52 -52c0 -30 -22 -52 -52 -52s-52 22 -52 52z" />
    <glyph glyph-name="Iogonek" unicode="&#x12e;" horiz-adv-x="282" 
d="M182 672v-672c-56 -44 -91 -86 -91 -127c0 -29 22 -47 50 -47c13 0 28 3 41 8l11 -46c-23 -9 -46 -13 -69 -13c-54 0 -94 32 -94 85c0 48 34 97 91 140h-21v672h82z" />
    <glyph glyph-name="IJ" unicode="&#x132;" horiz-adv-x="726" 
d="M100 0v672h82v-672h-82zM626 672v-498c0 -110 -78 -186 -190 -186c-43 0 -85 6 -131 17l12 66c36 -10 68 -15 101 -15c74 0 125 51 125 125v491h83z" />
    <glyph glyph-name="Jcircumflex" unicode="&#x134;" horiz-adv-x="444" 
d="M344 672v-498c0 -110 -78 -186 -190 -186c-43 0 -85 6 -131 17l12 66c36 -10 68 -15 101 -15c74 0 125 51 125 125v491h83zM155 777l123 119h50l123 -119l-35 -38l-113 100l-113 -100z" />
    <glyph glyph-name="Kcommaaccent" unicode="&#x136;" horiz-adv-x="663" 
d="M100 0v672h80v-355l344 355h98l-306 -314l320 -358h-99l-277 308l-80 -80v-228h-80zM291 -109c0 29 20 49 49 49c32 0 53 -25 53 -65c0 -63 -34 -120 -95 -157l-23 31c37 28 58 62 61 99c-25 -1 -45 18 -45 43z" />
    <glyph glyph-name="Lacute" unicode="&#x139;" horiz-adv-x="534" 
d="M100 0v672h82v-607h326v-65h-408zM284 848l-175 -111l-31 45l170 118z" />
    <glyph glyph-name="Lcaron" unicode="&#x13d;" horiz-adv-x="534" 
d="M100 0v672h82v-607h326v-65h-408zM389 681l-70 -168l-53 18l63 170z" />
    <glyph glyph-name="Lcommaaccent" unicode="&#x13b;" horiz-adv-x="534" 
d="M100 0v672h82v-607h326v-65h-408zM250 -109c0 29 20 49 49 49c32 0 53 -25 53 -65c0 -63 -34 -120 -95 -157l-23 31c37 28 58 62 61 99c-25 -1 -45 18 -45 43z" />
    <glyph glyph-name="Lslash" unicode="&#x141;" horiz-adv-x="550" 
d="M116 0v284l-73 -37l-27 51l100 49v325h82v-283l137 68l26 -51l-163 -81v-260h326v-65h-408z" />
    <glyph glyph-name="Ldot" unicode="&#x13f;" horiz-adv-x="550" 
d="M100 0v672h82v-607h326v-65h-408zM364 355c0 31 22 52 52 52s52 -21 52 -52c0 -30 -22 -52 -52 -52s-52 22 -52 52z" />
    <glyph glyph-name="Nacute" unicode="&#x143;" horiz-adv-x="783" 
d="M100 0v672h81l409 -558v558h77v-672h-81l-409 558v-558h-77zM526 848l-175 -111l-31 45l170 118z" />
    <glyph glyph-name="Ncaron" unicode="&#x147;" horiz-adv-x="767" 
d="M100 0v672h81l409 -558v558h77v-672h-81l-409 558v-558h-77zM531 863l-123 -118h-50l-123 118l35 39l113 -101l113 101z" />
    <glyph glyph-name="Ntilde" unicode="&#xd1;" horiz-adv-x="767" 
d="M100 0v672h81l409 -558v558h77v-672h-81l-409 558v-558h-77zM319 867c46 0 91 -37 122 -37c20 0 35 14 42 37l51 -15c-10 -47 -43 -79 -87 -79c-46 0 -91 37 -122 37c-20 0 -35 -13 -42 -37l-51 16c10 47 43 78 87 78z" />
    <glyph glyph-name="Ncommaaccent" unicode="&#x145;" horiz-adv-x="767" 
d="M100 0v672h81l409 -558v558h77v-672h-81l-409 558v-558h-77zM334 -109c0 29 20 49 49 49c32 0 53 -25 53 -65c0 -63 -34 -120 -95 -157l-23 31c37 28 58 62 61 99c-25 -1 -45 18 -45 43z" />
    <glyph glyph-name="Eng" unicode="&#x14a;" horiz-adv-x="767" 
d="M100 0v672h81l409 -558v558h77v-706c0 -110 -78 -186 -190 -186c-43 0 -85 6 -131 17l12 66c37 -10 71 -15 106 -15c71 0 123 48 123 115v35l-410 560v-558h-77z" />
    <glyph glyph-name="Ograve" unicode="&#xd2;" horiz-adv-x="767" 
d="M49 336c0 204 139 348 334 348c196 0 334 -144 334 -348s-138 -348 -334 -348c-195 0 -334 144 -334 348zM134 336c0 -165 103 -281 249 -281s250 116 250 281s-104 281 -250 281s-249 -116 -249 -281zM282 900l170 -118l-31 -45l-175 111z" />
    <glyph glyph-name="Oacute" unicode="&#xd3;" horiz-adv-x="767" 
d="M49 336c0 204 139 348 334 348c196 0 334 -144 334 -348s-138 -348 -334 -348c-195 0 -334 144 -334 348zM134 336c0 -165 103 -281 249 -281s250 116 250 281s-104 281 -250 281s-249 -116 -249 -281zM526 848l-175 -111l-31 45l170 118z" />
    <glyph glyph-name="Ocircumflex" unicode="&#xd4;" horiz-adv-x="767" 
d="M49 336c0 204 139 348 334 348c196 0 334 -144 334 -348s-138 -348 -334 -348c-195 0 -334 144 -334 348zM134 336c0 -165 103 -281 249 -281s250 116 250 281s-104 281 -250 281s-249 -116 -249 -281zM235 777l123 119h50l123 -119l-35 -38l-113 100l-113 -100z" />
    <glyph glyph-name="Otilde" unicode="&#xd5;" horiz-adv-x="767" 
d="M49 336c0 204 139 348 334 348c196 0 334 -144 334 -348s-138 -348 -334 -348c-195 0 -334 144 -334 348zM134 336c0 -165 103 -281 249 -281s250 116 250 281s-104 281 -250 281s-249 -116 -249 -281zM319 867c46 0 91 -37 122 -37c20 0 35 14 42 37l51 -15
c-10 -47 -43 -79 -87 -79c-46 0 -91 37 -122 37c-20 0 -35 -13 -42 -37l-51 16c10 47 43 78 87 78z" />
    <glyph glyph-name="Odieresis" unicode="&#xd6;" horiz-adv-x="767" 
d="M49 336c0 204 139 348 334 348c196 0 334 -144 334 -348s-138 -348 -334 -348c-195 0 -334 144 -334 348zM134 336c0 -165 103 -281 249 -281s250 116 250 281s-104 281 -250 281s-249 -116 -249 -281zM229 820c0 29 20 49 49 49s49 -20 49 -49s-20 -49 -49 -49
s-49 20 -49 49zM439 820c0 29 20 49 49 49s49 -20 49 -49s-20 -49 -49 -49s-49 20 -49 49z" />
    <glyph glyph-name="Omacron" unicode="&#x14c;" horiz-adv-x="767" 
d="M49 336c0 204 139 348 334 348c196 0 334 -144 334 -348s-138 -348 -334 -348c-195 0 -334 144 -334 348zM134 336c0 -165 103 -281 249 -281s250 116 250 281s-104 281 -250 281s-249 -116 -249 -281zM235 792v57h296v-57h-296z" />
    <glyph glyph-name="Obreve" unicode="&#x14e;" horiz-adv-x="767" 
d="M49 336c0 204 139 348 334 348c196 0 334 -144 334 -348s-138 -348 -334 -348c-195 0 -334 144 -334 348zM134 336c0 -165 103 -281 249 -281s250 116 250 281s-104 281 -250 281s-249 -116 -249 -281zM231 880h53c4 -52 42 -87 95 -87s91 35 95 87h53
c-3 -87 -65 -143 -148 -143s-145 56 -148 143z" />
    <glyph glyph-name="Ohungarumlaut" unicode="&#x150;" horiz-adv-x="767" 
d="M49 336c0 204 139 348 334 348c196 0 334 -144 334 -348s-138 -348 -334 -348c-195 0 -334 144 -334 348zM134 336c0 -165 103 -281 249 -281s250 116 250 281s-104 281 -250 281s-249 -116 -249 -281zM618 877l-149 -143l-42 41l144 149zM423 877l-149 -143l-41 41
l143 149z" />
    <glyph glyph-name="Oslash" unicode="&#xd8;" horiz-adv-x="767" 
d="M49 336c0 204 138 348 334 348c71 0 135 -21 187 -57l51 68l40 -31l-50 -66c67 -62 106 -153 106 -262c0 -204 -138 -348 -334 -348c-72 0 -136 20 -186 57l-51 -68l-40 31l48 66c-66 62 -105 153 -105 262zM128 336c0 -83 26 -153 71 -202l329 437
c-39 32 -89 49 -145 49c-150 0 -255 -118 -255 -284zM639 336c0 82 -27 153 -73 202l-328 -438c40 -31 89 -48 145 -48c150 0 256 118 256 284z" />
    <glyph glyph-name="Oslashacute" unicode="&#x1fe;" horiz-adv-x="767" 
d="M49 336c0 204 138 348 334 348c71 0 135 -21 187 -57l51 68l40 -31l-50 -66c67 -62 106 -153 106 -262c0 -204 -138 -348 -334 -348c-72 0 -136 20 -186 57l-51 -68l-40 31l48 66c-66 62 -105 153 -105 262zM128 336c0 -83 26 -153 71 -202l329 437
c-39 32 -89 49 -145 49c-150 0 -255 -118 -255 -284zM639 336c0 82 -27 153 -73 202l-328 -438c40 -31 89 -48 145 -48c150 0 256 118 256 284zM526 848l-175 -111l-31 45l170 118z" />
    <glyph glyph-name="OE" unicode="&#x152;" horiz-adv-x="1008" 
d="M49 336c0 198 138 336 339 336h552v-64h-347v-233h315v-62h-315v-249h363v-64h-568c-201 0 -339 136 -339 336zM134 336c0 -159 108 -271 263 -271h113v542h-113c-155 0 -263 -112 -263 -271z" />
    <glyph glyph-name="Thorn" unicode="&#xde;" horiz-adv-x="620" 
d="M100 0v672h80v-117h173c131 0 225 -88 225 -211s-94 -211 -225 -211h-173v-133h-80zM180 489v-290h161c91 0 156 60 156 145s-65 145 -156 145h-161z" />
    <glyph glyph-name="Racute" unicode="&#x154;" horiz-adv-x="652" 
d="M100 0v672h256c127 0 217 -83 217 -201c0 -102 -67 -179 -169 -192l196 -279h-91l-185 267h-144v-267h-80zM180 607v-275h164c87 0 148 55 148 137c0 81 -61 138 -148 138h-164zM477 848l-175 -111l-31 45l170 118z" />
    <glyph glyph-name="Rcaron" unicode="&#x158;" horiz-adv-x="652" 
d="M100 0v672h256c127 0 217 -83 217 -201c0 -102 -67 -179 -169 -192l196 -279h-91l-185 267h-144v-267h-80zM180 607v-275h164c87 0 148 55 148 137c0 81 -61 138 -148 138h-164zM482 863l-123 -118h-50l-123 118l35 39l113 -101l113 101z" />
    <glyph glyph-name="Rcommaaccent" unicode="&#x156;" horiz-adv-x="652" 
d="M100 0v672h256c127 0 217 -83 217 -201c0 -102 -67 -179 -169 -192l196 -279h-91l-185 267h-144v-267h-80zM180 607v-275h164c87 0 148 55 148 137c0 81 -61 138 -148 138h-164zM285 -109c0 29 20 49 49 49c32 0 53 -25 53 -65c0 -63 -34 -120 -95 -157l-23 31
c37 28 58 62 61 99c-25 -1 -45 18 -45 43z" />
    <glyph glyph-name="Sacute" unicode="&#x15a;" horiz-adv-x="580" 
d="M55 504c0 106 96 180 235 180c67 0 139 -15 215 -45l-20 -64c-68 28 -132 42 -189 42c-96 0 -160 -45 -160 -113c0 -180 393 -78 393 -332c0 -109 -97 -184 -239 -184c-71 0 -153 18 -239 53l20 64c76 -30 152 -50 213 -50c99 0 163 47 163 117c0 184 -392 84 -392 332z
M433 848l-175 -111l-31 45l170 118z" />
    <glyph glyph-name="Scircumflex" unicode="&#x15c;" horiz-adv-x="580" 
d="M55 504c0 106 96 180 235 180c67 0 139 -15 215 -45l-20 -64c-68 28 -132 42 -189 42c-96 0 -160 -45 -160 -113c0 -180 393 -78 393 -332c0 -109 -97 -184 -239 -184c-71 0 -153 18 -239 53l20 64c76 -30 152 -50 213 -50c99 0 163 47 163 117c0 184 -392 84 -392 332z
M142 777l123 119h50l123 -119l-35 -38l-113 100l-113 -100z" />
    <glyph glyph-name="Scaron" unicode="&#x160;" horiz-adv-x="580" 
d="M55 504c0 106 96 180 235 180c67 0 139 -15 215 -45l-20 -64c-68 28 -132 42 -189 42c-96 0 -160 -45 -160 -113c0 -180 393 -78 393 -332c0 -109 -97 -184 -239 -184c-71 0 -153 18 -239 53l20 64c76 -30 152 -50 213 -50c99 0 163 47 163 117c0 184 -392 84 -392 332z
M438 863l-123 -118h-50l-123 118l35 39l113 -101l113 101z" />
    <glyph glyph-name="Scedilla" unicode="&#x15e;" horiz-adv-x="580" 
d="M55 504c0 106 96 180 235 180c67 0 139 -15 215 -45l-20 -64c-68 28 -132 42 -189 42c-96 0 -160 -45 -160 -113c0 -180 393 -78 393 -332c0 -101 -82 -171 -205 -182l-8 -46c44 -6 74 -41 74 -82c0 -51 -47 -87 -114 -87c-28 0 -61 6 -92 18l15 47c25 -9 50 -14 70 -14
c32 0 56 17 56 43s-25 43 -61 43h-11l14 77c-65 3 -139 20 -216 52l20 64c76 -30 152 -50 213 -50c99 0 163 47 163 117c0 184 -392 84 -392 332z" />
    <glyph glyph-name="Scommaaccent" unicode="&#x218;" horiz-adv-x="580" 
d="M55 504c0 106 96 180 235 180c67 0 139 -15 215 -45l-20 -64c-68 28 -132 42 -189 42c-96 0 -160 -45 -160 -113c0 -180 393 -78 393 -332c0 -109 -97 -184 -239 -184c-71 0 -153 18 -239 53l20 64c76 -30 152 -50 213 -50c99 0 163 47 163 117c0 184 -392 84 -392 332z
M241 -109c0 29 20 49 49 49c32 0 53 -25 53 -65c0 -63 -34 -120 -95 -157l-23 31c37 28 58 62 61 99c-25 -1 -45 18 -45 43z" />
    <glyph glyph-name="Tcaron" unicode="&#x164;" horiz-adv-x="598" 
d="M258 0v607h-232v65h546v-65h-232v-607h-82zM448 863l-123 -118h-50l-123 118l35 39l113 -101l113 101z" />
    <glyph glyph-name="Tcommaaccent" unicode="&#x162;" horiz-adv-x="598" 
d="M258 0v607h-232v65h546v-65h-232v-607h-82zM250 -109c0 29 20 49 49 49c32 0 53 -25 53 -65c0 -63 -34 -120 -95 -157l-23 31c37 28 58 62 61 99c-25 -1 -45 18 -45 43z" />
    <glyph glyph-name="uni021A" unicode="&#x21a;" horiz-adv-x="598" 
d="M258 0v607h-232v65h546v-65h-232v-607h-82zM250 -109c0 29 20 49 49 49c32 0 53 -25 53 -65c0 -63 -34 -120 -95 -157l-23 31c37 28 58 62 61 99c-25 -1 -45 18 -45 43z" />
    <glyph glyph-name="Tbar" unicode="&#x166;" horiz-adv-x="598" 
d="M258 0v287h-142v63h142v257h-232v65h546v-65h-232v-257h141v-63h-141v-287h-82z" />
    <glyph glyph-name="Ugrave" unicode="&#xd9;" horiz-adv-x="767" 
d="M675 672v-415c0 -159 -124 -269 -292 -269s-291 110 -291 269v415h82v-412c0 -121 89 -205 209 -205c121 0 209 84 209 205v412h83zM282 900l170 -118l-31 -45l-175 111z" />
    <glyph glyph-name="Uacute" unicode="&#xda;" horiz-adv-x="767" 
d="M675 672v-415c0 -159 -124 -269 -292 -269s-291 110 -291 269v415h82v-412c0 -121 89 -205 209 -205c121 0 209 84 209 205v412h83zM526 848l-175 -111l-31 45l170 118z" />
    <glyph glyph-name="Ucircumflex" unicode="&#xdb;" horiz-adv-x="767" 
d="M675 672v-415c0 -159 -124 -269 -292 -269s-291 110 -291 269v415h82v-412c0 -121 89 -205 209 -205c121 0 209 84 209 205v412h83zM235 777l123 119h50l123 -119l-35 -38l-113 100l-113 -100z" />
    <glyph glyph-name="Utilde" unicode="&#x168;" horiz-adv-x="767" 
d="M675 672v-415c0 -159 -124 -269 -292 -269s-291 110 -291 269v415h82v-412c0 -121 89 -205 209 -205c121 0 209 84 209 205v412h83zM319 867c46 0 91 -37 122 -37c20 0 35 14 42 37l51 -15c-10 -47 -43 -79 -87 -79c-46 0 -91 37 -122 37c-20 0 -35 -13 -42 -37l-51 16
c10 47 43 78 87 78z" />
    <glyph glyph-name="Udieresis" unicode="&#xdc;" horiz-adv-x="767" 
d="M675 672v-415c0 -159 -124 -269 -292 -269s-291 110 -291 269v415h82v-412c0 -121 89 -205 209 -205c121 0 209 84 209 205v412h83zM229 820c0 29 20 49 49 49s49 -20 49 -49s-20 -49 -49 -49s-49 20 -49 49zM439 820c0 29 20 49 49 49s49 -20 49 -49s-20 -49 -49 -49
s-49 20 -49 49z" />
    <glyph glyph-name="Umacron" unicode="&#x16a;" horiz-adv-x="767" 
d="M675 672v-415c0 -159 -124 -269 -292 -269s-291 110 -291 269v415h82v-412c0 -121 89 -205 209 -205c121 0 209 84 209 205v412h83zM235 792v57h296v-57h-296z" />
    <glyph glyph-name="Ubreve" unicode="&#x16c;" horiz-adv-x="767" 
d="M675 672v-415c0 -159 -124 -269 -292 -269s-291 110 -291 269v415h82v-412c0 -121 89 -205 209 -205c121 0 209 84 209 205v412h83zM231 880h53c4 -52 42 -87 95 -87s91 35 95 87h53c-3 -87 -65 -143 -148 -143s-145 56 -148 143z" />
    <glyph glyph-name="Uring" unicode="&#x16e;" horiz-adv-x="767" 
d="M675 672v-415c0 -159 -124 -269 -292 -269s-291 110 -291 269v415h82v-412c0 -121 89 -205 209 -205c121 0 209 84 209 205v412h83zM283 820c0 57 41 97 100 97s100 -40 100 -97s-40 -97 -99 -97s-101 40 -101 97zM326 820c0 -34 24 -57 58 -57s56 23 56 57
s-23 58 -57 58s-57 -24 -57 -58z" />
    <glyph glyph-name="Uhungarumlaut" unicode="&#x170;" horiz-adv-x="767" 
d="M675 672v-415c0 -159 -124 -269 -292 -269s-291 110 -291 269v415h82v-412c0 -121 89 -205 209 -205c121 0 209 84 209 205v412h83zM618 877l-149 -143l-42 41l144 149zM423 877l-149 -143l-41 41l143 149z" />
    <glyph glyph-name="Uogonek" unicode="&#x172;" horiz-adv-x="767" 
d="M675 672v-409c0 -121 -61 -195 -172 -258c-100 -57 -126 -99 -126 -132c0 -29 23 -47 50 -47c14 0 27 3 40 8l12 -45c-22 -9 -46 -14 -69 -14c-53 0 -94 32 -94 85c0 47 32 89 93 131c-18 -2 -36 -2 -53 -2c-147 8 -264 116 -264 268v415h82v-412
c0 -121 88 -205 209 -205c120 0 209 86 209 205v412h83z" />
    <glyph glyph-name="Wgrave" unicode="&#x1e80;" horiz-adv-x="1007" 
d="M975 672l-215 -672h-82l-175 570l-174 -570h-82l-215 672h83l175 -570l174 570h78l175 -570l174 570h84zM402 900l170 -118l-31 -45l-175 111z" />
    <glyph glyph-name="Wacute" unicode="&#x1e82;" horiz-adv-x="1007" 
d="M975 672l-215 -672h-82l-175 570l-174 -570h-82l-215 672h83l175 -570l174 570h78l175 -570l174 570h84zM646 848l-175 -111l-31 45l170 118z" />
    <glyph glyph-name="Wcircumflex" unicode="&#x174;" horiz-adv-x="1007" 
d="M975 672l-215 -672h-82l-175 570l-174 -570h-82l-215 672h83l175 -570l174 570h78l175 -570l174 570h84zM355 777l123 119h50l123 -119l-35 -38l-113 100l-113 -100z" />
    <glyph glyph-name="Wdieresis" unicode="&#x1e84;" horiz-adv-x="1007" 
d="M975 672l-215 -672h-82l-175 570l-174 -570h-82l-215 672h83l175 -570l174 570h78l175 -570l174 570h84zM349 820c0 29 20 49 49 49s49 -20 49 -49s-20 -49 -49 -49s-49 20 -49 49zM559 820c0 29 20 49 49 49s49 -20 49 -49s-20 -49 -49 -49s-49 20 -49 49z" />
    <glyph glyph-name="Ygrave" unicode="&#x1ef2;" horiz-adv-x="599" 
d="M258 0v287l-246 385h91l197 -311l196 311h92l-247 -385v-287h-83zM199 900l170 -118l-31 -45l-175 111z" />
    <glyph glyph-name="Yacute" unicode="&#xdd;" horiz-adv-x="599" 
d="M258 0v287l-246 385h91l197 -311l196 311h92l-247 -385v-287h-83zM443 848l-175 -111l-31 45l170 118z" />
    <glyph glyph-name="Ycircumflex" unicode="&#x176;" horiz-adv-x="599" 
d="M258 0v287l-246 385h91l197 -311l196 311h92l-247 -385v-287h-83zM152 777l123 119h50l123 -119l-35 -38l-113 100l-113 -100z" />
    <glyph glyph-name="Ydieresis" unicode="&#x178;" horiz-adv-x="599" 
d="M258 0v287l-246 385h91l197 -311l196 311h92l-247 -385v-287h-83zM146 820c0 29 20 49 49 49s49 -20 49 -49s-20 -49 -49 -49s-49 20 -49 49zM356 820c0 29 20 49 49 49s49 -20 49 -49s-20 -49 -49 -49s-49 20 -49 49z" />
    <glyph glyph-name="Zacute" unicode="&#x179;" horiz-adv-x="628" 
d="M51 0v48l406 559h-394v65h502v-48l-406 -559h418v-65h-526zM457 848l-175 -111l-31 45l170 118z" />
    <glyph glyph-name="Zcaron" unicode="&#x17d;" horiz-adv-x="628" 
d="M51 0v48l406 559h-394v65h502v-48l-406 -559h418v-65h-526zM462 863l-123 -118h-50l-123 118l35 39l113 -101l113 101z" />
    <glyph glyph-name="Zdotaccent" unicode="&#x17b;" horiz-adv-x="628" 
d="M51 0v48l406 559h-394v65h502v-48l-406 -559h418v-65h-526zM262 820c0 31 22 52 52 52s52 -21 52 -52c0 -30 -22 -52 -52 -52s-52 22 -52 52z" />
    <glyph glyph-name="agrave" unicode="&#xe0;" horiz-adv-x="545" 
d="M44 134c0 102 84 161 222 161c34 0 71 -4 109 -14v50c0 62 -48 106 -119 106c-52 0 -105 -12 -161 -36l-22 58c68 26 130 39 192 39c110 0 186 -68 186 -169v-235c0 -27 16 -44 44 -44c8 0 20 2 26 3l6 -60c-16 -3 -34 -5 -52 -5c-53 0 -87 31 -93 81
c-39 -51 -102 -81 -169 -81c-96 0 -169 63 -169 146zM122 139c0 -53 47 -93 110 -93c84 0 143 60 143 146v41c-34 8 -67 12 -100 12c-96 0 -153 -40 -153 -106zM164 714l170 -118l-31 -45l-175 111z" />
    <glyph glyph-name="aacute" unicode="&#xe1;" horiz-adv-x="545" 
d="M44 134c0 102 84 161 222 161c34 0 71 -4 109 -14v50c0 62 -48 106 -119 106c-52 0 -105 -12 -161 -36l-22 58c68 26 130 39 192 39c110 0 186 -68 186 -169v-235c0 -27 16 -44 44 -44c8 0 20 2 26 3l6 -60c-16 -3 -34 -5 -52 -5c-53 0 -87 31 -93 81
c-39 -51 -102 -81 -169 -81c-96 0 -169 63 -169 146zM122 139c0 -53 47 -93 110 -93c84 0 143 60 143 146v41c-34 8 -67 12 -100 12c-96 0 -153 -40 -153 -106zM408 662l-175 -111l-31 45l170 118z" />
    <glyph glyph-name="acircumflex" unicode="&#xe2;" horiz-adv-x="545" 
d="M44 134c0 102 84 161 222 161c34 0 71 -4 109 -14v50c0 62 -48 106 -119 106c-52 0 -105 -12 -161 -36l-22 58c68 26 130 39 192 39c110 0 186 -68 186 -169v-235c0 -27 16 -44 44 -44c8 0 20 2 26 3l6 -60c-16 -3 -34 -5 -52 -5c-53 0 -87 31 -93 81
c-39 -51 -102 -81 -169 -81c-96 0 -169 63 -169 146zM122 139c0 -53 47 -93 110 -93c84 0 143 60 143 146v41c-34 8 -67 12 -100 12c-96 0 -153 -40 -153 -106zM117 591l123 119h50l123 -119l-35 -38l-113 100l-113 -100z" />
    <glyph glyph-name="atilde" unicode="&#xe3;" horiz-adv-x="545" 
d="M44 134c0 102 84 161 222 161c34 0 71 -4 109 -14v50c0 62 -48 106 -119 106c-52 0 -105 -12 -161 -36l-22 58c68 26 130 39 192 39c110 0 186 -68 186 -169v-235c0 -27 16 -44 44 -44c8 0 20 2 26 3l6 -60c-16 -3 -34 -5 -52 -5c-53 0 -87 31 -93 81
c-39 -51 -102 -81 -169 -81c-96 0 -169 63 -169 146zM122 139c0 -53 47 -93 110 -93c84 0 143 60 143 146v41c-34 8 -67 12 -100 12c-96 0 -153 -40 -153 -106zM201 681c46 0 91 -37 122 -37c20 0 35 14 42 37l51 -15c-10 -47 -43 -79 -87 -79c-46 0 -91 37 -122 37
c-20 0 -35 -13 -42 -37l-51 16c10 47 43 78 87 78z" />
    <glyph glyph-name="adieresis" unicode="&#xe4;" horiz-adv-x="545" 
d="M44 134c0 102 84 161 222 161c34 0 71 -4 109 -14v50c0 62 -48 106 -119 106c-52 0 -105 -12 -161 -36l-22 58c68 26 130 39 192 39c110 0 186 -68 186 -169v-235c0 -27 16 -44 44 -44c8 0 20 2 26 3l6 -60c-16 -3 -34 -5 -52 -5c-53 0 -87 31 -93 81
c-39 -51 -102 -81 -169 -81c-96 0 -169 63 -169 146zM122 139c0 -53 47 -93 110 -93c84 0 143 60 143 146v41c-34 8 -67 12 -100 12c-96 0 -153 -40 -153 -106zM111 634c0 29 20 49 49 49s49 -20 49 -49s-20 -49 -49 -49s-49 20 -49 49zM321 634c0 29 20 49 49 49
s49 -20 49 -49s-20 -49 -49 -49s-49 20 -49 49z" />
    <glyph glyph-name="amacron" unicode="&#x101;" horiz-adv-x="545" 
d="M44 134c0 102 84 161 222 161c34 0 71 -4 109 -14v50c0 62 -48 106 -119 106c-52 0 -105 -12 -161 -36l-22 58c68 26 130 39 192 39c110 0 186 -68 186 -169v-235c0 -27 16 -44 44 -44c8 0 20 2 26 3l6 -60c-16 -3 -34 -5 -52 -5c-53 0 -87 31 -93 81
c-39 -51 -102 -81 -169 -81c-96 0 -169 63 -169 146zM122 139c0 -53 47 -93 110 -93c84 0 143 60 143 146v41c-34 8 -67 12 -100 12c-96 0 -153 -40 -153 -106zM117 606v57h296v-57h-296z" />
    <glyph glyph-name="abreve" unicode="&#x103;" horiz-adv-x="545" 
d="M44 134c0 102 84 161 222 161c34 0 71 -4 109 -14v50c0 62 -48 106 -119 106c-52 0 -105 -12 -161 -36l-22 58c68 26 130 39 192 39c110 0 186 -68 186 -169v-235c0 -27 16 -44 44 -44c8 0 20 2 26 3l6 -60c-16 -3 -34 -5 -52 -5c-53 0 -87 31 -93 81
c-39 -51 -102 -81 -169 -81c-96 0 -169 63 -169 146zM122 139c0 -53 47 -93 110 -93c84 0 143 60 143 146v41c-34 8 -67 12 -100 12c-96 0 -153 -40 -153 -106zM117 694h53c4 -52 42 -87 95 -87s91 35 95 87h53c-3 -87 -65 -143 -148 -143s-145 56 -148 143z" />
    <glyph glyph-name="acaron" unicode="&#x1ce;" horiz-adv-x="537" 
d="M44 134c0 102 84 161 222 161c34 0 71 -4 109 -14v50c0 62 -48 106 -119 106c-52 0 -105 -12 -161 -36l-22 58c68 26 130 39 192 39c110 0 186 -68 186 -169v-235c0 -27 16 -44 44 -44c8 0 20 2 26 3l6 -60c-16 -3 -34 -5 -52 -5c-53 0 -87 31 -93 81
c-39 -51 -102 -81 -169 -81c-96 0 -169 63 -169 146zM122 139c0 -53 47 -93 110 -93c84 0 143 60 143 146v41c-34 8 -67 12 -100 12c-96 0 -153 -40 -153 -106zM416 677l-123 -118h-50l-123 118l35 39l113 -101l113 101z" />
    <glyph glyph-name="aring" unicode="&#xe5;" horiz-adv-x="545" 
d="M44 134c0 102 84 161 222 161c34 0 71 -4 109 -14v50c0 62 -48 106 -119 106c-52 0 -105 -12 -161 -36l-22 58c68 26 130 39 192 39c110 0 186 -68 186 -169v-235c0 -27 16 -44 44 -44c8 0 20 2 26 3l6 -60c-16 -3 -34 -5 -52 -5c-53 0 -87 31 -93 81
c-39 -51 -102 -81 -169 -81c-96 0 -169 63 -169 146zM122 139c0 -53 47 -93 110 -93c84 0 143 60 143 146v41c-34 8 -67 12 -100 12c-96 0 -153 -40 -153 -106zM165 634c0 57 41 97 100 97s100 -40 100 -97s-40 -97 -99 -97s-101 40 -101 97zM208 634c0 -34 24 -57 58 -57
s56 23 56 57s-23 58 -57 58s-57 -24 -57 -58z" />
    <glyph glyph-name="aringacute" unicode="&#x1fb;" horiz-adv-x="545" 
d="M44 134c0 102 84 161 222 161c34 0 71 -4 109 -14v50c0 62 -48 106 -119 106c-52 0 -105 -12 -161 -36l-22 58c68 26 130 39 192 39c110 0 186 -68 186 -169v-235c0 -27 16 -44 44 -44c8 0 20 2 26 3l6 -60c-16 -3 -34 -5 -52 -5c-53 0 -87 31 -93 81
c-39 -51 -102 -81 -169 -81c-96 0 -169 63 -169 146zM122 139c0 -53 47 -93 110 -93c84 0 143 60 143 146v41c-34 8 -67 12 -100 12c-96 0 -153 -40 -153 -106zM206 629c0 -35 25 -59 60 -59s58 24 58 59s-25 59 -59 59c-35 0 -59 -24 -59 -59zM408 772l-96 -59
c33 -14 53 -45 53 -84c0 -55 -40 -94 -99 -94s-101 39 -101 94c0 36 18 64 48 84l162 109z" />
    <glyph glyph-name="aogonek" unicode="&#x105;" horiz-adv-x="545" 
d="M44 134c0 102 84 161 222 161c34 0 71 -4 109 -14v50c0 62 -48 106 -119 106c-52 0 -105 -12 -161 -36l-22 58c68 26 130 39 192 39c110 0 186 -68 186 -169v-235c0 -27 16 -44 44 -44c8 0 20 2 26 3l6 -60c-55 -41 -91 -80 -91 -120c0 -29 23 -47 50 -47c13 0 28 3 41 8
l11 -46c-23 -9 -46 -13 -69 -13c-54 0 -94 32 -94 85c0 45 31 88 83 129c-44 6 -71 35 -76 80c-39 -51 -102 -81 -169 -81c-96 0 -169 63 -169 146zM122 139c0 -53 47 -93 110 -93c84 0 143 60 143 146v41c-34 8 -67 12 -100 12c-96 0 -153 -40 -153 -106z" />
    <glyph glyph-name="ae" unicode="&#xe6;" horiz-adv-x="864" 
d="M44 133c0 102 84 162 222 162c34 0 71 -5 109 -14v50c0 62 -47 106 -119 106c-52 0 -105 -12 -161 -36l-22 58c68 26 130 39 192 39c81 0 144 -42 159 -102c35 64 102 102 183 102c130 0 221 -101 221 -246c0 -10 -1 -19 -1 -29h-376c6 -103 79 -174 181 -174
c44 0 94 13 146 41l26 -55c-62 -32 -124 -47 -179 -47c-93 0 -171 47 -214 126c-29 -77 -103 -126 -192 -126c-100 0 -175 62 -175 145zM607 437c-86 0 -149 -65 -156 -163h300c-3 96 -61 163 -144 163zM122 139c0 -53 47 -93 110 -93c85 0 143 60 143 146v41
c-34 8 -67 12 -100 12c-96 0 -153 -40 -153 -106z" />
    <glyph glyph-name="aeacute" unicode="&#x1fd;" horiz-adv-x="864" 
d="M575 662l-175 -111l-31 45l170 118zM44 133c0 102 84 162 222 162c34 0 71 -5 109 -14v50c0 62 -47 106 -119 106c-52 0 -105 -12 -161 -36l-22 58c68 26 130 39 192 39c81 0 144 -42 159 -102c35 64 102 102 183 102c130 0 221 -101 221 -246c0 -10 -1 -19 -1 -29h-376
c6 -103 79 -174 181 -174c44 0 94 13 146 41l26 -55c-62 -32 -124 -47 -179 -47c-93 0 -171 47 -214 126c-29 -77 -103 -126 -192 -126c-100 0 -175 62 -175 145zM607 437c-86 0 -149 -65 -156 -163h300c-3 96 -61 163 -144 163zM122 139c0 -53 47 -93 110 -93
c85 0 143 60 143 146v41c-34 8 -67 12 -100 12c-96 0 -153 -40 -153 -106z" />
    <glyph glyph-name="cacute" unicode="&#x107;" horiz-adv-x="492" 
d="M44 243c0 149 102 255 245 255c59 0 117 -18 172 -55l-33 -55c-42 29 -84 44 -129 44c-102 0 -173 -77 -173 -189s71 -190 173 -190c45 0 87 16 129 45l33 -55c-55 -37 -113 -55 -172 -55c-143 0 -245 105 -245 255zM421 662l-175 -111l-31 45l170 118z" />
    <glyph glyph-name="ccedilla" unicode="&#xe7;" horiz-adv-x="492" 
d="M44 243c0 149 102 255 245 255c59 0 117 -18 172 -55l-33 -55c-42 29 -84 44 -129 44c-102 0 -173 -77 -173 -189s71 -190 173 -190c45 0 87 16 129 45l33 -55c-48 -33 -98 -50 -149 -54l-8 -45c44 -6 74 -41 74 -82c0 -51 -47 -87 -114 -87c-28 0 -61 6 -92 18l15 47
c25 -9 50 -14 70 -14c30 0 56 16 56 43c0 26 -25 43 -61 43h-11l15 79c-126 13 -212 113 -212 252z" />
    <glyph glyph-name="ccircumflex" unicode="&#x109;" horiz-adv-x="492" 
d="M44 243c0 149 102 255 245 255c59 0 117 -18 172 -55l-33 -55c-42 29 -84 44 -129 44c-102 0 -173 -77 -173 -189s71 -190 173 -190c45 0 87 16 129 45l33 -55c-55 -37 -113 -55 -172 -55c-143 0 -245 105 -245 255zM130 591l123 119h50l123 -119l-35 -38l-113 100
l-113 -100z" />
    <glyph glyph-name="ccaron" unicode="&#x10d;" horiz-adv-x="492" 
d="M44 243c0 149 102 255 245 255c59 0 117 -18 172 -55l-33 -55c-42 29 -84 44 -129 44c-102 0 -173 -77 -173 -189s71 -190 173 -190c45 0 87 16 129 45l33 -55c-55 -37 -113 -55 -172 -55c-143 0 -245 105 -245 255zM426 677l-123 -118h-50l-123 118l35 39l113 -101
l113 101z" />
    <glyph glyph-name="cdotaccent" unicode="&#x10b;" horiz-adv-x="492" 
d="M44 243c0 149 102 255 245 255c59 0 117 -18 172 -55l-33 -55c-42 29 -84 44 -129 44c-102 0 -173 -77 -173 -189s71 -190 173 -190c45 0 87 16 129 45l33 -55c-55 -37 -113 -55 -172 -55c-143 0 -245 105 -245 255zM226 634c0 31 22 52 52 52s52 -21 52 -52
c0 -30 -22 -52 -52 -52s-52 22 -52 52z" />
    <glyph glyph-name="dcaron" unicode="&#x10f;" horiz-adv-x="665" 
d="M505 704v-704h-64l-10 81c-35 -60 -95 -93 -167 -93c-128 0 -220 106 -220 255s92 255 220 255c69 0 127 -32 161 -89v295h80zM126 243c0 -112 65 -190 157 -190c84 0 143 62 143 151v78c0 88 -59 151 -143 151c-92 0 -157 -79 -157 -190zM687 713l-70 -168l-53 18
l63 170z" />
    <glyph glyph-name="dcroat" unicode="&#x111;" 
d="M505 704v-79h68v-56h-68v-569h-64l-10 81c-35 -60 -95 -93 -167 -93c-128 0 -220 106 -220 255s92 255 220 255c69 0 127 -32 161 -89v160h-175v56h175v79h80zM126 243c0 -112 65 -190 157 -190c84 0 143 62 143 151v78c0 88 -59 151 -143 151c-92 0 -157 -79 -157 -190z
" />
    <glyph glyph-name="eth" unicode="&#xf0;" 
d="M44 241c0 148 95 248 228 248c58 0 104 -16 148 -62c-24 71 -69 130 -130 173l-130 -64l-22 44l97 48c-25 14 -52 27 -81 37l19 56c50 -14 94 -34 135 -57l115 57l22 -44l-90 -44c102 -79 164 -191 174 -322c1 -20 1 -42 0 -62c-10 -155 -110 -261 -248 -261
s-237 105 -237 253zM123 239c0 -112 66 -190 161 -190c97 0 166 82 166 200c0 105 -69 179 -166 179c-95 0 -161 -78 -161 -189z" />
    <glyph glyph-name="egrave" unicode="&#xe8;" horiz-adv-x="537" 
d="M44 243c0 150 98 255 237 255c130 0 220 -101 220 -246c0 -10 0 -19 -1 -29h-376c7 -103 79 -174 181 -174c44 0 95 13 147 41l25 -55c-64 -32 -126 -47 -180 -47c-148 0 -253 105 -253 255zM281 437c-87 0 -149 -65 -157 -163h300c-3 96 -61 163 -143 163zM180 714
l170 -118l-31 -45l-175 111z" />
    <glyph glyph-name="eacute" unicode="&#xe9;" horiz-adv-x="537" 
d="M44 243c0 150 98 255 237 255c130 0 220 -101 220 -246c0 -10 0 -19 -1 -29h-376c7 -103 79 -174 181 -174c44 0 95 13 147 41l25 -55c-64 -32 -126 -47 -180 -47c-148 0 -253 105 -253 255zM281 437c-87 0 -149 -65 -157 -163h300c-3 96 -61 163 -143 163zM424 662
l-175 -111l-31 45l170 118z" />
    <glyph glyph-name="ecircumflex" unicode="&#xea;" horiz-adv-x="537" 
d="M44 243c0 150 98 255 237 255c130 0 220 -101 220 -246c0 -10 0 -19 -1 -29h-376c7 -103 79 -174 181 -174c44 0 95 13 147 41l25 -55c-64 -32 -126 -47 -180 -47c-148 0 -253 105 -253 255zM281 437c-87 0 -149 -65 -157 -163h300c-3 96 -61 163 -143 163zM133 591
l123 119h50l123 -119l-35 -38l-113 100l-113 -100z" />
    <glyph glyph-name="ecaron" unicode="&#x11b;" horiz-adv-x="537" 
d="M44 243c0 150 98 255 237 255c130 0 220 -101 220 -246c0 -10 0 -19 -1 -29h-376c7 -103 79 -174 181 -174c44 0 95 13 147 41l25 -55c-64 -32 -126 -47 -180 -47c-148 0 -253 105 -253 255zM281 437c-87 0 -149 -65 -157 -163h300c-3 96 -61 163 -143 163zM429 677
l-123 -118h-50l-123 118l35 39l113 -101l113 101z" />
    <glyph glyph-name="edieresis" unicode="&#xeb;" horiz-adv-x="537" 
d="M44 243c0 150 98 255 237 255c130 0 220 -101 220 -246c0 -10 0 -19 -1 -29h-376c7 -103 79 -174 181 -174c44 0 95 13 147 41l25 -55c-64 -32 -126 -47 -180 -47c-148 0 -253 105 -253 255zM281 437c-87 0 -149 -65 -157 -163h300c-3 96 -61 163 -143 163zM127 634
c0 29 20 49 49 49s49 -20 49 -49s-20 -49 -49 -49s-49 20 -49 49zM337 634c0 29 20 49 49 49s49 -20 49 -49s-20 -49 -49 -49s-49 20 -49 49z" />
    <glyph glyph-name="emacron" unicode="&#x113;" horiz-adv-x="537" 
d="M44 243c0 150 98 255 237 255c130 0 220 -101 220 -246c0 -10 0 -19 -1 -29h-376c7 -103 79 -174 181 -174c44 0 95 13 147 41l25 -55c-64 -32 -126 -47 -180 -47c-148 0 -253 105 -253 255zM281 437c-87 0 -149 -65 -157 -163h300c-3 96 -61 163 -143 163zM133 606v57
h296v-57h-296z" />
    <glyph glyph-name="ebreve" unicode="&#x115;" horiz-adv-x="537" 
d="M44 243c0 150 98 255 237 255c130 0 220 -101 220 -246c0 -10 0 -19 -1 -29h-376c7 -103 79 -174 181 -174c44 0 95 13 147 41l25 -55c-64 -32 -126 -47 -180 -47c-148 0 -253 105 -253 255zM281 437c-87 0 -149 -65 -157 -163h300c-3 96 -61 163 -143 163zM129 694h53
c4 -52 42 -87 95 -87s91 35 95 87h53c-3 -87 -65 -143 -148 -143s-145 56 -148 143z" />
    <glyph glyph-name="edotaccent" unicode="&#x117;" horiz-adv-x="537" 
d="M44 243c0 150 98 255 237 255c130 0 220 -101 220 -246c0 -10 0 -19 -1 -29h-376c7 -103 79 -174 181 -174c44 0 95 13 147 41l25 -55c-64 -32 -126 -47 -180 -47c-148 0 -253 105 -253 255zM281 437c-87 0 -149 -65 -157 -163h300c-3 96 -61 163 -143 163zM229 634
c0 31 22 52 52 52s52 -21 52 -52c0 -30 -22 -52 -52 -52s-52 22 -52 52z" />
    <glyph glyph-name="eogonek" unicode="&#x119;" horiz-adv-x="537" 
d="M44 243c0 150 98 255 237 255c130 0 220 -101 220 -246c0 -10 0 -19 -1 -29h-376c7 -103 79 -174 181 -174c44 0 95 13 147 41l25 -55c-68 -57 -102 -107 -102 -154c0 -34 24 -55 51 -55c12 0 25 3 39 8l12 -45c-23 -9 -46 -14 -68 -14c-53 0 -95 35 -95 92
c0 46 26 91 71 133c-31 -8 -61 -12 -88 -12c-148 0 -253 105 -253 255zM281 437c-87 0 -149 -65 -157 -163h300c-3 96 -61 163 -143 163z" />
    <glyph glyph-name="gcircumflex" unicode="&#x11d;" 
d="M505 486v-495c0 -123 -101 -211 -240 -211c-57 0 -123 14 -192 43l24 60c60 -26 117 -39 162 -39c97 0 166 59 166 144v88c-34 -56 -92 -88 -161 -88c-128 0 -220 106 -220 255s92 255 220 255c72 0 132 -33 167 -93l10 81h64zM126 243c0 -112 65 -190 157 -190
c84 0 143 62 143 151v78c0 88 -59 151 -143 151c-92 0 -157 -79 -157 -190zM144 591l123 119h50l123 -119l-35 -38l-113 100l-113 -100z" />
    <glyph glyph-name="gbreve" unicode="&#x11f;" 
d="M505 486v-495c0 -123 -101 -211 -240 -211c-57 0 -123 14 -192 43l24 60c60 -26 117 -39 162 -39c97 0 166 59 166 144v88c-34 -56 -92 -88 -161 -88c-128 0 -220 106 -220 255s92 255 220 255c72 0 132 -33 167 -93l10 81h64zM126 243c0 -112 65 -190 157 -190
c84 0 143 62 143 151v78c0 88 -59 151 -143 151c-92 0 -157 -79 -157 -190zM140 694h53c4 -52 42 -87 95 -87s91 35 95 87h53c-3 -87 -65 -143 -148 -143s-145 56 -148 143z" />
    <glyph glyph-name="gdotaccent" unicode="&#x121;" 
d="M505 486v-495c0 -123 -101 -211 -240 -211c-57 0 -123 14 -192 43l24 60c60 -26 117 -39 162 -39c97 0 166 59 166 144v88c-34 -56 -92 -88 -161 -88c-128 0 -220 106 -220 255s92 255 220 255c72 0 132 -33 167 -93l10 81h64zM126 243c0 -112 65 -190 157 -190
c84 0 143 62 143 151v78c0 88 -59 151 -143 151c-92 0 -157 -79 -157 -190zM240 634c0 31 22 52 52 52s52 -21 52 -52c0 -30 -22 -52 -52 -52s-52 22 -52 52z" />
    <glyph glyph-name="gcommaaccent" unicode="&#x123;" 
d="M505 486v-495c0 -123 -101 -211 -240 -211c-57 0 -123 14 -192 43l24 60c60 -26 117 -39 162 -39c97 0 166 59 166 144v88c-34 -56 -92 -88 -161 -88c-128 0 -220 106 -220 255s92 255 220 255c72 0 132 -33 167 -93l10 81h64zM126 243c0 -112 65 -190 157 -190
c84 0 143 62 143 151v78c0 88 -59 151 -143 151c-92 0 -157 -79 -157 -190zM341 594c0 -29 -20 -49 -49 -49c-32 0 -53 26 -53 66c0 62 34 119 95 157l23 -31c-37 -28 -58 -62 -61 -100c25 1 45 -18 45 -43z" />
    <glyph glyph-name="hcircumflex" unicode="&#x125;" 
d="M79 0v704h79v-303c33 61 96 97 170 97c108 0 185 -74 185 -181v-317h-80v305c0 74 -53 126 -128 126c-84 0 -147 -64 -147 -157v-274h-79zM-29 809l123 119h50l123 -119l-35 -38l-113 100l-113 -100z" />
    <glyph glyph-name="hbar" unicode="&#x127;" 
d="M79 0v569h-69v56h69v79h79v-79h175v-56h-175v-168c33 61 96 97 170 97c108 0 185 -74 185 -181v-317h-80v305c0 74 -53 126 -128 126c-84 0 -147 -64 -147 -157v-274h-79z" />
    <glyph glyph-name="dotlessi" unicode="&#x131;" horiz-adv-x="237" 
d="M79 0v486h79v-486h-79z" />
    <glyph glyph-name="igrave" unicode="&#xec;" horiz-adv-x="237" 
d="M79 0v486h79v-486h-79zM18 714l170 -118l-31 -45l-175 111z" />
    <glyph glyph-name="iacute" unicode="&#xed;" horiz-adv-x="237" 
d="M79 0v486h79v-486h-79zM262 662l-175 -111l-31 45l170 118z" />
    <glyph glyph-name="icircumflex" unicode="&#xee;" horiz-adv-x="237" 
d="M79 0v486h79v-486h-79zM-29 591l123 119h50l123 -119l-35 -38l-113 100l-113 -100z" />
    <glyph glyph-name="itilde" unicode="&#x129;" horiz-adv-x="237" 
d="M79 0v486h79v-486h-79zM55 681c46 0 91 -37 122 -37c20 0 35 14 42 37l51 -15c-10 -47 -43 -79 -87 -79c-46 0 -91 37 -122 37c-20 0 -35 -13 -42 -37l-51 16c10 47 43 78 87 78z" />
    <glyph glyph-name="idieresis" unicode="&#xef;" horiz-adv-x="237" 
d="M79 0v486h79v-486h-79zM-35 634c0 29 20 49 49 49s49 -20 49 -49s-20 -49 -49 -49s-49 20 -49 49zM175 634c0 29 20 49 49 49s49 -20 49 -49s-20 -49 -49 -49s-49 20 -49 49z" />
    <glyph glyph-name="imacron" unicode="&#x12b;" horiz-adv-x="237" 
d="M79 0v486h79v-486h-79zM-29 606v57h296v-57h-296z" />
    <glyph glyph-name="ibreve" unicode="&#x12d;" horiz-adv-x="237" 
d="M79 0v486h79v-486h-79zM-33 694h53c4 -52 42 -87 95 -87s91 35 95 87h53c-3 -87 -65 -143 -148 -143s-145 56 -148 143z" />
    <glyph glyph-name="iogonek" unicode="&#x12f;" horiz-adv-x="237" 
d="M158 486v-486c-56 -44 -91 -86 -91 -127c0 -29 22 -47 50 -47c13 0 28 3 41 8l11 -46c-23 -9 -46 -13 -69 -13c-54 0 -94 32 -94 85c0 48 34 97 91 140h-18v486h79zM65 634c0 31 22 53 54 53c31 0 53 -22 53 -53s-22 -53 -53 -53c-32 0 -54 22 -54 53z" />
    <glyph glyph-name="ij" unicode="&#x133;" horiz-adv-x="482" 
d="M79 0v486h79v-486h-79zM65 634c0 31 22 53 54 53c31 0 53 -22 53 -53s-22 -53 -53 -53c-32 0 -54 22 -54 53zM403 486v-564c0 -84 -59 -142 -146 -142c-31 0 -63 4 -97 13l11 62c25 -6 48 -10 69 -10c50 0 84 34 84 84v557h79zM310 634c0 31 22 53 54 53
c31 0 53 -22 53 -53s-22 -53 -53 -53c-32 0 -54 22 -54 53z" />
    <glyph glyph-name="jcircumflex" unicode="&#x135;" horiz-adv-x="245" 
d="M166 486v-564c0 -84 -59 -142 -146 -142c-31 0 -63 4 -97 13l11 62c25 -6 48 -10 69 -10c50 0 84 34 84 84v557h79zM-21 591l123 119h50l123 -119l-35 -38l-113 100l-113 -100z" />
    <glyph glyph-name="kcommaaccent" unicode="&#x137;" horiz-adv-x="509" 
d="M79 0v704h77v-459l230 241h93l-219 -227l227 -259h-94l-185 211l-52 -52v-159h-77zM206 -109c0 29 20 49 49 49c32 0 53 -25 53 -65c0 -63 -34 -120 -95 -157l-23 31c37 28 58 62 61 99c-25 -1 -45 18 -45 43z" />
    <glyph glyph-name="kgreenlandic" unicode="&#x138;" horiz-adv-x="509" 
d="M79 0v486h77v-241l230 241h93l-219 -227l227 -259h-94l-185 211l-52 -52v-159h-77z" />
    <glyph glyph-name="lacute" unicode="&#x13a;" horiz-adv-x="285" 
d="M158 704v-592c0 -36 23 -59 59 -59c14 0 31 3 48 7l10 -63c-27 -6 -53 -9 -75 -9c-75 0 -121 45 -121 117v599h79zM262 880l-175 -111l-31 45l170 118z" />
    <glyph glyph-name="lcaron" unicode="&#x13e;" horiz-adv-x="279" 
d="M158 704v-592c0 -36 23 -59 59 -59c14 0 31 3 48 7l10 -63c-27 -6 -53 -9 -75 -9c-75 0 -121 45 -121 117v599h79zM349 713l-70 -168l-53 18l63 170z" />
    <glyph glyph-name="lcommaaccent" unicode="&#x13c;" horiz-adv-x="285" 
d="M158 704v-592c0 -36 23 -59 59 -59c14 0 31 3 48 7l10 -63c-27 -6 -53 -9 -75 -9c-75 0 -121 45 -121 117v599h79zM120 -109c0 29 20 49 49 49c32 0 53 -25 53 -65c0 -63 -34 -120 -95 -157l-23 31c37 28 58 62 61 99c-25 -1 -45 18 -45 43z" />
    <glyph glyph-name="lslash" unicode="&#x142;" horiz-adv-x="317" 
d="M-23 313l110 55v336h79v-296l99 49l27 -50l-126 -63v-232c0 -36 23 -59 59 -59c14 0 31 3 48 7l10 -63c-27 -6 -52 -9 -75 -9c-73 0 -121 46 -121 117v199l-83 -41z" />
    <glyph glyph-name="ldot" unicode="&#x140;" horiz-adv-x="346" 
d="M158 704v-592c0 -36 23 -59 59 -59c14 0 31 3 48 7l10 -63c-27 -6 -53 -9 -75 -9c-75 0 -121 45 -121 117v599h79zM240 344c0 31 22 52 52 52s52 -21 52 -52c0 -30 -22 -52 -52 -52s-52 22 -52 52z" />
    <glyph glyph-name="nacute" unicode="&#x144;" 
d="M79 0v486h64l10 -89c33 64 98 101 175 101c108 0 185 -74 185 -181v-317h-80v305c0 74 -53 126 -128 126c-84 0 -147 -64 -147 -157v-274h-79zM439 662l-175 -111l-31 45l170 118z" />
    <glyph glyph-name="ncaron" unicode="&#x148;" 
d="M79 0v486h64l10 -89c33 64 98 101 175 101c108 0 185 -74 185 -181v-317h-80v305c0 74 -53 126 -128 126c-84 0 -147 -64 -147 -157v-274h-79zM444 677l-123 -118h-50l-123 118l35 39l113 -101l113 101z" />
    <glyph glyph-name="ntilde" unicode="&#xf1;" 
d="M79 0v486h64l10 -89c33 64 98 101 175 101c108 0 185 -74 185 -181v-317h-80v305c0 74 -53 126 -128 126c-84 0 -147 -64 -147 -157v-274h-79zM228 681c46 0 91 -37 122 -37c20 0 35 14 42 37l51 -15c-10 -47 -43 -79 -87 -79c-46 0 -91 37 -122 37
c-20 0 -35 -13 -42 -37l-51 16c10 47 43 78 87 78z" />
    <glyph glyph-name="ncommaaccent" unicode="&#x146;" 
d="M79 0v486h64l10 -89c33 64 98 101 175 101c108 0 185 -74 185 -181v-317h-80v305c0 74 -53 126 -128 126c-84 0 -147 -64 -147 -157v-274h-79zM247 -109c0 29 20 49 49 49c32 0 53 -25 53 -65c0 -63 -34 -120 -95 -157l-23 31c37 28 58 62 61 99c-25 -1 -45 18 -45 43z
" />
    <glyph glyph-name="napostrophe" unicode="&#x149;" horiz-adv-x="734" 
d="M230 0v486h64l10 -89c33 64 98 101 175 101c108 0 185 -74 185 -181v-317h-80v305c0 74 -53 126 -128 126c-84 0 -147 -64 -147 -157v-274h-79zM55 642c0 29 20 49 49 49c32 0 53 -25 53 -65c0 -63 -34 -120 -95 -157l-23 31c37 28 58 62 61 99c-25 -1 -45 18 -45 43z
" />
    <glyph glyph-name="eng" unicode="&#x14b;" 
d="M79 0v486h64l10 -89c33 64 97 101 175 101c108 0 185 -75 185 -183v-393c0 -84 -60 -142 -146 -142c-32 0 -64 4 -98 13l11 62c25 -6 48 -10 69 -10c50 0 84 34 84 84v374c0 76 -53 128 -128 128c-86 0 -147 -64 -147 -153v-278h-79z" />
    <glyph glyph-name="ograve" unicode="&#xf2;" 
d="M44 243c0 150 103 255 248 255c144 0 247 -105 247 -255s-103 -255 -247 -255c-145 0 -248 105 -248 255zM126 243c0 -113 68 -191 166 -191c97 0 166 78 166 191c0 112 -69 191 -166 191c-98 0 -166 -79 -166 -191zM191 714l170 -118l-31 -45l-175 111z" />
    <glyph glyph-name="oacute" unicode="&#xf3;" 
d="M44 243c0 150 103 255 248 255c144 0 247 -105 247 -255s-103 -255 -247 -255c-145 0 -248 105 -248 255zM126 243c0 -113 68 -191 166 -191c97 0 166 78 166 191c0 112 -69 191 -166 191c-98 0 -166 -79 -166 -191zM435 662l-175 -111l-31 45l170 118z" />
    <glyph glyph-name="ocircumflex" unicode="&#xf4;" 
d="M44 243c0 150 103 255 248 255c144 0 247 -105 247 -255s-103 -255 -247 -255c-145 0 -248 105 -248 255zM126 243c0 -113 68 -191 166 -191c97 0 166 78 166 191c0 112 -69 191 -166 191c-98 0 -166 -79 -166 -191zM144 591l123 119h50l123 -119l-35 -38l-113 100
l-113 -100z" />
    <glyph glyph-name="otilde" unicode="&#xf5;" 
d="M44 243c0 150 103 255 248 255c144 0 247 -105 247 -255s-103 -255 -247 -255c-145 0 -248 105 -248 255zM126 243c0 -113 68 -191 166 -191c97 0 166 78 166 191c0 112 -69 191 -166 191c-98 0 -166 -79 -166 -191zM228 681c46 0 91 -37 122 -37c20 0 35 14 42 37
l51 -15c-10 -47 -43 -79 -87 -79c-46 0 -91 37 -122 37c-20 0 -35 -13 -42 -37l-51 16c10 47 43 78 87 78z" />
    <glyph glyph-name="odieresis" unicode="&#xf6;" 
d="M44 243c0 150 103 255 248 255c144 0 247 -105 247 -255s-103 -255 -247 -255c-145 0 -248 105 -248 255zM126 243c0 -113 68 -191 166 -191c97 0 166 78 166 191c0 112 -69 191 -166 191c-98 0 -166 -79 -166 -191zM138 634c0 29 20 49 49 49s49 -20 49 -49
s-20 -49 -49 -49s-49 20 -49 49zM348 634c0 29 20 49 49 49s49 -20 49 -49s-20 -49 -49 -49s-49 20 -49 49z" />
    <glyph glyph-name="omacron" unicode="&#x14d;" 
d="M44 243c0 150 103 255 248 255c144 0 247 -105 247 -255s-103 -255 -247 -255c-145 0 -248 105 -248 255zM126 243c0 -113 68 -191 166 -191c97 0 166 78 166 191c0 112 -69 191 -166 191c-98 0 -166 -79 -166 -191zM144 606v57h296v-57h-296z" />
    <glyph glyph-name="obreve" unicode="&#x14f;" 
d="M44 243c0 150 103 255 248 255c144 0 247 -105 247 -255s-103 -255 -247 -255c-145 0 -248 105 -248 255zM126 243c0 -113 68 -191 166 -191c97 0 166 78 166 191c0 112 -69 191 -166 191c-98 0 -166 -79 -166 -191zM140 694h53c4 -52 42 -87 95 -87s91 35 95 87h53
c-3 -87 -65 -143 -148 -143s-145 56 -148 143z" />
    <glyph glyph-name="ohungarumlaut" unicode="&#x151;" 
d="M44 243c0 150 103 255 248 255c144 0 247 -105 247 -255s-103 -255 -247 -255c-145 0 -248 105 -248 255zM126 243c0 -113 68 -191 166 -191c97 0 166 78 166 191c0 112 -69 191 -166 191c-98 0 -166 -79 -166 -191zM527 691l-149 -143l-42 41l144 149zM332 691
l-149 -143l-41 41l143 149z" />
    <glyph glyph-name="oslash" unicode="&#xf8;" 
d="M44 243c0 150 103 255 248 255c50 0 96 -15 133 -40l36 49l36 -28l-35 -46c48 -45 77 -111 77 -190c0 -150 -103 -255 -247 -255c-52 0 -97 14 -133 40l-37 -49l-36 27l34 46c-48 45 -76 112 -76 191zM120 243c0 -54 16 -100 45 -132l220 294c-26 20 -58 32 -93 32
c-101 0 -172 -80 -172 -194zM463 243c0 54 -16 99 -44 131l-221 -293c25 -21 57 -32 94 -32c100 0 171 80 171 194z" />
    <glyph glyph-name="oslashacute" unicode="&#x1ff;" 
d="M44 243c0 150 103 255 248 255c50 0 96 -15 133 -40l36 49l36 -28l-35 -46c48 -45 77 -111 77 -190c0 -150 -103 -255 -247 -255c-52 0 -97 14 -133 40l-37 -49l-36 27l34 46c-48 45 -76 112 -76 191zM120 243c0 -54 16 -100 45 -132l220 294c-26 20 -58 32 -93 32
c-101 0 -172 -80 -172 -194zM463 243c0 54 -16 99 -44 131l-221 -293c25 -21 57 -32 94 -32c100 0 171 80 171 194zM435 662l-175 -111l-31 45l170 118z" />
    <glyph glyph-name="oe" unicode="&#x153;" horiz-adv-x="952" 
d="M44 243c0 150 103 255 248 255c95 0 172 -53 206 -135c34 82 107 135 197 135c130 0 221 -101 221 -246c0 -10 -1 -19 -1 -29h-376c6 -103 79 -174 181 -174c44 0 94 13 146 41l26 -55c-64 -32 -127 -47 -181 -47c-97 0 -176 53 -212 137c-34 -83 -112 -137 -207 -137
c-145 0 -248 105 -248 255zM126 243c0 -113 68 -191 166 -191c97 0 166 78 166 191c0 112 -69 191 -166 191c-98 0 -166 -79 -166 -191zM695 437c-86 0 -148 -67 -156 -163h300c-3 96 -61 163 -144 163z" />
    <glyph glyph-name="thorn" unicode="&#xfe;" 
d="M79 -208v912h79v-295c35 57 92 89 162 89c127 0 219 -106 219 -255s-92 -255 -219 -255c-70 0 -127 32 -162 88v-284h-79zM458 243c0 111 -66 190 -157 190c-85 0 -144 -63 -144 -151v-78c0 -89 59 -151 144 -151c91 0 157 78 157 190z" />
    <glyph glyph-name="racute" unicode="&#x155;" horiz-adv-x="383" 
d="M79 0v486h64l10 -92c24 62 81 100 151 100c18 0 40 -3 61 -8l-9 -65c-19 4 -39 7 -58 7c-83 0 -140 -67 -140 -165v-263h-79zM352 662l-175 -111l-31 45l170 118z" />
    <glyph glyph-name="rcaron" unicode="&#x159;" horiz-adv-x="383" 
d="M79 0v486h64l10 -92c24 62 81 100 151 100c18 0 40 -3 61 -8l-9 -65c-19 4 -39 7 -58 7c-83 0 -140 -67 -140 -165v-263h-79zM357 677l-123 -118h-50l-123 118l35 39l113 -101l113 101z" />
    <glyph glyph-name="rcommaaccent" unicode="&#x157;" horiz-adv-x="383" 
d="M79 0v486h64l10 -92c24 62 81 100 151 100c18 0 40 -3 61 -8l-9 -65c-19 4 -39 7 -58 7c-83 0 -140 -67 -140 -165v-263h-79zM70 -109c0 29 20 49 49 49c32 0 53 -25 53 -65c0 -63 -34 -120 -95 -157l-23 31c37 28 58 62 61 99c-25 -1 -45 18 -45 43z" />
    <glyph glyph-name="sacute" unicode="&#x15b;" horiz-adv-x="449" 
d="M48 362c0 79 73 136 177 136c51 0 107 -11 164 -34l-18 -59c-50 21 -98 32 -140 32c-63 0 -104 -30 -104 -75c0 -120 278 -48 278 -234c0 -82 -73 -140 -180 -140c-56 0 -117 12 -181 37l19 59c56 -23 109 -35 156 -35c65 0 108 32 108 79c0 123 -279 52 -279 234z
M368 662l-175 -111l-31 45l170 118z" />
    <glyph glyph-name="scircumflex" unicode="&#x15d;" horiz-adv-x="449" 
d="M48 362c0 79 73 136 177 136c51 0 107 -11 164 -34l-18 -59c-50 21 -98 32 -140 32c-63 0 -104 -30 -104 -75c0 -120 278 -48 278 -234c0 -82 -73 -140 -180 -140c-56 0 -117 12 -181 37l19 59c56 -23 109 -35 156 -35c65 0 108 32 108 79c0 123 -279 52 -279 234z
M77 591l123 119h50l123 -119l-35 -38l-113 100l-113 -100z" />
    <glyph glyph-name="scaron" unicode="&#x161;" horiz-adv-x="449" 
d="M48 362c0 79 73 136 177 136c51 0 107 -11 164 -34l-18 -59c-50 21 -98 32 -140 32c-63 0 -104 -30 -104 -75c0 -120 278 -48 278 -234c0 -82 -73 -140 -180 -140c-56 0 -117 12 -181 37l19 59c56 -23 109 -35 156 -35c65 0 108 32 108 79c0 123 -279 52 -279 234z
M373 677l-123 -118h-50l-123 118l35 39l113 -101l113 101z" />
    <glyph glyph-name="scedilla" unicode="&#x15f;" horiz-adv-x="449" 
d="M48 362c0 79 73 136 177 136c51 0 107 -11 164 -34l-18 -59c-50 21 -98 32 -140 32c-63 0 -104 -30 -104 -75c0 -120 278 -48 278 -234c0 -74 -58 -126 -146 -136l-8 -48c44 -6 74 -41 74 -82c0 -51 -47 -87 -114 -87c-28 0 -61 6 -92 18l15 47c25 -9 50 -14 70 -14
c32 0 56 17 56 43s-25 43 -61 43h-11l14 77c-49 3 -102 14 -158 36l19 59c56 -23 109 -35 156 -35c65 0 108 32 108 79c0 123 -279 52 -279 234z" />
    <glyph glyph-name="scommaaccent" unicode="&#x219;" horiz-adv-x="449" 
d="M48 362c0 79 73 136 177 136c51 0 107 -11 164 -34l-18 -59c-50 21 -98 32 -140 32c-63 0 -104 -30 -104 -75c0 -120 278 -48 278 -234c0 -82 -73 -140 -180 -140c-56 0 -117 12 -181 37l19 59c56 -23 109 -35 156 -35c65 0 108 32 108 79c0 123 -279 52 -279 234z
M176 -109c0 29 20 49 49 49c32 0 53 -25 53 -65c0 -63 -34 -120 -95 -157l-23 31c37 28 58 62 61 99c-25 -1 -45 18 -45 43z" />
    <glyph glyph-name="germandbls" unicode="&#xdf;" horiz-adv-x="615" 
d="M308 357c0 90 85 117 85 199c0 55 -45 98 -112 98c-75 0 -125 -50 -125 -130v-524h-77v527c0 115 83 189 205 189c111 0 189 -68 189 -157c0 -99 -85 -126 -85 -196c0 -107 191 -83 191 -235c0 -86 -72 -140 -172 -140c-46 0 -94 10 -146 33l22 59c43 -20 82 -30 118 -30
c59 0 101 30 101 78c0 104 -194 82 -194 229z" />
    <glyph glyph-name="tcaron" unicode="&#x165;" horiz-adv-x="401" 
d="M206 630v-144h153v-63h-153v-286c0 -50 34 -84 84 -84c21 0 44 4 69 10l11 -62c-34 -9 -66 -13 -97 -13c-87 0 -146 58 -146 142v293h-101v63h101v144h79zM389 713l-70 -168l-53 18l63 170z" />
    <glyph glyph-name="tcommaaccent" unicode="&#x163;" horiz-adv-x="401" 
d="M206 630v-144h153v-63h-153v-286c0 -50 34 -84 84 -84c21 0 44 4 69 10l11 -62c-34 -9 -66 -13 -97 -13c-87 0 -146 58 -146 142v293h-101v63h101v144h79zM189 -109c0 29 20 49 49 49c32 0 53 -25 53 -65c0 -63 -34 -120 -95 -157l-23 31c37 28 58 62 61 99
c-25 -1 -45 18 -45 43z" />
    <glyph glyph-name="uni021B" unicode="&#x21b;" horiz-adv-x="401" 
d="M206 630v-144h153v-63h-153v-286c0 -50 34 -84 84 -84c21 0 44 4 69 10l11 -62c-34 -9 -66 -13 -97 -13c-87 0 -146 58 -146 142v293h-101v63h101v144h79zM189 -109c0 29 20 49 49 49c32 0 53 -25 53 -65c0 -63 -34 -120 -95 -157l-23 31c37 28 58 62 61 99
c-25 -1 -45 18 -45 43z" />
    <glyph glyph-name="tbar" unicode="&#x167;" horiz-adv-x="401" 
d="M206 630v-144h153v-63h-153v-147h137v-57h-137v-83c0 -49 34 -83 84 -83c21 0 44 4 69 10l11 -62c-34 -9 -66 -13 -97 -13c-87 0 -146 58 -146 142v89h-93v57h93v147h-101v63h101v144h79z" />
    <glyph glyph-name="ugrave" unicode="&#xf9;" 
d="M505 486v-486h-64l-10 89c-34 -64 -99 -101 -176 -101c-108 0 -184 74 -184 181v317h79v-306c0 -74 54 -125 128 -125c84 0 147 64 147 157v274h80zM191 714l170 -118l-31 -45l-175 111z" />
    <glyph glyph-name="uacute" unicode="&#xfa;" 
d="M505 486v-486h-64l-10 89c-34 -64 -99 -101 -176 -101c-108 0 -184 74 -184 181v317h79v-306c0 -74 54 -125 128 -125c84 0 147 64 147 157v274h80zM435 662l-175 -111l-31 45l170 118z" />
    <glyph glyph-name="ucircumflex" unicode="&#xfb;" 
d="M505 486v-486h-64l-10 89c-34 -64 -99 -101 -176 -101c-108 0 -184 74 -184 181v317h79v-306c0 -74 54 -125 128 -125c84 0 147 64 147 157v274h80zM144 591l123 119h50l123 -119l-35 -38l-113 100l-113 -100z" />
    <glyph glyph-name="utilde" unicode="&#x169;" 
d="M505 486v-486h-64l-10 89c-34 -64 -99 -101 -176 -101c-108 0 -184 74 -184 181v317h79v-306c0 -74 54 -125 128 -125c84 0 147 64 147 157v274h80zM224 681c46 0 91 -37 122 -37c20 0 35 14 42 37l51 -15c-10 -47 -43 -79 -87 -79c-46 0 -91 37 -122 37
c-20 0 -35 -13 -42 -37l-51 16c10 47 43 78 87 78z" />
    <glyph glyph-name="udieresis" unicode="&#xfc;" 
d="M505 486v-486h-64l-10 89c-34 -64 -99 -101 -176 -101c-108 0 -184 74 -184 181v317h79v-306c0 -74 54 -125 128 -125c84 0 147 64 147 157v274h80zM138 634c0 29 20 49 49 49s49 -20 49 -49s-20 -49 -49 -49s-49 20 -49 49zM348 634c0 29 20 49 49 49s49 -20 49 -49
s-20 -49 -49 -49s-49 20 -49 49z" />
    <glyph glyph-name="umacron" unicode="&#x16b;" 
d="M505 486v-486h-64l-10 89c-34 -64 -99 -101 -176 -101c-108 0 -184 74 -184 181v317h79v-306c0 -74 54 -125 128 -125c84 0 147 64 147 157v274h80zM140 606v57h296v-57h-296z" />
    <glyph glyph-name="ubreve" unicode="&#x16d;" 
d="M505 486v-486h-64l-10 89c-34 -64 -99 -101 -176 -101c-108 0 -184 74 -184 181v317h79v-306c0 -74 54 -125 128 -125c84 0 147 64 147 157v274h80zM136 694h53c4 -52 42 -87 95 -87s91 35 95 87h53c-3 -87 -65 -143 -148 -143s-145 56 -148 143z" />
    <glyph glyph-name="uring" unicode="&#x16f;" 
d="M505 486v-486h-64l-10 89c-34 -64 -99 -101 -176 -101c-108 0 -184 74 -184 181v317h79v-306c0 -74 54 -125 128 -125c84 0 147 64 147 157v274h80zM188 634c0 57 41 97 100 97s100 -40 100 -97s-40 -97 -99 -97s-101 40 -101 97zM231 634c0 -34 24 -57 58 -57
s56 23 56 57s-23 58 -57 58s-57 -24 -57 -58z" />
    <glyph glyph-name="uhungarumlaut" unicode="&#x171;" 
d="M505 486v-486h-64l-10 89c-34 -64 -99 -101 -176 -101c-108 0 -184 74 -184 181v317h79v-306c0 -74 54 -125 128 -125c84 0 147 64 147 157v274h80zM523 691l-149 -143l-42 41l144 149zM328 691l-149 -143l-41 41l143 149z" />
    <glyph glyph-name="uogonek" unicode="&#x173;" 
d="M505 486v-486c-56 -44 -91 -86 -91 -127c0 -29 22 -47 50 -47c13 0 28 3 41 8l11 -46c-23 -9 -46 -13 -69 -13c-54 0 -94 32 -94 85c0 48 32 97 88 140l-10 89c-34 -64 -99 -101 -176 -101c-108 0 -184 74 -184 181v317h79v-306c0 -74 54 -125 128 -125
c84 0 147 64 147 157v274h80z" />
    <glyph glyph-name="wgrave" unicode="&#x1e81;" horiz-adv-x="775" 
d="M745 486l-160 -486h-78l-119 392l-120 -392h-78l-159 486h80l120 -392l119 392h75l120 -392l119 392h81zM287 714l170 -118l-31 -45l-175 111z" />
    <glyph glyph-name="wacute" unicode="&#x1e83;" horiz-adv-x="775" 
d="M745 486l-160 -486h-78l-119 392l-120 -392h-78l-159 486h80l120 -392l119 392h75l120 -392l119 392h81zM531 662l-175 -111l-31 45l170 118z" />
    <glyph glyph-name="wcircumflex" unicode="&#x175;" horiz-adv-x="775" 
d="M745 486l-160 -486h-78l-119 392l-120 -392h-78l-159 486h80l120 -392l119 392h75l120 -392l119 392h81zM240 591l123 119h50l123 -119l-35 -38l-113 100l-113 -100z" />
    <glyph glyph-name="wdieresis" unicode="&#x1e85;" horiz-adv-x="775" 
d="M745 486l-160 -486h-78l-119 392l-120 -392h-78l-159 486h80l120 -392l119 392h75l120 -392l119 392h81zM234 634c0 29 20 49 49 49s49 -20 49 -49s-20 -49 -49 -49s-49 20 -49 49zM444 634c0 29 20 49 49 49s49 -20 49 -49s-20 -49 -49 -49s-49 20 -49 49z" />
    <glyph glyph-name="ygrave" unicode="&#x1ef3;" horiz-adv-x="519" 
d="M497 486l-226 -559c-40 -101 -90 -147 -168 -147c-19 0 -44 3 -68 9l11 64c18 -5 36 -8 49 -8c49 0 78 28 104 96l25 63l-201 482h83l156 -394l151 394h84zM159 714l170 -118l-31 -45l-175 111z" />
    <glyph glyph-name="yacute" unicode="&#xfd;" horiz-adv-x="519" 
d="M497 486l-226 -559c-40 -101 -90 -147 -168 -147c-19 0 -44 3 -68 9l11 64c18 -5 36 -8 49 -8c49 0 78 28 104 96l25 63l-201 482h83l156 -394l151 394h84zM403 662l-175 -111l-31 45l170 118z" />
    <glyph glyph-name="ycircumflex" unicode="&#x177;" horiz-adv-x="519" 
d="M497 486l-226 -559c-40 -101 -90 -147 -168 -147c-19 0 -44 3 -68 9l11 64c18 -5 36 -8 49 -8c49 0 78 28 104 96l25 63l-201 482h83l156 -394l151 394h84zM112 591l123 119h50l123 -119l-35 -38l-113 100l-113 -100z" />
    <glyph glyph-name="ydieresis" unicode="&#xff;" horiz-adv-x="519" 
d="M497 486l-226 -559c-40 -101 -90 -147 -168 -147c-19 0 -44 3 -68 9l11 64c18 -5 36 -8 49 -8c49 0 78 28 104 96l25 63l-201 482h83l156 -394l151 394h84zM106 634c0 29 20 49 49 49s49 -20 49 -49s-20 -49 -49 -49s-49 20 -49 49zM316 634c0 29 20 49 49 49
s49 -20 49 -49s-20 -49 -49 -49s-49 20 -49 49z" />
    <glyph glyph-name="zacute" unicode="&#x17a;" horiz-adv-x="481" 
d="M44 0v45l280 378h-272v63h377v-46l-280 -378h288v-62h-393zM384 662l-175 -111l-31 45l170 118z" />
    <glyph glyph-name="zcaron" unicode="&#x17e;" horiz-adv-x="481" 
d="M44 0v45l280 378h-272v63h377v-46l-280 -378h288v-62h-393zM389 677l-123 -118h-50l-123 118l35 39l113 -101l113 101z" />
    <glyph glyph-name="zdotaccent" unicode="&#x17c;" horiz-adv-x="481" 
d="M44 0v45l280 378h-272v63h377v-46l-280 -378h288v-62h-393zM189 634c0 31 22 52 52 52s52 -21 52 -52c0 -30 -22 -52 -52 -52s-52 22 -52 52z" />
    <glyph glyph-name="Agrave.sc" unicode="&#xe21a;" horiz-adv-x="559" 
d="M29 0l213 518h74l214 -518h-80l-53 134h-235l-53 -134h-80zM279 433l-97 -243h195zM178 746l170 -118l-31 -45l-175 111z" />
    <glyph glyph-name="Aacute.sc" unicode="&#xe21b;" horiz-adv-x="559" 
d="M29 0l213 518h74l214 -518h-80l-53 134h-235l-53 -134h-80zM279 433l-97 -243h195zM422 694l-175 -111l-31 45l170 118z" />
    <glyph glyph-name="Acircumflex.sc" unicode="&#xe21c;" horiz-adv-x="559" 
d="M29 0l213 518h74l214 -518h-80l-53 134h-235l-53 -134h-80zM279 433l-97 -243h195zM131 623l123 119h50l123 -119l-35 -38l-113 100l-113 -100z" />
    <glyph glyph-name="Atilde.sc" unicode="&#xe21d;" horiz-adv-x="559" 
d="M29 0l213 518h74l214 -518h-80l-53 134h-235l-53 -134h-80zM279 433l-97 -243h195zM215 713c46 0 91 -37 122 -37c20 0 35 14 42 37l51 -15c-10 -47 -43 -79 -87 -79c-46 0 -91 37 -122 37c-20 0 -35 -13 -42 -37l-51 16c10 47 43 78 87 78z" />
    <glyph glyph-name="Adieresis.sc" unicode="&#xe21e;" horiz-adv-x="559" 
d="M29 0l213 518h74l214 -518h-80l-53 134h-235l-53 -134h-80zM279 433l-97 -243h195zM125 666c0 29 20 49 49 49s49 -20 49 -49s-20 -49 -49 -49s-49 20 -49 49zM335 666c0 29 20 49 49 49s49 -20 49 -49s-20 -49 -49 -49s-49 20 -49 49z" />
    <glyph glyph-name="Amacron.sc" unicode="&#xe221;" horiz-adv-x="559" 
d="M29 0l213 518h74l214 -518h-80l-53 134h-235l-53 -134h-80zM279 433l-97 -243h195zM131 638v57h296v-57h-296z" />
    <glyph glyph-name="Abreve.sc" unicode="&#xe222;" horiz-adv-x="559" 
d="M29 0l213 518h74l214 -518h-80l-53 134h-235l-53 -134h-80zM279 433l-97 -243h195zM131 726h53c4 -52 42 -87 95 -87s91 35 95 87h53c-3 -87 -65 -143 -148 -143s-145 56 -148 143z" />
    <glyph glyph-name="Acaron.sc" horiz-adv-x="559" 
d="M29 0l213 518h74l214 -518h-80l-53 134h-235l-53 -134h-80zM279 433l-97 -243h195zM429 709l-123 -118h-50l-123 118l35 39l113 -101l113 101z" />
    <glyph glyph-name="Aring.sc" unicode="&#xe21f;" horiz-adv-x="559" 
d="M29 0l213 518h74l214 -518h-80l-53 134h-235l-53 -134h-80zM279 433l-97 -243h195zM179 666c0 57 41 97 100 97s100 -40 100 -97s-40 -97 -99 -97s-101 40 -101 97zM222 666c0 -34 24 -57 58 -57s56 23 56 57s-23 58 -57 58s-57 -24 -57 -58z" />
    <glyph glyph-name="Aringacute.sc" unicode="&#xe220;" horiz-adv-x="559" 
d="M29 0l213 518h74l214 -518h-80l-53 134h-235l-53 -134h-80zM279 433l-97 -243h195zM220 661c0 -35 25 -59 60 -59s58 24 58 59s-25 59 -59 59c-35 0 -59 -24 -59 -59zM422 804l-96 -59c33 -14 53 -45 53 -84c0 -55 -40 -94 -99 -94s-101 39 -101 94c0 36 18 64 48 84
l162 109z" />
    <glyph glyph-name="Aogonek.sc" unicode="&#xe223;" horiz-adv-x="559" 
d="M29 0l213 518h74l214 -518c-56 -44 -91 -86 -91 -127c0 -29 22 -47 50 -47c13 0 28 3 41 8l11 -46c-23 -9 -46 -13 -69 -13c-54 0 -94 32 -94 85c0 48 34 97 91 140h-19l-53 134h-235l-53 -134h-80zM279 433l-97 -243h195z" />
    <glyph glyph-name="AE.sc" unicode="&#xe224;" horiz-adv-x="791" 
d="M384 0v134h-200l-87 -134h-88l340 518h373v-60h-262v-165h237v-56h-237v-177h274v-60h-350zM384 447l-166 -254h166v254z" />
    <glyph glyph-name="AEacute.sc" unicode="&#xe225;" horiz-adv-x="791" 
d="M604 694l-175 -111l-31 45l170 118zM384 0v134h-200l-87 -134h-88l340 518h373v-60h-262v-165h237v-56h-237v-177h274v-60h-350zM384 447l-166 -254h166v254z" />
    <glyph glyph-name="Cacute.sc" unicode="&#xe226;" horiz-adv-x="540" 
d="M55 259c0 159 107 271 260 271c60 0 122 -19 179 -57l-34 -55c-43 30 -90 46 -136 46c-111 0 -188 -84 -188 -205s77 -206 188 -206c46 0 93 17 136 47l34 -55c-57 -38 -119 -57 -179 -57c-153 0 -260 111 -260 271zM445 694l-175 -111l-31 45l170 118z" />
    <glyph glyph-name="Ccircumflex.sc" unicode="&#xe227;" horiz-adv-x="540" 
d="M55 259c0 159 107 271 260 271c60 0 122 -19 179 -57l-34 -55c-43 30 -90 46 -136 46c-111 0 -188 -84 -188 -205s77 -206 188 -206c46 0 93 17 136 47l34 -55c-57 -38 -119 -57 -179 -57c-153 0 -260 111 -260 271zM154 623l123 119h50l123 -119l-35 -38l-113 100
l-113 -100z" />
    <glyph glyph-name="Ccaron.sc" unicode="&#xe228;" horiz-adv-x="540" 
d="M55 259c0 159 107 271 260 271c60 0 122 -19 179 -57l-34 -55c-43 30 -90 46 -136 46c-111 0 -188 -84 -188 -205s77 -206 188 -206c46 0 93 17 136 47l34 -55c-57 -38 -119 -57 -179 -57c-153 0 -260 111 -260 271zM450 709l-123 -118h-50l-123 118l35 39l113 -101
l113 101z" />
    <glyph glyph-name="Ccedilla.sc" unicode="&#xe22a;" horiz-adv-x="540" 
d="M55 259c0 159 107 271 260 271c60 0 122 -20 179 -57l-34 -55c-43 30 -90 46 -136 46c-111 0 -188 -84 -188 -205s77 -206 188 -206c46 0 93 17 136 47l34 -55c-51 -34 -105 -52 -158 -55l-8 -46c44 -6 74 -41 74 -82c0 -51 -47 -87 -114 -87c-28 0 -61 6 -92 18l15 47
c25 -9 50 -14 70 -14c32 0 56 17 56 43s-25 43 -61 43h-11l15 79c-135 14 -225 120 -225 268z" />
    <glyph glyph-name="Cdotaccent.sc" unicode="&#xe229;" horiz-adv-x="540" 
d="M55 259c0 159 107 271 260 271c60 0 122 -19 179 -57l-34 -55c-43 30 -90 46 -136 46c-111 0 -188 -84 -188 -205s77 -206 188 -206c46 0 93 17 136 47l34 -55c-57 -38 -119 -57 -179 -57c-153 0 -260 111 -260 271zM250 666c0 31 22 52 52 52s52 -21 52 -52
c0 -30 -22 -52 -52 -52s-52 22 -52 52z" />
    <glyph glyph-name="Dcaron.sc" unicode="&#xe22b;" horiz-adv-x="596" 
d="M92 0v518h185c158 0 264 -106 264 -259s-105 -259 -263 -259h-186zM460 259c0 116 -77 196 -191 196h-97v-393h97c114 0 191 81 191 197zM434 709l-123 -118h-50l-123 118l35 39l113 -101l113 101z" />
    <glyph glyph-name="Dcroat.sc" unicode="&#xe22c;" horiz-adv-x="608" 
d="M104 0v237h-70v56h70v225h185c158 0 264 -106 264 -259s-105 -259 -263 -259h-186zM475 259c0 118 -78 199 -194 199h-100v-165h132v-56h-132v-177h100c116 0 194 81 194 199z" />
    <glyph glyph-name="Eth.sc" unicode="&#xe282;" horiz-adv-x="608" 
d="M104 0v237h-70v56h70v225h185c158 0 264 -106 264 -259s-105 -259 -263 -259h-186zM475 259c0 118 -78 199 -194 199h-100v-165h132v-56h-132v-177h100c116 0 194 81 194 199z" />
    <glyph glyph-name="Egrave.sc" unicode="&#xe22d;" horiz-adv-x="502" 
d="M92 0v518h341v-60h-261v-165h236v-56h-236v-177h273v-60h-353zM158 746l170 -118l-31 -45l-175 111z" />
    <glyph glyph-name="Eacute.sc" unicode="&#xe22e;" horiz-adv-x="502" 
d="M92 0v518h341v-60h-261v-165h236v-56h-236v-177h273v-60h-353zM402 694l-175 -111l-31 45l170 118z" />
    <glyph glyph-name="Ecircumflex.sc" unicode="&#xe22f;" horiz-adv-x="502" 
d="M92 0v518h341v-60h-261v-165h236v-56h-236v-177h273v-60h-353zM111 623l123 119h50l123 -119l-35 -38l-113 100l-113 -100z" />
    <glyph glyph-name="Ecaron.sc" unicode="&#xe230;" horiz-adv-x="502" 
d="M92 0v518h341v-60h-261v-165h236v-56h-236v-177h273v-60h-353zM407 709l-123 -118h-50l-123 118l35 39l113 -101l113 101z" />
    <glyph glyph-name="Edieresis.sc" unicode="&#xe231;" horiz-adv-x="502" 
d="M92 0v518h341v-60h-261v-165h236v-56h-236v-177h273v-60h-353zM105 666c0 29 20 49 49 49s49 -20 49 -49s-20 -49 -49 -49s-49 20 -49 49zM315 666c0 29 20 49 49 49s49 -20 49 -49s-20 -49 -49 -49s-49 20 -49 49z" />
    <glyph glyph-name="Emacron.sc" unicode="&#xe232;" horiz-adv-x="502" 
d="M92 0v518h341v-60h-261v-165h236v-56h-236v-177h273v-60h-353zM111 638v57h296v-57h-296z" />
    <glyph glyph-name="Ebreve.sc" unicode="&#xe233;" horiz-adv-x="502" 
d="M92 0v518h341v-60h-261v-165h236v-56h-236v-177h273v-60h-353zM111 726h53c4 -52 42 -87 95 -87s91 35 95 87h53c-3 -87 -65 -143 -148 -143s-145 56 -148 143z" />
    <glyph glyph-name="Edotaccent.sc" unicode="&#xe234;" horiz-adv-x="502" 
d="M92 0v518h341v-60h-261v-165h236v-56h-236v-177h273v-60h-353zM207 666c0 31 22 52 52 52s52 -21 52 -52c0 -30 -22 -52 -52 -52s-52 22 -52 52z" />
    <glyph glyph-name="Eogonek.sc" unicode="&#xe235;" horiz-adv-x="502" 
d="M92 0v518h341v-60h-261v-165h236v-56h-236v-177h273v-60c-56 -44 -91 -86 -91 -127c0 -29 22 -47 50 -47c13 0 28 3 41 8l11 -46c-23 -9 -46 -13 -69 -13c-54 0 -94 32 -94 85c0 48 34 97 91 140h-292z" />
    <glyph glyph-name="Gcircumflex.sc" unicode="&#xe236;" horiz-adv-x="584" 
d="M514 276v-245c-61 -28 -125 -43 -189 -43c-160 0 -270 113 -270 271s109 271 265 271c61 0 124 -18 188 -53l-32 -55c-50 29 -100 45 -148 45c-116 0 -196 -85 -196 -208c0 -124 82 -209 200 -209c40 0 76 8 110 24v142h-126v60h198zM165 623l123 119h50l123 -119
l-35 -38l-113 100l-113 -100z" />
    <glyph glyph-name="Gbreve.sc" unicode="&#xe237;" horiz-adv-x="584" 
d="M514 276v-245c-61 -28 -125 -43 -189 -43c-160 0 -270 113 -270 271s109 271 265 271c61 0 124 -18 188 -53l-32 -55c-50 29 -100 45 -148 45c-116 0 -196 -85 -196 -208c0 -124 82 -209 200 -209c40 0 76 8 110 24v142h-126v60h198zM165 726h53c4 -52 42 -87 95 -87
s91 35 95 87h53c-3 -87 -65 -143 -148 -143s-145 56 -148 143z" />
    <glyph glyph-name="Gdotaccent.sc" unicode="&#xe238;" horiz-adv-x="584" 
d="M514 276v-245c-61 -28 -125 -43 -189 -43c-160 0 -270 113 -270 271s109 271 265 271c61 0 124 -18 188 -53l-32 -55c-50 29 -100 45 -148 45c-116 0 -196 -85 -196 -208c0 -124 82 -209 200 -209c40 0 76 8 110 24v142h-126v60h198zM261 666c0 31 22 52 52 52
s52 -21 52 -52c0 -30 -22 -52 -52 -52s-52 22 -52 52z" />
    <glyph glyph-name="Gcommaaccent.sc" unicode="&#xe239;" horiz-adv-x="584" 
d="M514 276v-245c-61 -28 -125 -43 -189 -43c-160 0 -270 113 -270 271s109 271 265 271c61 0 124 -18 188 -53l-32 -55c-50 29 -100 45 -148 45c-116 0 -196 -85 -196 -208c0 -124 82 -209 200 -209c40 0 76 8 110 24v142h-126v60h198zM264 -109c0 29 20 49 49 49
c32 0 53 -25 53 -65c0 -63 -34 -120 -95 -157l-23 31c37 28 58 62 61 99c-25 -1 -45 18 -45 43z" />
    <glyph glyph-name="Hcircumflex.sc" unicode="&#xe23a;" horiz-adv-x="636" 
d="M92 0v518h80v-222h293v222h79v-518h-79v234h-293v-234h-80zM170 623l123 119h50l123 -119l-35 -38l-113 100l-113 -100z" />
    <glyph glyph-name="Hbar.sc" unicode="&#xe23b;" horiz-adv-x="636" 
d="M26 396v51h66v71h80v-71h293v71h79v-71h66v-51h-66v-396h-79v234h-293v-234h-80v396h-66zM172 293h293v103h-293v-103z" />
    <glyph glyph-name="dotlessi.sc" unicode="&#xe244;" horiz-adv-x="264" 
d="M92 0v518h80v-518h-80z" />
    <glyph glyph-name="Igrave.sc" unicode="&#xe23c;" horiz-adv-x="264" 
d="M92 0v518h80v-518h-80zM31 746l170 -118l-31 -45l-175 111z" />
    <glyph glyph-name="Iacute.sc" unicode="&#xe23d;" horiz-adv-x="264" 
d="M92 0v518h80v-518h-80zM275 694l-175 -111l-31 45l170 118z" />
    <glyph glyph-name="Icircumflex.sc" unicode="&#xe23e;" horiz-adv-x="264" 
d="M92 0v518h80v-518h-80zM-16 623l123 119h50l123 -119l-35 -38l-113 100l-113 -100z" />
    <glyph glyph-name="Itilde.sc" unicode="&#xe23f;" horiz-adv-x="264" 
d="M92 0v518h80v-518h-80zM68 713c46 0 91 -37 122 -37c20 0 35 14 42 37l51 -15c-10 -47 -43 -79 -87 -79c-46 0 -91 37 -122 37c-20 0 -35 -13 -42 -37l-51 16c10 47 43 78 87 78z" />
    <glyph glyph-name="Idieresis.sc" unicode="&#xe240;" horiz-adv-x="264" 
d="M92 0v518h80v-518h-80zM-22 666c0 29 20 49 49 49s49 -20 49 -49s-20 -49 -49 -49s-49 20 -49 49zM188 666c0 29 20 49 49 49s49 -20 49 -49s-20 -49 -49 -49s-49 20 -49 49z" />
    <glyph glyph-name="Imacron.sc" unicode="&#xe241;" horiz-adv-x="264" 
d="M92 0v518h80v-518h-80zM-16 638v57h296v-57h-296z" />
    <glyph glyph-name="Ibreve.sc" unicode="&#xe242;" horiz-adv-x="264" 
d="M92 0v518h80v-518h-80zM-16 726h53c4 -52 42 -87 95 -87s91 35 95 87h53c-3 -87 -65 -143 -148 -143s-145 56 -148 143z" />
    <glyph glyph-name="Idotaccent.sc" unicode="&#xe243;" horiz-adv-x="264" 
d="M92 0v518h80v-518h-80zM80 666c0 31 22 52 52 52s52 -21 52 -52c0 -30 -22 -52 -52 -52s-52 22 -52 52z" />
    <glyph glyph-name="Iogonek.sc" unicode="&#xe245;" horiz-adv-x="264" 
d="M172 518v-518c-56 -44 -91 -86 -91 -127c0 -29 22 -47 50 -47c13 0 28 3 41 8l11 -46c-23 -9 -46 -13 -69 -13c-54 0 -94 32 -94 85c0 48 34 97 91 140h-19v518h80z" />
    <glyph glyph-name="IJ.sc" unicode="&#xe246;" horiz-adv-x="633" 
d="M92 0v518h80v-518h-80zM541 518v-380c0 -89 -63 -150 -154 -150c-33 0 -66 4 -102 13l11 63c27 -7 51 -11 75 -11c54 0 91 37 91 91v374h79z" />
    <glyph glyph-name="Jcircumflex.sc" unicode="&#xe247;" horiz-adv-x="385" 
d="M293 518v-380c0 -89 -63 -150 -154 -150c-33 0 -66 4 -102 13l11 63c27 -7 51 -11 75 -11c54 0 91 37 91 91v374h79zM105 623l123 119h50l123 -119l-35 -38l-113 100l-113 -100z" />
    <glyph glyph-name="Kcommaaccent.sc" unicode="&#xe248;" horiz-adv-x="556" 
d="M92 0v518h77v-261l249 261h94l-234 -243l245 -275h-94l-204 228l-56 -58v-170h-77zM232 -109c0 29 20 49 49 49c32 0 53 -25 53 -65c0 -63 -34 -120 -95 -157l-23 31c37 28 58 62 61 99c-25 -1 -45 18 -45 43z" />
    <glyph glyph-name="Lacute.sc" unicode="&#xe24a;" horiz-adv-x="454" 
d="M92 0v518h80v-456h244v-62h-324zM275 694l-175 -111l-31 45l170 118z" />
    <glyph glyph-name="Lcaron.sc" unicode="&#xe24b;" horiz-adv-x="454" 
d="M92 0v518h80v-456h244v-62h-324zM365 527l-70 -168l-53 18l63 170z" />
    <glyph glyph-name="Lcommaaccent.sc" unicode="&#xe24d;" horiz-adv-x="454" 
d="M92 0v518h80v-456h244v-62h-324zM196 -109c0 29 20 49 49 49c32 0 53 -25 53 -65c0 -63 -34 -120 -95 -157l-23 31c37 28 58 62 61 99c-25 -1 -45 18 -45 43z" />
    <glyph glyph-name="Lslash.sc" unicode="&#xe24e;" horiz-adv-x="466" 
d="M104 0v213l-54 -27l-25 49l79 38v245h80v-205l104 52l25 -49l-129 -63v-191h243v-62h-323z" />
    <glyph glyph-name="Ldot.sc" unicode="&#xe24c;" horiz-adv-x="454" 
d="M301 274c0 30 20 50 50 50s50 -20 50 -50s-20 -51 -50 -51s-50 21 -50 51zM92 0v518h80v-456h244v-62h-324z" />
    <glyph glyph-name="Nacute.sc" unicode="&#xe24f;" horiz-adv-x="636" 
d="M92 0v518h78l302 -411v411h72v-518h-78l-302 410v-410h-72zM461 694l-175 -111l-31 45l170 118z" />
    <glyph glyph-name="Ncaron.sc" horiz-adv-x="636" 
d="M92 0v518h78l302 -411v411h72v-518h-78l-302 410v-410h-72zM466 709l-123 -118h-50l-123 118l35 39l113 -101l113 101z" />
    <glyph glyph-name="Ntilde.sc" unicode="&#xe251;" horiz-adv-x="636" 
d="M92 0v518h78l302 -411v411h72v-518h-78l-302 410v-410h-72zM254 713c46 0 91 -37 122 -37c20 0 35 14 42 37l51 -15c-10 -47 -43 -79 -87 -79c-46 0 -91 37 -122 37c-20 0 -35 -13 -42 -37l-51 16c10 47 43 78 87 78z" />
    <glyph glyph-name="Ncommaaccent.sc" unicode="&#xe252;" horiz-adv-x="636" 
d="M92 0v518h78l302 -411v411h72v-518h-78l-302 410v-410h-72zM269 -109c0 29 20 49 49 49c32 0 53 -25 53 -65c0 -63 -34 -120 -95 -157l-23 31c37 28 58 62 61 99c-25 -1 -45 18 -45 43z" />
    <glyph glyph-name="Napostrophe.sc" unicode="&#xe253;" horiz-adv-x="804" 
d="M259 0v518h78l302 -411v411h72v-518h-78l-302 410v-410h-72zM68 642c0 29 20 49 49 49c32 0 53 -25 53 -65c0 -63 -34 -120 -95 -157l-23 31c37 28 58 62 61 99c-25 -1 -45 18 -45 43z" />
    <glyph glyph-name="Eng.sc" unicode="&#xe281;" horiz-adv-x="636" 
d="M92 0v518h78l300 -408v408h74v-588c0 -89 -63 -150 -154 -150c-33 0 -66 4 -102 13l11 63c28 -7 52 -11 77 -11c54 0 91 36 91 89v64l-301 410v-408h-74z" />
    <glyph glyph-name="Ograve.sc" unicode="&#xe254;" horiz-adv-x="636" 
d="M55 259c0 159 108 271 263 271s263 -112 263 -271s-108 -271 -263 -271s-263 112 -263 271zM136 259c0 -122 75 -207 182 -207s182 85 182 207c0 121 -75 207 -182 207s-182 -86 -182 -207zM217 746l170 -118l-31 -45l-175 111z" />
    <glyph glyph-name="Oacute.sc" unicode="&#xe255;" horiz-adv-x="636" 
d="M55 259c0 159 108 271 263 271s263 -112 263 -271s-108 -271 -263 -271s-263 112 -263 271zM136 259c0 -122 75 -207 182 -207s182 85 182 207c0 121 -75 207 -182 207s-182 -86 -182 -207zM461 694l-175 -111l-31 45l170 118z" />
    <glyph glyph-name="Ocircumflex.sc" unicode="&#xe256;" horiz-adv-x="636" 
d="M55 259c0 159 108 271 263 271s263 -112 263 -271s-108 -271 -263 -271s-263 112 -263 271zM136 259c0 -122 75 -207 182 -207s182 85 182 207c0 121 -75 207 -182 207s-182 -86 -182 -207zM170 623l123 119h50l123 -119l-35 -38l-113 100l-113 -100z" />
    <glyph glyph-name="Otilde.sc" unicode="&#xe257;" horiz-adv-x="636" 
d="M55 259c0 159 108 271 263 271s263 -112 263 -271s-108 -271 -263 -271s-263 112 -263 271zM136 259c0 -122 75 -207 182 -207s182 85 182 207c0 121 -75 207 -182 207s-182 -86 -182 -207zM254 713c46 0 91 -37 122 -37c20 0 35 14 42 37l51 -15
c-10 -47 -43 -79 -87 -79c-46 0 -91 37 -122 37c-20 0 -35 -13 -42 -37l-51 16c10 47 43 78 87 78z" />
    <glyph glyph-name="Odieresis.sc" unicode="&#xe258;" horiz-adv-x="636" 
d="M55 259c0 159 108 271 263 271s263 -112 263 -271s-108 -271 -263 -271s-263 112 -263 271zM136 259c0 -122 75 -207 182 -207s182 85 182 207c0 121 -75 207 -182 207s-182 -86 -182 -207zM164 666c0 29 20 49 49 49s49 -20 49 -49s-20 -49 -49 -49s-49 20 -49 49z
M374 666c0 29 20 49 49 49s49 -20 49 -49s-20 -49 -49 -49s-49 20 -49 49z" />
    <glyph glyph-name="Omacron.sc" unicode="&#xe259;" horiz-adv-x="636" 
d="M55 259c0 159 108 271 263 271s263 -112 263 -271s-108 -271 -263 -271s-263 112 -263 271zM136 259c0 -122 75 -207 182 -207s182 85 182 207c0 121 -75 207 -182 207s-182 -86 -182 -207zM170 638v57h296v-57h-296z" />
    <glyph glyph-name="Obreve.sc" unicode="&#xe25a;" horiz-adv-x="636" 
d="M55 259c0 159 108 271 263 271s263 -112 263 -271s-108 -271 -263 -271s-263 112 -263 271zM136 259c0 -122 75 -207 182 -207s182 85 182 207c0 121 -75 207 -182 207s-182 -86 -182 -207zM170 726h53c4 -52 42 -87 95 -87s91 35 95 87h53c-3 -87 -65 -143 -148 -143
s-145 56 -148 143z" />
    <glyph glyph-name="Ohungarumlaut.sc" unicode="&#xe25b;" horiz-adv-x="636" 
d="M55 259c0 159 108 271 263 271s263 -112 263 -271s-108 -271 -263 -271s-263 112 -263 271zM136 259c0 -122 75 -207 182 -207s182 85 182 207c0 121 -75 207 -182 207s-182 -86 -182 -207zM553 723l-149 -143l-42 41l144 149zM358 723l-149 -143l-41 41l143 149z" />
    <glyph glyph-name="Oslash.sc" unicode="&#xe25c;" horiz-adv-x="636" 
d="M55 259c0 159 108 271 263 271c55 0 104 -16 143 -43l39 52l36 -28l-37 -49c52 -47 82 -119 82 -203c0 -159 -108 -271 -263 -271c-55 0 -104 15 -143 42l-38 -51l-36 27l36 49c-52 48 -82 119 -82 204zM506 259c0 59 -19 109 -50 145l-242 -321c28 -22 63 -34 104 -34
c111 0 188 87 188 210zM130 259c0 -59 18 -111 50 -146l241 321c-27 23 -63 35 -103 35c-111 0 -188 -87 -188 -210z" />
    <glyph glyph-name="Oslashacute.sc" unicode="&#xe25d;" horiz-adv-x="636" 
d="M55 259c0 159 108 271 263 271c55 0 104 -16 143 -43l39 52l36 -28l-37 -49c52 -47 82 -119 82 -203c0 -159 -108 -271 -263 -271c-55 0 -104 15 -143 42l-38 -51l-36 27l36 49c-52 48 -82 119 -82 204zM506 259c0 59 -19 109 -50 145l-242 -321c28 -22 63 -34 104 -34
c111 0 188 87 188 210zM130 259c0 -59 18 -111 50 -146l241 321c-27 23 -63 35 -103 35c-111 0 -188 -87 -188 -210zM461 694l-175 -111l-31 45l170 118z" />
    <glyph glyph-name="OE.sc" unicode="&#xe25e;" horiz-adv-x="817" 
d="M748 518v-60h-262v-165h237v-56h-237v-177h274v-60h-441c-158 0 -264 106 -264 259s106 259 264 259h429zM136 259c0 -116 77 -197 192 -197h78v393h-78c-115 0 -192 -80 -192 -196z" />
    <glyph glyph-name="Thorn.sc" unicode="&#xe283;" horiz-adv-x="520" 
d="M92 0v518h75v-88h127c105 0 178 -67 178 -165s-73 -165 -178 -165h-127v-100h-75zM167 369v-208h115c67 0 113 42 113 104s-46 104 -113 104h-115z" />
    <glyph glyph-name="Racute.sc" unicode="&#xe25f;" horiz-adv-x="545" 
d="M92 0v518h205c101 0 171 -63 171 -158c0 -78 -49 -138 -124 -150l146 -210h-86l-134 199h-104v-199h-74zM166 457v-197h121c63 0 106 39 106 99c0 59 -43 98 -106 98h-121zM420 694l-175 -111l-31 45l170 118z" />
    <glyph glyph-name="Rcaron.sc" unicode="&#xe260;" horiz-adv-x="545" 
d="M92 0v518h205c101 0 171 -63 171 -158c0 -78 -49 -138 -124 -150l146 -210h-86l-134 199h-104v-199h-74zM166 457v-197h121c63 0 106 39 106 99c0 59 -43 98 -106 98h-121zM425 709l-123 -118h-50l-123 118l35 39l113 -101l113 101z" />
    <glyph glyph-name="Rcommaaccent.sc" unicode="&#xe261;" horiz-adv-x="545" 
d="M92 0v518h205c101 0 171 -63 171 -158c0 -78 -49 -138 -124 -150l146 -210h-86l-134 199h-104v-199h-74zM166 457v-197h121c63 0 106 39 106 99c0 59 -43 98 -106 98h-121zM228 -109c0 29 20 49 49 49c32 0 53 -25 53 -65c0 -63 -34 -120 -95 -157l-23 31
c37 28 58 62 61 99c-25 -1 -45 18 -45 43z" />
    <glyph glyph-name="Sacute.sc" unicode="&#xe262;" horiz-adv-x="488" 
d="M59 384c0 86 75 146 185 146c55 0 114 -14 172 -38l-19 -60c-50 23 -101 35 -147 35c-69 0 -113 -34 -113 -83c0 -127 296 -53 296 -248c0 -90 -76 -148 -189 -148c-58 0 -126 15 -189 41l18 60c58 -24 116 -39 166 -39c70 0 116 35 116 86c0 131 -296 59 -296 248z
M387 694l-175 -111l-31 45l170 118z" />
    <glyph glyph-name="Scircumflex.sc" unicode="&#xe263;" horiz-adv-x="488" 
d="M59 384c0 86 75 146 185 146c55 0 114 -14 172 -38l-19 -60c-50 23 -101 35 -147 35c-69 0 -113 -34 -113 -83c0 -127 296 -53 296 -248c0 -90 -76 -148 -189 -148c-58 0 -126 15 -189 41l18 60c58 -24 116 -39 166 -39c70 0 116 35 116 86c0 131 -296 59 -296 248z
M96 623l123 119h50l123 -119l-35 -38l-113 100l-113 -100z" />
    <glyph glyph-name="Scaron.sc" unicode="&#xe264;" horiz-adv-x="488" 
d="M59 384c0 86 75 146 185 146c55 0 114 -14 172 -38l-19 -60c-50 23 -101 35 -147 35c-69 0 -113 -34 -113 -83c0 -127 296 -53 296 -248c0 -90 -76 -148 -189 -148c-58 0 -126 15 -189 41l18 60c58 -24 116 -39 166 -39c70 0 116 35 116 86c0 131 -296 59 -296 248z
M392 709l-123 -118h-50l-123 118l35 39l113 -101l113 101z" />
    <glyph glyph-name="Scedilla.sc" unicode="&#xe265;" horiz-adv-x="488" 
d="M59 384c0 86 75 146 185 146c55 0 114 -14 172 -38l-19 -60c-50 23 -101 35 -147 35c-69 0 -113 -34 -113 -83c0 -127 296 -53 296 -248c0 -80 -61 -135 -154 -145l-9 -47c44 -6 74 -41 74 -82c0 -51 -47 -87 -114 -87c-28 0 -60 6 -91 18l14 47c25 -9 50 -14 70 -14
c32 0 56 17 56 43s-25 43 -60 43h-11l14 77c-53 3 -111 16 -167 40l18 60c58 -24 116 -39 166 -39c70 0 116 35 116 86c0 131 -296 59 -296 248z" />
    <glyph glyph-name="Scommaaccent.sc" unicode="&#xe266;" horiz-adv-x="488" 
d="M59 384c0 86 75 146 185 146c55 0 114 -14 172 -38l-19 -60c-50 23 -101 35 -147 35c-69 0 -113 -34 -113 -83c0 -127 296 -53 296 -248c0 -90 -76 -148 -189 -148c-58 0 -126 15 -189 41l18 60c58 -24 116 -39 166 -39c70 0 116 35 116 86c0 131 -296 59 -296 248z
M195 -109c0 29 20 49 49 49c32 0 53 -25 53 -65c0 -63 -34 -120 -95 -157l-23 31c37 28 58 62 61 99c-25 -1 -45 18 -45 43z" />
    <glyph glyph-name="germandoubles.sc" unicode="&#xe267;" horiz-adv-x="636" 
d="M92 0v518h465v-46l-120 -163c85 -14 139 -75 139 -155c0 -96 -75 -164 -179 -164c-51 0 -102 14 -153 45l29 57c41 -23 80 -37 117 -37c66 0 111 41 111 99c0 60 -49 104 -122 104h-16l-12 38l117 160h-302v-456h-74z" />
    <glyph glyph-name="Tcaron.sc" unicode="&#xe268;" horiz-adv-x="502" 
d="M211 0v455h-173v63h426v-63h-173v-455h-80zM399 709l-123 -118h-50l-123 118l35 39l113 -101l113 101z" />
    <glyph glyph-name="Tcommaaccent.sc" unicode="&#xe269;" horiz-adv-x="502" 
d="M211 0v455h-173v63h426v-63h-173v-455h-80zM202 -109c0 29 20 49 49 49c32 0 53 -25 53 -65c0 -63 -34 -120 -95 -157l-23 31c37 28 58 62 61 99c-25 -1 -45 18 -45 43z" />
    <glyph glyph-name="uni021A.sc" horiz-adv-x="502" 
d="M211 0v455h-173v63h426v-63h-173v-455h-80zM202 -109c0 29 20 49 49 49c32 0 53 -25 53 -65c0 -63 -34 -120 -95 -157l-23 31c37 28 58 62 61 99c-25 -1 -45 18 -45 43z" />
    <glyph glyph-name="Tbar.sc" unicode="&#xe26b;" horiz-adv-x="502" 
d="M211 0v217h-105v57h105v181h-173v63h426v-63h-173v-181h106v-57h-106v-217h-80z" />
    <glyph glyph-name="Ugrave.sc" unicode="&#xe26c;" horiz-adv-x="636" 
d="M550 518v-317c0 -125 -97 -213 -232 -213s-231 88 -231 213v317h79v-316c0 -88 63 -150 152 -150s152 62 152 150v316h80zM217 746l170 -118l-31 -45l-175 111z" />
    <glyph glyph-name="Uacute.sc" unicode="&#xe26d;" horiz-adv-x="636" 
d="M550 518v-317c0 -125 -97 -213 -232 -213s-231 88 -231 213v317h79v-316c0 -88 63 -150 152 -150s152 62 152 150v316h80zM461 694l-175 -111l-31 45l170 118z" />
    <glyph glyph-name="Ucircumflex.sc" unicode="&#xe26e;" horiz-adv-x="636" 
d="M550 518v-317c0 -125 -97 -213 -232 -213s-231 88 -231 213v317h79v-316c0 -88 63 -150 152 -150s152 62 152 150v316h80zM170 623l123 119h50l123 -119l-35 -38l-113 100l-113 -100z" />
    <glyph glyph-name="Utilde.sc" unicode="&#xe26f;" horiz-adv-x="636" 
d="M550 518v-317c0 -125 -97 -213 -232 -213s-231 88 -231 213v317h79v-316c0 -88 63 -150 152 -150s152 62 152 150v316h80zM254 713c46 0 91 -37 122 -37c20 0 35 14 42 37l51 -15c-10 -47 -43 -79 -87 -79c-46 0 -91 37 -122 37c-20 0 -35 -13 -42 -37l-51 16
c10 47 43 78 87 78z" />
    <glyph glyph-name="Udieresis.sc" unicode="&#xe270;" horiz-adv-x="636" 
d="M550 518v-317c0 -125 -97 -213 -232 -213s-231 88 -231 213v317h79v-316c0 -88 63 -150 152 -150s152 62 152 150v316h80zM164 666c0 29 20 49 49 49s49 -20 49 -49s-20 -49 -49 -49s-49 20 -49 49zM374 666c0 29 20 49 49 49s49 -20 49 -49s-20 -49 -49 -49
s-49 20 -49 49z" />
    <glyph glyph-name="Umacron.sc" unicode="&#xe272;" horiz-adv-x="636" 
d="M550 518v-317c0 -125 -97 -213 -232 -213s-231 88 -231 213v317h79v-316c0 -88 63 -150 152 -150s152 62 152 150v316h80zM170 638v57h296v-57h-296z" />
    <glyph glyph-name="Ubreve.sc" unicode="&#xe273;" horiz-adv-x="636" 
d="M550 518v-317c0 -125 -97 -213 -232 -213s-231 88 -231 213v317h79v-316c0 -88 63 -150 152 -150s152 62 152 150v316h80zM170 726h53c4 -52 42 -87 95 -87s91 35 95 87h53c-3 -87 -65 -143 -148 -143s-145 56 -148 143z" />
    <glyph glyph-name="Uring.sc" unicode="&#xe271;" horiz-adv-x="636" 
d="M550 518v-317c0 -125 -97 -213 -232 -213s-231 88 -231 213v317h79v-316c0 -88 63 -150 152 -150s152 62 152 150v316h80zM218 666c0 57 41 97 100 97s100 -40 100 -97s-40 -97 -99 -97s-101 40 -101 97zM261 666c0 -34 24 -57 58 -57s56 23 56 57s-23 58 -57 58
s-57 -24 -57 -58z" />
    <glyph glyph-name="Uhungarumlaut.sc" unicode="&#xe274;" horiz-adv-x="636" 
d="M550 518v-317c0 -125 -97 -213 -232 -213s-231 88 -231 213v317h79v-316c0 -88 63 -150 152 -150s152 62 152 150v316h80zM553 723l-149 -143l-42 41l144 149zM358 723l-149 -143l-41 41l143 149z" />
    <glyph glyph-name="Uogonek.sc" unicode="&#xe275;" horiz-adv-x="636" 
d="M550 518v-313c0 -94 -52 -154 -135 -206c-73 -45 -107 -87 -107 -126c0 -29 23 -47 50 -47c13 0 28 3 41 8l11 -46c-23 -9 -46 -13 -69 -13c-54 0 -94 32 -94 85c0 50 39 96 86 130c-14 -1 -28 -1 -42 0c-113 10 -204 86 -204 211v317h79v-316c0 -88 63 -150 152 -150
c86 0 152 61 152 150v316h80z" />
    <glyph glyph-name="Wgrave.sc" unicode="&#xe276;" horiz-adv-x="818" 
d="M781 518l-166 -518h-79l-127 419l-127 -419h-78l-167 518h80l128 -419l127 419h74l127 -419l128 419h80zM308 746l170 -118l-31 -45l-175 111z" />
    <glyph glyph-name="Wacute.sc" unicode="&#xe277;" horiz-adv-x="818" 
d="M781 518l-166 -518h-79l-127 419l-127 -419h-78l-167 518h80l128 -419l127 419h74l127 -419l128 419h80zM552 694l-175 -111l-31 45l170 118z" />
    <glyph glyph-name="Wcircumflex.sc" unicode="&#xe278;" horiz-adv-x="818" 
d="M781 518l-166 -518h-79l-127 419l-127 -419h-78l-167 518h80l128 -419l127 419h74l127 -419l128 419h80zM261 623l123 119h50l123 -119l-35 -38l-113 100l-113 -100z" />
    <glyph glyph-name="Wdieresis.sc" unicode="&#xe279;" horiz-adv-x="818" 
d="M781 518l-166 -518h-79l-127 419l-127 -419h-78l-167 518h80l128 -419l127 419h74l127 -419l128 419h80zM255 666c0 29 20 49 49 49s49 -20 49 -49s-20 -49 -49 -49s-49 20 -49 49zM465 666c0 29 20 49 49 49s49 -20 49 -49s-20 -49 -49 -49s-49 20 -49 49z" />
    <glyph glyph-name="Ygrave.sc" unicode="&#xe27a;" horiz-adv-x="508" 
d="M214 0v216l-190 302h87l143 -230l142 230h87l-189 -302v-216h-80zM153 746l170 -118l-31 -45l-175 111z" />
    <glyph glyph-name="Yacute.sc" unicode="&#xe27b;" horiz-adv-x="508" 
d="M214 0v216l-190 302h87l143 -230l142 230h87l-189 -302v-216h-80zM397 694l-175 -111l-31 45l170 118z" />
    <glyph glyph-name="Ycircumflex.sc" unicode="&#xe27c;" horiz-adv-x="508" 
d="M214 0v216l-190 302h87l143 -230l142 230h87l-189 -302v-216h-80zM106 623l123 119h50l123 -119l-35 -38l-113 100l-113 -100z" />
    <glyph glyph-name="Ydieresis.sc" unicode="&#xe27d;" horiz-adv-x="508" 
d="M214 0v216l-190 302h87l143 -230l142 230h87l-189 -302v-216h-80zM100 666c0 29 20 49 49 49s49 -20 49 -49s-20 -49 -49 -49s-49 20 -49 49zM310 666c0 29 20 49 49 49s49 -20 49 -49s-20 -49 -49 -49s-49 20 -49 49z" />
    <glyph glyph-name="Zacute.sc" unicode="&#xe27e;" horiz-adv-x="528" 
d="M56 0v47l304 408h-296v63h400v-47l-304 -409h312v-62h-416zM407 694l-175 -111l-31 45l170 118z" />
    <glyph glyph-name="Zcaron.sc" unicode="&#xe27f;" horiz-adv-x="528" 
d="M56 0v47l304 408h-296v63h400v-47l-304 -409h312v-62h-416zM412 709l-123 -118h-50l-123 118l35 39l113 -101l113 101z" />
    <glyph glyph-name="Zdotaccent.sc" unicode="&#xe280;" horiz-adv-x="528" 
d="M56 0v47l304 408h-296v63h400v-47l-304 -409h312v-62h-416zM212 666c0 31 22 52 52 52s52 -21 52 -52c0 -30 -22 -52 -52 -52s-52 22 -52 52z" />
    <glyph glyph-name="afii10017" unicode="&#x410;" horiz-adv-x="671" 
d="M20 0l277 672h77l277 -672h-84l-74 184h-315l-74 -184h-84zM335 578l-134 -331h268z" />
    <glyph glyph-name="afii10018" unicode="&#x411;" horiz-adv-x="639" 
d="M100 0v672h440v-62h-360v-225h204c123 0 210 -79 210 -192c0 -114 -87 -193 -210 -193h-284zM180 323v-261h192c83 0 141 53 141 131c0 77 -58 130 -141 130h-192z" />
    <glyph glyph-name="afii10019" unicode="&#x412;" horiz-adv-x="652" 
d="M100 0v672h271c117 0 199 -72 199 -174c0 -69 -40 -125 -103 -150c79 -23 127 -87 127 -166c0 -109 -86 -182 -207 -182h-287zM180 316v-254h196c81 0 137 52 137 127s-56 127 -137 127h-196zM180 610v-238h181c76 0 129 49 129 119s-53 119 -129 119h-181z" />
    <glyph glyph-name="afii10020" unicode="&#x413;" horiz-adv-x="534" 
d="M100 0v672h408v-65h-326v-607h-82z" />
    <glyph glyph-name="afii10021" unicode="&#x414;" horiz-adv-x="775" 
d="M28 -176v241h48c55 96 83 209 83 334v273h478v-607h96v-241h-77v176h-551v-176h-77zM557 65v542h-319v-214c0 -122 -24 -233 -72 -328h391z" />
    <glyph glyph-name="afii10022" unicode="&#x415;" horiz-adv-x="598" 
d="M100 0v672h429v-64h-347v-233h315v-62h-315v-249h363v-64h-445z" />
    <glyph glyph-name="afii10024" unicode="&#x416;" horiz-adv-x="992" 
d="M456 0v311h-94l-238 -311h-92l266 347l-251 325h89l228 -295h92v295h80v-295h92l228 295h89l-251 -325l266 -347h-92l-238 311h-94v-311h-80z" />
    <glyph glyph-name="afii10025" unicode="&#x417;" horiz-adv-x="540" 
d="M170 314v60h57c104 0 167 51 167 123c0 71 -57 120 -145 120c-58 0 -122 -16 -188 -42l-25 62c75 30 152 47 224 47c126 0 214 -73 214 -178c0 -77 -50 -139 -129 -160c89 -23 145 -90 145 -172c0 -110 -95 -186 -230 -186c-76 0 -159 17 -240 51l25 62
c69 -30 141 -46 203 -46c96 0 161 52 161 128c0 78 -69 131 -182 131h-57z" />
    <glyph glyph-name="afii10026" unicode="&#x418;" horiz-adv-x="767" 
d="M100 0v672h77v-558l409 558h81v-672h-77v558l-409 -558h-81z" />
    <glyph glyph-name="afii10027" unicode="&#x419;" horiz-adv-x="767" 
d="M231 880h53c4 -52 42 -87 95 -87s91 35 95 87h53c-3 -87 -65 -143 -148 -143s-145 56 -148 143zM100 0v672h77v-558l409 558h81v-672h-77v558l-409 -558h-81z" />
    <glyph glyph-name="afii10028" unicode="&#x41a;" horiz-adv-x="663" 
d="M100 0v672h80v-295h90l255 295h93l-279 -324l294 -348h-95l-265 311h-93v-311h-80z" />
    <glyph glyph-name="afii10029" unicode="&#x41b;" horiz-adv-x="791" 
d="M691 672v-672h-80v607h-345v-408c0 -132 -69 -211 -185 -211c-22 0 -45 2 -71 7l8 67c19 -4 36 -6 51 -6c76 0 117 54 117 149v467h505z" />
    <glyph glyph-name="afii10030" unicode="&#x41c;" horiz-adv-x="855" 
d="M100 0v672h81l246 -336l247 336h81v-672h-77v558l-227 -309h-48l-226 309v-558h-77z" />
    <glyph glyph-name="afii10031" unicode="&#x41d;" horiz-adv-x="767" 
d="M100 0v672h82v-295h402v295h83v-672h-83v311h-402v-311h-82z" />
    <glyph glyph-name="afii10032" unicode="&#x41e;" horiz-adv-x="767" 
d="M49 336c0 204 139 348 334 348c196 0 334 -144 334 -348s-138 -348 -334 -348c-195 0 -334 144 -334 348zM134 336c0 -165 103 -281 249 -281s250 116 250 281s-104 281 -250 281s-249 -116 -249 -281z" />
    <glyph glyph-name="afii10033" unicode="&#x41f;" horiz-adv-x="767" 
d="M100 0v672h567v-672h-83v607h-402v-607h-82z" />
    <glyph glyph-name="afii10034" unicode="&#x420;" horiz-adv-x="620" 
d="M100 0v672h253c131 0 225 -87 225 -211c0 -123 -94 -210 -225 -210h-173v-251h-80zM180 607v-291h161c91 0 156 60 156 145s-65 146 -156 146h-161z" />
    <glyph glyph-name="afii10035" unicode="&#x421;" horiz-adv-x="646" 
d="M49 336c0 205 135 348 331 348c77 0 156 -25 227 -74l-35 -56c-56 40 -119 62 -181 62c-153 0 -257 -114 -257 -280s104 -280 257 -280c62 0 125 22 181 62l35 -56c-71 -49 -150 -74 -227 -74c-196 0 -331 143 -331 348z" />
    <glyph glyph-name="afii10036" unicode="&#x422;" horiz-adv-x="598" 
d="M258 0v607h-232v65h546v-65h-232v-607h-82z" />
    <glyph glyph-name="afii10037" unicode="&#x423;" horiz-adv-x="636" 
d="M616 672l-261 -559c-40 -84 -101 -125 -180 -125c-30 0 -59 4 -93 13l14 66c27 -8 51 -11 71 -11c47 0 84 25 112 82l8 18l-251 516h86l206 -443l202 443h86z" />
    <glyph glyph-name="afii10038" unicode="&#x424;" horiz-adv-x="775" 
d="M349 -32v100c-182 6 -308 116 -308 276s126 270 308 276v84h77v-84c181 -6 308 -116 308 -276s-127 -270 -308 -276v-100h-77zM120 344c0 -119 94 -204 229 -210v420c-135 -6 -229 -91 -229 -210zM655 344c0 119 -93 204 -229 210v-420c136 6 229 91 229 210z" />
    <glyph glyph-name="afii10039" unicode="&#x425;" horiz-adv-x="679" 
d="M30 0l256 344l-244 328h92l205 -275l205 275h93l-245 -328l257 -344h-94l-216 291l-215 -291h-94z" />
    <glyph glyph-name="afii10040" unicode="&#x426;" horiz-adv-x="804" 
d="M100 0v672h82v-607h402v607h83v-607h96v-241h-77v176h-586z" />
    <glyph glyph-name="afii10041" unicode="&#x427;" horiz-adv-x="697" 
d="M515 0v294c-75 -17 -151 -26 -217 -26c-140 0 -238 93 -238 224v180h83v-174c0 -96 70 -164 173 -164c60 0 130 10 199 25v313h83v-672h-83z" />
    <glyph glyph-name="afii10042" unicode="&#x428;" horiz-adv-x="1094" 
d="M100 0v672h82v-607h324v607h82v-607h323v607h83v-672h-894z" />
    <glyph glyph-name="afii10043" unicode="&#x429;" horiz-adv-x="1132" 
d="M100 0v672h82v-607h324v607h82v-607h323v607h83v-607h96v-241h-80v176h-910z" />
    <glyph glyph-name="afii10044" unicode="&#x42a;" horiz-adv-x="764" 
d="M228 607h-202v65h282v-273h200c124 0 214 -82 214 -199c0 -118 -90 -200 -214 -200h-280v607zM308 334v-269h188c85 0 145 55 145 135c0 78 -60 134 -145 134h-188z" />
    <glyph glyph-name="afii10045" unicode="&#x42b;" horiz-adv-x="918" 
d="M100 0v672h80v-273h200c124 0 214 -82 214 -199c0 -118 -90 -200 -214 -200h-280zM180 334v-269h188c85 0 145 55 145 135c0 78 -60 134 -145 134h-188zM736 0v672h82v-672h-82z" />
    <glyph glyph-name="afii10046" unicode="&#x42c;" horiz-adv-x="636" 
d="M100 0v672h80v-273h200c124 0 214 -82 214 -199c0 -118 -90 -200 -214 -200h-280zM180 334v-269h188c85 0 145 55 145 135c0 78 -60 134 -145 134h-188z" />
    <glyph glyph-name="afii10047" unicode="&#x42d;" horiz-adv-x="654" 
d="M604 336c0 -205 -135 -348 -331 -348c-76 0 -155 23 -226 72l34 56c57 -41 122 -63 182 -63c148 0 250 105 257 260h-369v62h368c-13 146 -114 244 -256 244c-60 0 -125 -22 -182 -63l-34 56c71 49 150 72 226 72c196 0 331 -143 331 -348z" />
    <glyph glyph-name="afii10048" unicode="&#x42e;" horiz-adv-x="1041" 
d="M100 0v672h82v-294h153c17 181 148 306 326 306c193 0 330 -144 330 -348s-137 -348 -330 -348c-183 0 -316 132 -327 322h-152v-310h-82zM414 336c0 -165 104 -281 247 -281c144 0 247 116 247 281s-103 281 -247 281c-143 0 -247 -116 -247 -281z" />
    <glyph glyph-name="afii10049" unicode="&#x42f;" horiz-adv-x="652" 
d="M472 0v267h-145l-184 -267h-91l196 279c-102 13 -169 90 -169 192c0 118 90 201 217 201h256v-672h-80zM472 332v275h-164c-87 0 -148 -57 -148 -138c0 -82 61 -137 148 -137h164z" />
    <glyph glyph-name="afii10052" unicode="&#x403;" horiz-adv-x="534" 
d="M100 0v672h408v-65h-326v-607h-82zM442 848l-175 -111l-31 45l170 118z" />
    <glyph glyph-name="afii10050" unicode="&#x490;" horiz-adv-x="534" 
d="M100 0v672h331v160h77v-225h-326v-607h-82z" />
    <glyph glyph-name="afii10051" unicode="&#x402;" horiz-adv-x="838" 
d="M242 0v607h-216v65h546v-65h-248v-245c85 18 160 26 229 26c153 0 243 -82 243 -200c0 -120 -91 -200 -232 -200c-43 0 -90 6 -137 17l16 66c41 -11 79 -15 112 -15c99 0 157 51 157 130c0 80 -60 136 -173 136c-63 0 -135 -9 -215 -25v-297h-82z" />
    </font>
</defs>
</svg>
