<svg xmlns="http://www.w3.org/2000/svg" width="30" height="30" viewBox="0 0 30 30"><defs><style>.a{fill:#0a8299;}.b{fill:none;stroke:#fff;stroke-linecap:round;stroke-linejoin:round;stroke-width:1.5px;}</style></defs><g transform="translate(7.333 5)"><circle class="a" cx="15" cy="15" r="15" transform="translate(-7.333 -5)"/><path class="b" d="M4.5,9H17.306" transform="translate(-3.236 -3.61)"/><path class="b" d="M17.232,6.073V16.83a1.469,1.469,0,0,1-1.39,1.537H8.89A1.469,1.469,0,0,1,7.5,16.83V6.073m2.085,0V4.537A1.469,1.469,0,0,1,10.976,3h2.781a1.469,1.469,0,0,1,1.39,1.537V6.073" transform="translate(-4.7 -0.683)"/><path class="b" d="M15,16.5v4.61" transform="translate(-8.756 -7.268)"/><path class="b" d="M21,16.5v4.61" transform="translate(-11.911 -7.268)"/></g></svg>