<svg xmlns="http://www.w3.org/2000/svg" width="26.834" height="22.046" viewBox="0 0 26.834 22.046"><defs><style>.a{fill:#707070;stroke:#fff;stroke-width:0.5px;}</style></defs><g transform="translate(-1406.416 -899.313)"><circle class="a" cx="1.197" cy="1.197" r="1.197" transform="translate(1410.257 903.154)"/><circle class="a" cx="1.197" cy="1.197" r="1.197" transform="translate(1413.848 903.154)"/><circle class="a" cx="1.197" cy="1.197" r="1.197" transform="translate(1417.439 903.154)"/><path class="a" d="M1413.25,916.92a1.2,1.2,0,0,1-.778-2.095l3.172-2.693-3.172-2.693a1.2,1.2,0,0,1,1.556-1.8l4.189,3.591a1.2,1.2,0,0,1,.106,1.69,1.336,1.336,0,0,1-.106.106l-4.189,3.59A1.137,1.137,0,0,1,1413.25,916.92Z"/><path class="a" d="M1427.015,915.723h-5.985a1.2,1.2,0,0,1,0-2.394h5.985a1.2,1.2,0,1,1,0,2.394Z"/><path class="a" d="M1431.8,899.563h-23.94a1.2,1.2,0,0,0-1.2,1.2v19.152a1.2,1.2,0,0,0,1.2,1.2h0a1.257,1.257,0,0,0,1.2-1.31c0-.022,0-.044,0-.066V901.957h21.546v16.758h-15.561a1.2,1.2,0,0,0-1.21,1.184,1.2,1.2,0,0,0,1.27,1.21h16.7a1.2,1.2,0,0,0,1.2-1.2V900.76A1.2,1.2,0,0,0,1431.8,899.563Z"/></g></svg>