<svg xmlns="http://www.w3.org/2000/svg" width="30" height="30" viewBox="0 0 30 30"><defs><style>.a{fill:#464e7e;}.b{fill:#fff;}</style></defs><g transform="translate(7 4)"><circle class="a" cx="15" cy="15" r="15" transform="translate(-7 -4)"/><g transform="translate(-821.141 146.814)"><path class="b" d="M821.579-135.425a.433.433,0,0,1-.31-.128.435.435,0,0,1-.128-.309v-1.724a.439.439,0,0,1,.437-.437H823.3a.431.431,0,0,1,.309.128.433.433,0,0,1,.128.309v1.724a.437.437,0,0,1-.437.437Zm1.287-.874v-.85h-.85v.85Z"/><path class="b" d="M821.579-131.6a.438.438,0,0,1-.438-.436v-1.724a.439.439,0,0,1,.437-.438H823.3a.432.432,0,0,1,.309.129.431.431,0,0,1,.128.309v1.723a.437.437,0,0,1-.437.437Zm1.287-.874v-.85h-.85v.85Z"/><path class="b" d="M821.579-127.785a.437.437,0,0,1-.31-.128.439.439,0,0,1-.128-.309v-1.725a.439.439,0,0,1,.437-.437H823.3a.435.435,0,0,1,.309.128.434.434,0,0,1,.128.309v1.725a.437.437,0,0,1-.437.437Zm1.287-.874v-.85h-.85v.85Z"/><path class="b" d="M825.367-140.107a.437.437,0,0,1-.437-.437.437.437,0,0,1,.437-.437h1.943a.437.437,0,0,1,.437.437.437.437,0,0,1-.437.437Z"/><path class="b" d="M825.367-132.467a.437.437,0,0,1-.437-.437.437.437,0,0,1,.437-.437h1.663a.437.437,0,0,1,.437.437.437.437,0,0,1-.437.437Z"/><path class="b" d="M825.367-128.647a.437.437,0,0,1-.437-.437.437.437,0,0,1,.437-.437h4.566a.437.437,0,0,1,.437.437.437.437,0,0,1-.437.437Z"/><path class="b" d="M822.246-139.246a.438.438,0,0,1-.308-.126l-.669-.668a.436.436,0,0,1,0-.609.432.432,0,0,1,.314-.133.432.432,0,0,1,.3.123l.277.276.775-1.263a.434.434,0,0,1,.369-.2.437.437,0,0,1,.235.068.436.436,0,0,1,.191.275.433.433,0,0,1-.058.329l-1.056,1.723a.421.421,0,0,1-.058.074.438.438,0,0,1-.315.133Z"/><path class="b" d="M830.244-139.942a3.4,3.4,0,0,0-3.4,3.4,3.4,3.4,0,0,0,3.4,3.4,3.4,3.4,0,0,0,3.4-3.4A3.4,3.4,0,0,0,830.244-139.942Zm0,5.828a2.432,2.432,0,0,1-2.429-2.428,2.432,2.432,0,0,1,2.429-2.429,2.431,2.431,0,0,1,2.428,2.429A2.431,2.431,0,0,1,830.244-134.114Z"/><path class="b" d="M838.7-130.33l-3.726-3.726a5.313,5.313,0,0,0,.615-2.486,5.349,5.349,0,0,0-5.342-5.343,5.349,5.349,0,0,0-5.343,5.343,5.314,5.314,0,0,0,1.225,3.4,5.854,5.854,0,0,0,4.118,1.943,5.31,5.31,0,0,0,2.612-.684l3.7,3.7a1.507,1.507,0,0,0,1.072.443,1.506,1.506,0,0,0,1.071-.443,1.5,1.5,0,0,0,.444-1.072A1.5,1.5,0,0,0,838.7-130.33Zm-8.453-1.842a4.375,4.375,0,0,1-4.371-4.37,4.376,4.376,0,0,1,4.371-4.371,4.375,4.375,0,0,1,4.37,4.371A4.374,4.374,0,0,1,830.244-132.172Zm7.767,3.3a.545.545,0,0,1-.771,0l-3.572-3.572a5.386,5.386,0,0,0,.76-.78l3.583,3.582a.545.545,0,0,1,.159.385A.543.543,0,0,1,838.011-128.873Z"/></g></g></svg>