<svg xmlns="http://www.w3.org/2000/svg" xmlns:xlink="http://www.w3.org/1999/xlink" width="98" height="98" viewBox="0 0 98 98"><defs><style>.a{fill:#00c4d9;}.b{fill:none;stroke:#fff;stroke-linecap:round;stroke-linejoin:round;stroke-width:3px;}.c{filter:url(#a);}</style><filter id="a" x="0" y="0" width="98" height="98" filterUnits="userSpaceOnUse"><feOffset dy="3" input="SourceAlpha"/><feGaussianBlur stdDeviation="3" result="b"/><feFlood flood-opacity="0.161"/><feComposite operator="in" in2="b"/><feComposite in="SourceGraphic"/></filter></defs><g transform="translate(-364 -83)"><g class="c" transform="matrix(1, 0, 0, 1, 364, 83)"><circle class="a" cx="40" cy="40" r="40" transform="translate(9 6)"/></g><path class="b" d="M29.279,9.573a10.091,10.091,0,0,1,7.972,7.972M29.279,1.5A18.163,18.163,0,0,1,45.323,17.524m-2.018,16.1v6.054a4.036,4.036,0,0,1-4.4,4.036,39.939,39.939,0,0,1-17.417-6.2A39.354,39.354,0,0,1,9.38,25.415a39.939,39.939,0,0,1-6.2-17.5A4.036,4.036,0,0,1,7.2,3.518h6.054a4.036,4.036,0,0,1,4.036,3.471A25.913,25.913,0,0,0,18.7,12.66a4.036,4.036,0,0,1-.908,4.258l-2.563,2.563A32.29,32.29,0,0,0,27.342,31.591L29.9,29.028a4.036,4.036,0,0,1,4.258-.908,25.913,25.913,0,0,0,5.671,1.413A4.036,4.036,0,0,1,43.305,33.629Z" transform="translate(386.922 107.678)"/></g></svg>