<svg xmlns="http://www.w3.org/2000/svg" width="17.102" height="17.153" viewBox="0 0 17.102 17.153"><defs><style>.a{fill:#fff;}</style></defs><g transform="translate(-10.001 -9.959)"><path class="a" d="M20.262,18.536l6.475-6.414a1.283,1.283,0,0,0,.122-1.649,1.161,1.161,0,0,0-1.832-.122l-6.475,6.475-6.475-6.475a1.161,1.161,0,0,0-1.832.122,1.283,1.283,0,0,0,.122,1.649l6.475,6.414-6.475,6.414a1.283,1.283,0,0,0-.122,1.649,1.161,1.161,0,0,0,1.832.122l6.475-6.475,6.475,6.475a1.161,1.161,0,0,0,1.832-.122,1.283,1.283,0,0,0-.122-1.649Z"/></g></svg>