<svg xmlns="http://www.w3.org/2000/svg" width="26.941" height="28.214" viewBox="0 0 26.941 28.214"><defs><style>.a{fill:#0091da;}</style></defs><path class="a" d="M24.824,24.282A1.282,1.282,0,0,0,23.542,23H13.282a1.282,1.282,0,1,0,0,2.565h10.26A1.282,1.282,0,0,0,24.824,24.282Z" transform="translate(-6.87 -9.534)"/><path class="a" d="M13.282,31a1.282,1.282,0,1,0,0,2.565h5.13a1.282,1.282,0,1,0,0-2.565Z" transform="translate(-6.87 -12.405)"/><path class="a" d="M24.519,28.367H6.565V6.565h6.412A1.282,1.282,0,0,0,14.26,5.282h0A1.282,1.282,0,0,0,12.977,4H5.282A1.282,1.282,0,0,0,4,5.282V29.649a1.282,1.282,0,0,0,1.282,1.282H25.8a1.282,1.282,0,0,0,1.282-1.282V19.389A1.282,1.282,0,0,0,25.8,18.107h0a1.282,1.282,0,0,0-1.282,1.282Z" transform="translate(-4 -2.718)"/><path class="a" d="M33.417,15.209l-3.27-3.27a6.22,6.22,0,0,0,1.09-3.527,6.412,6.412,0,1,0-12.824,0,6.348,6.348,0,0,0,.321,1.924h-5.45a1.282,1.282,0,1,0,0,2.565h6.989a6.476,6.476,0,0,0,4.553,1.924,6.22,6.22,0,0,0,3.527-1.09L31.621,17a1.27,1.27,0,1,0,1.8-1.8Zm-12.44-6.8a3.847,3.847,0,1,1,3.847,3.847,3.847,3.847,0,0,1-3.847-3.847Z" transform="translate(-6.87 -2)"/></svg>