<svg xmlns="http://www.w3.org/2000/svg" width="26.897" height="28.214" viewBox="0 0 26.897 28.214"><defs><style>.a{fill:#00c4d9;}</style></defs><path class="a" d="M611.76-171.833a.955.955,0,0,1-.926-.984.951.951,0,0,1,.954-.926H614.5a.963.963,0,0,1,.955.986.952.952,0,0,1-.955.926H611.76Z" transform="translate(-606.269 194.785)"/><path class="a" d="M611.76-175.171a.957.957,0,0,1-.926-.984.95.95,0,0,1,.954-.926h7.971a.962.962,0,0,1,.955.984.95.95,0,0,1-.954.926h-8Z" transform="translate(-606.269 194.178)"/><path class="a" d="M611.815-178.511a.954.954,0,0,1-.915-.925.957.957,0,0,1,.926-.984h7.88a.955.955,0,0,1,.915.925.957.957,0,0,1-.921.984Z" transform="translate(-606.257 193.571)"/><path class="a" d="M628.338-167.849a.958.958,0,0,1-.927-.984V-186.3h-16.18a.964.964,0,0,1-.955-.986.95.95,0,0,1,.955-.925h16.6a1.533,1.533,0,0,1,1.078.49,1.537,1.537,0,0,1,.416,1.11v17.831a.952.952,0,0,1-.955.93Z" transform="translate(-606.37 192.156)"/><path class="a" d="M631.676-171.188a.955.955,0,0,1-.925-.984v-17.466H614.57a.966.966,0,0,1-.7-.3.949.949,0,0,1-.259-.684.95.95,0,0,1,.954-.926h16.6a1.537,1.537,0,0,1,1.079.49,1.539,1.539,0,0,1,.415,1.108s0,17.815,0,17.832a.952.952,0,0,1-.955.93Z" transform="translate(-605.764 191.549)"/><path class="a" d="M607.926-164.549a.957.957,0,0,1-.955-.956v-18.411a.957.957,0,0,1,.955-.956h17.1a.956.956,0,0,1,.955.956V-165.5a.956.956,0,0,1-.955.956Zm.955-1.911h15.186v-16.5H608.881Z" transform="translate(-606.971 192.762)"/></svg>