<svg xmlns="http://www.w3.org/2000/svg" width="26.76" height="29.442" viewBox="0 0 26.76 29.442"><defs><style>.a{fill:#7c69c3;}</style></defs><g transform="translate(-4 -1.996)"><path class="a" d="M29.622,2.668a1.338,1.338,0,0,0-1.539,1.338V6.615a14.718,14.718,0,0,0-21.474.067H5.338A1.338,1.338,0,0,0,4,8.02v6.69a1.338,1.338,0,0,0,1.338,1.338h6.69a1.338,1.338,0,0,0,1.338-1.338V8.02a1.338,1.338,0,0,0-1.338-1.338H10.757A11.908,11.908,0,0,1,17.38,4.675a12.042,12.042,0,0,1,8.964,4.014H23.467a1.4,1.4,0,0,0-1.4,1.137A1.338,1.338,0,0,0,23.4,11.364h6.021a1.338,1.338,0,0,0,1.338-1.338V4.073a1.4,1.4,0,0,0-1.137-1.4ZM10.69,13.371H6.676V9.358H10.69Z" transform="translate(0 0)"/><path class="a" d="M29.421,27h-6.69a1.338,1.338,0,0,0-1.338,1.338v6.69a1.2,1.2,0,0,0,.535,1.07,11.506,11.506,0,0,1-4.549.937,12.042,12.042,0,0,1-8.964-4.014h2.877a1.4,1.4,0,0,0,1.4-1.137,1.338,1.338,0,0,0-1.338-1.539H5.338A1.338,1.338,0,0,0,4,31.683v5.954a1.4,1.4,0,0,0,1.137,1.4A1.338,1.338,0,0,0,6.676,37.7V35.095a14.651,14.651,0,0,0,20,1.271h2.743a1.338,1.338,0,0,0,1.338-1.338v-6.69A1.338,1.338,0,0,0,29.421,27Zm-5.352,2.676h4.014V33.69H24.069Z" transform="translate(0 -8.277)"/></g></svg>