<svg xmlns="http://www.w3.org/2000/svg" width="24.93" height="29.231" viewBox="0 0 24.93 29.231"><defs><style>.a{fill:#00c4d9;}</style></defs><path class="a" d="M1.013,29.231A1.012,1.012,0,0,1,0,28.218V22.354l.453-.3a22.584,22.584,0,0,1,11.975-3.438h.129a21.954,21.954,0,0,1,11.921,3.514l.453.248v5.842a1.012,1.012,0,0,1-1.013,1.013Zm11.457-8.59A20.762,20.762,0,0,0,2.242,23.346l-.216.119V27.2H22.915V23.54l-.2-.119a20.106,20.106,0,0,0-10.2-2.781Zm0-5.723a7.459,7.459,0,1,1,7.459-7.459A7.468,7.468,0,0,1,12.471,14.917Zm0-12.891A5.432,5.432,0,1,0,17.9,7.459,5.437,5.437,0,0,0,12.471,2.026Z"/></svg>