<svg xmlns="http://www.w3.org/2000/svg" xmlns:xlink="http://www.w3.org/1999/xlink" width="98" height="98" viewBox="0 0 98 98"><defs><style>.a{fill:#00c4d9;}.b{fill:#fff;}.c{filter:url(#a);}</style><filter id="a" x="0" y="0" width="98" height="98" filterUnits="userSpaceOnUse"><feOffset dy="3" input="SourceAlpha"/><feGaussianBlur stdDeviation="3" result="b"/><feFlood flood-opacity="0.161"/><feComposite operator="in" in2="b"/><feComposite in="SourceGraphic"/></filter></defs><g transform="translate(-364 -83)"><g transform="translate(373 89)"><g class="c" transform="matrix(1, 0, 0, 1, -9, -6)"><circle class="a" cx="40" cy="40" r="40" transform="translate(9 6)"/></g><g transform="translate(10.92 11.289)"><g transform="translate(0 0)"><path class="b" d="M747.413,89.954h0l0,0-3.713-.53a.955.955,0,0,1-.438-1.709l3-2.251a.954.954,0,0,0,.191-1.337l-3.436-4.582a.954.954,0,0,0-1.336-.191l-3,2.251a.955.955,0,0,1-1.522-.9l.531-3.713a.955.955,0,0,0-.81-1.08h0l-5.666-.809a.955.955,0,0,0-1.081.809h0l-.531,3.713a.955.955,0,0,1-1.709.438l-2.25-3a.954.954,0,0,0-1.336-.191l-2.868,2.152a18.492,18.492,0,0,0-3.9,0A18.137,18.137,0,0,0,701.54,95.287c-.026.27-.035.538-.049.807h-.286a.955.955,0,0,0-.934.764l-.66,3.137-2.642-1.822a.954.954,0,0,0-1.217.111l-2.864,2.864a.954.954,0,0,0-.111,1.216L694.592,105l-3.138.66a.954.954,0,0,0-.75.934v3.818a.955.955,0,0,0,.758.935l3.138.659-1.814,2.638a.955.955,0,0,0,.111,1.216l2.864,2.864a.955.955,0,0,0,1.217.111l2.638-1.818.659,3.138a.955.955,0,0,0,.934.764h3.818a.954.954,0,0,0,.934-.758l.66-3.138,2.637,1.814a.955.955,0,0,0,1.216-.111l1.482-1.487v2.721a3.806,3.806,0,0,0,1.909,3.288v5.3a3.818,3.818,0,0,0,3.818,3.818H721.5a3.818,3.818,0,0,0,3.818-3.818v-5.3a3.805,3.805,0,0,0,1.909-3.288V116.18a4.677,4.677,0,0,1,2.208-3.9,18.292,18.292,0,0,0,2.247-1.718l-1.273-1.422a16.27,16.27,0,0,1-2.011,1.538,6.575,6.575,0,0,0-3.079,5.5v3.778a1.909,1.909,0,0,1-1.909,1.909h-7.636a1.909,1.909,0,0,1-1.909-1.909V116.1a6.422,6.422,0,0,0-3.028-5.388,16.179,16.179,0,0,1,8.55-29.878,1.04,1.04,0,0,0-.037.1.955.955,0,0,0,.182.707l2.25,3a.935.935,0,0,1,.057,1.059.949.949,0,0,1-.955.459l-3.713-.531a.955.955,0,0,0-1.08.809h0l-.81,5.669a.955.955,0,0,0,.809,1.08h0l3.713.531a.954.954,0,0,1,.438,1.709l-3,2.25a.954.954,0,0,0-.191,1.336l3.436,4.582a.954.954,0,0,0,1.336.191l3-2.25a.955.955,0,0,1,1.517.9l-.53,3.713a.955.955,0,0,0,.809,1.081h0l5.67.811a1.078,1.078,0,0,0,.135.008.954.954,0,0,0,.946-.819l.53-3.713a.954.954,0,0,1,1.709-.438l2.251,3a.954.954,0,0,0,1.336.191l4.582-3.436a.955.955,0,0,0,.191-1.337l-2.25-3a.938.938,0,0,1-.057-1.059.927.927,0,0,1,.954-.458l3.713.53a.954.954,0,0,0,1.08-.809h0l.81-5.67A.955.955,0,0,0,747.413,89.954Zm-31.638,33.822h7.636v1.909h-7.636Zm0,3.818h7.636v.954a1.909,1.909,0,0,1-1.909,1.909h-3.818a1.909,1.909,0,0,1-1.909-1.909Zm-7.6-16.462a18.035,18.035,0,0,0,1.631,1.188,4.661,4.661,0,0,1,1.923,2.443l-2.048,2.044-1.983-1.367a1.909,1.909,0,0,0-2.952,1.179l-.5,2.383h-2.269l-.5-2.38a1.909,1.909,0,0,0-2.951-1.179l-1.984,1.363-1.739-1.735,1.366-1.982a1.91,1.91,0,0,0-1.178-2.953l-2.38-.5v-2.268l2.38-.5a1.909,1.909,0,0,0,1.179-2.947l-1.367-1.987,1.739-1.735,1.985,1.367a1.909,1.909,0,0,0,2.95-1.18l.167-.794a18.158,18.158,0,0,0,.757,3.237,5.727,5.727,0,1,0,5.772,8.3Zm-1.483-1.345a3.813,3.813,0,1,1-3.58-5.1h.036A18.084,18.084,0,0,0,706.693,109.788Zm38.96-14.3-2.768-.4a2.864,2.864,0,0,0-2.7,4.553l1.677,2.237-3.055,2.291-1.678-2.236a2.864,2.864,0,0,0-5.126,1.313l-.387,2.772-3.779-.54.4-2.768a2.864,2.864,0,0,0-4.553-2.7l-2.236,1.677-2.291-3.055,2.236-1.678a2.864,2.864,0,0,0-1.313-5.126l-2.768-.4.54-3.779,2.768.4a2.864,2.864,0,0,0,2.7-4.553l-1.683-2.238,3.055-2.291,1.678,2.237a2.864,2.864,0,0,0,5.126-1.313l.4-2.768,3.779.539-.4,2.768a2.864,2.864,0,0,0,4.553,2.7l2.237-1.677,2.291,3.055-2.237,1.678a2.864,2.864,0,0,0,1.313,5.126l2.768.4Z" transform="translate(-690.704 -75.093)"/></g></g><g transform="translate(41.778 22.515)"><g transform="translate(0)"><path class="b" d="M828.805,109.626a7.637,7.637,0,1,0,7.637,7.637A7.637,7.637,0,0,0,828.805,109.626Zm0,13.364a5.727,5.727,0,1,1,5.728-5.727A5.727,5.727,0,0,1,828.805,122.99Z" transform="translate(-821.169 -109.626)"/></g></g><g transform="translate(38.7 50.719)"><g transform="translate(0 0)"><rect class="b" width="1.909" height="2.864"/></g></g><g transform="translate(27.51 22.701)"><g transform="translate(0)"><path class="b" d="M760.494,138.651a11.455,11.455,0,0,1-1.934-20.364l-1.02-1.615a13.364,13.364,0,0,0,2.261,23.755,6.094,6.094,0,0,1,3.914,5.689h1.909A7.987,7.987,0,0,0,760.494,138.651Z" transform="translate(-751.298 -116.672)"/></g></g><g transform="translate(53.948 45.28)"><rect class="b" width="6.682" height="1.909"/></g><g transform="translate(52.629 48.935)"><g transform="translate(0 0)"><rect class="b" width="1.909" height="7.455" transform="translate(0 1.467) rotate(-50.201)"/></g></g><g transform="translate(49.792 51.052)"><g transform="translate(0 0)"><rect class="b" width="1.909" height="6.682"/></g></g><g transform="translate(16.09 27.759)"><g transform="translate(0 0)"><rect class="b" width="7.871" height="1.908" transform="translate(0 1.909) rotate(-14.035)"/></g></g><g transform="translate(17.4 19.874)"><g transform="translate(0 0)"><rect class="b" width="1.908" height="8.211" transform="matrix(0.581, -0.814, 0.814, 0.581, 0, 1.553)"/></g></g><g transform="translate(24.326 15.541)"><g transform="translate(0 0)"><rect class="b" width="1.909" height="7.882" transform="translate(0 0.473) rotate(-14.342)"/></g></g></g></g></svg>