<svg xmlns="http://www.w3.org/2000/svg" xmlns:xlink="http://www.w3.org/1999/xlink" width="98" height="98" viewBox="0 0 98 98"><defs><style>.a{fill:#7c69c3;}.b{fill:#fff;}.c{filter:url(#a);}</style><filter id="a" x="0" y="0" width="98" height="98" filterUnits="userSpaceOnUse"><feOffset dy="3" input="SourceAlpha"/><feGaussianBlur stdDeviation="3" result="b"/><feFlood flood-opacity="0.161"/><feComposite operator="in" in2="b"/><feComposite in="SourceGraphic"/></filter></defs><g transform="translate(-230 -78)"><g class="c" transform="matrix(1, 0, 0, 1, 230, 78)"><circle class="a" cx="40" cy="40" r="40" transform="translate(9 6)"/></g><g transform="translate(258.195 101.411)"><g transform="translate(0 0)"><path class="b" d="M834.121,646.553a1.525,1.525,0,0,1-1.522-1.522V643.7h-8.466l-.5,1.749a1.537,1.537,0,0,1-1.462,1.1h-2.8a1.523,1.523,0,0,1-1.464-1.94l2.3-8.046h-3.949a1.5,1.5,0,0,1-1.5-1.5V633.59a1.5,1.5,0,0,1,1.426-1.5v-19.3a.809.809,0,0,1,1.618,0v19.3h35.476V606.607H817.81v3.606a.809.809,0,0,1-1.618,0v-3.608a1.5,1.5,0,0,1-1.426-1.5V603.63a1.5,1.5,0,0,1,1.5-1.5h38.568a1.5,1.5,0,0,1,1.5,1.494v1.479a1.5,1.5,0,0,1-1.426,1.5V632.09a1.5,1.5,0,0,1,1.426,1.5v1.478a1.5,1.5,0,0,1-1.5,1.5h-3.95l2.3,8.046a1.522,1.522,0,0,1-1.463,1.94h-2.8a1.537,1.537,0,0,1-1.463-1.1l-.5-1.75H838.5v1.336a1.525,1.525,0,0,1-1.522,1.522Zm.1-1.621h2.662V643.7h-2.662Zm-12.119,0,2.39-8.352h-2.6l-2.391,8.352Zm29.5,0-2.391-8.353h-2.6L849,644.93Zm-5.1-2.852-.354-1.236H824.951l-.354,1.236Zm-13.9-2.852v-2.663H829.89a.809.809,0,0,1,0-1.617h24.822v-1.238H816.384v1.238h10.925a.809.809,0,0,1,0,1.617h-1.131l-.763,2.663Zm4.28,0v-2.646h-2.662v2.646Zm8.8,0-.765-2.663H838.5v2.663Zm9.03-34.24v-1.238H816.384v1.238Z" transform="translate(-814.766 -602.132)"/><path class="b" d="M843.275,681.05a2.235,2.235,0,1,1,2.235-2.235A2.237,2.237,0,0,1,843.275,681.05Zm0-2.85a.615.615,0,1,0,.615.615A.616.616,0,0,0,843.275,678.2Z" transform="translate(-832.48 -652.327)"/><path class="b" d="M904.587,624.276a2.235,2.235,0,1,1,1.58-.655,2.24,2.24,0,0,1-1.58.655Zm0-2.853a.615.615,0,1,0,.615.615A.616.616,0,0,0,904.587,621.423Z" transform="translate(-873.818 -614.048)"/><path class="b" d="M846.228,666.49a.81.81,0,0,1-.808-.8v-1.428a.809.809,0,0,1,1.617,0v1.428a.812.812,0,0,1-.8.8Z" transform="translate(-835.434 -643.477)"/><path class="b" d="M846.224,653.356a.809.809,0,0,1-.809-.809V651.12a.809.809,0,0,1,1.618,0v1.428A.809.809,0,0,1,846.224,653.356Z" transform="translate(-835.43 -634.618)"/><path class="b" d="M841.85,637.258a.809.809,0,0,1-.571-1.381l.855-.854-.855-.855a.809.809,0,0,1,1.14-1.146l.858.857.854-.854a.809.809,0,1,1,1.144,1.144l-.855.855.855.854a.809.809,0,1,1-1.144,1.144l-.854-.855-.855.855A.8.8,0,0,1,841.85,637.258Z" transform="translate(-832.482 -622.8)"/><path class="b" d="M870.979,665.724a.8.8,0,0,1-.572-.237l-.854-.855-.855.855a.809.809,0,0,1-1.144-1.144l.855-.854-.855-.855a.809.809,0,1,1,1.144-1.144l.854.854.855-.854a.808.808,0,0,1,1.092-.048h.1v.1a.809.809,0,0,1-.048,1.092l-.855.855.855.854a.809.809,0,0,1-.572,1.381Z" transform="translate(-850.197 -641.993)"/><path class="b" d="M906.011,665.724a.8.8,0,0,1-.572-.237l-.855-.855-.855.855a.809.809,0,0,1-1.144-1.144l.855-.854-.855-.855a.809.809,0,1,1,1.144-1.144l.855.854.855-.854a.809.809,0,0,1,1.144,1.144l-.855.855.855.854a.809.809,0,0,1-.572,1.381Z" transform="translate(-873.817 -641.993)"/><path class="b" d="M854.987,642.993a.809.809,0,1,1,0-1.617h16.308v-1.554l-.047.046a.809.809,0,0,1-1.146-1.141l1.43-1.429a.808.808,0,0,1,1.143,0l1.427,1.427a.809.809,0,1,1-1.144,1.144l-.046-.046v2.362a.809.809,0,0,1-.809.809Z" transform="translate(-841.339 -625.682)"/></g></g></g></svg>